<svg width="15" height="22" viewBox="0 0 15 22" fill="none" xmlns="http://www.w3.org/2000/svg">
<path d="M13.83 8.44012C13.7383 8.30441 13.6146 8.19331 13.4699 8.11659C13.3252 8.03987 13.1638 7.99988 13 8.00012H10V6.00012H12.2C12.4652 6.00012 12.7196 5.89476 12.9071 5.70723C13.0946 5.51969 13.2 5.26534 13.2 5.00012V1.00012C13.2 0.734906 13.0946 0.480552 12.9071 0.293015C12.7196 0.105479 12.4652 0.00012207 12.2 0.00012207H9C7.46174 0.00012207 5.98649 0.611192 4.89878 1.6989C3.81107 2.78661 3.2 4.26187 3.2 5.80012V8.00012H1C0.734784 8.00012 0.48043 8.10548 0.292893 8.29302C0.105357 8.48055 0 8.73491 0 9.00012V13.0001C0 13.2653 0.105357 13.5197 0.292893 13.7072C0.48043 13.8948 0.734784 14.0001 1 14.0001H3.2V21.0001C3.2 21.2653 3.30536 21.5197 3.49289 21.7072C3.68043 21.8948 3.93478 22.0001 4.2 22.0001H9C9.26522 22.0001 9.51957 21.8948 9.70711 21.7072C9.89464 21.5197 10 21.2653 10 21.0001V14.0001H11.4C11.6003 14.0003 11.796 13.9404 11.9618 13.828C12.1276 13.7157 12.2559 13.5562 12.33 13.3701L13.93 9.37012C13.9904 9.2187 14.0129 9.0548 13.9954 8.89271C13.978 8.73062 13.9212 8.57524 13.83 8.44012ZM10.72 12.0001H9C8.73478 12.0001 8.48043 12.1055 8.29289 12.293C8.10536 12.4806 8 12.7349 8 13.0001V20.0001H5.2V13.0001C5.2 12.7349 5.09464 12.4806 4.90711 12.293C4.71957 12.1055 4.46522 12.0001 4.2 12.0001H2V10.0001H4.2C4.46522 10.0001 4.71957 9.89476 4.90711 9.70723C5.09464 9.51969 5.2 9.26534 5.2 9.00012V5.80012C5.20264 4.79311 5.60384 3.8281 6.31591 3.11603C7.02798 2.40397 7.99299 2.00276 9 2.00012H11.2V4.00012H10.4C10.0614 3.9508 9.71631 3.9715 9.38605 4.06094C9.0558 4.15039 8.74741 4.30667 8.48 4.52012C8.31772 4.69002 8.19153 4.89102 8.10903 5.11101C8.02654 5.331 7.98945 5.56541 8 5.80012V9.00012C8 9.26534 8.10536 9.51969 8.29289 9.70723C8.48043 9.89476 8.73478 10.0001 9 10.0001H11.52L10.72 12.0001Z" fill="white"/>
</svg>
