<svg width="20" height="20" viewBox="0 0 20 20" fill="none" xmlns="http://www.w3.org/2000/svg">
<path d="M10 5.00012C9.01109 5.00012 8.04439 5.29337 7.22215 5.84277C6.3999 6.39218 5.75904 7.17307 5.3806 8.08671C5.00216 9.00034 4.90315 10.0057 5.09607 10.9756C5.289 11.9455 5.7652 12.8364 6.46447 13.5357C7.16373 14.2349 8.05464 14.7111 9.02455 14.904C9.99445 15.097 10.9998 14.998 11.9134 14.6195C12.827 14.2411 13.6079 13.6002 14.1573 12.778C14.7068 11.9557 15 10.989 15 10.0001C15 8.67404 14.4732 7.40227 13.5355 6.46459C12.5979 5.52691 11.3261 5.00012 10 5.00012ZM10 13.0001C9.40666 13.0001 8.82664 12.8242 8.33329 12.4945C7.83994 12.1649 7.45542 11.6964 7.22836 11.1482C7.0013 10.6 6.94189 9.99679 7.05764 9.41485C7.1734 8.83291 7.45912 8.29836 7.87868 7.8788C8.29824 7.45924 8.83279 7.17352 9.41473 7.05777C9.99667 6.94201 10.5999 7.00142 11.1481 7.22848C11.6962 7.45555 12.1648 7.84006 12.4944 8.33341C12.8241 8.82676 13 9.40678 13 10.0001C13 10.7958 12.6839 11.5588 12.1213 12.1214C11.5587 12.6841 10.7956 13.0001 10 13.0001ZM15 4.00012C14.8022 4.00012 14.6089 4.05877 14.4444 4.16865C14.28 4.27853 14.1518 4.43471 14.0761 4.61744C14.0004 4.80016 13.9806 5.00123 14.0192 5.19521C14.0578 5.38919 14.153 5.56738 14.2929 5.70723C14.4327 5.84708 14.6109 5.94232 14.8049 5.98091C14.9989 6.01949 15.2 5.99969 15.3827 5.924C15.5654 5.84831 15.7216 5.72014 15.8315 5.55569C15.9414 5.39124 16 5.1979 16 5.00012C16 4.73491 15.8946 4.48055 15.7071 4.29302C15.5196 4.10548 15.2652 4.00012 15 4.00012ZM19.94 6.24012C19.9234 5.38555 19.7611 4.54007 19.46 3.74012C19.1808 3.01219 18.7516 2.35111 18.2003 1.79982C17.649 1.24853 16.9879 0.819338 16.26 0.540122C15.4601 0.239021 14.6146 0.0766897 13.76 0.060122C12.79 0.000122014 12.47 0.00012207 10 0.00012207C7.53 0.00012207 7.21 0.000122014 6.24 0.060122C5.38542 0.0766897 4.53995 0.239021 3.74 0.540122C3.01207 0.819338 2.35099 1.24853 1.7997 1.79982C1.2484 2.35111 0.819216 3.01219 0.54 3.74012C0.238899 4.54007 0.0765676 5.38555 0.0599999 6.24012C-5.58794e-08 7.22012 0 7.54012 0 10.0001C0 12.4601 -5.58794e-08 12.7801 0.0599999 13.7601C0.0765676 14.6147 0.238899 15.4602 0.54 16.2601C0.819216 16.9881 1.2484 17.6491 1.7997 18.2004C2.35099 18.7517 3.01207 19.1809 3.74 19.4601C4.53995 19.7612 5.38542 19.9236 6.24 19.9401C7.24 19.9401 7.53 20.0001 10 20.0001C12.47 20.0001 12.79 20.0001 13.76 19.9401C14.6146 19.9236 15.4601 19.7612 16.26 19.4601C16.9879 19.1809 17.649 18.7517 18.2003 18.2004C18.7516 17.6491 19.1808 16.9881 19.46 16.2601C19.7611 15.4602 19.9234 14.6147 19.94 13.7601C19.94 12.7601 20 12.4601 20 10.0001C20 7.54012 20 7.22012 19.94 6.24012ZM17.94 13.6701C17.9225 14.3047 17.8043 14.9325 17.59 15.5301C17.4128 16.0025 17.1327 16.4295 16.77 16.7801C16.4214 17.143 15.9936 17.4202 15.52 17.5901C14.921 17.8132 14.289 17.9349 13.65 17.9501C12.71 17.9501 12.42 18.0001 9.99 18.0001C7.56 18.0001 7.28 18.0001 6.34 18.0001C5.70202 17.9837 5.07075 17.8655 4.47 17.6501C3.99766 17.4729 3.57067 17.1928 3.22 16.8301C2.85715 16.4815 2.57992 16.0537 2.41 15.5801C2.1878 14.9843 2.06615 14.3558 2.05 13.7201C2.05 12.7201 2.05 12.4701 2.05 10.0501C2.05 7.63012 2.05 7.34012 2.05 6.38012C2.06724 5.74133 2.18884 5.10966 2.41 4.51012C2.58256 4.04075 2.85953 3.61674 3.22 3.27012C3.56858 2.90728 3.99641 2.63004 4.47 2.46012C5.06899 2.23702 5.70099 2.11535 6.34 2.10012C7.28 2.00012 7.57 2.00012 10 2.00012C12.43 2.00012 12.72 2.00012 13.66 2.00012C14.3021 2.01645 14.9373 2.13807 15.54 2.36012C16.0094 2.53268 16.4334 2.80965 16.78 3.17012C17.1428 3.5187 17.4201 3.94653 17.59 4.42012C17.8348 5.02869 17.9735 5.67471 18 6.33012C18 7.33012 18.05 7.58012 18.05 10.0001C18.05 12.4201 18 12.7101 18 13.6701H17.94Z" fill="white"/>
</svg>
