<svg width="20" height="17" viewBox="0 0 20 17" fill="none" xmlns="http://www.w3.org/2000/svg">
<path d="M13.4 8.16017L8.5 5.00017C8.34798 4.9124 8.17554 4.8662 8 4.8662C7.82446 4.8662 7.65202 4.9124 7.5 5.00017C7.35174 5.08569 7.22791 5.20784 7.14036 5.35491C7.05282 5.50199 7.00449 5.66907 7 5.84017V12.1602C7.0013 12.3384 7.05019 12.513 7.14161 12.6659C7.23303 12.8189 7.36367 12.9446 7.52 13.0302C7.66543 13.1158 7.83123 13.1607 8 13.1602C8.17714 13.148 8.34869 13.0931 8.5 13.0002L13.4 9.84017C13.5403 9.74952 13.6557 9.62514 13.7356 9.4784C13.8155 9.33167 13.8574 9.16725 13.8574 9.00017C13.8574 8.83309 13.8155 8.66867 13.7356 8.52194C13.6557 8.3752 13.5403 8.25083 13.4 8.16017ZM9 10.3202V7.68017L11 9.00017L9 10.3202ZM17.38 1.51017L15.83 1.31017C11.991 0.840132 8.109 0.840132 4.27 1.31017L2.72 1.51017C1.97471 1.59128 1.2854 1.94404 0.783675 2.5011C0.281954 3.05816 0.0029736 3.78049 0 4.53017V13.4702C0.00635666 14.2087 0.280506 14.9199 0.771546 15.4716C1.26259 16.0234 1.93715 16.3782 2.67 16.4702L4.22 16.6602C6.13776 16.8932 8.06815 17.0068 10 17.0002C11.9323 17.0001 13.8627 16.8799 15.78 16.6402L17.33 16.4502C18.0628 16.3582 18.7374 16.0034 19.2285 15.4516C19.7195 14.8999 19.9936 14.1887 20 13.4502V4.53017C19.9985 3.78815 19.7265 3.07213 19.235 2.51621C18.7435 1.9603 18.0662 1.60262 17.33 1.51017H17.38ZM18.05 13.5102C18.0508 13.7621 17.9565 14.005 17.7859 14.1904C17.6154 14.3758 17.3811 14.49 17.13 14.5102L15.58 14.7002C11.9077 15.1602 8.19232 15.1602 4.52 14.7002L2.97 14.5102C2.71889 14.49 2.48463 14.3758 2.31406 14.1904C2.1435 14.005 2.04919 13.7621 2.05 13.5102V4.53017C2.06192 4.28212 2.16055 4.04613 2.32869 3.86337C2.49683 3.68061 2.7238 3.56269 2.97 3.53017L4.47 3.30017C8.14273 2.84682 11.8573 2.84682 15.53 3.30017L17.08 3.49017C17.3262 3.52268 17.5532 3.64061 17.7213 3.82337C17.8894 4.00613 17.9881 4.24212 18 4.49017L18.05 13.5102Z" fill="white"/>
</svg>
