<svg width="18" height="39" viewBox="0 0 18 39" fill="none" xmlns="http://www.w3.org/2000/svg">
<path d="M9.56439 29.6966C9.01073 29.2142 8.55762 28.2184 8.55762 27.4837V1.96038C8.55762 1.22601 7.95693 0.625305 7.22255 0.625305H5.51012C4.77575 0.625305 4.17505 1.22599 4.17505 1.96038L4.17475 27.4829C4.17475 28.2179 3.70361 29.1915 3.12808 29.6476C3.12808 29.6476 0.667969 31.5957 0.667969 33.4378C0.667969 36.2815 3.1704 38.5869 6.2572 38.5869C9.34346 38.5869 11.8456 36.2812 11.8456 33.4378C11.8456 31.6842 9.5644 29.6961 9.5644 29.6961L9.56439 29.6966Z" fill="#5A4596"/>
<path d="M8.00132 8.04155C8.00132 8.77592 7.40062 9.37662 6.66622 9.37662H6.08149C5.34711 9.37662 4.74639 8.77593 4.74639 8.04155L4.74609 2.54015C4.74609 1.80578 5.34679 1.20508 6.08119 1.20508H6.66592C7.40031 1.20508 8.00102 1.80576 8.00102 2.54015L8.00132 8.04155Z" fill="#5A4596"/>
<path d="M15.2257 24.0362C15.2257 25.2972 14.2045 26.3188 12.9428 26.3188C11.6811 26.3188 10.6602 25.2975 10.6602 24.0362L12.9121 19.9272L15.2257 24.0362Z" fill="#5A4596"/>
<path d="M17.6843 27.7711C17.6769 28.5031 17.0789 29.0902 16.3463 29.0831C15.6155 29.0766 15.0278 28.4783 15.0352 27.746L16.3647 25.374L17.6843 27.7711Z" fill="#5A4596"/>
<path d="M17.1999 21.9154C17.1961 22.3517 16.8391 22.7019 16.4031 22.6974C15.9675 22.6933 15.6164 22.3366 15.6211 21.9007L16.4144 20.4863L17.1999 21.9154Z" fill="#5A4596"/>
<path d="M9.51652 34.4953C9.47304 34.4947 9.5109 34.4944 9.60051 34.4944C9.68895 34.4944 9.49641 35.0339 9.17166 35.6925L9.06578 35.907C8.74163 36.5656 7.99366 37.1051 7.40422 37.1051H6.33149H5.25968C4.67023 37.1051 3.92226 36.5656 3.59751 35.907L3.49163 35.6925C3.16689 35.0339 2.97524 34.4944 3.06515 34.4944C3.15565 34.4944 3.83025 34.4944 4.56468 34.495L8.26107 34.4956C8.99485 34.4956 9.56033 34.4953 9.51657 34.4953H9.51652Z" fill="#5A4596"/>
<path d="M5.84734 33.9168C4.99646 33.8677 4.50992 33.5932 4.07456 32.7678C3.6392 31.9415 3.69155 31.6238 4.13076 30.6576L4.15767 30.6608C5.18277 30.8442 5.4717 30.9859 5.90206 31.806C6.33889 32.6309 6.28891 33.1884 5.84705 33.9162" fill="#5A4596"/>
<path d="M6.84173 31.5637C6.46255 31.5421 6.24575 31.4197 6.052 31.052C5.85827 30.6847 5.88134 30.5427 6.07744 30.1127L6.08867 30.1136C6.54534 30.1955 6.6743 30.2591 6.86508 30.6238C7.0591 30.9908 7.03692 31.2396 6.84023 31.5637" fill="#5A4596"/>
<path d="M7.33416 33.9168C6.94702 33.4416 6.85652 33.0491 7.08395 32.4165C7.31256 31.7842 7.50658 31.6585 8.23297 31.4225L8.24332 31.439C8.64436 32.0723 8.70794 32.2947 8.48318 32.921C8.25604 33.5534 7.93485 33.7964 7.33416 33.9151" fill="#5A4596"/>
</svg>
