<svg width="28" height="28" viewBox="0 0 28 28" fill="none" xmlns="http://www.w3.org/2000/svg">
<path d="M24.045 22.3885C24.7761 21.4085 25.2779 20.2767 25.5132 19.0768C25.7485 17.877 25.7114 16.6395 25.4046 15.4559C25.0977 14.2723 24.529 13.1727 23.7405 12.2382C22.9519 11.3038 21.9635 10.5583 20.8483 10.0568C20.6054 8.6593 20.0472 7.33551 19.216 6.18605C18.3848 5.03659 17.3025 4.09172 16.0514 3.42322C14.8003 2.75472 13.4133 2.38019 11.9957 2.32808C10.5782 2.27597 9.1674 2.54765 7.8706 3.12249C6.57379 3.69732 5.42507 4.56019 4.51172 5.64551C3.59836 6.73084 2.94441 8.01007 2.59955 9.38601C2.25469 10.762 2.22799 12.1984 2.52148 13.5862C2.81497 14.974 3.42093 16.2767 4.29332 17.3952L2.67166 19.0052C2.50977 19.1692 2.40011 19.3776 2.35651 19.6039C2.3129 19.8302 2.33731 20.0644 2.42666 20.2768C2.51418 20.4899 2.66281 20.6723 2.85382 20.801C3.04482 20.9297 3.26966 20.999 3.49999 21.0002H10.1383C10.7994 22.3939 11.8417 23.5719 13.1445 24.3977C14.4474 25.2236 15.9574 25.6636 17.5 25.6669H24.5C24.7303 25.6657 24.9552 25.5964 25.1462 25.4677C25.3372 25.339 25.4858 25.1566 25.5733 24.9435C25.6627 24.7311 25.6871 24.4969 25.6435 24.2706C25.5999 24.0442 25.4902 23.8359 25.3283 23.6719L24.045 22.3885ZM9.33332 17.5002C9.33493 17.8909 9.36613 18.2809 9.42666 18.6669H6.31166L6.71999 18.2702C6.82934 18.1617 6.91613 18.0327 6.97536 17.8905C7.03459 17.7484 7.06509 17.5959 7.06509 17.4419C7.06509 17.2878 7.03459 17.1353 6.97536 16.9932C6.91613 16.851 6.82934 16.722 6.71999 16.6135C6.06614 15.9668 5.54778 15.1963 5.19522 14.3469C4.84266 13.4976 4.66297 12.5865 4.66666 11.6669C4.66666 9.81034 5.40415 8.02986 6.71691 6.7171C8.02966 5.40435 9.81014 4.66685 11.6667 4.66685C13.1153 4.65814 14.5302 5.10363 15.7126 5.94069C16.8949 6.77775 17.7852 7.96429 18.2583 9.33352C18.0017 9.33352 17.7567 9.33352 17.5 9.33352C15.3341 9.33352 13.2568 10.1939 11.7253 11.7255C10.1937 13.257 9.33332 15.3342 9.33332 17.5002ZM21.63 23.3335L21.6883 23.3918H17.5C16.1506 23.3894 14.8437 22.9193 13.802 22.0614C12.7604 21.2035 12.0484 20.011 11.7873 18.6871C11.5262 17.3631 11.7322 15.9896 12.3702 14.8005C13.0083 13.6115 14.0388 12.6803 15.2863 12.1658C16.5338 11.6513 17.9211 11.5852 19.2119 11.9789C20.5026 12.3725 21.617 13.2014 22.3652 14.3245C23.1133 15.4475 23.4489 16.7952 23.3149 18.138C23.1808 19.4808 22.5854 20.7355 21.63 21.6885C21.4102 21.9039 21.2844 22.1975 21.28 22.5052C21.2806 22.6595 21.3119 22.8122 21.372 22.9544C21.4321 23.0966 21.5198 23.2255 21.63 23.3335Z" fill="#5A4596"/>
</svg>
