<svg width="23" height="23" viewBox="0 0 23 23" fill="none" xmlns="http://www.w3.org/2000/svg">
<path d="M16.8454 7.84644H5.6362C5.33891 7.84644 5.0538 7.96454 4.84359 8.17475C4.63337 8.38497 4.51528 8.67008 4.51528 8.96736C4.51528 9.26465 4.63337 9.54976 4.84359 9.75997C5.0538 9.97019 5.33891 10.0883 5.6362 10.0883H16.8454C17.1427 10.0883 17.4278 9.97019 17.638 9.75997C17.8482 9.54976 17.9663 9.26465 17.9663 8.96736C17.9663 8.67008 17.8482 8.38497 17.638 8.17475C17.4278 7.96454 17.1427 7.84644 16.8454 7.84644ZM12.3617 12.3301H5.6362C5.33891 12.3301 5.0538 12.4482 4.84359 12.6584C4.63337 12.8686 4.51528 13.1538 4.51528 13.451C4.51528 13.7483 4.63337 14.0334 4.84359 14.2437C5.0538 14.4539 5.33891 14.572 5.6362 14.572H12.3617C12.659 14.572 12.9441 14.4539 13.1543 14.2437C13.3645 14.0334 13.4826 13.7483 13.4826 13.451C13.4826 13.1538 13.3645 12.8686 13.1543 12.6584C12.9441 12.4482 12.659 12.3301 12.3617 12.3301ZM11.2408 0C9.76878 0 8.31118 0.289935 6.95122 0.85325C5.59126 1.41656 4.35556 2.24223 3.31469 3.2831C1.21256 5.38523 0.0315947 8.23634 0.0315947 11.2092C0.0217954 13.7976 0.91801 16.3078 2.56487 18.3046L0.323034 20.5465C0.167498 20.7041 0.0621354 20.9043 0.020242 21.1217C-0.0216514 21.3392 0.0018012 21.5641 0.0876406 21.7683C0.180742 21.97 0.33167 22.1394 0.521265 22.2552C0.710861 22.3709 0.930574 22.4278 1.15251 22.4184H11.2408C14.2137 22.4184 17.0648 21.2374 19.1669 19.1353C21.269 17.0332 22.45 14.1821 22.45 11.2092C22.45 8.23634 21.269 5.38523 19.1669 3.2831C17.0648 1.18097 14.2137 0 11.2408 0V0ZM11.2408 20.1766H3.85393L4.89639 19.1341C5.10516 18.9241 5.22234 18.64 5.22234 18.3439C5.22234 18.0477 5.10516 17.7636 4.89639 17.5536C3.42864 16.0875 2.51463 14.1578 2.31008 12.0934C2.10553 10.0289 2.6231 7.95742 3.7746 6.23178C4.92611 4.50614 6.64031 3.23314 8.62515 2.62965C10.61 2.02616 12.7427 2.12953 14.6598 2.92214C16.577 3.71475 18.1601 5.14757 19.1393 6.97649C20.1185 8.8054 20.4333 10.9173 20.0301 12.9522C19.6268 14.9872 18.5305 16.8195 16.9278 18.1368C15.3252 19.4541 13.3154 20.1749 11.2408 20.1766V20.1766Z" fill="#5A4596"/>
</svg>
