<svg width="20" height="20" viewBox="0 0 20 20" fill="none" xmlns="http://www.w3.org/2000/svg">
<path d="M19.4092 6.64C19.4092 6.64 19.4092 6.64 19.4092 6.59C18.7046 4.66623 17.4261 3.00529 15.7467 1.83187C14.0673 0.658447 12.068 0.0291748 10.0192 0.0291748C7.97047 0.0291748 5.97115 0.658447 4.29173 1.83187C2.6123 3.00529 1.33382 4.66623 0.629219 6.59C0.629219 6.59 0.629219 6.59 0.629219 6.64C-0.157656 8.8109 -0.157656 11.1891 0.629219 13.36C0.629219 13.36 0.629219 13.36 0.629219 13.41C1.33382 15.3338 2.6123 16.9947 4.29173 18.1681C5.97115 19.3416 7.97047 19.9708 10.0192 19.9708C12.068 19.9708 14.0673 19.3416 15.7467 18.1681C17.4261 16.9947 18.7046 15.3338 19.4092 13.41C19.4092 13.41 19.4092 13.41 19.4092 13.36C20.1961 11.1891 20.1961 8.8109 19.4092 6.64ZM2.25922 12C1.91245 10.6892 1.91245 9.31079 2.25922 8H4.11922C3.95925 9.32854 3.95925 10.6715 4.11922 12H2.25922ZM3.07922 14H4.47922C4.71394 14.8918 5.04943 15.7541 5.47922 16.57C4.49852 15.9019 3.67872 15.0241 3.07922 14ZM4.47922 6H3.07922C3.67009 4.97909 4.47941 4.10147 5.44922 3.43C5.02977 4.24725 4.70436 5.10942 4.47922 6ZM8.99922 17.7C7.77098 16.7987 6.90837 15.4852 6.56922 14H8.99922V17.7ZM8.99922 12H6.13922C5.95261 10.6732 5.95261 9.32681 6.13922 8H8.99922V12ZM8.99922 6H6.56922C6.90837 4.51477 7.77098 3.20132 8.99922 2.3V6ZM16.9192 6H15.5192C15.2845 5.10816 14.949 4.24594 14.5192 3.43C15.4999 4.09807 16.3197 4.97594 16.9192 6ZM10.9992 2.3C12.2275 3.20132 13.0901 4.51477 13.4292 6H10.9992V2.3ZM10.9992 17.7V14H13.4292C13.0901 15.4852 12.2275 16.7987 10.9992 17.7ZM13.8592 12H10.9992V8H13.8592C14.0458 9.32681 14.0458 10.6732 13.8592 12ZM14.5492 16.57C14.979 15.7541 15.3145 14.8918 15.5492 14H16.9492C16.3497 15.0241 15.5299 15.9019 14.5492 16.57ZM17.7392 12H15.8792C15.9605 11.3365 16.0006 10.6685 15.9992 10C16.0003 9.33151 15.9602 8.66357 15.8792 8H17.7392C18.086 9.31079 18.086 10.6892 17.7392 12Z" fill="#5A4596"/>
</svg>
