<svg width="19" height="19" viewBox="0 0 19 19" fill="none" xmlns="http://www.w3.org/2000/svg">
<path d="M18.0574 2.1675C18.1589 2.03945 18.2226 1.88551 18.2412 1.72313C18.2597 1.56075 18.2324 1.39642 18.1624 1.24875C18.0915 1.09985 17.9799 0.974024 17.8406 0.88578C17.7012 0.797536 17.5398 0.750467 17.3749 0.75H1.62487C1.45995 0.750467 1.29851 0.797536 1.15918 0.88578C1.01985 0.974024 0.90829 1.09985 0.837373 1.24875C0.767323 1.39642 0.740031 1.56075 0.758589 1.72313C0.777147 1.88551 0.840813 2.03945 0.942373 2.1675L8.62487 11.775V16.5H3.59362C3.36156 16.5 3.139 16.5922 2.9749 16.7563C2.81081 16.9204 2.71862 17.1429 2.71862 17.375C2.71862 17.6071 2.81081 17.8296 2.9749 17.9937C3.139 18.1578 3.36156 18.25 3.59362 18.25H15.4061C15.6382 18.25 15.8607 18.1578 16.0248 17.9937C16.1889 17.8296 16.2811 17.6071 16.2811 17.375C16.2811 17.1429 16.1889 16.9204 16.0248 16.7563C15.8607 16.5922 15.6382 16.5 15.4061 16.5H10.3749V11.775L18.0574 2.1675ZM3.44487 2.5H15.5549L13.4549 5.125H5.57987L3.44487 2.5ZM9.49987 10.0687L6.94487 6.875H12.0549L9.49987 10.0687Z" fill="#5A4596"/>
</svg>
