<svg width="23" height="23" viewBox="0 0 23 23" fill="none" xmlns="http://www.w3.org/2000/svg">
<path d="M11.225 10.1025C10.9273 10.1025 10.6418 10.2208 10.4313 10.4313C10.2208 10.6418 10.1025 10.9273 10.1025 11.225V15.715C10.1025 16.0127 10.2208 16.2982 10.4313 16.5087C10.6418 16.7192 10.9273 16.8375 11.225 16.8375C11.5227 16.8375 11.8082 16.7192 12.0187 16.5087C12.2292 16.2982 12.3475 16.0127 12.3475 15.715V11.225C12.3475 10.9273 12.2292 10.6418 12.0187 10.4313C11.8082 10.2208 11.5227 10.1025 11.225 10.1025ZM11.6516 5.7023C11.3783 5.59003 11.0717 5.59003 10.7985 5.7023C10.6607 5.75572 10.5348 5.83583 10.428 5.93802C10.3289 6.04713 10.2491 6.17242 10.1923 6.30845C10.1295 6.44167 10.0987 6.58775 10.1025 6.735C10.1016 6.88273 10.13 7.02917 10.1858 7.16593C10.2417 7.3027 10.324 7.42709 10.428 7.53197C10.5371 7.63113 10.6624 7.71085 10.7985 7.7677C10.9685 7.83756 11.1531 7.86459 11.3361 7.8464C11.519 7.82821 11.6947 7.76537 11.8477 7.66338C12.0006 7.5614 12.1262 7.42341 12.2134 7.26153C12.3005 7.09965 12.3466 6.91885 12.3475 6.735C12.3434 6.4378 12.2271 6.15313 12.022 5.93802C11.9152 5.83583 11.7893 5.75572 11.6516 5.7023ZM11.225 0C9.00491 0 6.83467 0.658335 4.98873 1.89175C3.14279 3.12517 1.70405 4.87828 0.854457 6.92938C0.00486361 8.98048 -0.217429 11.2375 0.21569 13.4149C0.648809 15.5923 1.71789 17.5924 3.28773 19.1623C4.85758 20.7321 6.85768 21.8012 9.03512 22.2343C11.2126 22.6674 13.4695 22.4451 15.5206 21.5955C17.5717 20.746 19.3248 19.3072 20.5582 17.4613C21.7917 15.6153 22.45 13.4451 22.45 11.225C22.45 9.75091 22.1597 8.29126 21.5955 6.92938C21.0314 5.5675 20.2046 4.33006 19.1623 3.28773C18.1199 2.24539 16.8825 1.41856 15.5206 0.854452C14.1587 0.290343 12.6991 0 11.225 0V0ZM11.225 20.205C9.44893 20.205 7.71274 19.6783 6.23598 18.6916C4.75923 17.7049 3.60824 16.3024 2.92857 14.6615C2.24889 13.0206 2.07106 11.215 2.41755 9.47309C2.76405 7.73114 3.61931 6.13106 4.87519 4.87518C6.13106 3.61931 7.73114 2.76404 9.47309 2.41755C11.215 2.07105 13.0206 2.24889 14.6615 2.92856C16.3024 3.60824 17.7049 4.75923 18.6916 6.23598C19.6783 7.71273 20.205 9.44892 20.205 11.225C20.205 13.6066 19.2589 15.8907 17.5748 17.5748C15.8907 19.2589 13.6066 20.205 11.225 20.205V20.205Z" fill="#5A4596"/>
</svg>
