<svg width="20" height="23" viewBox="0 0 20 23" fill="none" xmlns="http://www.w3.org/2000/svg">
<path d="M19.32 3.19033L13.32 0.73872H13.25C13.2035 0.732985 13.1566 0.732985 13.11 0.73872H12.88H12.75H12.68L7 3.12904L1.32 0.73872C1.16962 0.677934 1.00961 0.661795 0.853139 0.69163C0.696671 0.721466 0.548219 0.796423 0.420003 0.910333C0.290762 1.02313 0.185268 1.172 0.112238 1.34464C0.039208 1.51729 0.000736954 1.70876 3.33354e-06 1.90324V19.0645C-0.000537828 19.3215 0.0648223 19.5722 0.186845 19.7812C0.308868 19.9901 0.481382 20.1468 0.680003 20.229L6.68 22.6807C6.88145 22.7612 7.09856 22.7612 7.3 22.6807V22.6807L13 20.3516L18.68 22.7419C18.7862 22.7596 18.8938 22.7596 19 22.7419C19.2091 22.7456 19.4132 22.6636 19.58 22.509C19.7092 22.3962 19.8147 22.2474 19.8878 22.0747C19.9608 21.9021 19.9993 21.7106 20 21.5161V4.35485C20.0005 4.09787 19.9352 3.84717 19.8132 3.63821C19.6911 3.42924 19.5186 3.27257 19.32 3.19033V3.19033ZM6 19.8123L2 18.1819V3.60711L6 5.23743V19.8123ZM12 18.1819L8 19.8123V5.23743L12 3.60711V18.1819ZM18 19.8123L14 18.1819V3.60711L18 5.23743V19.8123Z" fill="#5A4596"/>
</svg>
