<svg width="18" height="26" viewBox="0 0 18 26" fill="none" xmlns="http://www.w3.org/2000/svg">
<path d="M8 12.8129V19.0645C8 19.3896 8.10536 19.7014 8.29289 19.9313C8.48043 20.1612 8.73478 20.2903 9 20.2903C9.26522 20.2903 9.51957 20.1612 9.70711 19.9313C9.89464 19.7014 10 19.3896 10 19.0645V12.8129C11.214 12.5091 12.2928 11.6636 13.0272 10.4402C13.7616 9.21687 14.0992 7.70284 13.9747 6.19166C13.8501 4.68048 13.2723 3.27982 12.3532 2.26122C11.434 1.24262 10.2391 0.67865 9 0.67865C7.76092 0.67865 6.56598 1.24262 5.64685 2.26122C4.72771 3.27982 4.14986 4.68048 4.02532 6.19166C3.90078 7.70284 4.23843 9.21687 4.9728 10.4402C5.70718 11.6636 6.78596 12.5091 8 12.8129ZM9 3.12901C9.59334 3.12901 10.1734 3.34469 10.6667 3.74877C11.1601 4.15285 11.5446 4.72718 11.7716 5.39914C11.9987 6.0711 12.0581 6.81051 11.9424 7.52386C11.8266 8.23721 11.5409 8.89246 11.1213 9.40676C10.7018 9.92106 10.1672 10.2713 9.58527 10.4132C9.00333 10.5551 8.40013 10.4823 7.85195 10.2039C7.30377 9.92559 6.83524 9.45424 6.50559 8.8495C6.17595 8.24475 6 7.53376 6 6.80643C6 5.83112 6.31607 4.89575 6.87868 4.2061C7.44129 3.51645 8.20435 3.12901 9 3.12901V3.12901ZM13.21 15.9019C13.0787 15.8681 12.9432 15.8663 12.8113 15.8967C12.6795 15.9271 12.5537 15.989 12.4414 16.0789C12.329 16.1688 12.2322 16.285 12.1565 16.4208C12.0808 16.5566 12.0276 16.7093 12 16.8703C11.9724 17.0313 11.971 17.1973 11.9958 17.359C12.0205 17.5207 12.071 17.6747 12.1444 17.8125C12.2178 17.9502 12.3125 18.0689 12.4233 18.1617C12.5341 18.2545 12.6587 18.3197 12.79 18.3535C15.06 18.9051 16 19.898 16 20.2903C16 21.0013 13.55 22.7419 9 22.7419C4.45 22.7419 2 21.0013 2 20.2903C2 19.898 2.94 18.9051 5.21 18.3045C5.34132 18.2707 5.46593 18.2055 5.5767 18.1127C5.68747 18.0198 5.78224 17.9012 5.8556 17.7634C5.92896 17.6257 5.97947 17.4716 6.00424 17.31C6.02902 17.1483 6.02758 16.9822 6 16.8213C5.97242 16.6603 5.91925 16.5076 5.84352 16.3718C5.76778 16.236 5.67097 16.1198 5.55861 16.0299C5.44626 15.94 5.32055 15.8781 5.18867 15.8477C5.05679 15.8173 4.92132 15.8191 4.79 15.8529C1.75 16.7109 0 18.3168 0 20.2903C0 23.5142 4.53 25.1935 9 25.1935C13.47 25.1935 18 23.5142 18 20.2903C18 18.3168 16.25 16.7109 13.21 15.9019Z" fill="#5A4596"/>
</svg>
