<svg width="19" height="26" viewBox="0 0 19 26" fill="none" xmlns="http://www.w3.org/2000/svg">
<path d="M18.628 18.709L16.208 15.7426C16.115 15.6277 16.0044 15.5365 15.8825 15.4742C15.7607 15.412 15.63 15.38 15.498 15.38C15.366 15.38 15.2353 15.412 15.1134 15.4742C14.9915 15.5365 14.8809 15.6277 14.788 15.7426L11.208 20.1309C11.1153 20.2455 11.042 20.3813 10.9922 20.5307C10.9424 20.68 10.9172 20.8399 10.918 21.0013V23.9677C10.918 24.2928 11.0233 24.6046 11.2109 24.8345C11.3984 25.0644 11.6528 25.1935 11.918 25.1935H14.338C14.4696 25.1945 14.6 25.1635 14.7219 25.1025C14.8437 25.0415 14.9545 24.9517 15.048 24.838L18.628 20.4497C18.7217 20.3357 18.7961 20.2001 18.8469 20.0508C18.8976 19.9014 18.9238 19.7412 18.9238 19.5793C18.9238 19.4175 18.8976 19.2573 18.8469 19.1079C18.7961 18.9585 18.7217 18.823 18.628 18.709V18.709ZM13.918 22.7419H12.918V21.5161L15.498 18.3535L16.498 19.5793L13.918 22.7419ZM7.91797 22.7419H3.91797C3.65275 22.7419 3.3984 22.6128 3.21086 22.3829C3.02333 22.153 2.91797 21.8412 2.91797 21.5161V4.35482C2.91797 4.02971 3.02333 3.71793 3.21086 3.48804C3.3984 3.25816 3.65275 3.12901 3.91797 3.12901H8.91797V6.80643C8.91797 7.78174 9.23404 8.71711 9.79665 9.40676C10.3593 10.0964 11.1223 10.4839 11.918 10.4839H14.918V11.7097C14.918 12.0348 15.0233 12.3465 15.2109 12.5764C15.3984 12.8063 15.6528 12.9355 15.918 12.9355C16.1832 12.9355 16.4375 12.8063 16.6251 12.5764C16.8126 12.3465 16.918 12.0348 16.918 11.7097V9.25804C16.918 9.25804 16.918 9.25804 16.918 9.1845C16.9076 9.07189 16.8874 8.96095 16.858 8.85353V8.74321C16.8099 8.61717 16.7458 8.50131 16.668 8.39998L10.668 1.04514C10.5853 0.949793 10.4908 0.871175 10.388 0.812237C10.3581 0.80704 10.3278 0.80704 10.298 0.812237L9.97797 0.677399H3.91797C3.12232 0.677399 2.35926 1.06484 1.79665 1.75449C1.23404 2.44414 0.917969 3.37951 0.917969 4.35482V21.5161C0.917969 22.4914 1.23404 23.4268 1.79665 24.1164C2.35926 24.8061 3.12232 25.1935 3.91797 25.1935H7.91797C8.18319 25.1935 8.43754 25.0644 8.62508 24.8345C8.81261 24.6046 8.91797 24.2928 8.91797 23.9677C8.91797 23.6426 8.81261 23.3308 8.62508 23.1009C8.43754 22.8711 8.18319 22.7419 7.91797 22.7419ZM10.918 4.8574L13.508 8.03224H11.918C11.6528 8.03224 11.3984 7.90309 11.2109 7.67321C11.0233 7.44332 10.918 7.13154 10.918 6.80643V4.8574ZM5.91797 15.3871H11.918C12.1832 15.3871 12.4375 15.2579 12.6251 15.028C12.8126 14.7982 12.918 14.4864 12.918 14.1613C12.918 13.8362 12.8126 13.5244 12.6251 13.2945C12.4375 13.0646 12.1832 12.9355 11.918 12.9355H5.91797C5.65275 12.9355 5.3984 13.0646 5.21086 13.2945C5.02333 13.5244 4.91797 13.8362 4.91797 14.1613C4.91797 14.4864 5.02333 14.7982 5.21086 15.028C5.3984 15.2579 5.65275 15.3871 5.91797 15.3871ZM5.91797 10.4839H6.91797C7.18319 10.4839 7.43754 10.3547 7.62508 10.1248C7.81261 9.89494 7.91797 9.58315 7.91797 9.25804C7.91797 8.93294 7.81261 8.62115 7.62508 8.39127C7.43754 8.16138 7.18319 8.03224 6.91797 8.03224H5.91797C5.65275 8.03224 5.3984 8.16138 5.21086 8.39127C5.02333 8.62115 4.91797 8.93294 4.91797 9.25804C4.91797 9.58315 5.02333 9.89494 5.21086 10.1248C5.3984 10.3547 5.65275 10.4839 5.91797 10.4839ZM7.91797 17.8387H5.91797C5.65275 17.8387 5.3984 17.9678 5.21086 18.1977C5.02333 18.4276 4.91797 18.7394 4.91797 19.0645C4.91797 19.3896 5.02333 19.7014 5.21086 19.9313C5.3984 20.1612 5.65275 20.2903 5.91797 20.2903H7.91797C8.18319 20.2903 8.43754 20.1612 8.62508 19.9313C8.81261 19.7014 8.91797 19.3896 8.91797 19.0645C8.91797 18.7394 8.81261 18.4276 8.62508 18.1977C8.43754 17.9678 8.18319 17.8387 7.91797 17.8387Z" fill="#5A4596"/>
</svg>
