<svg width="21" height="21" viewBox="0 0 21 21" fill="none" xmlns="http://www.w3.org/2000/svg">
<path d="M3.28516 17H7.52516C7.65676 17.0008 7.78722 16.9755 7.90906 16.9258C8.0309 16.876 8.14172 16.8027 8.23516 16.71L15.1552 9.78L17.9952 7C18.0889 6.90704 18.1633 6.79644 18.214 6.67458C18.2648 6.55272 18.291 6.42201 18.291 6.29C18.291 6.15799 18.2648 6.02728 18.214 5.90542C18.1633 5.78356 18.0889 5.67296 17.9952 5.58L13.7552 1.29C13.6622 1.19627 13.5516 1.12188 13.4297 1.07111C13.3079 1.02034 13.1772 0.994202 13.0452 0.994202C12.9131 0.994202 12.7824 1.02034 12.6606 1.07111C12.5387 1.12188 12.4281 1.19627 12.3352 1.29L9.51516 4.12L2.57516 11.05C2.48247 11.1434 2.40915 11.2543 2.35939 11.3761C2.30962 11.4979 2.2844 11.6284 2.28516 11.76V16C2.28516 16.2652 2.39051 16.5196 2.57805 16.7071C2.76559 16.8946 3.01994 17 3.28516 17ZM13.0452 3.41L15.8752 6.24L14.4552 7.66L11.6252 4.83L13.0452 3.41ZM4.28516 12.17L10.2152 6.24L13.0452 9.07L7.11516 15H4.28516V12.17ZM19.2852 19H1.28516C1.01994 19 0.765586 19.1054 0.578049 19.2929C0.390513 19.4804 0.285156 19.7348 0.285156 20C0.285156 20.2652 0.390513 20.5196 0.578049 20.7071C0.765586 20.8946 1.01994 21 1.28516 21H19.2852C19.5504 21 19.8047 20.8946 19.9923 20.7071C20.1798 20.5196 20.2852 20.2652 20.2852 20C20.2852 19.7348 20.1798 19.4804 19.9923 19.2929C19.8047 19.1054 19.5504 19 19.2852 19Z" fill="#5A4596"/>
</svg>
