<svg width="24" height="24" viewBox="0 0 24 24" fill="none" xmlns="http://www.w3.org/2000/svg">
<path d="M17.8333 23.6665H3.83331C2.90506 23.6665 2.01482 23.2978 1.35844 22.6414C0.702062 21.985 0.333313 21.0948 0.333313 20.1665V8.49984C0.333313 7.57158 0.702062 6.68134 1.35844 6.02496C2.01482 5.36859 2.90506 4.99984 3.83331 4.99984H4.99998C5.0196 4.01125 5.35272 3.05444 5.9513 2.26742C6.54987 1.4804 7.38295 0.903844 8.33039 0.62091C9.27783 0.337976 10.2907 0.36329 11.2228 0.6932C12.1549 1.02311 12.9581 1.64056 13.5166 2.4565C14.0398 3.20218 14.3246 4.08898 14.3333 4.99984H17.8333C18.1427 4.99984 18.4395 5.12275 18.6583 5.34155C18.8771 5.56034 19 5.85708 19 6.1665V9.6665C19.9886 9.68613 20.9454 10.0192 21.7324 10.6178C22.5194 11.2164 23.096 12.0495 23.3789 12.9969C23.6618 13.9444 23.6365 14.9572 23.3066 15.8893C22.9767 16.8214 22.3593 17.6247 21.5433 18.1832C20.7976 18.7064 19.9108 18.9911 19 18.9998V18.9998V22.4998C19 22.8093 18.8771 23.106 18.6583 23.3248C18.4395 23.5436 18.1427 23.6665 17.8333 23.6665ZM3.83331 7.33317C3.52389 7.33317 3.22715 7.45609 3.00836 7.67488C2.78956 7.89367 2.66665 8.19042 2.66665 8.49984V20.1665C2.66665 20.4759 2.78956 20.7727 3.00836 20.9915C3.22715 21.2103 3.52389 21.3332 3.83331 21.3332H16.6666V17.6232C16.6656 17.4361 16.7096 17.2515 16.7949 17.085C16.8802 16.9185 17.0043 16.775 17.1566 16.6665C17.3086 16.5582 17.4843 16.4878 17.669 16.4615C17.8538 16.4351 18.0421 16.4534 18.2183 16.5148C18.5508 16.6505 18.9129 16.6971 19.2689 16.65C19.6249 16.603 19.9625 16.4639 20.2483 16.2465C20.5328 16.073 20.7768 15.8406 20.964 15.5649C21.1511 15.2892 21.2771 14.9766 21.3333 14.6482C21.3783 14.3169 21.3516 13.9798 21.255 13.6598C21.1584 13.3397 20.9941 13.0442 20.7733 12.7932C20.4747 12.4305 20.0681 12.1726 19.6127 12.0572C19.1573 11.9418 18.6769 11.9748 18.2416 12.1515C18.0655 12.213 17.8771 12.2313 17.6924 12.2049C17.5076 12.1785 17.3319 12.1082 17.18 11.9998C17.0276 11.8913 16.9035 11.7478 16.8182 11.5813C16.733 11.4148 16.689 11.2302 16.69 11.0432V7.33317H12.9566C12.7649 7.34404 12.5734 7.3074 12.3993 7.22652C12.2251 7.14563 12.0736 7.02299 11.9581 6.86949C11.8427 6.71599 11.767 6.53638 11.7377 6.34658C11.7083 6.15679 11.7263 5.96269 11.79 5.7815C11.9256 5.44901 11.9722 5.0869 11.9251 4.7309C11.8781 4.37491 11.739 4.03733 11.5216 3.7515C11.3494 3.45886 11.1135 3.20873 10.8314 3.01965C10.5494 2.83056 10.2284 2.70736 9.89226 2.65918C9.55612 2.611 9.21345 2.63908 8.88964 2.74132C8.56582 2.84357 8.26917 3.01737 8.02165 3.24984C7.79178 3.47782 7.61188 3.75114 7.49338 4.05242C7.37487 4.3537 7.32036 4.67635 7.33331 4.99984C7.33602 5.26744 7.38741 5.53231 7.48498 5.7815C7.54666 5.95792 7.56505 6.14658 7.53861 6.33159C7.51216 6.5166 7.44166 6.69256 7.33303 6.84464C7.2244 6.99672 7.08083 7.12047 6.91439 7.20549C6.74796 7.29051 6.56353 7.3343 6.37665 7.33317H3.83331Z" fill="#5A4596"/>
</svg>
