<svg width="23" height="23" viewBox="0 0 23 23" fill="none" xmlns="http://www.w3.org/2000/svg">
<path d="M10.7768 13.992C10.6914 13.992 10.6168 13.96 10.5528 13.896C10.4888 13.832 10.4568 13.7573 10.4568 13.672V13.16C10.5101 12.6587 10.6648 12.2213 10.9208 11.848C11.1874 11.464 11.5608 11.0267 12.0408 10.536C12.3928 10.1947 12.6594 9.90133 12.8408 9.656C13.0221 9.41067 13.1288 9.16 13.1608 8.904C13.2034 8.46667 13.0594 8.12 12.7288 7.864C12.3981 7.59733 11.9981 7.464 11.5288 7.464C10.4834 7.464 9.85408 7.98133 9.64075 9.016C9.56608 9.26133 9.41142 9.384 9.17675 9.384H7.81675C7.71008 9.384 7.62475 9.352 7.56075 9.288C7.49675 9.21333 7.46475 9.11733 7.46475 9C7.48608 8.41333 7.66208 7.864 7.99275 7.352C8.32342 6.84 8.80342 6.42933 9.43275 6.12C10.0621 5.8 10.7981 5.64 11.6408 5.64C12.5261 5.64 13.2514 5.784 13.8168 6.072C14.3928 6.34933 14.8088 6.70667 15.0648 7.144C15.3314 7.58133 15.4648 8.03467 15.4648 8.504C15.4648 9.048 15.3421 9.51733 15.0968 9.912C14.8621 10.296 14.5048 10.744 14.0248 11.256C13.6834 11.6293 13.4168 11.9493 13.2248 12.216C13.0434 12.472 12.9208 12.7493 12.8568 13.048C12.8141 13.3147 12.7874 13.496 12.7768 13.592C12.6914 13.8587 12.5474 13.992 12.3448 13.992H10.7768ZM10.7288 17C10.6221 17 10.5314 16.9627 10.4568 16.888C10.3821 16.8133 10.3448 16.7227 10.3448 16.616V15.224C10.3448 15.1173 10.3821 15.0267 10.4568 14.952C10.5314 14.8667 10.6221 14.824 10.7288 14.824H12.2808C12.3981 14.824 12.4941 14.8613 12.5688 14.936C12.6434 15.0107 12.6808 15.1067 12.6808 15.224V16.616C12.6808 16.7227 12.6434 16.8133 12.5688 16.888C12.4941 16.9627 12.3981 17 12.2808 17H10.7288Z" fill="#5A4596"/>
<circle cx="11.225" cy="11.225" r="10.225" stroke="#5A4596" stroke-width="2"/>
</svg>
