<svg width="21" height="20" viewBox="0 0 21 20" fill="none" xmlns="http://www.w3.org/2000/svg">
<path d="M18.4386 11C18.2186 11 17.9886 10.93 17.7686 10.88C17.3231 10.7818 16.8853 10.6515 16.4586 10.49C15.9947 10.3212 15.4848 10.33 15.0269 10.5146C14.5691 10.6992 14.1957 11.0466 13.9786 11.49L13.7586 11.94C12.7846 11.3982 11.8896 10.7252 11.0986 9.94001C10.3134 9.14902 9.64046 8.254 9.09864 7.28L9.51864 7.00001C9.962 6.78292 10.3094 6.40954 10.494 5.9517C10.6786 5.49386 10.6874 4.98392 10.5186 4.52001C10.3599 4.09243 10.2296 3.6548 10.1286 3.21001C10.0786 2.99001 10.0386 2.76001 10.0086 2.53001C9.8872 1.82563 9.51826 1.18775 8.96826 0.731245C8.41825 0.274742 7.72333 0.0296143 7.00864 0.0400054H4.00864C3.57767 0.0359589 3.15089 0.124819 2.75735 0.300536C2.36381 0.476253 2.01275 0.734701 1.72807 1.05829C1.44339 1.38187 1.23177 1.763 1.10762 2.17572C0.983477 2.58844 0.949715 3.02306 1.00864 3.45001C1.54137 7.63939 3.45466 11.5319 6.44629 14.5126C9.43791 17.4934 13.3373 19.3925 17.5286 19.91H17.9086C18.6461 19.9111 19.358 19.6405 19.9086 19.15C20.225 18.867 20.4777 18.5202 20.6501 18.1323C20.8225 17.7445 20.9106 17.3244 20.9086 16.9V13.9C20.8964 13.2054 20.6434 12.5366 20.193 12.0077C19.7425 11.4788 19.1225 11.1226 18.4386 11ZM18.9386 17C18.9385 17.142 18.908 17.2823 18.8494 17.4116C18.7908 17.5409 18.7053 17.6563 18.5986 17.75C18.4869 17.8465 18.3562 17.9185 18.215 17.9616C18.0738 18.0047 17.9252 18.0177 17.7786 18C14.0335 17.5198 10.5549 15.8065 7.89135 13.1303C5.22783 10.4541 3.53105 6.96734 3.06864 3.22001C3.05272 3.07352 3.06667 2.92534 3.10964 2.7844C3.15261 2.64346 3.22371 2.51269 3.31864 2.40001C3.41235 2.29334 3.5277 2.20785 3.65701 2.14922C3.78633 2.0906 3.92665 2.06019 4.06864 2.06001H7.06864C7.30118 2.05483 7.52826 2.13088 7.71078 2.27508C7.8933 2.41927 8.01985 2.62258 8.06864 2.85001C8.10864 3.12334 8.15864 3.39334 8.21864 3.66001C8.33416 4.18715 8.4879 4.70518 8.67864 5.21001L7.27864 5.86001C7.15893 5.91493 7.05126 5.99295 6.96179 6.0896C6.87233 6.18625 6.80284 6.29962 6.75731 6.4232C6.71178 6.54678 6.69111 6.67814 6.69648 6.80973C6.70186 6.94132 6.73318 7.07055 6.78864 7.19C8.22784 10.2728 10.7059 12.7508 13.7886 14.19C14.0321 14.29 14.3052 14.29 14.5486 14.19C14.6733 14.1454 14.788 14.0765 14.8858 13.9872C14.9837 13.8979 15.0628 13.7901 15.1186 13.67L15.7386 12.27C16.2556 12.4549 16.7832 12.6085 17.3186 12.73C17.5853 12.79 17.8553 12.84 18.1286 12.88C18.3561 12.9288 18.5594 13.0553 18.7036 13.2379C18.8478 13.4204 18.9238 13.6475 18.9186 13.88L18.9386 17Z" fill="#5A4596"/>
</svg>
