<svg width="20" height="20" viewBox="0 0 20 20" fill="none" xmlns="http://www.w3.org/2000/svg">
<path d="M14.5 2.99995C13.6195 2.99925 12.7554 3.23774 12 3.68995C11.4523 2.43274 10.4904 1.40109 9.27454 0.766804C8.05869 0.132517 6.66226 -0.0661319 5.31776 0.203936C3.97327 0.474004 2.76186 1.19649 1.88526 2.25109C1.00866 3.30568 0.519767 4.62874 0.5 5.99995V9.99995C0.501436 11.4168 1.00425 12.7875 1.91939 13.8692C2.83452 14.9509 4.10294 15.6738 5.5 15.9099V18.9999C5.5 19.2652 5.60536 19.5195 5.79289 19.7071C5.98043 19.8946 6.23478 19.9999 6.5 19.9999C6.76522 19.9999 7.01957 19.8946 7.20711 19.7071C7.39464 19.5195 7.5 19.2652 7.5 18.9999V15.9099C8.51873 15.7332 9.47554 15.2995 10.28 14.6499C10.637 15.2229 11.1064 15.7177 11.6598 16.1044C12.2132 16.4911 12.8392 16.7617 13.5 16.8999V18.9999C13.5 19.2652 13.6054 19.5195 13.7929 19.7071C13.9804 19.8946 14.2348 19.9999 14.5 19.9999C14.7652 19.9999 15.0196 19.8946 15.2071 19.7071C15.3946 19.5195 15.5 19.2652 15.5 18.9999V16.8999C16.6294 16.6694 17.6444 16.0558 18.3733 15.1629C19.1022 14.2699 19.5002 13.1526 19.5 11.9999V7.99995C19.5 6.67387 18.9732 5.4021 18.0355 4.46442C17.0979 3.52673 15.8261 2.99995 14.5 2.99995ZM9.5 7.99995V11.9999C9.50957 12.1909 9.5296 12.3812 9.56 12.5699C9.02519 13.2069 8.30512 13.6613 7.5 13.8699V10.9999C7.5 10.7347 7.39464 10.4804 7.20711 10.2928C7.01957 10.1053 6.76522 9.99995 6.5 9.99995C6.23478 9.99995 5.98043 10.1053 5.79289 10.2928C5.60536 10.4804 5.5 10.7347 5.5 10.9999V13.8599C4.64353 13.6388 3.88451 13.14 3.34169 12.4416C2.79887 11.7432 2.50287 10.8845 2.5 9.99995V5.99995C2.49739 5.20751 2.73022 4.43216 3.16894 3.77225C3.60766 3.11234 4.2325 2.59761 4.9642 2.29335C5.69591 1.9891 6.5015 1.90904 7.27877 2.06333C8.05604 2.21761 8.76998 2.59929 9.33 3.15995C9.87135 3.70858 10.2399 4.40395 10.39 5.15995C9.81193 5.99433 9.50151 6.98489 9.5 7.99995ZM17.5 11.9999C17.4983 12.6189 17.3051 13.2221 16.9471 13.727C16.589 14.2319 16.0835 14.6136 15.5 14.8199V10.9999C15.5 10.7347 15.3946 10.4804 15.2071 10.2928C15.0196 10.1053 14.7652 9.99995 14.5 9.99995C14.2348 9.99995 13.9804 10.1053 13.7929 10.2928C13.6054 10.4804 13.5 10.7347 13.5 10.9999V14.8199C12.9165 14.6136 12.411 14.2319 12.0529 13.727C11.6949 13.2221 11.5017 12.6189 11.5 11.9999V7.99995C11.5 7.2043 11.8161 6.44124 12.3787 5.87863C12.9413 5.31602 13.7044 4.99995 14.5 4.99995C15.2956 4.99995 16.0587 5.31602 16.6213 5.87863C17.1839 6.44124 17.5 7.2043 17.5 7.99995V11.9999Z" fill="#5A4596"/>
</svg>
