<svg width="21" height="19" viewBox="0 0 21 19" fill="none" xmlns="http://www.w3.org/2000/svg">
<path fill-rule="evenodd" clip-rule="evenodd" d="M10.3015 0.0089361C10.4335 -0.0029787 10.5665 -0.0029787 10.6986 0.0089361C11.5179 0.0828439 12.0033 0.677087 12.3265 1.19728C12.6594 1.73299 12.9997 2.49416 13.406 3.40335L13.4322 3.46175C13.6888 4.03572 13.8583 4.41283 14.0185 4.69454C14.1702 4.96124 14.282 5.0837 14.3913 5.16576C14.4256 5.19158 14.4611 5.21596 14.4979 5.23881C14.6142 5.31146 14.7724 5.37402 15.088 5.42769C15.4214 5.4844 15.8541 5.52001 16.5118 5.57288L16.5788 5.57826C17.6208 5.66196 18.4932 5.73204 19.1361 5.86521C19.7603 5.99453 20.5093 6.24646 20.837 6.95881C20.8898 7.07366 20.931 7.193 20.9597 7.31521C21.1385 8.07322 20.6894 8.69247 20.265 9.14319C19.8278 9.60752 19.1656 10.148 18.3748 10.7937L18.324 10.8351C17.8247 11.2427 17.497 11.5114 17.2626 11.7422C17.0406 11.9607 16.9517 12.0989 16.9027 12.2222C16.8873 12.2611 16.8737 12.3006 16.862 12.3405C16.8248 12.4674 16.8106 12.6285 16.8541 12.9285C16.9 13.2452 16.9977 13.6444 17.1476 14.2509L17.1629 14.3127C17.4006 15.2736 17.5996 16.0781 17.664 16.6961C17.7265 17.2962 17.704 18.0462 17.0872 18.5604C16.9877 18.6432 16.8802 18.717 16.7659 18.7806C16.057 19.1751 15.2941 18.9636 14.7086 18.7221C14.1054 18.4733 13.3561 18.0461 12.4609 17.536L12.4034 17.5032C11.8382 17.1811 11.4661 16.9701 11.161 16.831C10.8722 16.6994 10.7054 16.6623 10.5658 16.6565C10.5219 16.6547 10.4781 16.6547 10.4342 16.6565C10.2947 16.6623 10.1278 16.6994 9.83903 16.831C9.53387 16.9701 9.16183 17.1811 8.5966 17.5032L8.53912 17.536C7.64396 18.0461 6.89454 18.4733 6.29147 18.7221C5.7059 18.9636 4.94299 19.1751 4.23413 18.7806C4.11984 18.717 4.01224 18.6432 3.9128 18.5604C3.29601 18.0462 3.27351 17.2962 3.33607 16.6961C3.40049 16.0781 3.59944 15.2736 3.83707 14.3127L3.85233 14.2509C4.00233 13.6444 4.10009 13.2452 4.14598 12.9285C4.18943 12.6285 4.17519 12.4674 4.13797 12.3405C4.12624 12.3006 4.11266 12.2611 4.09725 12.2222C4.04829 12.0989 3.95943 11.9607 3.73745 11.7422C3.503 11.5114 3.17527 11.2427 2.67599 10.8351L2.62521 10.7936C1.8343 10.148 1.17219 9.60752 0.735056 9.14319C0.310587 8.69247 -0.138411 8.07322 0.0402793 7.31521C0.0690892 7.193 0.110181 7.07366 0.163007 6.95881C0.490673 6.24646 1.23968 5.99453 1.86393 5.86521C2.50679 5.73204 3.37918 5.66196 4.42122 5.57826L4.48816 5.57288C5.146 5.52001 5.57853 5.4844 5.91199 5.42769C6.2277 5.37402 6.38571 5.31146 6.50219 5.23881C6.53884 5.21596 6.57438 5.19158 6.60875 5.16576C6.71797 5.0837 6.82986 4.96124 6.98153 4.69454C7.14172 4.41283 7.31129 4.03572 7.56786 3.46175L7.59395 3.40337C8.00034 2.49417 8.34058 1.733 8.67351 1.19728C8.99667 0.677087 9.48212 0.0828439 10.3015 0.0089361ZM10.5 1.68889C10.4623 1.71767 10.3681 1.80691 10.2166 2.05086C9.95064 2.47863 9.65527 3.13473 9.21596 4.11759L9.20058 4.15192C8.96352 4.68231 8.76211 5.13293 8.55772 5.49246C8.34034 5.8747 8.08934 6.21071 7.72304 6.48594C7.64743 6.54274 7.56921 6.59636 7.4886 6.64665C7.09796 6.89029 6.68172 7.01165 6.22924 7.08859C5.80367 7.16095 5.2872 7.20245 4.67932 7.25128L4.63996 7.25444C3.51346 7.34496 2.76084 7.40726 2.24751 7.51359C1.95477 7.57424 1.83569 7.63121 1.79504 7.65614C1.8124 7.69885 1.87324 7.81098 2.07228 8.02239C2.42134 8.39308 2.99141 8.8609 3.84638 9.55891L3.87628 9.58321C4.33762 9.9599 4.72961 10.2799 5.02881 10.5744C5.34694 10.8875 5.60808 11.2166 5.77232 11.6303C5.80622 11.7157 5.83611 11.8025 5.86187 11.8905C5.98676 12.3162 5.98046 12.7272 5.91819 13.157C5.85963 13.5612 5.74185 14.0375 5.60323 14.5981L5.59425 14.6343C5.33741 15.6732 5.16762 16.3678 5.11618 16.8613C5.08684 17.1428 5.10747 17.2672 5.12004 17.3113C5.16846 17.3089 5.30028 17.289 5.5749 17.1757C6.05644 16.977 6.70412 16.6101 7.67188 16.0586L7.7057 16.0394C8.22789 15.7417 8.6716 15.4889 9.06094 15.3114C9.47497 15.1226 9.88732 14.99 10.3551 14.9705C10.4517 14.9665 10.5483 14.9665 10.6449 14.9705C11.1127 14.99 11.5251 15.1226 11.9391 15.3114C12.3284 15.4889 12.7721 15.7418 13.2943 16.0394L13.3282 16.0586C14.2959 16.6101 14.9436 16.977 15.4251 17.1757C15.6997 17.289 15.8315 17.3089 15.8799 17.3113C15.8926 17.2672 15.9132 17.1428 15.8839 16.8613C15.8323 16.3678 15.6627 15.6732 15.4058 14.6343L15.3967 14.598C15.2582 14.0375 15.1404 13.5612 15.0818 13.157C15.0196 12.7272 15.0132 12.3162 15.1381 11.8905C15.164 11.8025 15.1938 11.7157 15.2276 11.6303C15.392 11.2166 15.6531 10.8875 15.9712 10.5744C16.2705 10.2799 16.6624 9.9599 17.1237 9.58333L17.1536 9.55891C18.0086 8.8609 18.5787 8.39308 18.9277 8.02239C19.1268 7.81098 19.1876 7.69885 19.205 7.65614C19.1643 7.63121 19.0452 7.57424 18.7526 7.51359C18.2392 7.40726 17.4865 7.34496 16.36 7.25444L16.3207 7.25128C15.7129 7.20245 15.1963 7.16095 14.7708 7.08859C14.3183 7.01165 13.9021 6.89029 13.5115 6.64665C13.4308 6.59636 13.3526 6.54274 13.277 6.48594C12.9107 6.21071 12.6597 5.8747 12.4423 5.49246C12.2379 5.13294 12.0365 4.6823 11.7994 4.15193L11.7841 4.11759C11.3446 3.13473 11.0494 2.47863 10.7835 2.05086C10.6319 1.80691 10.5377 1.71767 10.5 1.68889Z" fill="#404040"/>
</svg>
