<svg width="8" height="12" viewBox="0 0 8 12" fill="none" xmlns="http://www.w3.org/2000/svg">
<path d="M4.7092 6.00001L1.1692 2.46001C0.982951 2.27265 0.878409 2.0192 0.878409 1.75501C0.878409 1.49082 0.982951 1.23737 1.1692 1.05001C1.26217 0.956281 1.37277 0.881887 1.49463 0.831118C1.61648 0.780349 1.74719 0.754211 1.8792 0.754211C2.01121 0.754211 2.14192 0.780349 2.26378 0.831118C2.38564 0.881887 2.49624 0.956281 2.5892 1.05001L6.8292 5.29001C6.92293 5.38297 6.99732 5.49357 7.04809 5.61543C7.09886 5.73729 7.125 5.868 7.125 6.00001C7.125 6.13202 7.09886 6.26273 7.04809 6.38459C6.99732 6.50645 6.92293 6.61705 6.8292 6.71001L2.5892 11C2.49576 11.0927 2.38495 11.166 2.26311 11.2158C2.14127 11.2655 2.01081 11.2908 1.8792 11.29C1.7476 11.2908 1.61713 11.2655 1.4953 11.2158C1.37346 11.166 1.26264 11.0927 1.1692 11C0.982951 10.8126 0.878409 10.5592 0.878409 10.295C0.878409 10.0308 0.982951 9.77737 1.1692 9.59001L4.7092 6.00001Z" fill="white"/>
</svg>
