<svg width="35" height="35" viewBox="0 0 35 35" fill="none" xmlns="http://www.w3.org/2000/svg">
<path d="M10.2083 18.9583L21.277 18.9583L16.4645 23.7562C16.1899 24.0309 16.0356 24.4033 16.0356 24.7917C16.0356 25.18 16.1899 25.5525 16.4645 25.8271C16.7391 26.1017 17.1116 26.256 17.4999 26.256C17.8883 26.256 18.2608 26.1017 18.5354 25.8271L25.827 18.5354C25.9598 18.3967 26.0639 18.2332 26.1333 18.0542C26.2791 17.6991 26.2791 17.3009 26.1333 16.9458C26.0639 16.7668 25.9598 16.6033 25.827 16.4646L18.5354 9.17292C18.3998 9.03623 18.2385 8.92774 18.0608 8.8537C17.8831 8.77966 17.6925 8.74154 17.4999 8.74154C17.3074 8.74154 17.1168 8.77966 16.9391 8.8537C16.7614 8.92774 16.6001 9.03623 16.4645 9.17292C16.3278 9.30849 16.2194 9.46978 16.1453 9.64749C16.0713 9.8252 16.0332 10.0158 16.0332 10.2083C16.0332 10.4008 16.0713 10.5915 16.1453 10.7692C16.2194 10.9469 16.3278 11.1082 16.4645 11.2437L21.277 16.0417L10.2083 16.0417C9.82151 16.0417 9.45057 16.1953 9.17708 16.4688C8.90359 16.7423 8.74995 17.1132 8.74995 17.5C8.74995 17.8868 8.90359 18.2577 9.17708 18.5312C9.45057 18.8047 9.82151 18.9583 10.2083 18.9583Z" fill="black"/>
</svg>
