<svg width="35" height="35" viewBox="0 0 35 35" fill="none" xmlns="http://www.w3.org/2000/svg">
<path d="M24.7917 18.9583L13.723 18.9583L18.5355 23.7562C18.8101 24.0309 18.9644 24.4033 18.9644 24.7917C18.9644 25.18 18.8101 25.5525 18.5355 25.8271C18.2609 26.1017 17.8884 26.256 17.5001 26.256C17.1117 26.256 16.7392 26.1017 16.4646 25.8271L9.17297 18.5354C9.0402 18.3967 8.93613 18.2332 8.86672 18.0542C8.72086 17.6991 8.72086 17.3009 8.86672 16.9458C8.93613 16.7668 9.0402 16.6033 9.17297 16.4646L16.4646 9.17292C16.6002 9.03623 16.7615 8.92774 16.9392 8.8537C17.1169 8.77966 17.3075 8.74154 17.5001 8.74154C17.6926 8.74154 17.8832 8.77966 18.0609 8.8537C18.2386 8.92774 18.3999 9.03623 18.5355 9.17292C18.6722 9.30849 18.7806 9.46978 18.8547 9.64749C18.9287 9.8252 18.9668 10.0158 18.9668 10.2083C18.9668 10.4008 18.9287 10.5915 18.8547 10.7692C18.7806 10.9469 18.6722 11.1082 18.5355 11.2437L13.723 16.0417L24.7917 16.0417C25.1785 16.0417 25.5494 16.1953 25.8229 16.4688C26.0964 16.7423 26.2501 17.1132 26.2501 17.5C26.2501 17.8868 26.0964 18.2577 25.8229 18.5312C25.5494 18.8047 25.1785 18.9583 24.7917 18.9583Z" fill="black"/>
</svg>
