<svg width="24" height="24" viewBox="0 0 24 24" fill="none" xmlns="http://www.w3.org/2000/svg">
<g clip-path="url(#clip0_3_1521)">
<path d="M23.3392 20.159L15.1802 12L23.3392 3.841C23.7479 3.41664 23.9737 2.84889 23.9681 2.25979C23.9626 1.67069 23.7261 1.10729 23.3095 0.690721C22.8929 0.274149 22.3295 0.0376641 21.7404 0.0321056C21.1513 0.026547 20.5836 0.252359 20.1592 0.660997L12.0002 8.82L3.84122 0.660997C3.41686 0.252359 2.84911 0.026547 2.26001 0.0321056C1.67091 0.0376641 1.10751 0.274149 0.690942 0.690721C0.27437 1.10729 0.0378854 1.67069 0.0323268 2.25979C0.0267682 2.84889 0.25258 3.41664 0.661218 3.841L8.82022 12L0.661218 20.159C0.25258 20.5834 0.0267682 21.1511 0.0323268 21.7402C0.0378854 22.3293 0.27437 22.8927 0.690942 23.3093C1.10751 23.7258 1.67091 23.9623 2.26001 23.9679C2.84911 23.9734 3.41686 23.7476 3.84122 23.339L12.0002 15.18L20.1592 23.339C20.3666 23.5543 20.6147 23.7261 20.8893 23.8444C21.1638 23.9627 21.4591 24.0251 21.758 24.0279C22.0569 24.0307 22.3534 23.9739 22.6301 23.8608C22.9068 23.7478 23.1581 23.5807 23.3695 23.3693C23.5809 23.1579 23.748 22.9065 23.8611 22.6298C23.9742 22.3531 24.031 22.0567 24.0281 21.7578C24.0253 21.4589 23.9629 21.1635 23.8446 20.889C23.7264 20.6145 23.5545 20.3663 23.3392 20.159Z" fill="black"/>
</g>
<defs>
<clipPath id="clip0_3_1521">
<rect width="24" height="24" fill="white"/>
</clipPath>
</defs>
</svg>
