<svg width="68" height="68" viewBox="0 0 68 68" fill="none" xmlns="http://www.w3.org/2000/svg">
<path d="M58.0409 58.0409C71.3185 44.7632 71.3185 23.2359 58.0409 9.95824C44.7632 -3.31941 23.2359 -3.31941 9.95824 9.95824C-3.31941 23.2359 -3.31941 44.7632 9.95824 58.0409C23.2359 71.3185 44.7632 71.3185 58.0409 58.0409Z" fill="#5A4596"/>
<path d="M28.3751 31.9312C28.726 31.9312 29.0777 31.7968 29.3456 31.5288C29.8815 30.993 29.8815 30.1237 29.3456 29.5878L24.8082 25.0522H43.0652C43.8227 25.0522 44.438 24.4378 44.438 23.6793C44.438 22.9209 43.8236 22.3065 43.0652 22.3065H24.8082L29.3448 17.7708C29.8806 17.235 29.8806 16.3657 29.3448 15.8299C28.8089 15.294 27.9396 15.294 27.4038 15.8299L20.5239 22.708C20.4916 22.7403 20.4619 22.7734 20.4331 22.8083C20.4279 22.8144 20.4235 22.8214 20.4183 22.8284C20.3956 22.8572 20.3738 22.886 20.3529 22.9166C20.3485 22.9235 20.345 22.9305 20.3406 22.9366C20.3206 22.9681 20.3014 22.9995 20.2839 23.0318C20.2813 23.0361 20.2795 23.0414 20.2769 23.0457C20.2586 23.0806 20.2411 23.1164 20.2263 23.1539C20.2254 23.1566 20.2246 23.1601 20.2228 23.1627C20.2071 23.2011 20.1931 23.2403 20.1809 23.2805C20.18 23.284 20.1792 23.2866 20.1783 23.2901C20.167 23.3294 20.1565 23.3695 20.1478 23.4105C20.146 23.4201 20.1451 23.4297 20.1434 23.4393C20.1373 23.4734 20.1312 23.5083 20.1277 23.5432C20.1233 23.5868 20.1207 23.6313 20.1207 23.6758C20.1207 23.6776 20.1207 23.6785 20.1207 23.6802C20.1207 23.7265 20.1233 23.7719 20.1277 23.8172C20.1312 23.8504 20.1364 23.8827 20.1425 23.915C20.1443 23.9272 20.146 23.9385 20.1478 23.9508C20.1556 23.9892 20.1652 24.0276 20.1766 24.0651C20.1783 24.0703 20.1792 24.0756 20.1809 24.0808C20.1923 24.1183 20.2062 24.1559 20.2211 24.1925C20.2228 24.1978 20.2246 24.2021 20.2263 24.2074C20.2403 24.2414 20.2568 24.2746 20.2734 24.3077C20.2769 24.3147 20.2804 24.3226 20.2839 24.3295C20.2996 24.3592 20.3171 24.3871 20.3354 24.4151C20.3415 24.4247 20.3467 24.4351 20.3537 24.4456C20.3703 24.47 20.3886 24.4936 20.407 24.5172C20.4157 24.5294 20.4244 24.5416 20.434 24.553C20.4541 24.5783 20.4768 24.601 20.4986 24.6245C20.5073 24.6333 20.5143 24.6429 20.523 24.6516L27.4038 31.5297C27.6717 31.7976 28.0234 31.9312 28.3751 31.9312Z" fill="white"/>
<path d="M47.8784 44.3172C47.8784 44.2718 47.8758 44.2273 47.8714 44.1828C47.8679 44.1478 47.8618 44.1138 47.8557 44.0798C47.854 44.0702 47.8531 44.0597 47.8513 44.0501C47.8435 44.0091 47.833 43.9698 47.8208 43.9305C47.8199 43.927 47.819 43.9236 47.8182 43.9209C47.806 43.8808 47.792 43.8415 47.7763 43.8031C47.7754 43.8005 47.7745 43.7979 47.7728 43.7944C47.7579 43.7577 47.7405 43.7219 47.7222 43.687C47.7195 43.6827 47.7178 43.6774 47.7152 43.6731C47.6977 43.6408 47.6785 43.6094 47.6585 43.5788C47.6541 43.5718 47.6506 43.5649 47.6454 43.5579C47.6253 43.5282 47.6043 43.5003 47.5817 43.4723C47.5755 43.4654 47.5712 43.4575 47.5651 43.4496C47.5363 43.4147 47.5066 43.3816 47.4743 43.3502L40.5936 36.4712C40.0577 35.9353 39.1885 35.9353 38.6526 36.4712C38.1167 37.007 38.1167 37.8763 38.6526 38.4122L43.19 42.9478H24.933C24.1755 42.9478 23.5602 43.5622 23.5602 44.3206C23.5602 45.0791 24.1746 45.6935 24.933 45.6935H43.19L38.6526 50.2291C38.1167 50.765 38.1167 51.6343 38.6526 52.1701C38.9205 52.4381 39.2722 52.5725 39.6231 52.5725C39.9739 52.5725 40.3256 52.4389 40.5936 52.171L47.4743 45.292C47.4787 45.2877 47.483 45.2824 47.4874 45.2772C47.5136 45.2501 47.5398 45.2222 47.5642 45.1925C47.5729 45.1821 47.5799 45.1716 47.5878 45.1611C47.607 45.1358 47.627 45.1114 47.6445 45.0843C47.6506 45.0756 47.655 45.066 47.6611 45.0572C47.6794 45.0284 47.6977 44.9996 47.7143 44.9691C47.7178 44.963 47.7204 44.956 47.7239 44.9499C47.7414 44.9167 47.7579 44.8827 47.7719 44.8478C47.7737 44.8434 47.7745 44.8391 47.7763 44.8347C47.7911 44.7972 47.8051 44.7596 47.8173 44.7212C47.819 44.7169 47.8199 44.7116 47.8208 44.7073C47.8321 44.6689 47.8417 44.6305 47.8496 44.5912C47.8522 44.5799 47.8531 44.5685 47.8548 44.5572C47.8609 44.524 47.8662 44.4917 47.8697 44.4577C47.874 44.4123 47.8766 44.3669 47.8766 44.3206C47.8766 44.3206 47.8766 44.3189 47.8766 44.318L47.8784 44.3172Z" fill="white"/>
</svg>
