<svg width="28" height="38" viewBox="0 0 28 38" fill="none" xmlns="http://www.w3.org/2000/svg">
<path d="M8.37553 16.9309C8.72637 16.9309 9.07809 16.7965 9.34602 16.5286C9.88188 15.9927 9.88188 15.1235 9.34602 14.5876L4.80861 10.052H23.0656C23.8231 10.052 24.4384 9.43755 24.4384 8.67914C24.4384 7.92072 23.824 7.3063 23.0656 7.3063H4.80861L9.34515 2.77064C9.88101 2.23478 9.88101 1.36553 9.34515 0.829664C8.80928 0.293798 7.94002 0.293798 7.40416 0.829664L0.524302 7.70777C0.49201 7.74006 0.462337 7.77322 0.433537 7.80813C0.4283 7.81424 0.423936 7.82123 0.418699 7.82821C0.396008 7.85701 0.374189 7.88581 0.353243 7.91636C0.348879 7.92334 0.345388 7.93032 0.341024 7.93643C0.320951 7.96785 0.301753 7.99927 0.284298 8.03156C0.28168 8.03592 0.279933 8.04116 0.277315 8.04552C0.258987 8.08043 0.241533 8.11621 0.226696 8.15374C0.225823 8.15636 0.224951 8.15985 0.223206 8.16247C0.207496 8.20087 0.193531 8.24014 0.181313 8.28029C0.18044 8.28378 0.179567 8.2864 0.178694 8.28989C0.167348 8.32917 0.156877 8.36931 0.148149 8.41033C0.146404 8.41993 0.145531 8.42953 0.143785 8.43913C0.137676 8.47317 0.131566 8.50808 0.128075 8.54299C0.123711 8.58663 0.121094 8.63113 0.121094 8.67564V8.68001C0.121094 8.72626 0.123711 8.77165 0.128075 8.81703C0.131566 8.85019 0.136803 8.88249 0.142912 8.91478C0.144657 8.927 0.146404 8.93834 0.148149 8.95056C0.156004 8.98896 0.165603 9.02736 0.176949 9.06489C0.178694 9.07012 0.179567 9.07537 0.181313 9.0806C0.192658 9.11813 0.206624 9.15566 0.22146 9.19231C0.223206 9.19755 0.224951 9.20191 0.226696 9.20714C0.24066 9.24118 0.257241 9.27434 0.273823 9.30751C0.277314 9.31449 0.280807 9.32235 0.284298 9.32933C0.300007 9.359 0.317461 9.38693 0.335789 9.41485C0.341898 9.42445 0.347134 9.43493 0.354116 9.4454C0.370699 9.46984 0.389027 9.4934 0.407354 9.51697C0.416082 9.52918 0.42481 9.5414 0.43441 9.55275C0.454483 9.57806 0.477174 9.60075 0.498993 9.62431C0.50772 9.63304 0.514701 9.64265 0.523428 9.65137L7.40416 16.5295C7.67209 16.7974 8.02381 16.9309 8.37553 16.9309Z" fill="white"/>
<path d="M27.8788 29.3169C27.8788 29.2716 27.8762 29.227 27.8718 29.1825C27.8683 29.1476 27.8622 29.1136 27.8561 29.0795C27.8543 29.0699 27.8535 29.0595 27.8517 29.0499C27.8439 29.0089 27.8334 28.9696 27.8212 28.9303C27.8203 28.9268 27.8194 28.9233 27.8186 28.9207C27.8063 28.8806 27.7924 28.8413 27.7767 28.8029C27.7758 28.8003 27.7749 28.7977 27.7732 28.7942C27.7583 28.7575 27.7409 28.7217 27.7226 28.6868C27.7199 28.6824 27.7182 28.6772 27.7156 28.6728C27.6981 28.6406 27.6789 28.6091 27.6588 28.5786C27.6545 28.5716 27.651 28.5646 27.6458 28.5576C27.6257 28.528 27.6047 28.5 27.582 28.4721C27.5759 28.4651 27.5716 28.4573 27.5655 28.4494C27.5367 28.4145 27.507 28.3814 27.4747 28.3499L20.594 21.471C20.0581 20.9351 19.1888 20.9351 18.653 21.471C18.1171 22.0068 18.1171 22.8761 18.653 23.4119L23.1904 27.9476H4.93342C4.17587 27.9476 3.56059 28.562 3.56059 29.3204C3.56059 30.0788 4.175 30.6933 4.93342 30.6933H23.1904L18.653 35.2289C18.1171 35.7648 18.1171 36.634 18.653 37.1699C18.9209 37.4378 19.2726 37.5722 19.6235 37.5722C19.9743 37.5722 20.326 37.4387 20.594 37.1708L27.4747 30.2918C27.4791 30.2874 27.4834 30.2822 27.4878 30.277C27.514 30.2499 27.5402 30.222 27.5646 30.1923C27.5733 30.1818 27.5803 30.1714 27.5882 30.1609C27.6074 30.1356 27.6274 30.1111 27.6449 30.0841C27.651 30.0754 27.6554 30.0658 27.6615 30.057C27.6798 30.0282 27.6981 29.9994 27.7147 29.9689C27.7182 29.9628 27.7208 29.9558 27.7243 29.9497C27.7418 29.9165 27.7583 29.8825 27.7723 29.8476C27.774 29.8432 27.7749 29.8388 27.7767 29.8345C27.7915 29.7969 27.8055 29.7594 27.8177 29.721C27.8194 29.7167 27.8203 29.7114 27.8212 29.7071C27.8325 29.6687 27.8421 29.6303 27.85 29.591C27.8526 29.5796 27.8535 29.5683 27.8552 29.5569C27.8613 29.5238 27.8666 29.4915 27.8701 29.4574C27.8744 29.4121 27.877 29.3667 27.877 29.3204V29.3178L27.8788 29.3169Z" fill="white"/>
</svg>
