<svg width="31" height="31" viewBox="0 0 31 31" fill="none" xmlns="http://www.w3.org/2000/svg">
<path d="M30.7006 18.5418C31.0998 16.5336 31.0998 14.4664 30.7006 12.4582L26.6866 12.3373C26.44 11.4625 26.091 10.6199 25.6468 9.82692L28.3991 6.90421C27.2616 5.20134 25.7997 3.73939 24.0968 2.60197L21.174 5.35419C20.3811 4.90978 19.5385 4.56077 18.6636 4.31443L18.5427 0.300499C16.5344 -0.099957 14.4668 -0.100168 12.4584 0.299878L12.3375 4.31381C11.4627 4.56042 10.6201 4.90941 9.82707 5.35356L6.90431 2.60135C5.20142 3.73877 3.73945 5.20072 2.60201 6.90359L5.35427 9.8263C4.90985 10.6192 4.56084 11.4618 4.3145 12.3367L0.300503 12.4576C-0.0999585 14.4659 -0.10017 16.5334 0.299883 18.5418L4.31388 18.6627C4.56048 19.5375 4.90949 20.3801 5.35365 21.1731L2.60139 24.0958C3.73883 25.7987 5.2008 27.2606 6.90369 28.398L9.82645 25.6458C10.6193 26.0902 11.462 26.4392 12.3369 26.6856L12.4578 30.6995C14.4661 31.1 16.5337 31.1002 18.542 30.7001L18.6629 26.6862C19.5378 26.4396 20.3804 26.0906 21.1734 25.6464L24.0962 28.3987C25.7991 27.2612 27.261 25.7993 28.3985 24.0964L25.6462 21.1737C26.0906 20.3808 26.4396 19.5382 26.686 18.6633L30.7006 18.5418ZM15.5002 21.3126C13.9586 21.3126 12.4801 20.7002 11.3901 19.6101C10.3 18.52 9.68757 17.0416 9.68757 15.5C9.68757 12.2896 12.2898 9.68742 15.5002 9.68742C18.7107 9.68742 21.3129 12.2896 21.3129 15.5C21.3129 17.0416 20.7005 18.52 19.6104 19.6101C18.5203 20.7002 17.0419 21.3126 15.5002 21.3126Z" fill="#F9B233"/>
</svg>
