<svg width="21" height="20" viewBox="0 0 21 20" fill="none" xmlns="http://www.w3.org/2000/svg">
<path d="M2.66073 12.68L16.6607 19.68C17.2132 19.955 17.8371 20.0529 18.4473 19.9603C19.0575 19.8678 19.6243 19.5893 20.0704 19.1629C20.5165 18.7364 20.8203 18.1828 20.9402 17.5774C21.0602 16.972 20.9905 16.3443 20.7407 15.78L18.3407 10.41C18.2863 10.2802 18.2582 10.1408 18.2582 9.99999C18.2582 9.8592 18.2863 9.71983 18.3407 9.58999L20.7407 4.21999C20.944 3.76328 21.03 3.263 20.9908 2.76463C20.9515 2.26625 20.7884 1.78558 20.5161 1.36629C20.2439 0.946999 19.8712 0.602388 19.4319 0.363777C18.9926 0.125166 18.5006 0.000116567 18.0007 -5.45984e-06C17.5325 0.00466759 17.0712 0.114003 16.6507 0.319994L2.65073 7.31999C2.15413 7.56981 1.73671 7.95269 1.44504 8.42592C1.15337 8.89914 0.998912 9.4441 0.998912 10C0.998912 10.5559 1.15337 11.1008 1.44504 11.5741C1.73671 12.0473 2.15413 12.4302 2.65073 12.68L2.66073 12.68ZM3.55073 9.10999L17.5507 2.11C17.7346 2.02172 17.941 1.99177 18.1423 2.02415C18.3437 2.05652 18.5303 2.14969 18.6772 2.29114C18.8241 2.4326 18.9242 2.61558 18.9642 2.81556C19.0041 3.01554 18.982 3.22296 18.9007 3.40999L16.5107 8.77999C16.4798 8.8517 16.4531 8.92516 16.4307 8.99999L9.54073 8.99999C9.27551 8.99999 9.02116 9.10535 8.83362 9.29289C8.64609 9.48042 8.54073 9.73478 8.54073 9.99999C8.54073 10.2652 8.64609 10.5196 8.83362 10.7071C9.02116 10.8946 9.27551 11 9.54073 11L16.4307 11C16.4531 11.0748 16.4798 11.1483 16.5107 11.22L18.9007 16.59C18.982 16.777 19.0041 16.9844 18.9642 17.1844C18.9242 17.3844 18.8241 17.5674 18.6772 17.7088C18.5303 17.8503 18.3437 17.9435 18.1423 17.9758C17.941 18.0082 17.7346 17.9783 17.5507 17.89L3.55073 10.89C3.38693 10.8061 3.24946 10.6786 3.15347 10.5215C3.05748 10.3645 3.00669 10.184 3.00669 9.99999C3.00669 9.81595 3.05748 9.63547 3.15347 9.47844C3.24946 9.32141 3.38693 9.19391 3.55073 9.10999Z" fill="#5A4596"/>
</svg>
