<svg width="42" height="42" viewBox="0 0 42 42" fill="none" xmlns="http://www.w3.org/2000/svg">
<path d="M34.8432 3.96351C34.8432 1.60683 34.7256 0 34.7256 0H7.2744C7.2744 0 7.1484 1.60683 7.1568 3.96351H0L0.0252 5.32313C0.1176 10.2343 2.5536 19.1666 10.8528 20.5674C11.1132 20.897 11.3904 21.2101 11.6928 21.482C17.3628 26.6321 18.4128 25.1901 18.4128 30.5462V31.2713C17.766 31.8811 17.3628 32.7216 17.2956 33.6527C16.1952 34.3119 15.498 35.2513 15.4728 36.2978C12.0456 37.4185 9.7272 39.5527 9.7272 42H32.2728C32.2728 39.5527 29.9544 37.4267 26.5272 36.2978C26.502 35.2513 25.8048 34.3119 24.7044 33.6527C24.6456 32.7216 24.234 31.8811 23.5872 31.2713V30.5462C23.5872 25.1901 24.6372 26.6321 30.3072 21.482C30.6096 21.2101 30.8868 20.897 31.1472 20.5674C39.4464 19.1666 41.8824 10.2343 41.9748 5.32313L42 3.96351H34.8432ZM2.856 6.63331H7.224C7.3752 9.98705 7.8372 14 9.0468 17.2219C4.368 15.0547 3.1668 9.28664 2.856 6.63331ZM32.9616 17.2219C34.1712 14 34.6332 9.97881 34.7844 6.63331H39.1524C38.85 9.29488 37.6404 15.0547 32.9616 17.2219Z" fill="#F9B233"/>
</svg>
