<svg width="21" height="22" viewBox="0 0 21 22" fill="none" xmlns="http://www.w3.org/2000/svg">
<path d="M17.1291 2.71188C17.1291 1.56539 17.074 0.783691 17.074 0.783691H4.19629C4.19629 0.783691 4.13718 1.56539 4.14112 2.71188H0.783783L0.795605 3.37332C0.838951 5.76252 1.98171 10.108 5.87496 10.7894C5.99712 10.9498 6.12716 11.1021 6.26902 11.2344C8.92888 13.7399 9.42145 13.0383 9.42145 15.644V15.9968C9.11803 16.2934 8.92888 16.7023 8.89736 17.1553C8.38115 17.476 8.05408 17.933 8.04226 18.4421C6.43452 18.9873 5.34693 20.0255 5.34693 21.2161H15.9233C15.9233 20.0255 14.8358 18.9913 13.228 18.4421C13.2162 17.933 12.8891 17.476 12.3729 17.1553C12.3453 16.7023 12.1522 16.2934 11.8488 15.9968V15.644C11.8488 13.0383 12.3414 13.7399 15.0013 11.2344C15.1431 11.1021 15.2732 10.9498 15.3953 10.7894C19.2886 10.108 20.4313 5.76252 20.4747 3.37332L20.4865 2.71188H17.1291ZM2.12357 4.01071H4.17265C4.24358 5.64226 4.46031 7.5945 5.02775 9.16191C2.83286 8.10762 2.26937 5.30152 2.12357 4.01071ZM16.2465 9.16191C16.8139 7.5945 17.0306 5.63825 17.1016 4.01071H19.1506C19.0088 5.30552 18.4413 8.10762 16.2465 9.16191Z" fill="#F9B233"/>
</svg>
