<svg width="21" height="21" viewBox="0 0 21 21" fill="none" xmlns="http://www.w3.org/2000/svg">
<path fill-rule="evenodd" clip-rule="evenodd" d="M3.78902 1.06722L19.3001 4.94499C21.3617 5.46039 21.619 8.28612 19.6845 9.16546L14.9055 11.3378C13.9256 11.7831 12.865 11.944 11.8343 11.8342C11.9441 12.8649 11.7833 13.9255 11.3379 14.9053L9.16562 19.6843C8.28627 21.6189 5.46055 21.3615 4.94515 19.3L1.06738 3.78886C0.656458 2.14517 2.14532 0.6563 3.78902 1.06722ZM14.0778 9.51702C13.1408 9.94297 12.0919 9.97555 11.1527 9.64237C10.7978 9.51645 10.4584 9.33829 10.1467 9.10937C10.1033 9.07749 10.0605 9.04463 10.0182 9.01079L7.72936 7.17974C7.36507 6.88831 6.88847 7.36491 7.1799 7.7292L9.01095 10.018C9.04479 10.0603 9.07765 10.1032 9.10953 10.1466C9.33845 10.4583 9.51661 10.7976 9.64253 11.1526C9.97571 12.0918 9.94312 13.1406 9.51718 14.0777L7.34489 18.8567C7.24916 19.0673 6.94154 19.0393 6.88543 18.8149L3.00766 3.30379C2.96293 3.12485 3.12501 2.96277 3.30395 3.00751L18.815 6.88528C19.0395 6.94138 19.0675 7.249 18.8569 7.34473L14.0778 9.51702Z" fill="#F9B233"/>
</svg>
