<svg width="23" height="23" viewBox="0 0 23 23" fill="none" xmlns="http://www.w3.org/2000/svg">
<path d="M11.5 0.25C9.61871 0.251924 7.76793 0.72561 6.11702 1.62771C4.46611 2.52982 3.06779 3.83153 2.05001 5.41375V5.41375C0.618516 7.65875 0.029668 10.3387 0.388182 12.977C0.746695 15.6153 2.02933 18.0409 4.00799 19.8225C5.98664 21.6041 8.53306 22.6262 11.1944 22.707C13.8557 22.7878 16.4594 21.9221 18.5425 20.2638V20.2638C20.3555 18.8045 21.6713 16.8188 22.3085 14.5804C22.9458 12.3421 22.8732 9.96113 22.1007 7.76575C21.3281 5.57038 19.8938 3.66863 17.9952 2.32256C16.0966 0.976498 13.8273 0.252381 11.5 0.25V0.25ZM13.75 2.7925C15.3046 3.1949 16.7232 4.0059 17.8586 5.14137C18.9941 6.27684 19.8051 7.69544 20.2075 9.25C18.3265 9.30298 16.4905 9.83751 14.875 10.8025C14.0638 9.88223 13.1589 9.04899 12.175 8.31625C13.1663 6.64108 13.7088 4.73856 13.75 2.7925V2.7925ZM11.5 2.5C11.4963 4.1144 11.0529 5.69731 10.2175 7.07875C10.0488 6.98875 9.89126 6.8875 9.72251 6.80875C8.27391 6.04441 6.72498 5.48771 5.12126 5.155C5.95718 4.31409 6.95103 3.64664 8.04571 3.19101C9.14038 2.73538 10.3143 2.50054 11.5 2.5V2.5ZM3.62501 7.18C5.38948 7.42512 7.09835 7.97317 8.67626 8.8L8.82251 8.89C7.99215 9.71957 7.00626 10.3771 5.92133 10.825C4.8364 11.2729 3.67375 11.5023 2.50001 11.5C2.50626 9.98837 2.89316 8.50267 3.62501 7.18V7.18ZM9.25001 20.2075C7.69544 19.8051 6.27685 18.9941 5.14138 17.8586C4.00591 16.7232 3.19491 15.3046 2.79251 13.75C4.29512 13.7166 5.77543 13.3795 7.14429 12.7589C8.51314 12.1382 9.74223 11.247 10.7575 10.1387C11.5708 10.7399 12.3243 11.4181 13.0075 12.1638C11.8683 13.1795 10.9477 14.4164 10.3017 15.7993C9.65575 17.1821 9.29792 18.682 9.25001 20.2075V20.2075ZM11.5 20.5C11.5024 19.2641 11.7594 18.0418 12.2549 16.9096C12.7504 15.7773 13.4738 14.7592 14.38 13.9187C14.4475 14.0087 14.515 14.0875 14.5713 14.1775C15.514 15.6211 16.2133 17.2098 16.6413 18.88C15.1355 19.9372 13.3398 20.503 11.5 20.5ZM18.4863 17.125C17.9977 15.6366 17.317 14.2184 16.4613 12.9062L16.225 12.625C17.5331 11.8973 19.0032 11.5104 20.5 11.5C20.4888 13.5496 19.7784 15.534 18.4863 17.125Z" fill="#5A4596"/>
</svg>
