<svg width="21" height="21" viewBox="0 0 21 21" fill="none" xmlns="http://www.w3.org/2000/svg">
<path d="M12.4167 16.2499C12.6709 16.2499 12.9147 16.149 13.0944 15.9693C13.2741 15.7895 13.3751 15.5458 13.3751 15.2916V13.3749C13.3751 13.1208 13.2741 12.877 13.0944 12.6973C12.9147 12.5176 12.6709 12.4166 12.4167 12.4166C12.1626 12.4166 11.9188 12.5176 11.7391 12.6973C11.5594 12.877 11.4584 13.1208 11.4584 13.3749V15.2916C11.4584 15.5458 11.5594 15.7895 11.7391 15.9693C11.9188 16.149 12.1626 16.2499 12.4167 16.2499ZM8.5834 16.2499C8.83757 16.2499 9.08132 16.149 9.26104 15.9693C9.44077 15.7895 9.54173 15.5458 9.54173 15.2916V13.3749C9.54173 13.1208 9.44077 12.877 9.26104 12.6973C9.08132 12.5176 8.83757 12.4166 8.5834 12.4166C8.32923 12.4166 8.08548 12.5176 7.90576 12.6973C7.72603 12.877 7.62507 13.1208 7.62507 13.3749V15.2916C7.62507 15.5458 7.72603 15.7895 7.90576 15.9693C8.08548 16.149 8.32923 16.2499 8.5834 16.2499ZM17.2084 4.74994H15.8859L14.228 1.44369C14.1773 1.32203 14.1021 1.21213 14.0071 1.12085C13.912 1.02958 13.7991 0.958885 13.6755 0.913197C13.5519 0.867508 13.4202 0.847805 13.2887 0.855319C13.1571 0.862832 13.0285 0.897401 12.9109 0.956864C12.7933 1.01633 12.6892 1.09941 12.6051 1.20091C12.5211 1.30242 12.4589 1.42017 12.4224 1.5468C12.3859 1.67343 12.376 1.80623 12.3931 1.93689C12.4103 2.06755 12.4542 2.19327 12.5221 2.30619L13.7392 4.74994H7.2609L8.47798 2.30619C8.571 2.08281 8.57608 1.83251 8.49219 1.60554C8.4083 1.37857 8.24165 1.19174 8.02571 1.08256C7.80977 0.973373 7.56052 0.949919 7.328 1.0169C7.09548 1.08389 6.89691 1.23635 6.77215 1.44369L5.11423 4.74994H3.79173C3.11437 4.76024 2.46241 5.0094 1.95082 5.45348C1.43924 5.89756 1.1009 6.50803 0.995479 7.17721C0.890059 7.8464 1.02433 8.53132 1.37461 9.11117C1.72489 9.69102 2.26868 10.1286 2.91007 10.3466L3.61923 17.4958C3.69075 18.2074 4.02494 18.8668 4.55655 19.3453C5.08817 19.8237 5.77903 20.0869 6.49423 20.0833H14.5251C15.2403 20.0869 15.9311 19.8237 16.4627 19.3453C16.9944 18.8668 17.3286 18.2074 17.4001 17.4958L18.1092 10.3466C18.752 10.1279 19.2967 9.68877 19.6467 9.10698C19.9967 8.52519 20.1296 7.8383 20.0217 7.16795C19.9138 6.49761 19.5721 5.88708 19.0572 5.44451C18.5423 5.00195 17.8873 4.75589 17.2084 4.74994V4.74994ZM15.4738 17.3041C15.45 17.5413 15.3386 17.7611 15.1614 17.9206C14.9842 18.0801 14.7539 18.1678 14.5155 18.1666H6.48465C6.24625 18.1678 6.01596 18.0801 5.83876 17.9206C5.66155 17.7611 5.55015 17.5413 5.52632 17.3041L4.8459 10.4999H16.1542L15.4738 17.3041ZM17.2084 8.58327H3.79173C3.53757 8.58327 3.29381 8.48231 3.11409 8.30258C2.93437 8.12286 2.8334 7.87911 2.8334 7.62494C2.8334 7.37077 2.93437 7.12702 3.11409 6.9473C3.29381 6.76757 3.53757 6.66661 3.79173 6.66661H17.2084C17.4626 6.66661 17.7063 6.76757 17.886 6.9473C18.0658 7.12702 18.1667 7.37077 18.1667 7.62494C18.1667 7.87911 18.0658 8.12286 17.886 8.30258C17.7063 8.48231 17.4626 8.58327 17.2084 8.58327Z" fill="#5A4596"/>
</svg>
