<svg width="23" height="21" viewBox="0 0 23 21" fill="none" xmlns="http://www.w3.org/2000/svg">
<path d="M16.9448 10.6299C17.3954 10.6349 17.8426 10.5596 18.26 10.4084C18.6773 10.2573 19.0564 10.0334 19.3748 9.74991L22.5586 6.91991C22.7681 6.73255 22.8857 6.4791 22.8857 6.21491C22.8857 5.95073 22.7681 5.69727 22.5586 5.50991C22.454 5.41618 22.3295 5.34179 22.1924 5.29102C22.0554 5.24025 21.9083 5.21411 21.7598 5.21411C21.6113 5.21411 21.4642 5.24025 21.3272 5.29102C21.1901 5.34179 21.0656 5.41618 20.9611 5.50991L17.7436 8.32991C17.639 8.42364 17.5145 8.49803 17.3775 8.5488C17.2404 8.59957 17.0933 8.62571 16.9448 8.62571C16.7963 8.62571 16.6492 8.59957 16.5122 8.5488C16.3751 8.49803 16.2506 8.42364 16.1461 8.32991V8.32991L20.1286 4.79991C20.2334 4.70667 20.3167 4.59598 20.3734 4.47416C20.4302 4.35234 20.4594 4.22177 20.4594 4.08991C20.4594 3.95805 20.4302 3.82748 20.3734 3.70566C20.3167 3.58384 20.2334 3.47315 20.1286 3.37991C20.0237 3.28667 19.8991 3.21271 19.7621 3.16225C19.625 3.11179 19.4781 3.08582 19.3298 3.08582C19.1815 3.08582 19.0346 3.11179 18.8975 3.16225C18.7605 3.21271 18.6359 3.28667 18.5311 3.37991L14.5598 6.91991C14.3503 6.73255 14.2327 6.4791 14.2327 6.21491C14.2327 5.95073 14.3503 5.69727 14.5598 5.50991L17.7436 2.67991C17.8484 2.58667 17.9317 2.47598 17.9884 2.35416C18.0452 2.23234 18.0744 2.10177 18.0744 1.96991C18.0744 1.83805 18.0452 1.70748 17.9884 1.58566C17.9317 1.46384 17.8484 1.35315 17.7436 1.25991C17.6387 1.16667 17.5141 1.09271 17.3771 1.04225C17.24 0.991792 17.0931 0.96582 16.9448 0.96582C16.7965 0.96582 16.6496 0.991792 16.5125 1.04225C16.3755 1.09271 16.2509 1.16667 16.1461 1.25991L12.9623 4.08991C12.3303 4.65241 11.9753 5.41491 11.9753 6.20991C11.9753 7.00491 12.3303 7.76741 12.9623 8.32991V8.32991L11.4998 9.61991L2.19605 1.31991L2.08355 1.25991C2.02604 1.21531 1.96164 1.17827 1.8923 1.14991L1.6898 1.07991L1.5548 0.999912H1.47605H1.25105C1.18398 0.990379 1.11563 0.990379 1.04855 0.999912C0.980447 1.02195 0.91609 1.05223 0.857303 1.08991L0.677303 1.18991H0.598553L0.531053 1.28991C0.483438 1.34271 0.441976 1.39967 0.407303 1.45991C0.374355 1.52089 0.347987 1.58451 0.328553 1.64991C0.328553 1.64991 0.328553 1.71991 0.328553 1.75991C0.055555 3.45132 0.229609 5.17601 0.836914 6.79723C1.44422 8.41844 2.46808 9.89161 3.8273 11.0999L6.7973 13.7299L0.711053 19.1299C0.605608 19.2229 0.521915 19.3335 0.4648 19.4553C0.407685 19.5772 0.37828 19.7079 0.37828 19.8399C0.37828 19.9719 0.407685 20.1026 0.4648 20.2245C0.521915 20.3463 0.605608 20.4569 0.711053 20.5499C0.816173 20.6426 0.940841 20.7159 1.07791 20.7657C1.21498 20.8154 1.36175 20.8407 1.5098 20.8399C1.65786 20.8407 1.80463 20.8154 1.9417 20.7657C2.07876 20.7159 2.20343 20.6426 2.30855 20.5499L9.1373 14.5699L12.3211 11.7399L14.5711 9.73991C15.1988 10.3039 16.0523 10.6239 16.9448 10.6299V10.6299ZM8.33855 12.4499L5.3798 9.80991C3.75807 8.34865 2.74263 6.44118 2.4998 4.39991L9.93605 10.9999L8.33855 12.4499ZM15.3586 13.0199C15.1467 12.8303 14.8588 12.7232 14.5582 12.7223C14.2575 12.7213 13.9688 12.8266 13.7554 13.0149C13.5421 13.2032 13.4217 13.4591 13.4206 13.7264C13.4195 13.9936 13.538 14.2503 13.7498 14.4399L20.8373 20.7399C21.0522 20.9137 21.3344 21.0069 21.6248 20.9999C21.7729 21.0007 21.9196 20.9754 22.0567 20.9257C22.1938 20.8759 22.3184 20.8026 22.4236 20.7099C22.529 20.6169 22.6127 20.5063 22.6698 20.3845C22.7269 20.2626 22.7563 20.1319 22.7563 19.9999C22.7563 19.8679 22.7269 19.7372 22.6698 19.6153C22.6127 19.4935 22.529 19.3829 22.4236 19.2899L15.3586 13.0199Z" fill="#5A4596"/>
</svg>
