<svg width="28" height="18" viewBox="0 0 28 18" fill="none" xmlns="http://www.w3.org/2000/svg">
<path d="M26.3734 14.8001C26.1126 14.7235 25.862 14.6161 25.6267 14.4801C24.8003 13.9869 23.8558 13.7264 22.8934 13.7264C21.931 13.7264 20.9865 13.9869 20.1601 14.4801C19.6394 14.7746 19.0515 14.9293 18.4534 14.9293C17.8553 14.9293 17.2673 14.7746 16.7467 14.4801C15.9103 14.0019 14.9635 13.7503 14.0001 13.7503C13.0366 13.7503 12.0898 14.0019 11.2534 14.4801C10.7328 14.7746 10.1448 14.9293 9.54672 14.9293C8.9486 14.9293 8.36066 14.7746 7.84005 14.4801C6.99506 13.9972 6.03994 13.74 5.06671 13.7334C4.12649 13.7354 3.20457 13.9935 2.40005 14.4801C2.16478 14.6161 1.91412 14.7235 1.65338 14.8001C1.3139 14.8991 1.02767 15.1289 0.857633 15.439C0.687599 15.7491 0.6477 16.114 0.746714 16.4534C0.845728 16.7929 1.07554 17.0792 1.3856 17.2492C1.69566 17.4192 2.06057 17.4591 2.40005 17.3601C2.86753 17.2158 3.31537 17.0143 3.73338 16.7601C4.15814 16.5117 4.64133 16.3808 5.13338 16.3808C5.62543 16.3808 6.10863 16.5117 6.53338 16.7601C7.45786 17.2787 8.50006 17.551 9.56005 17.551C10.62 17.551 11.6622 17.2787 12.5867 16.7601C13.016 16.5107 13.5036 16.3793 14.0001 16.3793C14.4965 16.3793 14.9841 16.5107 15.4134 16.7601C16.3379 17.2787 17.3801 17.551 18.4401 17.551C19.5 17.551 20.5422 17.2787 21.4667 16.7601C21.8915 16.5117 22.3747 16.3808 22.8667 16.3808C23.3588 16.3808 23.842 16.5117 24.2667 16.7601C24.6847 17.0143 25.1326 17.2158 25.6001 17.3601C25.9395 17.4591 26.3044 17.4192 26.6145 17.2492C26.9246 17.0792 27.1544 16.7929 27.2534 16.4534C27.3524 16.114 27.3125 15.7491 27.1425 15.439C26.9724 15.1289 26.6862 14.8991 26.3467 14.8001L26.3734 14.8001ZM2.37338 4.02678C2.84086 3.88251 3.28871 3.68098 3.70672 3.42677C4.13147 3.17838 4.61466 3.04747 5.10672 3.04747C5.59877 3.04747 6.08196 3.17838 6.50672 3.42677C7.43119 3.94534 8.4734 4.21769 9.53338 4.21769C10.5934 4.21769 11.6356 3.94535 12.5601 3.42678C12.9893 3.17737 13.4769 3.046 13.9734 3.046C14.4698 3.046 14.9575 3.17737 15.3867 3.42678C16.3112 3.94535 17.3534 4.21769 18.4134 4.21769C19.4734 4.21769 20.5156 3.94535 21.4401 3.42678C21.8648 3.17838 22.348 3.04747 22.8401 3.04747C23.3321 3.04747 23.8153 3.17838 24.2401 3.42678C24.6581 3.68098 25.1059 3.88251 25.5734 4.02678C25.7415 4.0758 25.9176 4.09124 26.0916 4.07221C26.2657 4.05318 26.4343 4.00005 26.5878 3.91586C26.7414 3.83167 26.8768 3.71806 26.9864 3.58153C27.096 3.44499 27.1777 3.2882 27.2267 3.12011C27.2757 2.95202 27.2912 2.77592 27.2722 2.60186C27.2531 2.4278 27.2 2.25919 27.1158 2.10567C27.0316 1.95214 26.918 1.8167 26.7815 1.70708C26.6449 1.59746 26.4881 1.5158 26.3201 1.46678C26.0593 1.39021 25.8086 1.28279 25.5734 1.14678C24.747 0.653536 23.8025 0.393108 22.8401 0.393108C21.8776 0.393108 20.9331 0.653535 20.1067 1.14678C19.5861 1.44123 18.9982 1.59598 18.4001 1.59598C17.8019 1.59598 17.214 1.44123 16.6934 1.14678C15.857 0.668518 14.9102 0.416941 13.9467 0.416941C12.9832 0.416941 12.0365 0.668518 11.2001 1.14678C10.6794 1.44123 10.0915 1.59598 9.49338 1.59598C8.89527 1.59598 8.30733 1.44123 7.78672 1.14678C6.94173 0.663857 5.98661 0.406707 5.01338 0.400107C4.07316 0.402045 3.15124 0.660185 2.34672 1.14678C2.11145 1.28278 1.86079 1.39021 1.60005 1.46678C1.26057 1.56579 0.974332 1.79561 0.804299 2.10567C0.634266 2.41573 0.594369 2.78063 0.693383 3.12011C0.792397 3.45959 1.02221 3.74583 1.33227 3.91586C1.64233 4.08589 2.00724 4.12579 2.34672 4.02678L2.37338 4.02678ZM2.37338 10.6934C2.84086 10.5492 3.28871 10.3476 3.70672 10.0934C4.13147 9.84505 4.61466 9.71414 5.10672 9.71414C5.59877 9.71414 6.08196 9.84505 6.50672 10.0934C7.43119 10.612 8.4734 10.8844 9.53338 10.8844C10.5934 10.8844 11.6356 10.612 12.5601 10.0934C12.9893 9.84404 13.4769 9.71267 13.9734 9.71267C14.4698 9.71267 14.9575 9.84404 15.3867 10.0934C16.3112 10.612 17.3534 10.8844 18.4134 10.8844C19.4734 10.8844 20.5156 10.612 21.4401 10.0934C21.8648 9.84505 22.348 9.71414 22.8401 9.71414C23.3321 9.71414 23.8153 9.84505 24.2401 10.0934C24.6581 10.3476 25.1059 10.5492 25.5734 10.6934C25.748 10.7594 25.9344 10.7879 26.1207 10.7772C26.3071 10.7665 26.489 10.7168 26.6549 10.6313C26.8208 10.5459 26.9669 10.4266 27.0838 10.2811C27.2007 10.1356 27.2857 9.96719 27.3334 9.78678C27.3824 9.61869 27.3979 9.44258 27.3788 9.26852C27.3598 9.09447 27.3067 8.92586 27.2225 8.77233C27.1383 8.61881 27.0247 8.48337 26.8881 8.37375C26.7516 8.26413 26.5948 8.18247 26.4267 8.13344C26.166 8.05688 25.9153 7.94945 25.6801 7.81344C24.8536 7.3202 23.9091 7.05978 22.9467 7.05978C21.9843 7.05978 21.0398 7.3202 20.2134 7.81344C19.6928 8.1079 19.1048 8.26265 18.5067 8.26265C17.9086 8.26265 17.3207 8.1079 16.8001 7.81344C15.9637 7.33518 15.0169 7.08361 14.0534 7.08361C13.0899 7.08361 12.1431 7.33518 11.3067 7.81344C10.7861 8.1079 10.1982 8.26265 9.60005 8.26265C9.00194 8.26265 8.414 8.1079 7.89338 7.81344C7.0484 7.33052 6.09327 7.07338 5.12005 7.06678C4.17982 7.06871 3.2579 7.32685 2.45338 7.81344C2.21812 7.94945 1.96746 8.05688 1.70672 8.13344C1.36724 8.23246 1.081 8.46227 0.910965 8.77233C0.740932 9.08239 0.701035 9.4473 0.800049 9.78677C0.899063 10.1263 1.12888 10.4125 1.43894 10.5825C1.749 10.7526 2.1139 10.7925 2.45338 10.6934L2.37338 10.6934Z" fill="#5A4596"/>
</svg>
