<?xml version="1.0" encoding="utf-8"?>
<!-- Generator: Adobe Illustrator 27.8.0, SVG Export Plug-In . SVG Version: 6.00 Build 0)  -->
<svg version="1.1" id="Layer_1" xmlns="http://www.w3.org/2000/svg" xmlns:xlink="http://www.w3.org/1999/xlink" x="0px" y="0px"
	 viewBox="0 0 23 23" style="enable-background:new 0 0 23 23;" xml:space="preserve">
<style type="text/css">
	.st0{fill:#5A4596;}
</style>
<path class="st0" d="M3,8.8c-1.7,1.9-1.3,4.7,0.1,7.2c0.6,1.1,1.4,2.1,2.3,3c0.9,0.9,1.9,1.7,3,2.3c2.5,1.4,5.3,1.8,7.3,0.1
	c-0.3-0.5-0.8-1.1-1.3-1.7c-0.4-0.4-0.9-0.8-1.4-1l-0.9,0.9l0,0c-0.6,0.6-2,0-3.4-1.1c-0.5-0.4-1-0.9-1.5-1.3
	c-0.5-0.5-0.9-1-1.3-1.5c-1.1-1.4-1.7-2.7-1-3.3l0.9-0.9C5.3,11,4.8,10.5,4.3,9.9C3.9,9.5,3.4,9.1,3,8.8L3,8.8z M2.2,16.5
	c-1.7-3-2-6.3,0.3-8.7l0.3-0.2l0.3,0.2C3.7,8.1,4.4,8.6,5,9.2c0.7,0.7,1.3,1.5,1.7,2.1l0.2,0.3L6.7,12l-1.1,1.1
	c-0.2,0.2,0.3,1,1.1,2C7,15.6,7.4,16,7.9,16.5c0.5,0.5,1,0.9,1.4,1.3c1,0.8,1.9,1.4,2.1,1.2l1.1-1.1l0.2-0.2l0.3,0.1
	c0.7,0.2,1.4,0.8,2,1.4c0.7,0.7,1.4,1.6,1.7,2.3l0.1,0.3l-0.2,0.2c-2.4,2.4-5.7,2-8.7,0.3c-1.1-0.7-2.2-1.5-3.2-2.5
	C3.7,18.7,2.9,17.7,2.2,16.5L2.2,16.5z"/>
<path class="st0" d="M14.8,10.9v1.5v0.3h-0.3h-7H7.3l0-0.3c0-0.2,0-0.3,0-0.5c0-0.2,0.1-0.3,0.1-0.5h0c0.1-0.3,0.2-0.5,0.4-0.8
	c0.1-0.2,0.3-0.5,0.5-0.7c0.2-0.2,0.5-0.5,0.7-0.8c0.3-0.3,0.6-0.6,1-0.9c0.6-0.5,1-0.9,1.4-1.2c0.4-0.4,0.7-0.7,0.9-0.9
	c0.2-0.2,0.3-0.5,0.3-0.7h0c0.1-0.2,0.1-0.5,0.1-0.7c0-0.2,0-0.5-0.1-0.7c0-0.2-0.1-0.3-0.3-0.5c-0.2-0.1-0.3-0.3-0.5-0.3v0
	c-0.2-0.1-0.4-0.1-0.7-0.1c-0.5,0-0.9,0.2-1.1,0.5l0,0C9.7,4,9.6,4.5,9.6,5l0,0.3l-0.3,0L7.7,5.1l-0.3,0l0-0.3c0-0.5,0.2-1,0.3-1.4
	C8,3,8.3,2.7,8.6,2.4c0.3-0.3,0.7-0.5,1.1-0.6c0.4-0.1,0.9-0.2,1.4-0.2c0.5,0,1,0.1,1.5,0.2c0.4,0.2,0.8,0.4,1.1,0.7
	c0.3,0.3,0.6,0.7,0.7,1c0.2,0.4,0.2,0.8,0.2,1.3c0,0.2,0,0.5-0.1,0.7c0,0.2-0.1,0.4-0.2,0.7l0,0c-0.1,0.2-0.2,0.4-0.4,0.7
	C14,7,13.8,7.2,13.6,7.5l0,0c-0.2,0.2-0.5,0.5-0.8,0.8c-0.3,0.3-0.7,0.7-1.2,1h0l-0.2,0.1c-0.4,0.4-0.9,0.7-1.2,1.1l4.3,0l0.3,0
	V10.9L14.8,10.9z M14.2,12.1v-1l-4.7,0l-0.6,0l0.4-0.5C9.7,10.1,10.4,9.6,11,9l0.2-0.1l0,0c0.5-0.4,0.8-0.7,1.2-1
	c0.3-0.3,0.6-0.6,0.8-0.8c0.2-0.2,0.4-0.4,0.5-0.6c0.1-0.2,0.2-0.4,0.3-0.6l0,0c0.1-0.2,0.1-0.4,0.2-0.6c0-0.2,0.1-0.4,0.1-0.6
	c0-0.4-0.1-0.7-0.2-1c-0.1-0.3-0.3-0.6-0.6-0.8c-0.3-0.3-0.6-0.4-0.9-0.6c-0.4-0.1-0.8-0.2-1.3-0.2c-0.5,0-0.9,0.1-1.3,0.2
	C9.6,2.4,9.3,2.6,9,2.8C8.7,3,8.5,3.3,8.4,3.7C8.2,3.9,8.1,4.2,8.1,4.6L9,4.7c0.1-0.5,0.3-1,0.6-1.4v0c0.4-0.4,0.9-0.7,1.5-0.7
	c0.3,0,0.6,0.1,0.9,0.1h0c0.3,0.1,0.5,0.3,0.7,0.5c0.2,0.2,0.4,0.5,0.4,0.7c0.1,0.2,0.1,0.5,0.1,0.8c0,0.3,0,0.5-0.1,0.8v0
	c-0.1,0.3-0.2,0.6-0.4,0.9c-0.2,0.3-0.5,0.6-0.9,1c-0.4,0.4-0.9,0.8-1.5,1.3c-0.4,0.3-0.7,0.6-1,0.8C9.2,9.8,8.9,10,8.8,10.3
	c-0.2,0.2-0.3,0.4-0.5,0.7c-0.1,0.2-0.2,0.4-0.3,0.7v0c0,0.1-0.1,0.3-0.1,0.4c0,0,0,0.1,0,0.1H14.2L14.2,12.1z M19.7,12.4v-2.2h-4.3
	h-0.3V9.9V8.7V8.6l0.1-0.1L20,1.7l0.1-0.1h0.1h1.2h0.3l0,0.3l0,6.5h1H23v0.3v1.2v0.3h-0.3h-1v2.2v0.3l-0.3,0l-1.4,0l-0.3,0V12.4
	L19.7,12.4z M20.3,9.9v2.2l0.8,0V9.9V9.6h0.3h1V9h-1h-0.3V8.7l0-6.5h-0.8l-4.7,6.6v0.8H20h0.3V9.9L20.3,9.9z M19.7,8.4V4.8l-2.5,3.6
	H19.7L19.7,8.4z M20.3,3.9v4.7V9H20h-3.3h-0.5l0.3-0.4l3.3-4.7L20.3,3V3.9L20.3,3.9z"/>
</svg>
