<?xml version="1.0" encoding="utf-8"?>
<!-- Generator: Adobe Illustrator 27.8.0, SVG Export Plug-In . SVG Version: 6.00 Build 0)  -->
<svg version="1.1" id="Layer_1" xmlns="http://www.w3.org/2000/svg" xmlns:xlink="http://www.w3.org/1999/xlink" x="0px" y="0px"
	 viewBox="0 0 23 23" style="enable-background:new 0 0 23 23;" xml:space="preserve">
<style type="text/css">
	.st0{fill:#5A4596;}
</style>
<g>
	<path class="st0" d="M17.8,6.7h3.1c0.2,0,0.3,0.1,0.4,0.2c0.1,0.1,0.2,0.3,0.2,0.5v2c0,0.2-0.1,0.3-0.2,0.5
		C21.3,10,21.1,10,20.9,10h-3.1c-0.2,0-0.3-0.1-0.4-0.2c-0.1-0.1-0.2-0.3-0.2-0.5v-2c0-0.2,0.1-0.3,0.2-0.5
		C17.5,6.8,17.6,6.7,17.8,6.7L17.8,6.7z M20.9,7.1h-3.1c0,0-0.1,0-0.1,0.1c0,0-0.1,0.1-0.1,0.2v2c0,0.1,0,0.1,0.1,0.2
		c0,0,0.1,0.1,0.1,0.1h3.1c0,0,0.1,0,0.1-0.1c0,0,0.1-0.1,0.1-0.2v-2c0-0.1,0-0.1-0.1-0.2C21,7.1,21,7.1,20.9,7.1L20.9,7.1z"/>
	<path class="st0" d="M18.2,11h0.6c0.1,0,0.2,0.1,0.3,0.1c0.1,0.1,0.1,0.2,0.1,0.3v0.3c0,0.1,0,0.2-0.1,0.3
		c-0.1,0.1-0.2,0.1-0.3,0.1h-0.6c-0.1,0-0.2-0.1-0.3-0.1c-0.1-0.1-0.1-0.2-0.1-0.3v-0.3c0-0.1,0-0.2,0.1-0.3
		C18,11.1,18.1,11,18.2,11L18.2,11z M18.8,11.4h-0.6l0,0l0,0c0,0,0,0,0,0v0.3c0,0,0,0,0,0l0,0l0,0h0.6l0,0l0,0c0,0,0,0,0,0
		L18.8,11.4C18.8,11.5,18.8,11.5,18.8,11.4L18.8,11.4L18.8,11.4L18.8,11.4z"/>
	<path class="st0" d="M19.9,11h0.6c0.1,0,0.2,0.1,0.3,0.1c0.1,0.1,0.1,0.2,0.1,0.3v0.3c0,0.1,0,0.2-0.1,0.3
		c-0.1,0.1-0.2,0.1-0.3,0.1h-0.6c-0.1,0-0.2-0.1-0.3-0.1l0,0c-0.1-0.1-0.1-0.2-0.1-0.3v-0.3c0-0.1,0-0.2,0.1-0.3l0,0
		C19.7,11.1,19.8,11,19.9,11L19.9,11z M20.5,11.4h-0.6l0,0c0,0,0,0,0,0v0.3c0,0,0,0,0,0l0,0h0.6l0,0l0,0c0,0,0,0,0,0L20.5,11.4
		C20.5,11.5,20.5,11.5,20.5,11.4L20.5,11.4L20.5,11.4L20.5,11.4z"/>
	<path class="st0" d="M18.2,12.5h0.6c0.1,0,0.2,0.1,0.3,0.1c0.1,0.1,0.1,0.2,0.1,0.3v0.3c0,0.1,0,0.2-0.1,0.3
		c-0.1,0.1-0.2,0.1-0.3,0.1h-0.6c-0.1,0-0.2-0.1-0.3-0.1c-0.1-0.1-0.1-0.2-0.1-0.3v-0.3c0-0.1,0-0.2,0.1-0.3
		C18,12.5,18.1,12.5,18.2,12.5L18.2,12.5z M18.8,12.9h-0.6l0,0l0,0c0,0,0,0,0,0v0.3c0,0,0,0,0,0l0,0l0,0h0.6l0,0c0,0,0,0,0,0
		L18.8,12.9C18.8,12.9,18.8,12.9,18.8,12.9L18.8,12.9L18.8,12.9z"/>
	<path class="st0" d="M19.9,12.5h0.6c0.1,0,0.2,0.1,0.3,0.1c0.1,0.1,0.1,0.2,0.1,0.3v0.3c0,0.1,0,0.2-0.1,0.3
		c-0.1,0.1-0.2,0.1-0.3,0.1h-0.6c-0.1,0-0.2-0.1-0.3-0.1c-0.1-0.1-0.1-0.2-0.1-0.3v-0.3c0-0.1,0-0.2,0.1-0.3
		C19.7,12.5,19.8,12.5,19.9,12.5L19.9,12.5z M20.5,12.9h-0.6l0,0l0,0c0,0,0,0,0,0v0.3c0,0,0,0,0,0l0,0l0,0h0.6l0,0l0,0c0,0,0,0,0,0
		L20.5,12.9C20.5,12.9,20.5,12.9,20.5,12.9L20.5,12.9L20.5,12.9L20.5,12.9z"/>
	<path class="st0" d="M16.5,12.6V13c0,0.2-0.1,0.4-0.2,0.6c-0.1,0.2-0.3,0.3-0.5,0.3H2.4c-0.2,0-0.4-0.1-0.5-0.3
		c-0.1-0.1-0.2-0.3-0.2-0.6v-0.4v-0.2h0.2h14.5h0.2V12.6L16.5,12.6z M16.1,13v-0.2H2.1V13c0,0.1,0,0.2,0.1,0.3
		c0.1,0.1,0.1,0.1,0.2,0.1h13.4c0.1,0,0.2,0,0.2-0.1C16.1,13.3,16.1,13.1,16.1,13L16.1,13z"/>
	<path class="st0" d="M16.5,11v0.9v0.2h-0.2H1.9H1.7v-0.2V11v-0.2h0.2h14.5h0.2V11L16.5,11z M16.1,11.7v-0.5H2.1v0.5H16.1L16.1,11.7
		z"/>
	<path class="st0" d="M2.4,9.1h13.4c0.2,0,0.4,0.1,0.5,0.3c0.1,0.1,0.2,0.3,0.2,0.6v0.3v0.2h-0.2H1.8H1.6v-0.2V9.9
		c0-0.2,0.1-0.4,0.2-0.6C2,9.2,2.2,9.1,2.4,9.1L2.4,9.1z M15.8,9.5H2.4c-0.1,0-0.2,0-0.2,0.1C2.1,9.7,2,9.8,2,9.9V10h14.1V9.9
		c0-0.1,0-0.2-0.1-0.3C15.9,9.5,15.9,9.5,15.8,9.5L15.8,9.5z"/>
	<path class="st0" d="M1.8,4.9h19.4c0.5,0,1,0.2,1.3,0.6C22.8,5.9,23,6.4,23,6.9v7c0,0.5-0.2,1-0.5,1.4c-0.3,0.4-0.8,0.6-1.3,0.6
		H1.8c-0.5,0-1-0.2-1.3-0.6C0.2,14.9,0,14.4,0,13.9v-7c0-0.5,0.2-1,0.5-1.4C0.8,5.2,1.3,4.9,1.8,4.9L1.8,4.9z M21.2,5.8H1.8
		c-0.3,0-0.5,0.1-0.7,0.3C0.9,6.3,0.8,6.6,0.8,6.9v7c0,0.3,0.1,0.6,0.3,0.9c0.2,0.2,0.4,0.3,0.7,0.3h19.4c0.3,0,0.5-0.1,0.7-0.3
		c0.2-0.2,0.3-0.5,0.3-0.9v-7c0-0.3-0.1-0.6-0.3-0.9C21.7,5.9,21.5,5.8,21.2,5.8L21.2,5.8z"/>
	<path class="st0" d="M2.8,22.4c-0.2-0.1-0.3-0.2-0.4-0.3c-0.1-0.1-0.2-0.3-0.3-0.4v0C2.1,21.5,2,21.4,2,21.2c0-0.2,0-0.4,0-0.5
		c0.1-0.4,0.4-0.7,0.6-0.9c0,0,0.1-0.1,0.1-0.1l0,0l0,0c0.1-0.1,0.2-0.1,0.2-0.2c0-0.1,0.1-0.1,0.1-0.2c0-0.1,0-0.1-0.1-0.2
		c-0.1-0.1-0.2-0.2-0.3-0.3l0,0l0,0l0,0c-0.3-0.3-0.6-0.6-0.7-1.2h0c0-0.1,0-0.1,0-0.2v0c0-0.1,0-0.1,0-0.2v0c0-0.1,0-0.2,0-0.2h0
		c0-0.1,0-0.2,0.1-0.3l0.5,0.2c0,0.1,0,0.1-0.1,0.2v0c0,0.1,0,0.1,0,0.2c0,0.1,0,0.1,0,0.2v0c0,0.1,0,0.1,0,0.2h0
		c0,0.4,0.3,0.6,0.5,0.8l0,0l0,0l0,0l0,0c0.1,0.1,0.2,0.2,0.3,0.4c0.1,0.2,0.2,0.3,0.2,0.5c0,0.2-0.1,0.4-0.2,0.5
		c-0.1,0.1-0.2,0.2-0.3,0.3c0,0-0.1,0.1-0.1,0.1c-0.1,0.1-0.3,0.3-0.4,0.6l0,0c0,0.1,0,0.2,0,0.3c0,0.1,0,0.2,0.1,0.3l0,0
		c0,0.1,0.1,0.2,0.2,0.3c0.1,0.1,0.2,0.1,0.3,0.2L2.8,22.4L2.8,22.4z"/>
	<path class="st0" d="M5.7,22.4c-0.2-0.1-0.3-0.2-0.4-0.3C5.1,22,5,21.8,5,21.7v0c-0.1-0.1-0.1-0.3-0.1-0.5c0-0.2,0-0.4,0-0.5
		c0.1-0.4,0.4-0.7,0.6-0.9c0,0,0.1-0.1,0.1-0.1l0,0l0,0c0.1-0.1,0.2-0.1,0.2-0.2c0-0.1,0.1-0.1,0.1-0.2c0-0.1,0-0.1-0.1-0.2
		c-0.1-0.1-0.2-0.2-0.3-0.3l0,0l0,0l0,0c-0.3-0.3-0.6-0.6-0.7-1.2h0c0-0.1,0-0.1,0-0.2v0c0-0.1,0-0.1,0-0.2v0c0-0.1,0-0.2,0-0.2h0
		c0-0.1,0-0.2,0.1-0.3l0.5,0.2c0,0.1,0,0.1-0.1,0.2v0c0,0.1,0,0.1,0,0.2c0,0.1,0,0.1,0,0.2v0c0,0.1,0,0.1,0,0.2h0
		c0,0.4,0.3,0.6,0.5,0.8l0,0l0,0l0,0l0,0c0.1,0.1,0.2,0.2,0.3,0.4c0.1,0.2,0.2,0.3,0.2,0.5c0,0.2-0.1,0.4-0.2,0.5
		C6.2,19.8,6.1,19.9,6,20c0,0-0.1,0.1-0.1,0.1c-0.1,0.1-0.3,0.3-0.4,0.6l0,0c0,0.1,0,0.2,0,0.3c0,0.1,0,0.2,0.1,0.3l0,0
		c0,0.1,0.1,0.2,0.2,0.3c0.1,0.1,0.2,0.1,0.3,0.2L5.7,22.4L5.7,22.4z"/>
	<path class="st0" d="M8.5,22.4c-0.2-0.1-0.3-0.2-0.4-0.3c-0.1-0.1-0.2-0.3-0.3-0.4v0c-0.1-0.1-0.1-0.3-0.1-0.5c0-0.2,0-0.4,0-0.5
		c0.1-0.4,0.4-0.7,0.6-0.9c0,0,0.1-0.1,0.1-0.1l0,0l0,0c0.1-0.1,0.2-0.1,0.2-0.2c0-0.1,0.1-0.1,0.1-0.2c0-0.1,0-0.1-0.1-0.2
		c-0.1-0.1-0.2-0.2-0.3-0.3l0,0l0,0l0,0c-0.3-0.3-0.6-0.6-0.7-1.2h0c0-0.1,0-0.1,0-0.2v0c0-0.1,0-0.1,0-0.2v0c0-0.1,0-0.2,0-0.2h0
		c0-0.1,0-0.2,0.1-0.3l0.5,0.2c0,0.1,0,0.1-0.1,0.2v0c0,0.1,0,0.1,0,0.2c0,0.1,0,0.1,0,0.2v0c0,0.1,0,0.1,0,0.2h0
		c0,0.4,0.3,0.6,0.5,0.8l0,0l0,0l0,0l0,0c0.1,0.1,0.2,0.2,0.3,0.4c0.1,0.2,0.2,0.3,0.2,0.5c0,0.2-0.1,0.4-0.2,0.5
		C9,19.8,8.9,19.9,8.8,20c0,0-0.1,0.1-0.1,0.1c-0.1,0.1-0.3,0.3-0.4,0.6l0,0c0,0.1,0,0.2,0,0.3c0,0.1,0,0.2,0.1,0.3l0,0
		c0,0.1,0.1,0.2,0.2,0.3c0.1,0.1,0.2,0.1,0.3,0.2L8.5,22.4L8.5,22.4z"/>
	<path class="st0" d="M11.3,22.4c-0.2-0.1-0.3-0.2-0.4-0.3c-0.1-0.1-0.2-0.3-0.3-0.4v0c-0.1-0.1-0.1-0.3-0.1-0.5c0-0.2,0-0.4,0-0.5
		c0.1-0.4,0.4-0.7,0.6-0.9c0,0,0.1-0.1,0.1-0.1l0,0l0,0c0.1-0.1,0.2-0.1,0.2-0.2c0-0.1,0.1-0.1,0.1-0.2c0-0.1,0-0.1-0.1-0.2
		c-0.1-0.1-0.2-0.2-0.3-0.3l0,0l0,0l0,0c-0.3-0.3-0.6-0.6-0.7-1.2h0c0-0.1,0-0.1,0-0.2v0c0-0.1,0-0.1,0-0.2v0c0-0.1,0-0.2,0-0.2h0
		c0-0.1,0-0.2,0.1-0.3l0.5,0.2c0,0.1,0,0.1-0.1,0.2v0c0,0.1,0,0.1,0,0.2c0,0.1,0,0.1,0,0.2v0c0,0.1,0,0.1,0,0.2h0
		c0,0.4,0.3,0.6,0.5,0.8l0,0l0,0l0,0l0,0c0.1,0.1,0.2,0.2,0.3,0.4c0.1,0.2,0.2,0.3,0.2,0.5c0,0.2-0.1,0.4-0.2,0.5
		c-0.1,0.1-0.2,0.2-0.3,0.3c0,0-0.1,0.1-0.1,0.1c-0.1,0.1-0.3,0.3-0.4,0.6l0,0c0,0.1,0,0.2,0,0.3c0,0.1,0,0.2,0.1,0.3l0,0
		c0,0.1,0.1,0.2,0.2,0.3c0.1,0.1,0.2,0.1,0.3,0.2L11.3,22.4L11.3,22.4z"/>
	<path class="st0" d="M14.1,22.4c-0.2-0.1-0.3-0.2-0.4-0.3c-0.1-0.1-0.2-0.3-0.3-0.4v0c-0.1-0.1-0.1-0.3-0.1-0.5c0-0.2,0-0.4,0-0.5
		c0.1-0.4,0.4-0.7,0.6-0.9c0,0,0.1-0.1,0.1-0.1l0,0l0,0c0.1-0.1,0.2-0.1,0.2-0.2c0-0.1,0.1-0.1,0.1-0.2c0-0.1,0-0.1-0.1-0.2
		c-0.1-0.1-0.2-0.2-0.3-0.3l0,0l0,0l0,0c-0.3-0.3-0.6-0.6-0.7-1.2h0c0-0.1,0-0.1,0-0.2v0c0-0.1,0-0.1,0-0.2v0c0-0.1,0-0.2,0-0.2h0
		c0-0.1,0-0.2,0.1-0.3l0.5,0.2c0,0.1,0,0.1-0.1,0.2v0c0,0.1,0,0.1,0,0.2c0,0.1,0,0.1,0,0.2v0c0,0.1,0,0.1,0,0.2h0
		c0,0.4,0.3,0.6,0.5,0.8l0,0l0,0l0,0l0,0c0.1,0.1,0.2,0.2,0.3,0.4c0.1,0.2,0.2,0.3,0.2,0.5c0,0.2-0.1,0.4-0.2,0.5
		c-0.1,0.1-0.2,0.2-0.3,0.3c0,0-0.1,0.1-0.1,0.1c-0.1,0.1-0.3,0.3-0.4,0.6l0,0c0,0.1,0,0.2,0,0.3c0,0.1,0,0.2,0.1,0.3l0,0
		c0,0.1,0.1,0.2,0.2,0.3c0.1,0.1,0.2,0.1,0.3,0.2L14.1,22.4L14.1,22.4z"/>
	<path class="st0" d="M17,22.4c-0.2-0.1-0.3-0.2-0.4-0.3c-0.1-0.1-0.2-0.3-0.3-0.4v0c-0.1-0.1-0.1-0.3-0.1-0.5c0-0.2,0-0.4,0-0.5
		c0.1-0.4,0.4-0.7,0.6-0.9c0,0,0.1-0.1,0.1-0.1l0,0l0,0c0.1-0.1,0.2-0.1,0.2-0.2c0-0.1,0.1-0.1,0.1-0.2c0-0.1,0-0.1-0.1-0.2
		c-0.1-0.1-0.2-0.2-0.3-0.3l0,0l0,0l0,0c-0.3-0.3-0.6-0.6-0.7-1.2h0c0-0.1,0-0.1,0-0.2v0c0-0.1,0-0.1,0-0.2v0c0-0.1,0-0.2,0-0.2h0
		c0-0.1,0-0.2,0.1-0.3l0.5,0.2c0,0.1,0,0.1-0.1,0.2v0c0,0.1,0,0.1,0,0.2c0,0.1,0,0.1,0,0.2v0c0,0.1,0,0.1,0,0.2h0
		c0,0.4,0.3,0.6,0.5,0.8l0,0l0,0l0,0l0,0c0.1,0.1,0.2,0.2,0.3,0.4c0.1,0.2,0.2,0.3,0.2,0.5c0,0.2-0.1,0.4-0.2,0.5
		c-0.1,0.1-0.2,0.2-0.3,0.3c0,0-0.1,0.1-0.1,0.1c-0.1,0.1-0.3,0.3-0.4,0.6l0,0c0,0.1,0,0.2,0,0.3c0,0.1,0,0.2,0.1,0.3l0,0
		c0,0.1,0.1,0.2,0.2,0.3c0.1,0.1,0.2,0.1,0.3,0.2L17,22.4L17,22.4z"/>
	<path class="st0" d="M19.8,22.4c-0.2-0.1-0.3-0.2-0.4-0.3c-0.1-0.1-0.2-0.3-0.3-0.4v0c-0.1-0.1-0.1-0.3-0.1-0.5c0-0.2,0-0.4,0-0.5
		c0.1-0.4,0.4-0.7,0.6-0.9c0,0,0.1-0.1,0.1-0.1l0,0l0,0c0.1-0.1,0.2-0.1,0.2-0.2c0-0.1,0.1-0.1,0.1-0.2c0-0.1,0-0.1-0.1-0.2
		c-0.1-0.1-0.2-0.2-0.3-0.3l0,0l0,0l0,0c-0.3-0.3-0.6-0.6-0.7-1.2h0c0-0.1,0-0.1,0-0.2v0c0-0.1,0-0.1,0-0.2v0c0-0.1,0-0.2,0-0.2h0
		c0-0.1,0-0.2,0.1-0.3l0.5,0.2c0,0.1,0,0.1-0.1,0.2v0c0,0.1,0,0.1,0,0.2c0,0.1,0,0.1,0,0.2v0c0,0.1,0,0.1,0,0.2h0
		c0,0.4,0.3,0.6,0.5,0.8l0,0l0,0l0,0l0,0c0.1,0.1,0.2,0.2,0.3,0.4c0.1,0.2,0.2,0.3,0.2,0.5c0,0.2-0.1,0.4-0.2,0.5
		c-0.1,0.1-0.2,0.2-0.3,0.3c0,0-0.1,0.1-0.1,0.1c-0.1,0.1-0.3,0.3-0.4,0.6l0,0c0,0.1,0,0.2,0,0.3c0,0.1,0,0.2,0.1,0.3l0,0
		c0,0.1,0.1,0.2,0.2,0.3c0.1,0.1,0.2,0.1,0.3,0.2L19.8,22.4L19.8,22.4z"/>
</g>
</svg>
