<?xml version="1.0" encoding="utf-8"?>
<!-- Generator: Adobe Illustrator 27.8.0, SVG Export Plug-In . SVG Version: 6.00 Build 0)  -->
<svg version="1.1" id="Layer_1" xmlns="http://www.w3.org/2000/svg" xmlns:xlink="http://www.w3.org/1999/xlink" x="0px" y="0px"
	 viewBox="0 0 23 23" style="enable-background:new 0 0 23 23;" xml:space="preserve">
<style type="text/css">
	.st0{fill:#5A4596;}
</style>
<path class="st0" d="M18,6.9c-0.1,0-0.1,0.1-0.2,0.2c0,0.1,0,0.2,0,0.3l0,0c0,0.1,0.1,0.1,0.2,0.2c0.1,0,0.2,0,0.3,0
	c0.1,0,0.1-0.1,0.2-0.2c0-0.1,0-0.2,0-0.3l0,0c0-0.1-0.1-0.1-0.2-0.2C18.1,6.9,18,6.9,18,6.9L18,6.9L18,6.9z M17.4,7
	c0.1-0.2,0.2-0.3,0.4-0.4c0.2-0.1,0.4-0.1,0.5,0c0.2,0.1,0.3,0.2,0.4,0.4l0,0v0c0.1,0.2,0,0.3,0,0.5c-0.1,0.2-0.2,0.3-0.4,0.4l0,0h0
	c-0.2,0.1-0.3,0-0.5,0c-0.2-0.1-0.3-0.2-0.4-0.4l0,0v0C17.4,7.3,17.4,7.1,17.4,7L17.4,7z"/>
<path class="st0" d="M16.4,7.6c-0.1,0-0.1,0.1-0.2,0.2c0,0.1,0,0.2,0,0.3l0,0c0,0.1,0.1,0.1,0.2,0.2c0.1,0,0.3,0,0.4-0.2
	c0-0.1,0-0.2,0-0.3c0-0.1-0.1-0.1-0.2-0.2C16.6,7.6,16.5,7.6,16.4,7.6L16.4,7.6L16.4,7.6z M15.9,7.6c0.1-0.2,0.2-0.3,0.4-0.4
	c0.2-0.1,0.4-0.1,0.5,0c0.2,0.1,0.3,0.2,0.4,0.4c0.1,0.2,0.1,0.4,0,0.5c-0.1,0.2-0.2,0.3-0.4,0.4l0,0h0c-0.2,0.1-0.3,0-0.5,0
	c-0.2-0.1-0.3-0.2-0.4-0.4l0,0v0C15.8,8,15.8,7.8,15.9,7.6L15.9,7.6z"/>
<path class="st0" d="M14.9,8.2c-0.1,0-0.1,0.1-0.2,0.2c0,0.1,0,0.2,0,0.3c0,0.1,0.1,0.1,0.2,0.2c0.1,0,0.2,0,0.3,0
	c0.1,0,0.1-0.1,0.2-0.2c0-0.1,0-0.2,0-0.3c0-0.1-0.1-0.1-0.2-0.2C15.1,8.2,15,8.2,14.9,8.2L14.9,8.2z M14.4,8.3
	c0.1-0.2,0.2-0.3,0.4-0.4c0.2-0.1,0.4-0.1,0.5,0c0.2,0.1,0.3,0.2,0.4,0.4c0.1,0.2,0.1,0.4,0,0.5c-0.1,0.2-0.2,0.3-0.4,0.4
	c-0.2,0.1-0.4,0.1-0.5,0c-0.2-0.1-0.3-0.2-0.4-0.4C14.3,8.6,14.3,8.4,14.4,8.3L14.4,8.3z"/>
<path class="st0" d="M13.2,8.6L13.2,8.6L13.2,8.6c0.2-0.1,0.4-0.1,0.5,0c0.2,0.1,0.3,0.2,0.4,0.4c0.1,0.2,0.1,0.4,0,0.5
	c-0.1,0.2-0.2,0.3-0.4,0.4c-0.2,0.1-0.4,0.1-0.5,0c-0.2-0.1-0.3-0.2-0.4-0.4l0,0v0c-0.1-0.2,0-0.3,0-0.5C12.8,8.8,13,8.6,13.2,8.6
	L13.2,8.6z M13.1,9.3c0.1,0.2,0.3,0.2,0.4,0.2c0.1,0,0.1-0.1,0.2-0.2c0-0.1,0-0.2,0-0.3c0-0.1-0.1-0.1-0.2-0.2c-0.1,0-0.2,0-0.3,0
	c-0.1,0-0.1,0.1-0.2,0.2C13.1,9.2,13.1,9.2,13.1,9.3L13.1,9.3L13.1,9.3L13.1,9.3z"/>
<path class="st0" d="M11.6,9.2L11.6,9.2L11.6,9.2c0.2-0.1,0.4-0.1,0.5,0c0.2,0.1,0.3,0.2,0.4,0.4c0.1,0.2,0.1,0.4,0,0.5
	c-0.1,0.2-0.2,0.3-0.4,0.4l0,0c-0.2,0.1-0.4,0.1-0.5,0c-0.2-0.1-0.3-0.2-0.4-0.4l0,0v0c-0.1-0.2,0-0.3,0-0.5
	C11.3,9.4,11.4,9.3,11.6,9.2L11.6,9.2z M11.6,10c0.1,0.3,0.3,0.2,0.4,0.2l0,0c0.1,0,0.1-0.1,0.2-0.2c0-0.1,0-0.2,0-0.3
	c0-0.1-0.1-0.1-0.2-0.2c-0.1,0-0.2,0-0.3,0c-0.1,0-0.1,0.1-0.2,0.2C11.5,9.8,11.5,9.9,11.6,10L11.6,10L11.6,10z"/>
<path class="st0" d="M10.2,10.2c-0.1,0-0.1,0.1-0.2,0.2c0,0.1,0,0.2,0,0.3c0,0.1,0.1,0.1,0.2,0.2c0.1,0,0.2,0,0.3,0
	c0.1,0,0.1-0.1,0.2-0.2c0-0.1,0-0.2,0-0.3c0-0.1-0.1-0.1-0.2-0.2C10.4,10.1,10.3,10.1,10.2,10.2L10.2,10.2z M9.7,10.2
	c0.1-0.2,0.2-0.3,0.4-0.4c0.2-0.1,0.4-0.1,0.5,0c0.2,0.1,0.3,0.2,0.4,0.4c0.1,0.2,0.1,0.4,0,0.5c-0.1,0.2-0.2,0.3-0.4,0.4
	c-0.2,0.1-0.4,0.1-0.5,0c-0.2-0.1-0.3-0.2-0.4-0.4C9.6,10.6,9.6,10.4,9.7,10.2L9.7,10.2z"/>
<path class="st0" d="M19.5,5.3l-4.4,1.8l-0.1,0l-0.1,0L6.6,5L5,5.7l6.1,2.4l0.8,0.3l-0.8,0.3L6,10.9L5.9,11l-0.1,0l-3.1-1L2.4,10
	l0.7,0.6L3.5,11L3,11.2l-1.6,0.7L1.5,12L4,11.6l0.2,0l0.1,0.1l2.2,1.9l5.5-2.1l0.8-0.3L12.5,12l-2.4,5.7l1.6-0.6l4.2-7l0.1-0.1
	l0.1,0l4.6-1.9c0.5-0.2,0.9-0.6,1.2-1v0c0.3-0.4,0.4-0.8,0.4-1.2c-0.3-0.3-0.7-0.5-1.2-0.6C20.6,5,20.1,5,19.5,5.3L19.5,5.3
	L19.5,5.3z M15,6.4l4.3-1.8h0c0.7-0.3,1.4-0.3,2-0.2c0.7,0.1,1.3,0.5,1.7,1l0.1,0.1l0,0.1c0,0.6-0.2,1.2-0.6,1.8l0,0
	c-0.3,0.5-0.8,0.9-1.5,1.2l0,0l-4.5,1.9l-4.2,7l-0.1,0.1l-0.1,0l-2.5,1L8.7,19l0.3-0.8l2.4-5.7l-5,1.8l-0.2,0.1l-0.2-0.1l-2.3-1.9
	l-2.5,0.4l-0.2,0l-0.1-0.1l-0.7-0.5L0,11.8l0.6-0.2l1.6-0.7l-0.7-0.6L1,9.8l0.5-0.2l0.9-0.4l0.1-0.1l0.1,0l3.1,1L10,8.5L3.9,6
	L3.1,5.7l0.8-0.3l2.5-1l0.1,0l0.1,0L15,6.4L15,6.4z"/>
</svg>
