<?xml version="1.0" encoding="utf-8"?>
<!-- Generator: Adobe Illustrator 27.8.0, SVG Export Plug-In . SVG Version: 6.00 Build 0)  -->
<svg version="1.1" id="Layer_1" xmlns="http://www.w3.org/2000/svg" xmlns:xlink="http://www.w3.org/1999/xlink" x="0px" y="0px"
	 viewBox="0 0 23 23" style="enable-background:new 0 0 23 23;" xml:space="preserve">
<style type="text/css">
	.st0{fill:#5A4596;}
</style>
<path class="st0" d="M11.5,5.8c1.7,0,3.2,0.7,4.3,1.8l0,0c1.1,1.1,1.8,2.6,1.8,4.3c0,1.7-0.7,3.2-1.8,4.3l0,0
	c-1.1,1.1-2.6,1.8-4.3,1.8s-3.2-0.7-4.3-1.8l0,0c-1.1-1.1-1.8-2.6-1.8-4.3c0-1.7,0.7-3.2,1.8-4.3l0,0C8.4,6.5,9.9,5.8,11.5,5.8
	L11.5,5.8z M15.4,8c-1-1-2.4-1.6-3.9-1.6S8.7,7,7.7,8c-1,1-1.6,2.4-1.6,3.9c0,1.5,0.6,2.9,1.6,3.9c1,1,2.4,1.6,3.9,1.6
	s2.9-0.6,3.9-1.6c1-1,1.6-2.4,1.6-3.9C17,10.4,16.4,9,15.4,8L15.4,8z"/>
<path class="st0" d="M11.6,3.4c2.3,0,4.4,0.9,6,2.5c1.5,1.5,2.5,3.6,2.5,6c0,1.3-0.3,2.6-0.8,3.7c-0.5,1-1.2,2-2.1,2.7l1.3,2.2v0
	c0.2,0.3,0.2,0.7,0.1,1.1c-0.1,0.4-0.3,0.7-0.7,0.9l0,0c-0.3,0.2-0.7,0.2-1.1,0.1c-0.4-0.1-0.7-0.3-0.9-0.7l-1.2-2.1
	c-0.4,0.2-0.9,0.3-1.3,0.4c-0.6,0.1-1.1,0.2-1.7,0.2c-0.6,0-1.1-0.1-1.6-0.2v0c-0.4-0.1-0.8-0.2-1.2-0.3l-1.2,2
	c-0.2,0.3-0.5,0.6-0.9,0.7c-0.4,0.1-0.7,0.1-1.1-0.1l0,0c-0.3-0.2-0.6-0.5-0.7-0.9c-0.1-0.4-0.1-0.8,0.1-1.1l1.2-2
	c-0.9-0.7-1.7-1.7-2.2-2.8c-0.6-1.1-0.9-2.4-0.9-3.8c0-2.3,0.9-4.4,2.5-6C7.1,4.4,9.2,3.4,11.6,3.4L11.6,3.4z M16.9,6.5
	c-1.4-1.4-3.3-2.2-5.4-2.2c-2.1,0-4,0.9-5.4,2.2S4,9.8,4,11.9c0,1.2,0.3,2.4,0.8,3.4c0.5,1.1,1.3,2,2.2,2.7l0.3,0.2l-0.2,0.3
	l-1.3,2.3c-0.1,0.1-0.1,0.3-0.1,0.5c0,0.1,0.1,0.3,0.3,0.4l0,0c0.1,0.1,0.3,0.1,0.5,0.1c0.1,0,0.3-0.1,0.4-0.3l1.4-2.3l0.2-0.3
	l0.3,0.1c0.4,0.2,0.9,0.3,1.4,0.4h0c0.5,0.1,1,0.1,1.5,0.1c0.5,0,1.1-0.1,1.6-0.2c0.5-0.1,1-0.3,1.5-0.5l0.3-0.2l0.2,0.3l1.4,2.5
	c0.1,0.1,0.2,0.2,0.4,0.3c0.1,0,0.3,0,0.5-0.1l0,0c0.1-0.1,0.2-0.2,0.3-0.4c0-0.1,0-0.3-0.1-0.5l0,0l-1.4-2.5L16,18.1l0.3-0.2
	c0.9-0.7,1.6-1.6,2.1-2.7c0.5-1,0.8-2.1,0.8-3.3C19.2,9.8,18.3,7.9,16.9,6.5L16.9,6.5z"/>
<path class="st0" d="M11.2,11.6l-1.7,3c0,0.1-0.1,0.2-0.1,0.3c0,0.1,0,0.1,0,0.2l0,0c0,0,0,0.1,0,0.1l0,0h0h0.1l0.1,0
	c0.1,0.1,0.2,0.1,0.3,0c0.1,0,0.2-0.1,0.2-0.2l1.6-2.8c0.1-0.1,0.1-0.2,0-0.3c0-0.1-0.1-0.2-0.2-0.2L12,11c0.2,0.1,0.4,0.3,0.4,0.6
	c0.1,0.2,0,0.5-0.1,0.7l-1.6,2.8c-0.1,0.2-0.3,0.4-0.6,0.5c-0.2,0.1-0.5,0-0.7-0.1c-0.1,0-0.1,0-0.2-0.1C9.1,15.5,9,15.3,9,15.2l0,0
	c-0.1-0.1-0.1-0.3-0.1-0.4c0-0.2,0-0.4,0.1-0.5l1.7-3L11.2,11.6L11.2,11.6z"/>
<path class="st0" d="M11.5,12L11.5,12c0.1,0,0.1,0,0.2-0.1l0,0c0,0,0.1-0.1,0.1-0.2V7c0-0.1,0-0.1-0.1-0.2c0,0-0.1-0.1-0.2-0.1h0
	c-0.1,0-0.1,0-0.2,0.1l0,0c0,0-0.1,0.1-0.1,0.2v4.8c0,0.1,0,0.1,0.1,0.2l0,0C11.3,12,11.4,12,11.5,12L11.5,12z M11.5,12.6L11.5,12.6
	c-0.2,0-0.4-0.1-0.6-0.2l0,0c-0.1-0.1-0.2-0.3-0.2-0.6V7c0-0.2,0.1-0.4,0.2-0.6h0c0.1-0.1,0.3-0.2,0.6-0.2h0c0.2,0,0.4,0.1,0.6,0.2
	c0.1,0.1,0.2,0.3,0.2,0.6v4.8c0,0.2-0.1,0.4-0.2,0.6v0C11.9,12.5,11.7,12.6,11.5,12.6L11.5,12.6z"/>
<path class="st0" d="M7.8,3.3L2.6,8.5L2.4,8.7L2.2,8.5c-1-1-1.4-2-1.5-3C0.7,4.4,1.2,3.4,1.9,2.6v0c0.8-0.8,1.8-1.2,2.9-1.2
	c1,0.1,2,0.5,3,1.5L8,3.1L7.8,3.3L7.8,3.3z M2.4,7.9l4.8-4.8C6.4,2.4,5.6,2.1,4.8,2C3.9,2,3,2.4,2.3,3l0,0c-0.6,0.6-1.1,1.5-1,2.5
	C1.4,6.3,1.7,7.1,2.4,7.9L2.4,7.9z"/>
<path class="st0" d="M15.9,3.2L20.7,8c0.7-0.8,1.1-1.6,1.1-2.4c0.1-1-0.4-1.9-1-2.5l0,0l0,0c-0.6-0.6-1.4-1-2.3-1
	C17.7,2,16.8,2.4,15.9,3.2L15.9,3.2z M20.5,8.6l-5.2-5.2l-0.2-0.2L15.3,3l0,0h0c1.1-1.1,2.2-1.5,3.2-1.5c1,0,2,0.5,2.7,1.2l0,0v0
	c0.8,0.8,1.2,1.8,1.2,2.9c-0.1,1-0.5,2-1.5,3l-0.2,0.2L20.5,8.6L20.5,8.6z"/>
</svg>
