<svg width="23" height="23" viewBox="0 0 23 23" fill="none" xmlns="http://www.w3.org/2000/svg">
<path d="M22.5025 2.0725C22.6331 1.90786 22.7149 1.70994 22.7388 1.50117C22.7626 1.29239 22.7275 1.08111 22.6375 0.89125C22.5463 0.699807 22.4029 0.538031 22.2237 0.424574C22.0446 0.311117 21.837 0.2506 21.625 0.25H1.37498C1.16293 0.2506 0.955369 0.311117 0.776227 0.424574C0.597085 0.538031 0.453656 0.699807 0.362476 0.89125C0.272412 1.08111 0.237323 1.29239 0.261183 1.50117C0.285043 1.70994 0.366899 1.90786 0.497476 2.0725L10.375 14.425V20.5H3.90623C3.60786 20.5 3.32171 20.6185 3.11073 20.8295C2.89975 21.0405 2.78123 21.3266 2.78123 21.625C2.78123 21.9234 2.89975 22.2095 3.11073 22.4205C3.32171 22.6315 3.60786 22.75 3.90623 22.75H19.0937C19.3921 22.75 19.6782 22.6315 19.8892 22.4205C20.1002 22.2095 20.2187 21.9234 20.2187 21.625C20.2187 21.3266 20.1002 21.0405 19.8892 20.8295C19.6782 20.6185 19.3921 20.5 19.0937 20.5H12.625V14.425L22.5025 2.0725ZM3.71498 2.5H19.285L16.585 5.875H6.45998L3.71498 2.5ZM11.5 12.2312L8.21498 8.125H14.785L11.5 12.2312Z" fill="#5A4596"/>
</svg>
