<?xml version="1.0" encoding="utf-8"?>
<!-- Generator: Adobe Illustrator 27.8.0, SVG Export Plug-In . SVG Version: 6.00 Build 0)  -->
<svg version="1.1" id="Layer_1" xmlns="http://www.w3.org/2000/svg" xmlns:xlink="http://www.w3.org/1999/xlink" x="0px" y="0px"
	 viewBox="0 0 23 23" style="enable-background:new 0 0 23 23;" xml:space="preserve">
<style type="text/css">
	.st0{fill:#5A4596;}
</style>
<path class="st0" d="M11.4,20.7c1.6,0,2.9,0,4-0.1c1.1-0.1,1.9-0.2,2.6-0.5l0.4-0.1l0.1,0.4c0,0.1,0.1,0.3,0.1,0.4
	c0.1,0.3,0.1,0.6,0.1,0.8c0-0.3,0-0.5,0-0.7c0-0.2,0-0.5,0-0.7l0-0.3l0.3-0.1c1.1-0.4,1.8-1.1,2.1-1.8c0.3-0.7,0.3-1.5,0.4-2.4H1.5
	c0,0.9,0.1,1.7,0.4,2.4c0.3,0.7,0.9,1.3,2,1.8l0.3,0.1l0,0.3c0,0.3,0,0.5,0,0.8l0,0.1c0.1-0.2,0.1-0.5,0.2-0.7l0.1-0.4l0.4,0.1
	c0.7,0.2,1.6,0.4,2.6,0.5C8.5,20.6,9.8,20.7,11.4,20.7L11.4,20.7z M15.5,21.3c-1.1,0.1-2.4,0.1-4,0.1c-1.6,0-2.9,0-4-0.1
	c-0.9-0.1-1.7-0.2-2.4-0.4l-0.1,0.3c-0.2,0.8-0.3,1.4-0.8,1.4h0l-0.8,0l-0.2,0l-0.1-0.2c-0.1-0.2-0.1-0.5-0.1-0.6
	c0-0.2,0.1-0.3,0.3-0.4c0.1-0.1,0.2-0.1,0.4-0.2c0-0.1,0-0.2,0-0.2c0-0.2-0.1-0.4-0.1-0.6c-1.2-0.5-1.8-1.2-2.2-2.1
	c-0.4-0.9-0.4-1.9-0.4-3v-0.4h0.4h20.7h0.4v0.4c0,1.2,0,2.2-0.4,3.1c-0.4,0.9-1,1.6-2.2,2.1c0,0.2,0,0.4,0,0.6c0,0.1,0,0.2,0,0.3
	l0,0c0.1,0,0.2,0.1,0.4,0.2h0c0.1,0.1,0.2,0.2,0.2,0.4c0,0.2,0,0.4-0.2,0.7l-0.1,0.2l-0.2,0l-0.8,0h0c-0.5,0-0.7-0.9-0.9-1.7l0,0
	C17.2,21.1,16.4,21.2,15.5,21.3L15.5,21.3z"/>
<path class="st0" d="M11.5,13.4c5.5,0,8.3,0.1,9.8,0.4c1.6,0.2,1.7,0.6,1.7,1.1v0.2h-0.2H0.2H0v-0.2c0-0.4,0.1-0.7,0.8-0.9
	c0.6-0.2,1.7-0.4,3.8-0.5h0c1.1,0,2.3-0.1,3.4-0.1C9.2,13.4,10.3,13.4,11.5,13.4L11.5,13.4z M21.2,14.1c-1.5-0.2-4.3-0.3-9.7-0.3
	c-1.2,0-2.3,0-3.4,0c-1.1,0-2.3,0-3.4,0.1c-2,0.1-3.1,0.2-3.7,0.4c-0.3,0.1-0.4,0.2-0.5,0.3h22.2C22.5,14.5,22.2,14.3,21.2,14.1
	L21.2,14.1z"/>
<path class="st0" d="M11.4,9.2l0,0.1h0c-0.1,0.2-0.2,0.4-0.2,0.6c0,0.1,0,0.2,0.1,0.2c0,0,0,0,0.1,0c0,0,0,0,0.1,0
	c0.1,0,0.1-0.1,0.1-0.2c0-0.2,0-0.4-0.1-0.6C11.4,9.2,11.4,9.2,11.4,9.2L11.4,9.2z M11,9.1C11,9,11.1,8.8,11.1,8.6l0-0.7l0.3,0.6
	c0.1,0.2,0.2,0.4,0.3,0.7c0.1,0.2,0.1,0.5,0.1,0.8c0,0.3-0.2,0.5-0.3,0.5c-0.1,0-0.2,0.1-0.2,0c-0.1,0-0.2,0-0.2-0.1
	c-0.2-0.1-0.3-0.3-0.3-0.5C10.8,9.6,10.9,9.3,11,9.1L11,9.1L11,9.1z"/>
<path class="st0" d="M9.8,9.1l0,0.1h0C9.7,9.4,9.6,9.6,9.6,9.9c0,0.1,0,0.2,0.1,0.2c0,0,0,0,0.1,0c0,0,0,0,0.1,0
	c0.1,0,0.1-0.1,0.1-0.2c0-0.2,0-0.4-0.1-0.6C9.8,9.2,9.8,9.2,9.8,9.1L9.8,9.1z M9.4,9.1c0.1-0.2,0.1-0.3,0.2-0.5l0-0.7l0.3,0.6
	c0.1,0.2,0.2,0.4,0.3,0.7c0.1,0.2,0.1,0.5,0.1,0.8c0,0.3-0.2,0.5-0.3,0.5c-0.1,0-0.2,0.1-0.2,0c-0.1,0-0.2,0-0.2-0.1
	c-0.2-0.1-0.3-0.3-0.3-0.5C9.2,9.6,9.3,9.3,9.4,9.1L9.4,9.1L9.4,9.1z"/>
<path class="st0" d="M12.9,9.2l0,0.1v0c-0.1,0.2-0.2,0.4-0.2,0.6c0,0.1,0,0.2,0.1,0.2c0,0,0,0,0.1,0c0,0,0,0,0.1,0l0,0
	C13,10.1,13,10,13,9.9c0-0.2,0-0.4-0.1-0.6C12.9,9.3,12.9,9.2,12.9,9.2L12.9,9.2z M12.5,9.1c0.1-0.2,0.1-0.3,0.2-0.5l0-0.7L13,8.5
	c0.1,0.2,0.2,0.4,0.3,0.7c0.1,0.2,0.1,0.5,0.1,0.8c0,0.3-0.2,0.5-0.3,0.5v0c-0.1,0-0.2,0-0.2,0c-0.1,0-0.2,0-0.2-0.1
	c-0.2-0.1-0.3-0.3-0.3-0.5C12.3,9.6,12.4,9.4,12.5,9.1L12.5,9.1L12.5,9.1z"/>
<path class="st0" d="M6.1,13.5l0-8v0c0-1.6,0.7-2.6,1.6-3.1c0.4-0.2,0.8-0.3,1.2-0.3c0.4,0,0.8,0.1,1.2,0.3h0c0.9,0.4,1.6,1.4,1.7,3
	c0.8,0.1,1.4,0.3,1.8,0.7c0.5,0.4,0.7,1,0.7,1.7v0.2H14H8.5H8.3V7.7C8.3,7,8.5,6.4,9,6c0.4-0.4,1-0.6,1.7-0.7c-0.1-1.1-0.5-1.7-1-2
	C9.4,3.2,9.2,3.1,8.9,3.1c-0.2,0-0.5,0.1-0.7,0.2c-0.6,0.4-1,1.1-1,2.3l0,7.9v0.2H7H6.3H6.1L6.1,13.5L6.1,13.5z M6.5,5.5l0,7.8h0.3
	l0-7.7C6.8,4.3,7.3,3.5,8,3c0.3-0.2,0.6-0.3,0.9-0.3c0.3,0,0.6,0.1,0.9,0.2c0.7,0.4,1.2,1.2,1.3,2.5l0,0.2l-0.2,0
	C10.2,5.8,9.6,6,9.2,6.3C8.9,6.6,8.7,7,8.7,7.5h5.2c0-0.5-0.2-0.9-0.6-1.2c-0.4-0.3-0.9-0.5-1.7-0.6l-0.2,0l0-0.2
	C11.3,4,10.7,3.1,9.9,2.7l0,0c-0.3-0.2-0.7-0.2-1-0.2c-0.3,0-0.7,0.1-1,0.3C7.1,3.2,6.5,4.1,6.5,5.5L6.5,5.5z"/>
</svg>
