<?xml version="1.0" encoding="utf-8"?>
<!-- Generator: Adobe Illustrator 27.8.0, SVG Export Plug-In . SVG Version: 6.00 Build 0)  -->
<svg version="1.1" id="Layer_1" xmlns="http://www.w3.org/2000/svg" xmlns:xlink="http://www.w3.org/1999/xlink" x="0px" y="0px"
	 viewBox="0 0 23 23" style="enable-background:new 0 0 23 23;" xml:space="preserve">
<style type="text/css">
	.st0{fill:#5A4596;}
</style>
<path class="st0" d="M0.6,20.4h1.3c0.1,0,0.1,0,0.1-0.1h0c0,0,0.1-0.1,0.1-0.1V6.6c0-0.1,0-0.1-0.1-0.1c0,0-0.1-0.1-0.1-0.1H0.6
	c-0.1,0-0.1,0-0.1,0.1c0,0-0.1,0.1-0.1,0.1v13.5c0,0.1,0,0.1,0.1,0.1h0C0.5,20.4,0.5,20.4,0.6,20.4L0.6,20.4z M1.9,20.9H0.6
	c-0.2,0-0.4-0.1-0.5-0.2l0,0c-0.1-0.1-0.2-0.3-0.2-0.5V6.6c0-0.2,0.1-0.4,0.2-0.5c0.1-0.1,0.3-0.2,0.5-0.2h1.3
	c0.2,0,0.4,0.1,0.5,0.2c0.1,0.1,0.2,0.3,0.2,0.5v13.5c0,0.2-0.1,0.4-0.2,0.5l0,0C2.3,20.9,2.1,20.9,1.9,20.9L1.9,20.9z"/>
<path class="st0" d="M10.5,9.3c-0.3,0.5-0.9,1.1-1.7,1.6c-0.6,0.3-1.3,0.6-2.1,0.6c-0.8,0-1.5-0.2-2.1-0.6c-0.8-0.5-1.4-1.1-1.7-1.6
	L2.8,9.1L2.9,9c0.4-0.5,0.9-1.1,1.7-1.5c0.6-0.3,1.3-0.5,2.1-0.5c0.8,0,1.6,0.2,2.2,0.6c0.8,0.4,1.3,1,1.6,1.5l0.1,0.1L10.5,9.3
	L10.5,9.3z M8.5,10.4C9.2,10,9.6,9.5,9.9,9.1C9.7,8.7,9.2,8.3,8.7,8C8.1,7.7,7.5,7.5,6.7,7.5C6,7.5,5.4,7.7,4.9,7.9
	C4.3,8.3,3.8,8.7,3.5,9.1c0.3,0.4,0.8,0.9,1.4,1.2c0.5,0.3,1.1,0.5,1.8,0.5C7.4,10.9,8,10.7,8.5,10.4L8.5,10.4z"/>
<path class="st0" d="M10.6,12.1H4.9c-0.5,0-1,0.2-1.3,0.5C3.2,12.9,3,13.4,3,13.8v3.7h17.4v0.9H2.6H2.2v-0.4v-4.1
	c0-0.7,0.3-1.4,0.8-1.9c0.5-0.5,1.2-0.8,1.9-0.8h5.7V12.1L10.6,12.1z"/>
<path class="st0" d="M20.9,15.3l0,4.9h0c0,0.1,0,0.1,0.1,0.1s0.1,0.1,0.1,0.1h1.3c0.1,0,0.1,0,0.1-0.1v0c0,0,0.1-0.1,0.1-0.1v-7.5
	c0-0.1,0-0.1-0.1-0.1c0,0-0.1-0.1-0.1-0.1l-1.1,0l0-0.6l1.1,0c0.2,0,0.4,0.1,0.5,0.2c0.1,0.1,0.2,0.3,0.2,0.5v7.5
	c0,0.2-0.1,0.4-0.2,0.5l0,0c-0.1,0.1-0.3,0.2-0.5,0.2h-1.3c-0.2,0-0.4-0.1-0.5-0.2s-0.2-0.3-0.2-0.5h0l0-4.9H20.9L20.9,15.3z"/>
<path class="st0" d="M11.8,15.2h8.3c0.3,0,0.5-0.1,0.7-0.3c0.2-0.2,0.3-0.4,0.3-0.7v-3c0-0.3-0.1-0.5-0.3-0.7
	c-0.2-0.2-0.4-0.3-0.7-0.3h-8.3c-0.3,0-0.5,0.1-0.7,0.3c-0.2,0.2-0.3,0.4-0.3,0.7v3c0,0.3,0.1,0.5,0.3,0.7
	C11.3,15.1,11.5,15.2,11.8,15.2L11.8,15.2z M20.1,15.7h-8.3c-0.4,0-0.7-0.2-1-0.4c-0.2-0.2-0.4-0.6-0.4-1v-3c0-0.4,0.2-0.7,0.4-1
	c0.2-0.2,0.6-0.4,1-0.4h8.3c0.4,0,0.7,0.2,1,0.4c0.2,0.2,0.4,0.6,0.4,1v3c0,0.4-0.2,0.7-0.4,1C20.8,15.5,20.5,15.7,20.1,15.7
	L20.1,15.7z"/>
</svg>
