<?xml version="1.0" encoding="utf-8"?>
<!-- Generator: Adobe Illustrator 27.8.0, SVG Export Plug-In . SVG Version: 6.00 Build 0)  -->
<svg version="1.1" id="Layer_1" xmlns="http://www.w3.org/2000/svg" xmlns:xlink="http://www.w3.org/1999/xlink" x="0px" y="0px"
	 viewBox="0 0 23 23" style="enable-background:new 0 0 23 23;" xml:space="preserve">
<style type="text/css">
	.st0{fill:#5A4596;}
</style>
<polygon class="st0" points="0.5,17.9 15.6,17.9 19.8,3.3 22.9,3.3 22.9,4 20.3,4 16.2,18.6 16.2,18.6 0.5,18.6 0.5,17.9 "/>
<path class="st0" d="M0.5,17.7h15l4.1-14.5l0-0.1h0.1l3.1,0l0.1,0v0.1V4v0.1h-0.1h-2.4l-4.1,14.4v0.1h-0.1H0.5H0.3v-0.1v-0.7v-0.1
	H0.5L0.5,17.7z M15.6,18h-15v0.5h15.5L20.2,4l0-0.1h0.1h2.4V3.4l-2.8,0l-4.1,14.5l0,0.1H15.6L15.6,18z"/>
<path class="st0" d="M2.7,18.9c0.5,0,1,0.2,1.3,0.6l0,0c0.3,0.3,0.6,0.8,0.6,1.3c0,0.5-0.2,1-0.6,1.3l0,0c-0.3,0.3-0.8,0.6-1.3,0.6
	c-0.5,0-1-0.2-1.3-0.6l0,0c-0.3-0.3-0.6-0.8-0.6-1.3c0-0.5,0.2-1,0.6-1.3l0,0C1.7,19.1,2.2,18.9,2.7,18.9L2.7,18.9z M3.5,20.1
	c-0.2-0.2-0.5-0.3-0.7-0.3c-0.3,0-0.6,0.1-0.7,0.3h0c-0.2,0.2-0.3,0.5-0.3,0.7c0,0.3,0.1,0.6,0.3,0.7h0c0.2,0.2,0.5,0.3,0.7,0.3
	c0.3,0,0.6-0.1,0.7-0.3h0c0.2-0.2,0.3-0.5,0.3-0.7C3.8,20.5,3.7,20.3,3.5,20.1L3.5,20.1L3.5,20.1z"/>
<path class="st0" d="M13.6,18.9c0.5,0,1,0.2,1.3,0.6l0,0c0.3,0.3,0.6,0.8,0.6,1.3c0,0.5-0.2,1-0.6,1.3l0,0c-0.3,0.3-0.8,0.6-1.3,0.6
	c-0.5,0-1-0.2-1.3-0.6l0,0c-0.3-0.3-0.6-0.8-0.6-1.3c0-0.5,0.2-1,0.6-1.3l0,0C12.6,19.1,13.1,18.9,13.6,18.9L13.6,18.9z M14.4,20.1
	c-0.2-0.2-0.5-0.3-0.7-0.3c-0.3,0-0.6,0.1-0.7,0.3h0c-0.2,0.2-0.3,0.5-0.3,0.7c0,0.3,0.1,0.6,0.3,0.7h0c0.2,0.2,0.5,0.3,0.7,0.3
	c0.3,0,0.6-0.1,0.7-0.3l0,0c0.2-0.2,0.3-0.5,0.3-0.7C14.7,20.5,14.6,20.3,14.4,20.1L14.4,20.1L14.4,20.1z"/>
<path class="st0" d="M13.5,16.5c0.2,0,0.4-0.1,0.5-0.2c0.1-0.1,0.2-0.2,0.2-0.4V7.7c0-0.1-0.1-0.3-0.2-0.4c-0.1-0.1-0.3-0.2-0.5-0.2
	v0l-11.3,0v0c-0.2,0-0.4,0.1-0.5,0.2C1.6,7.4,1.6,7.5,1.6,7.7v8.3c0,0.1,0.1,0.3,0.2,0.4c0.1,0.1,0.3,0.2,0.5,0.2v0L13.5,16.5
	L13.5,16.5L13.5,16.5z M14.6,16.9c-0.3,0.2-0.6,0.4-1,0.4v0l-11.3,0v0c-0.4,0-0.8-0.1-1-0.4c-0.3-0.2-0.5-0.6-0.5-1V7.7
	c0-0.4,0.2-0.7,0.5-1c0.3-0.2,0.6-0.4,1-0.4v0l11.3,0v0c0.4,0,0.8,0.1,1,0.4c0.3,0.2,0.5,0.6,0.5,1v8.3C15,16.3,14.8,16.7,14.6,16.9
	L14.6,16.9z"/>
<path class="st0" d="M5.6,5.3c0.1-0.1,0.1-0.1,0.2-0.2C5.9,5.1,5.9,5,6,4.9l0.1-0.1h0c0.2-0.2,0.5-0.3,0.8-0.4
	c0.3-0.1,0.7-0.2,1-0.2c0.3,0,0.7,0.1,1,0.2c0.3,0.1,0.6,0.3,0.9,0.5L9.8,5v0c0,0,0.1,0.1,0.1,0.1c0.1,0.1,0.1,0.1,0.2,0.2l0.1,0.2
	l-0.2,0.1L9.5,6.1L9.4,6.2L9.3,6c0,0-0.1-0.1-0.1-0.1l0,0c0,0,0,0-0.1-0.1L9,5.8C8.8,5.7,8.7,5.6,8.5,5.5C8.3,5.5,8.1,5.4,7.8,5.4
	c-0.2,0-0.4,0-0.6,0.1C7.1,5.6,6.9,5.7,6.8,5.8l0,0c0,0-0.1,0.1-0.1,0.1c0,0-0.1,0.1-0.1,0.1L6.4,6.2L6.3,6.1L5.7,5.6L5.5,5.5
	L5.6,5.3L5.6,5.3z M6.1,5.4L6.1,5.4l0.3,0.2l0.1-0.1c0.2-0.2,0.4-0.3,0.6-0.4C7.3,5.1,7.6,5,7.8,5c0.3,0,0.5,0,0.8,0.1
	C8.8,5.2,9,5.3,9.1,5.4l0,0l0.1,0.1c0.1,0,0.1,0.1,0.2,0.1l0,0l0,0l0.2-0.2l0,0C9.6,5.3,9.5,5.3,9.5,5.2l0,0C9.2,5,9,4.9,8.7,4.8
	C8.4,4.7,8.1,4.7,7.8,4.7c-0.3,0-0.6,0-0.9,0.1C6.7,4.9,6.5,5.1,6.3,5.3l0,0C6.2,5.3,6.1,5.4,6.1,5.4L6.1,5.4z"/>
<polygon class="st0" points="6.7,5.8 6.7,6.8 6.1,6.8 6.1,5.8 6.7,5.8 "/>
<polygon class="st0" points="9.7,5.8 9.7,6.8 9.2,6.8 9.2,5.8 9.7,5.8 "/>
<path class="st0" d="M3.9,6.5h1.2h0.2v0.2v10v0.2H5.1H3.9H3.7v-0.2v-10V6.5H3.9L3.9,6.5z M4.9,6.9H4.1v9.6h0.8V6.9L4.9,6.9z"/>
<path class="st0" d="M10.7,6.5h1.2h0.2v0.2v10v0.2h-0.2h-1.2h-0.2v-0.2v-10V6.5H10.7L10.7,6.5z M11.7,6.9h-0.8v9.6h0.8V6.9L11.7,6.9
	z"/>
</svg>
