<?xml version="1.0" encoding="utf-8"?>
<!-- Generator: Adobe Illustrator 27.8.0, SVG Export Plug-In . SVG Version: 6.00 Build 0)  -->
<svg version="1.1" id="Layer_1" xmlns="http://www.w3.org/2000/svg" xmlns:xlink="http://www.w3.org/1999/xlink" x="0px" y="0px"
	 viewBox="0 0 23 23" style="enable-background:new 0 0 23 23;" xml:space="preserve">
<style type="text/css">
	.st0{fill:#5A4596;}
</style>
<g>
	<path class="st0" d="M19.5,22.5h1.1l0-0.1l0,0c0-0.1,0.1-0.2,0.1-0.3V2.8c0-0.1,0-0.3-0.1-0.3l0-0.1h-1.1l0,0.1
		c0,0.1-0.1,0.2-0.1,0.3v19.4C19.4,22.3,19.4,22.4,19.5,22.5L19.5,22.5L19.5,22.5L19.5,22.5z M20.5,23.1h-1.1
		c-0.2,0-0.4-0.1-0.5-0.4v0c-0.1-0.2-0.2-0.4-0.2-0.6V2.8c0-0.2,0.1-0.5,0.2-0.6c0.1-0.2,0.3-0.4,0.5-0.4h1.1c0.2,0,0.4,0.1,0.5,0.4
		c0.1,0.2,0.2,0.4,0.2,0.6v19.4c0,0.2-0.1,0.5-0.2,0.6v0C21,23,20.8,23.1,20.5,23.1L20.5,23.1z"/>
	<path class="st0" d="M2.1,22.5h1.1c0,0,0,0,0-0.1l0,0c0.1-0.1,0.1-0.2,0.1-0.4V1c0-0.2,0-0.3-0.1-0.4l0,0c0,0,0-0.1,0-0.1H2.1
		c0,0,0,0,0,0.1l0,0C2.1,0.7,2,0.9,2,1v21C2,22.2,2.1,22.4,2.1,22.5L2.1,22.5C2.1,22.5,2.1,22.5,2.1,22.5L2.1,22.5z M3.2,23.1H2.1
		c-0.2,0-0.4-0.1-0.6-0.4h0c-0.1-0.2-0.2-0.4-0.2-0.7V1c0-0.3,0.1-0.5,0.2-0.7h0C1.7,0.1,1.9,0,2.1,0h1.1c0.2,0,0.4,0.1,0.6,0.4h0
		C3.9,0.5,3.9,0.8,3.9,1v21c0,0.3-0.1,0.5-0.2,0.7h0C3.6,23,3.4,23.1,3.2,23.1L3.2,23.1z"/>
	<path class="st0" d="M10.5,3c-0.2,0.4-0.7,1-1.4,1.3C8.6,4.6,8,4.8,7.3,4.8C6.6,4.8,6,4.6,5.5,4.3C4.8,3.9,4.3,3.4,4.1,3L3.9,2.8
		l0.1-0.2c0.3-0.4,0.8-0.9,1.5-1.3C6,1.1,6.6,0.9,7.3,0.9c0.7,0,1.4,0.2,1.9,0.5c0.6,0.4,1.1,0.9,1.4,1.3l0.1,0.1L10.5,3L10.5,3z
		 M8.8,3.8c0.5-0.3,0.9-0.7,1.1-1c-0.2-0.3-0.6-0.7-1-0.9c-0.4-0.2-1-0.4-1.6-0.4c-0.6,0-1.1,0.2-1.5,0.4c-0.5,0.3-0.9,0.6-1.1,1
		c0.3,0.3,0.7,0.7,1.2,1C6.2,4,6.7,4.2,7.3,4.2C7.9,4.2,8.4,4,8.8,3.8L8.8,3.8z"/>
	<path class="st0" d="M10.5,5.4H5.8C5.3,5.4,5,5.5,4.7,5.8h0C4.4,6,4.3,6.4,4.3,6.8v3h14.6v0.9h-15H3.4v-0.4V6.8
		c0-0.6,0.3-1.2,0.7-1.6l0,0c0.4-0.4,1-0.7,1.7-0.7h4.7V5.4L10.5,5.4z"/>
	<path class="st0" d="M10.5,13.3c-0.2,0.4-0.7,1-1.4,1.3c-0.5,0.3-1.1,0.5-1.8,0.5c-0.7,0-1.3-0.2-1.8-0.5c-0.7-0.4-1.2-0.9-1.5-1.3
		l-0.1-0.2l0.1-0.2c0.3-0.4,0.8-0.9,1.5-1.3c0.5-0.3,1.1-0.5,1.8-0.5c0.7,0,1.4,0.2,1.9,0.5c0.6,0.4,1.1,0.9,1.4,1.3l0.1,0.1
		L10.5,13.3L10.5,13.3z M8.8,14.1c0.5-0.3,0.9-0.7,1.1-1c-0.2-0.3-0.6-0.7-1-0.9c-0.4-0.2-1-0.4-1.6-0.4c-0.6,0-1.1,0.2-1.5,0.4
		c-0.5,0.3-0.9,0.6-1.1,1c0.3,0.3,0.7,0.7,1.2,1c0.4,0.2,0.9,0.4,1.5,0.4C7.9,14.5,8.4,14.3,8.8,14.1L8.8,14.1z"/>
	<path class="st0" d="M10.7,15.7H5.8c-0.4,0-0.8,0.2-1,0.4c-0.3,0.3-0.4,0.6-0.4,1v3l14.8,0V21L3.9,21l-0.4,0v-0.4v-3.4
		c0-0.6,0.3-1.2,0.7-1.6c0.4-0.4,1-0.7,1.7-0.7h4.9V15.7L10.7,15.7z"/>
	<path class="st0" d="M11.5,18.2h6.6c0.2,0,0.4-0.1,0.5-0.2c0.1-0.1,0.2-0.3,0.2-0.5V15c0-0.2-0.1-0.4-0.2-0.5
		c-0.1-0.1-0.3-0.2-0.5-0.2h-6.6c-0.2,0-0.4,0.1-0.5,0.2c-0.1,0.1-0.2,0.3-0.2,0.5v2.5c0,0.2,0.1,0.4,0.2,0.5
		C11.1,18.1,11.3,18.2,11.5,18.2L11.5,18.2z M18.1,18.6h-6.6c-0.3,0-0.6-0.1-0.8-0.3c-0.2-0.2-0.3-0.5-0.3-0.8V15
		c0-0.3,0.1-0.6,0.3-0.8c0.2-0.2,0.5-0.3,0.8-0.3h6.6c0.3,0,0.6,0.1,0.8,0.3c0.2,0.2,0.3,0.5,0.3,0.8v2.5c0,0.3-0.1,0.6-0.3,0.8
		C18.7,18.5,18.4,18.6,18.1,18.6L18.1,18.6z"/>
	<path class="st0" d="M11.4,7.9h6.7c0.2,0,0.4-0.1,0.5-0.2l0,0c0.1-0.1,0.2-0.3,0.2-0.5V4.7c0-0.2-0.1-0.4-0.2-0.5l0,0
		C18.5,4.1,18.3,4,18.1,4h-6.7c-0.2,0-0.4,0.1-0.5,0.2l0,0c-0.1,0.1-0.2,0.3-0.2,0.5v2.5c0,0.2,0.1,0.4,0.2,0.5l0,0
		C11,7.8,11.2,7.9,11.4,7.9L11.4,7.9z M18.1,8.3h-6.7c-0.3,0-0.6-0.1-0.8-0.3h0c-0.2-0.2-0.3-0.5-0.3-0.8V4.7c0-0.3,0.1-0.6,0.3-0.8
		h0c0.2-0.2,0.5-0.3,0.8-0.3h6.7c0.3,0,0.6,0.1,0.8,0.3v0c0.2,0.2,0.3,0.5,0.3,0.8v2.5c0,0.3-0.1,0.6-0.3,0.8v0
		C18.7,8.2,18.4,8.3,18.1,8.3L18.1,8.3z"/>
</g>
</svg>
