<?xml version="1.0" encoding="utf-8"?>
<!-- Generator: Adobe Illustrator 27.8.0, SVG Export Plug-In . SVG Version: 6.00 Build 0)  -->
<svg version="1.1" id="Layer_1" xmlns="http://www.w3.org/2000/svg" xmlns:xlink="http://www.w3.org/1999/xlink" x="0px" y="0px"
	 viewBox="0 0 23 23" style="enable-background:new 0 0 23 23;" xml:space="preserve">
<style type="text/css">
	.st0{fill:#5A4596;}
</style>
<path class="st0" d="M16.6,15.3l0.5-1.5l-0.1,0l-0.2-0.1l0-0.2l1.3-8.9l0-0.2l0.2,0.1l4.4,1.2l0.2,0l0,0.2l-0.1,0.8l0,0.2l-0.2-0.1
	l-3.5-1l-1.4,9.4l0,0.1l-0.3-0.2l-0.5,0.5L16.6,15.3L16.6,15.3z M17.5,13.9L17,15.3l0.3-0.2l1.4-9.5l0-0.2L19,5.4l3.5,1L22.5,6
	l-4-1.1l-1.3,8.5c0.1,0,0.2,0.1,0.2,0.2l0,0C17.5,13.7,17.5,13.8,17.5,13.9L17.5,13.9z"/>
<path class="st0" d="M13,8.4h6.3h0.3h0.4v0.4v0.3v12.6v0.3v0.4h-0.4h-0.3H13h-0.3h-0.4v-0.4v-0.3V9.1V8.8V8.4h0.4H13L13,8.4z
	 M19.2,9.2h-6.2v12.5h6.2V9.2L19.2,9.2z"/>
<path class="st0" d="M16.5,18.8l1.3-0.9c0.1-0.1,0.2-0.1,0.3-0.1v0c0.1,0,0.2,0.1,0.3,0.2l0.9,1.3c0.1,0.1,0.1,0.2,0.1,0.3h0
	c0,0.1-0.1,0.2-0.2,0.3l-1.3,0.9l0,0l0,0c-0.1,0.1-0.2,0.1-0.3,0.1c-0.1,0-0.2-0.1-0.2-0.1l0,0l0,0l-0.9-1.3l0,0
	c-0.1-0.1-0.1-0.2-0.1-0.3v0C16.4,19,16.4,18.9,16.5,18.8L16.5,18.8z M18,18.3l-1.3,0.9l0.9,1.3l0,0l1.3-0.9L18,18.3L18,18.3z
	 M16.8,19.2L16.8,19.2L16.8,19.2L16.8,19.2L16.8,19.2z"/>
<path class="st0" d="M13.7,18.2l1.6,0c0.1,0,0.2,0,0.3,0.1c0.1,0.1,0.1,0.2,0.1,0.3v0l0,1.6c0,0.1,0,0.2-0.1,0.3
	c-0.1,0.1-0.2,0.1-0.3,0.1h0l-1.6,0h0c-0.1,0-0.2,0-0.3-0.1l0,0c-0.1-0.1-0.1-0.2-0.1-0.3v0l0-1.6c0-0.1,0-0.2,0.1-0.3
	C13.5,18.3,13.6,18.2,13.7,18.2L13.7,18.2L13.7,18.2z M15.3,18.6l-1.6,0l0,1.6l1.6,0L15.3,18.6L15.3,18.6z"/>
<path class="st0" d="M16,16.1l1.4,0.8l0,0c0.1,0.1,0.2,0.1,0.2,0.2v0c0,0.1,0,0.2,0,0.3l-0.7,1.4v0l0,0c-0.1,0.1-0.1,0.2-0.2,0.2
	c-0.1,0-0.2,0-0.2,0h0l0,0l-1.4-0.8l0,0l0,0c-0.1-0.1-0.1-0.1-0.2-0.2l0,0c0-0.1,0-0.2,0-0.3l0,0l0,0l0.7-1.4
	c0.1-0.1,0.1-0.2,0.2-0.2C15.8,16,15.9,16,16,16.1L16,16.1z M17.2,17.2l-1.4-0.7l-0.7,1.4l0,0l1.3,0.7l0,0l0,0L17.2,17.2L17.2,17.2z
	"/>
<path class="st0" d="M13.1,15.8l1.2-0.7l0,0l0,0c0.1-0.1,0.2-0.1,0.3,0h0c0.1,0,0.2,0.1,0.2,0.1l0,0l0,0l0,0l0,0l0,0l0.7,1.2l0,0
	c0.1,0.1,0.1,0.2,0,0.3c0,0.1-0.1,0.2-0.2,0.2l0,0l-1.2,0.7l0,0c-0.1,0.1-0.2,0.1-0.3,0v0c-0.1,0-0.2-0.1-0.2-0.2v0L13,16.3h0
	c-0.1-0.1-0.1-0.2,0-0.3v0C13,15.9,13,15.8,13.1,15.8L13.1,15.8L13.1,15.8z M14.5,15.4l-1.2,0.7l0.7,1.2l1.2-0.7L14.5,15.4
	L14.5,15.4z M13.3,16.1L13.3,16.1L13.3,16.1L13.3,16.1L13.3,16.1z M15.3,16.6L15.3,16.6L15.3,16.6L15.3,16.6L15.3,16.6z M14.1,17.3
	L14.1,17.3L14.1,17.3L14.1,17.3L14.1,17.3z"/>
<path class="st0" d="M18.5,14.8l0.8,1.2l0,0l0,0c0.1,0.1,0.1,0.2,0.1,0.3c0,0.1-0.1,0.2-0.1,0.2l0,0l0,0l-1.2,0.8l0,0
	c-0.1,0.1-0.2,0.1-0.3,0.1v0c-0.1,0-0.2-0.1-0.2-0.2h0L16.6,16c-0.1-0.1-0.1-0.2-0.1-0.3v0c0-0.1,0.1-0.2,0.2-0.2l1.2-0.8l0,0l0,0
	c0.1-0.1,0.2-0.1,0.3-0.1C18.3,14.7,18.4,14.7,18.5,14.8L18.5,14.8L18.5,14.8L18.5,14.8z M18.9,16.2l-0.7-1.1L17,15.8l0.7,1.1
	L18.9,16.2L18.9,16.2z"/>
<path class="st0" d="M14.7,14.6l0.5-1.5c0-0.1,0.1-0.2,0.2-0.2l0,0c0.1,0,0.2-0.1,0.3,0l1.5,0.5v0c0.1,0,0.2,0.1,0.2,0.2l0,0
	c0,0.1,0.1,0.2,0,0.3L17,15.4v0l0,0c0,0.1-0.1,0.2-0.2,0.2l0,0c-0.1,0-0.2,0.1-0.3,0h0l0,0l0,0v0L15,15.1c-0.1,0-0.2-0.1-0.2-0.2h0
	C14.7,14.8,14.7,14.7,14.7,14.6L14.7,14.6z M15.6,13.3l-0.5,1.5l1.5,0.5h0l0,0l0.5-1.5L15.6,13.3L15.6,13.3z"/>
<path class="st0" d="M13,11.8h6.3h0.2V12v9.7v0.2h-0.2H13h-0.2v-0.2V12v-0.2H13L13,11.8z M19.1,12.2h-5.9v9.3h5.9V12.2L19.1,12.2z"
	/>
<path class="st0" d="M1.5,6.2h10.4h0.8h0.6l-0.4,0.5l-0.6,0.6l-4.7,4.8l-0.1,8.3l3.1,0.6l0,0l0,0l0.2,0.1l0.2,0.1l0,0.2l0,0.2l0,0.1
	l0,0.4l0,0.3l-0.3,0l-0.4,0l-7.3,0v0H2.8H2.5l0-0.3l0-0.4l0-0.1l0-0.2l0-0.2l0.2-0.1L2.9,21l0,0l0,0l3-0.7l-0.1-8.3L1.1,7.2L0.5,6.6
	L0,6.2h0.6H1.5L1.5,6.2z M11.8,6.7H1.5H1.3l0.1,0.1l4.9,4.9l0.1,0.1l0,0.1l0.1,8.6l0,0.2l-0.2,0l-3.2,0.7l0,0l0,0.1l0,0.1l0,0.1h0.1
	v0l7.3,0h0.1l0-0.1l0-0.1l0-0.1l0,0l-3.3-0.7l-0.2,0l0-0.2L7,11.9l0-0.1l0.1-0.1l4.8-4.9L12,6.7H11.8L11.8,6.7z"/>
<polygon class="st0" points="2,7.6 11.3,7.6 11.3,8.1 2,8.1 2,7.6 "/>
<path class="st0" d="M7.1,8.4C7.5,8.6,7.8,8.9,8,9.2c0.2,0.3,0.3,0.7,0.1,1c-0.1,0.3-0.4,0.6-0.8,0.7c-0.3,0.1-0.8,0.1-1.2-0.1l0,0
	c-0.4-0.2-0.7-0.4-0.9-0.7C5,9.7,5,9.3,5.1,9v0l0,0c0.1-0.3,0.4-0.6,0.8-0.7C6.3,8.2,6.7,8.3,7.1,8.4L7.1,8.4L7.1,8.4z M7.5,9.4
	C7.4,9.2,7.2,9,6.9,8.9l0,0C6.6,8.8,6.3,8.8,6,8.8C5.8,8.9,5.7,9,5.6,9.2l0,0c-0.1,0.2,0,0.4,0.1,0.5c0.1,0.2,0.4,0.4,0.6,0.5l0,0
	c0.3,0.1,0.6,0.1,0.8,0.1c0.2-0.1,0.4-0.2,0.4-0.3C7.7,9.8,7.6,9.6,7.5,9.4L7.5,9.4z"/>
</svg>
