<svg width="30" height="29" viewBox="0 0 30 29" fill="none" xmlns="http://www.w3.org/2000/svg">
<path d="M25.9068 6.30494V2.08389C25.9068 1.21515 25.198 0.510864 24.3237 0.510864H2.09482C1.22051 0.510864 0.511719 1.21515 0.511719 2.08389V25.9543C0.511719 26.823 1.22051 27.5273 2.09482 27.5273H24.3237C25.198 27.5273 25.9068 26.823 25.9068 25.9543C25.9068 25.0855 25.198 24.3812 24.3237 24.3812H7.92509V8.6222H24.3237C25.198 8.6222 25.9068 7.17275 25.9068 6.30494Z" stroke="#5A4596" stroke-linecap="round" stroke-linejoin="round"/>
<path d="M16.8358 8.62219H13.7285L14.9544 13.2957H16.8358H18.7163L19.9422 8.62219H16.8358Z" stroke="#5A4596" stroke-linecap="round" stroke-linejoin="round"/>
<path d="M16.834 13.296V14.9406" stroke="#5A4596" stroke-linecap="round" stroke-linejoin="round"/>
<path d="M16.9469 18.4098H11.6113C11.6113 22.4311 14.555 24.3813 14.555 24.3813H19.0481C19.0481 24.3813 21.9917 22.4311 21.9917 18.4098H16.9469Z" stroke="#5A4596" stroke-linecap="round" stroke-linejoin="round"/>
<path d="M21.9359 19.3334C23.231 19.3334 23.8285 19.613 23.8285 20.3749C23.8285 21.8067 20.8652 22.3939 20.8652 22.3939" stroke="#5A4596" stroke-linecap="round" stroke-linejoin="round"/>
<path d="M19.2051 11.4248H22.1207" stroke="#5A4596" stroke-linecap="round" stroke-linejoin="round"/>
<path d="M28.6351 10.5122H22.4916C22.2891 10.5122 22.125 10.6753 22.125 10.8764V11.9728C22.125 12.174 22.2891 12.337 22.4916 12.337H28.6351C28.8375 12.337 29.0016 12.174 29.0016 11.9728V10.8764C29.0016 10.6753 28.8375 10.5122 28.6351 10.5122Z" stroke="#5A4596" stroke-linecap="round" stroke-linejoin="round"/>
<path d="M4.59377 6.03181C5.40819 6.03181 6.0684 5.37579 6.0684 4.56656C6.0684 3.75733 5.40819 3.10132 4.59377 3.10132C3.77936 3.10132 3.11914 3.75733 3.11914 4.56656C3.11914 5.37579 3.77936 6.03181 4.59377 6.03181Z" stroke="#5A4596" stroke-linecap="round" stroke-linejoin="round"/>
<path d="M9.76043 5.03319C10.0197 5.03319 10.2298 4.82437 10.2298 4.56677C10.2298 4.30917 10.0197 4.10034 9.76043 4.10034C9.50118 4.10034 9.29102 4.30917 9.29102 4.56677C9.29102 4.82437 9.50118 5.03319 9.76043 5.03319Z" stroke="#5A4596" stroke-linecap="round" stroke-linejoin="round"/>
<path d="M14.6166 4.56677C14.6166 4.82414 14.4062 5.03319 14.1471 5.03319C13.8881 5.03319 13.6777 4.82414 13.6777 4.56677C13.6777 4.3094 13.8881 4.10034 14.1471 4.10034C14.4062 4.10034 14.6166 4.3094 14.6166 4.56677Z" stroke="#5A4596" stroke-linecap="round" stroke-linejoin="round"/>
</svg>
