<?xml version="1.0" encoding="utf-8"?>
<!-- Generator: Adobe Illustrator 27.8.0, SVG Export Plug-In . SVG Version: 6.00 Build 0)  -->
<svg version="1.1" id="Layer_1" xmlns="http://www.w3.org/2000/svg" xmlns:xlink="http://www.w3.org/1999/xlink" x="0px" y="0px"
	 viewBox="0 0 23 23" style="enable-background:new 0 0 23 23;" xml:space="preserve">
<style type="text/css">
	.st0{fill:#5A4596;}
</style>
<path class="st0" d="M1.7,18H21h0.3v0.3c0,0.8-0.8,1.5-2.1,2c-1.1,0.5-2.7,0.8-4.3,0.8H7.6c-1.5,0-3.1-0.3-4.2-0.8
	c-1.2-0.5-2-1.2-2-2V18H1.7L1.7,18z M20.6,18.6H2.1c0.2,0.4,0.8,0.8,1.6,1.2c1.1,0.5,2.5,0.8,4,0.8h7.3c1.5,0,3-0.3,4.1-0.7
	C19.8,19.4,20.4,19,20.6,18.6L20.6,18.6z"/>
<path class="st0" d="M5,8.2h12.6H18v0.4l0,0.5l0,0c0.3,0,0.5,0,0.8,0.1c0.3,0.1,0.7,0.1,1,0.3c0.4,0.2,0.8,0.4,1.1,0.7
	c0.3,0.3,0.5,0.6,0.7,1c0.1,0.2,0.1,0.4,0.2,0.6c0,0.2,0.1,0.4,0.1,0.7c0,1.5-0.7,2.4-1.8,3c-0.9,0.5-2.1,0.6-3.2,0.7
	c-0.2,0.5-0.5,0.8-0.8,1.1c-0.4,0.3-0.8,0.5-1.3,0.5H7.9c-1.1,0-2-1-2.5-2.6C4.9,13.4,4.6,11,4.6,8.7V8.2H5L5,8.2z M17.2,9.1H5.5
	c0,2.1,0.3,4.3,0.8,5.8c0.4,1.3,1,2.1,1.7,2.1h6.8c0.3,0,0.5-0.1,0.8-0.3c0.3-0.2,0.5-0.6,0.7-1l0.1-0.2l0.3,0
	c1.1,0,2.2-0.2,3.1-0.6c0.8-0.4,1.3-1.1,1.3-2.2c0-0.2,0-0.4,0-0.5c0-0.2-0.1-0.3-0.1-0.5c-0.1-0.3-0.3-0.5-0.5-0.7
	c-0.2-0.2-0.5-0.4-0.8-0.5c-0.3-0.1-0.5-0.2-0.8-0.2C18.4,10,18,10,17.7,10v0l-0.1,0l-0.4,0l0-0.4C17.2,9.4,17.2,9.3,17.2,9.1
	L17.2,9.1L17.2,9.1z M17.9,11.5c0,0.5-0.1,0.9-0.2,1.4c0,0.3-0.1,0.6-0.2,0.9c0.5-0.1,0.9-0.2,1.2-0.3c0.4-0.2,0.6-0.5,0.6-0.9
	c0-0.1,0-0.2,0-0.2c0-0.1,0-0.1,0-0.2c0-0.1-0.1-0.2-0.2-0.2c-0.1-0.1-0.2-0.1-0.3-0.2c-0.2-0.1-0.3-0.1-0.5-0.1
	C18.3,11.5,18.1,11.5,17.9,11.5L17.9,11.5z M16.9,12.7c0.1-0.5,0.1-1.1,0.2-1.7l0-0.4l0.4,0l0.1,0l0,0c0.3,0,0.6,0,0.9,0.1
	c0.3,0,0.5,0.1,0.7,0.2c0.2,0.1,0.4,0.2,0.6,0.3c0.2,0.1,0.3,0.3,0.4,0.5c0,0.1,0.1,0.2,0.1,0.4c0,0.1,0,0.2,0,0.4
	c0,0.8-0.4,1.4-1.1,1.7c-0.6,0.3-1.4,0.4-2.1,0.5l-0.6,0l0.1-0.6C16.8,13.7,16.9,13.3,16.9,12.7L16.9,12.7z"/>
<path class="st0" d="M14.2,2c0.9,2,0.5,3.2,0.1,4.5C14.2,6.8,14.1,7,14,7.3l0,0.2h-0.2h-1h-0.3l0.1-0.3c0.1-0.5,0.3-0.9,0.4-1.3
	c0.4-1.2,0.7-2.1-0.3-3.7l-0.2-0.3h0.4H14h0.1L14.2,2L14.2,2z M13.9,6.4c0.4-1.2,0.8-2.3,0-4.1h-0.6c0.9,1.6,0.6,2.5,0.2,3.8
	c-0.1,0.3-0.2,0.6-0.3,1h0.5C13.7,6.8,13.8,6.6,13.9,6.4L13.9,6.4z"/>
<path class="st0" d="M11.9,2c0.9,2,0.5,3.2,0.1,4.5c-0.1,0.3-0.2,0.5-0.3,0.8l0,0.2h-0.2h-1h-0.3l0.1-0.3c0.1-0.5,0.3-0.9,0.4-1.3
	c0.4-1.2,0.7-2.1-0.3-3.7l-0.2-0.3h0.4h1.1h0.1L11.9,2L11.9,2z M11.6,6.4c0.4-1.2,0.8-2.3,0-4.1H11c0.9,1.6,0.6,2.5,0.2,3.8
	c-0.1,0.3-0.2,0.6-0.3,1h0.5C11.4,6.8,11.5,6.6,11.6,6.4L11.6,6.4z"/>
<path class="st0" d="M9.7,2c0.9,2,0.5,3.2,0.1,4.5C9.7,6.8,9.6,7,9.5,7.3l0,0.2H9.3h-1H8.1l0.1-0.3c0.1-0.5,0.3-0.9,0.4-1.3
	c0.4-1.2,0.7-2.1-0.3-3.7L8,1.9h0.4h1.1h0.1L9.7,2L9.7,2z M9.4,6.4c0.4-1.2,0.8-2.3,0-4.1H8.7c0.9,1.6,0.6,2.5,0.2,3.8
	C8.8,6.4,8.7,6.7,8.6,7h0.5C9.2,6.8,9.3,6.6,9.4,6.4L9.4,6.4z"/>
</svg>
