<?xml version="1.0" encoding="utf-8"?>
<!-- Generator: Adobe Illustrator 27.8.0, SVG Export Plug-In . SVG Version: 6.00 Build 0)  -->
<svg version="1.1" id="Layer_1" xmlns="http://www.w3.org/2000/svg" xmlns:xlink="http://www.w3.org/1999/xlink" x="0px" y="0px"
	 viewBox="0 0 23 23" style="enable-background:new 0 0 23 23;" xml:space="preserve">
<style type="text/css">
	.st0{fill:#5A4596;}
</style>
<path class="st0" d="M4.3,16.8c0,0.5,0.2,1,0.4,1.4c0.2,0.5,0.5,1.1,0.5,1.9c0,0.6-0.2,0.9-0.6,1.1c-0.1,0.1-0.3,0.1-0.5,0.1
	c-0.2,0-0.3,0-0.5-0.1C3.3,21.1,3,20.7,3,20.2c-0.1-0.6,0-1.2,0.2-1.8c0.2-0.6,0.4-1.1,0.7-1.6l0.4-0.6L4.3,16.8L4.3,16.8z
	 M4.3,18.4C4.2,18.1,4,17.8,4,17.5c-0.2,0.3-0.3,0.6-0.4,1c-0.2,0.5-0.2,1.1-0.2,1.7c0,0.4,0.2,0.7,0.5,0.8C3.9,20.9,4,21,4.1,21
	c0.1,0,0.2,0,0.3-0.1c0.2-0.1,0.3-0.4,0.3-0.7C4.7,19.5,4.5,18.9,4.3,18.4L4.3,18.4z"/>
<path class="st0" d="M12.1,16.8c0,0.5,0.2,1,0.4,1.4c0.2,0.5,0.5,1.1,0.5,1.9c0,0.6-0.2,0.9-0.6,1.1c-0.1,0.1-0.3,0.1-0.5,0.1
	c-0.2,0-0.3,0-0.5-0.1c-0.4-0.2-0.7-0.5-0.7-1.1c-0.1-0.6,0-1.2,0.2-1.8c0.2-0.6,0.4-1.1,0.7-1.6l0.4-0.6L12.1,16.8L12.1,16.8z
	 M12.2,18.4c-0.1-0.3-0.3-0.6-0.3-0.9c-0.2,0.3-0.3,0.6-0.4,1c-0.2,0.5-0.2,1.1-0.2,1.7c0,0.4,0.2,0.7,0.5,0.8
	c0.1,0,0.2,0.1,0.3,0.1c0.1,0,0.2,0,0.3-0.1c0.2-0.1,0.3-0.4,0.3-0.7C12.6,19.4,12.4,18.9,12.2,18.4L12.2,18.4z"/>
<path class="st0" d="M8.2,16.8c0,0.5,0.2,1,0.4,1.4c0.2,0.5,0.5,1.1,0.5,1.9c0,0.6-0.2,0.9-0.6,1.1c-0.1,0.1-0.3,0.1-0.5,0.1
	c-0.2,0-0.3,0-0.5-0.1c-0.4-0.2-0.7-0.5-0.7-1.1c-0.1-0.6,0-1.2,0.2-1.8c0.2-0.6,0.4-1.1,0.7-1.6l0.4-0.6L8.2,16.8L8.2,16.8z
	 M8.3,18.4c-0.1-0.3-0.3-0.6-0.3-0.9c-0.2,0.3-0.3,0.6-0.4,1c-0.2,0.5-0.2,1.1-0.2,1.7c0,0.4,0.2,0.7,0.5,0.8c0.1,0,0.2,0.1,0.3,0.1
	c0.1,0,0.2,0,0.3-0.1c0.2-0.1,0.3-0.4,0.3-0.7C8.7,19.4,8.5,18.9,8.3,18.4L8.3,18.4z"/>
<path class="st0" d="M9.5,9.7c1.8,0.2,3.3,0.8,4.3,1.7c1.1,1,1.7,2.5,1.7,4.2V16h-0.4H1.1H0.6v-0.4c0-1.7,0.6-3.2,1.8-4.2
	c1-0.9,2.5-1.5,4.5-1.7c0.3-4,2.1-6.4,4.3-7.6c1-0.5,2-0.7,3-0.7c1,0,2.1,0.3,3,0.9c2.2,1.3,3.9,3.9,3.9,7.9v0l0,11v0.4l-0.4,0
	l-1.7,0h-0.4l0-0.4l0-10.8c0-2.9-1.2-4.9-2.7-5.8C15.3,4.2,14.7,4,14.1,4c-0.6,0-1.3,0.1-1.8,0.4C10.9,5.2,9.8,6.9,9.5,9.7L9.5,9.7z
	 M13.3,12.1c-1-0.9-2.4-1.4-4.2-1.6l-0.4,0l0-0.4c0.2-3.4,1.5-5.4,3.2-6.4c0.7-0.4,1.5-0.6,2.3-0.5c0.8,0,1.5,0.3,2.3,0.7
	c1.7,1.1,3.1,3.3,3.1,6.6l0,10.3l0.8,0l0-10.6c0-3.6-1.5-6-3.5-7.1c-0.8-0.5-1.7-0.7-2.6-0.7c-0.9,0-1.8,0.2-2.6,0.6
	c-2,1-3.6,3.4-3.9,7.2l0,0.4l-0.4,0C5.4,10.6,3.9,11.1,3,12c-0.9,0.8-1.4,1.9-1.5,3.2h13.3C14.7,13.9,14.2,12.8,13.3,12.1L13.3,12.1
	z"/>
</svg>
