<?xml version="1.0" encoding="utf-8"?>
<!-- Generator: Adobe Illustrator 27.8.0, SVG Export Plug-In . SVG Version: 6.00 Build 0)  -->
<svg version="1.1" id="Layer_1" xmlns="http://www.w3.org/2000/svg" xmlns:xlink="http://www.w3.org/1999/xlink" x="0px" y="0px"
	 viewBox="0 0 23 23" style="enable-background:new 0 0 23 23;" xml:space="preserve">
<style type="text/css">
	.st0{fill:#5A4596;}
</style>
<path class="st0" d="M1.2,1.7h20.7h0.3V2v20.7V23h-0.3H1.2H0.9v-0.3V2V1.7H1.2L1.2,1.7z M21.6,2.3H1.4v20.1h20.1V2.3L21.6,2.3z
	 M17.3,8.8V6.4h-1h-0.5L16.1,6l2.2-3.1l0.2-0.3l0.2,0.3L20.9,6l0.3,0.4h-0.5h-0.9v2.3v0.3h-0.3h-1.8h-0.3V8.8L17.3,8.8z M17.9,6.2
	v2.3h1.2V6.2V5.9h0.3h0.7l-1.6-2.3l-1.6,2.3h0.7h0.3V6.2L17.9,6.2z M4.2,16.1v2.3v0.3H3.9H3.2L4.8,21l1.6-2.3H5.7H5.4v-0.3v-2.3H4.2
	L4.2,16.1z M3.6,18.2v-2.3v-0.3h0.3h1.8H6v0.3v2.3h0.9h0.5l-0.3,0.4L5,21.7L4.8,22l-0.2-0.3l-2.2-3.1l-0.3-0.4h0.5H3.6L3.6,18.2z
	 M11.4,3.3c0.5,0,0.9,0.2,1.2,0.5h0c0.3,0.3,0.5,0.7,0.5,1.2s-0.2,0.9-0.5,1.2h0c-0.2,0.2-0.4,0.3-0.6,0.4c0.1,0,0.2,0,0.3,0
	c0.3,0.1,0.6,0.2,0.6,0.4l0.2,0.3l0,0l0,0c0.5,1.1,0.9,2.1,1.2,3.2c0.3,1.1,0.5,2.3,0.7,3.7l0,0c0,0.5-0.2,0.8-0.4,1h0
	c-0.1,0.1-0.2,0.1-0.3,0.1c-0.1,0-0.2,0-0.3-0.1c-0.2-0.1-0.4-0.4-0.5-0.7v0l0-0.2v6.6v0.3h-0.3h-1.4h-0.2h-0.1h-0.2H9.8H9.5v-0.3
	v-5.4h0v-0.3v-0.3c-0.1,0.2-0.2,0.3-0.4,0.4c-0.1,0.1-0.2,0.1-0.3,0.1c-0.1,0-0.2,0-0.3-0.1C8.2,15,8,14.6,8,14.2l0,0
	c0.1-1.4,0.4-2.5,0.7-3.7C9,9.4,9.4,8.4,9.9,7.3l0,0l0,0L10.1,7c0.1-0.2,0.2-0.3,0.5-0.4c0.1,0,0.2-0.1,0.3-0.1
	c-0.2-0.1-0.5-0.2-0.6-0.4C9.9,5.8,9.7,5.4,9.7,4.9s0.2-0.9,0.5-1.2C10.5,3.5,11,3.3,11.4,3.3L11.4,3.3z M12.2,4.2
	C12,4,11.7,3.8,11.4,3.8c-0.3,0-0.6,0.1-0.8,0.3c-0.2,0.2-0.3,0.5-0.3,0.8c0,0.3,0.1,0.6,0.3,0.8c0.2,0.2,0.5,0.3,0.8,0.3
	c0.3,0,0.6-0.1,0.8-0.3l0,0c0.2-0.2,0.3-0.5,0.3-0.8C12.5,4.6,12.4,4.4,12.2,4.2L12.2,4.2L12.2,4.2z M10.1,15.1v5.4h0.8v-5.4v-0.3
	h0.3h0.5H12v0.3v5.4h0.8v-6.9h0v-0.3v-2.3V9.2l0.6,1.7c0.1,0.5,0.3,0.9,0.4,1.5c0.1,0.6,0.2,1.2,0.2,1.9c0,0.1,0.1,0.2,0.1,0.3
	c0,0,0,0,0.1,0c0,0,0.1,0,0.1,0l0,0c0.1-0.1,0.2-0.2,0.2-0.4c-0.1-1.3-0.4-2.5-0.7-3.5c-0.3-1.1-0.7-2.1-1.2-3.1l-0.2-0.3l0,0l0,0
	c0,0-0.1-0.1-0.3-0.1C11.9,7.1,11.6,7,11.4,7l-0.1,0c-0.2,0-0.4,0-0.6,0.1c-0.1,0-0.1,0.1-0.1,0.1l0,0l0,0l-0.2,0.3
	c-0.5,1-0.9,2-1.2,3.1c-0.3,1.1-0.5,2.2-0.7,3.5c0,0.2,0.1,0.4,0.2,0.4c0,0,0.1,0,0.1,0c0,0,0.1,0,0.1,0C9,14.6,9,14.5,9,14.4
	c0-0.6,0.1-1.2,0.2-1.7c0.1-0.5,0.2-0.9,0.3-1.4l0.6-1.9v2v3.4h0V15.1L10.1,15.1z"/>
</svg>
