<?xml version="1.0" encoding="utf-8"?>
<!-- Generator: Adobe Illustrator 27.8.0, SVG Export Plug-In . SVG Version: 6.00 Build 0)  -->
<svg version="1.1" id="Layer_1" xmlns="http://www.w3.org/2000/svg" xmlns:xlink="http://www.w3.org/1999/xlink" x="0px" y="0px"
	 viewBox="0 0 23 23" style="enable-background:new 0 0 23 23;" xml:space="preserve">
<style type="text/css">
	.st0{fill:#5A4596;}
</style>
<path class="st0" d="M13.1,11.6c0.4,0.7,0.7,1.5,0.9,2.1c0.2,0.7,0.2,1.3,0,1.8c-0.1,0.3-0.2,0.6-0.4,0.8c-0.5,1-1.4,1.5-2.4,1.7
	c-1,0.2-2,0.1-3-0.2c-0.5-0.2-1-0.4-1.4-0.6v0c-0.9-0.5-1.9-1.4-2.6-2.3c-0.6-0.8-1-1.7-0.7-2.3c0.5-1.3,1.6-1.5,2.8-1.6
	c0.9-0.1,2-0.3,2.8-1.1l0.4,0.4c-1,0.9-2.1,1.1-3.1,1.2c-1,0.1-1.9,0.3-2.3,1.3c-0.2,0.4,0.1,1.1,0.6,1.8c0.6,0.8,1.5,1.7,2.4,2.2
	l0,0c0.4,0.2,0.8,0.4,1.3,0.6c0.9,0.3,1.9,0.4,2.7,0.2c0.8-0.2,1.6-0.7,2-1.5c0.1-0.2,0.2-0.5,0.3-0.7c0.1-0.4,0.1-1,0-1.6
	c-0.1-0.6-0.4-1.3-0.8-2L13.1,11.6L13.1,11.6z"/>
<path class="st0" d="M12.3,6.6c0.4-1,0.9-1.7,1.5-2.3c0.6-0.6,1.2-1,1.9-1.1c0.3-0.1,0.6-0.1,0.9-0.1c1.1,0,2,0.5,2.7,1.2
	c0.7,0.7,1.1,1.7,1.3,2.7c0.1,0.5,0.2,1,0.1,1.5c0,1.1-0.3,2.4-0.8,3.5c-0.4,1-1,1.7-1.7,1.7c-1.2,0-1.9-0.7-2.6-1.6
	c-0.4-0.5-0.9-1.1-1.6-1.5l0.3-0.5c0.7,0.4,1.2,1.1,1.7,1.6c0.6,0.8,1.2,1.4,2.1,1.4c0.4,0,0.9-0.6,1.2-1.3c0.4-1,0.7-2.2,0.7-3.2
	c0-0.5,0-0.9-0.1-1.4c-0.2-0.9-0.6-1.8-1.2-2.5c-0.6-0.6-1.3-1-2.3-1.1c-0.2,0-0.5,0-0.8,0.1c-0.5,0.1-1.1,0.4-1.6,1
	c-0.5,0.5-1,1.2-1.4,2.1L12.3,6.6L12.3,6.6z"/>
<path class="st0" d="M9.4,9.4C8.7,9.6,7.3,9.6,6,9.3C5,9.1,4.1,8.6,3.6,7.9C3.3,7.7,3.2,7.4,3,7.1c-0.4-0.9-0.3-1.9,0-2.8
	c0.4-0.9,1-1.6,1.8-2.3c0.5-0.4,1-0.7,1.5-0.9c1-0.4,2.4-0.7,3.5-0.7c1.1,0,1.9,0.3,2.2,0.9c0.4,0.9,0.1,1.6-0.3,2.5
	c-0.3,0.8-0.7,1.8-0.6,3l-0.6,0.1c-0.2-1.4,0.2-2.4,0.6-3.3c0.3-0.8,0.6-1.4,0.3-2.1C11.4,1.1,10.8,1,9.9,1c-1,0-2.3,0.3-3.3,0.7
	c-0.5,0.2-1,0.5-1.4,0.8C4.5,3,3.9,3.8,3.6,4.5c-0.3,0.7-0.4,1.6,0,2.3C3.7,7.1,3.8,7.4,4,7.6c0.4,0.6,1.3,0.9,2.1,1.2
	C7.3,9,8.6,9,9.2,8.8L9.4,9.4L9.4,9.4z"/>
<path class="st0" d="M8.7,9.9C8.5,9,8.7,8.2,9.2,7.6c0.5-0.7,1.2-1.1,2-1.3c0.8-0.1,1.7,0.1,2.3,0.5c0.7,0.5,1.1,1.2,1.3,2l0,0v0
	c0.1,0.8-0.1,1.6-0.5,2.3c-0.5,0.7-1.2,1.1-2,1.3l0,0h0c-0.8,0.1-1.6-0.1-2.3-0.5C9.3,11.4,8.8,10.7,8.7,9.9L8.7,9.9z M9.9,8
	C9.6,8.5,9.4,9.1,9.5,9.7c0.1,0.6,0.5,1.1,0.9,1.5c0.5,0.3,1.1,0.5,1.7,0.4l0,0c0.6-0.1,1.1-0.5,1.4-0.9c0.3-0.5,0.5-1.1,0.4-1.7
	l0,0c-0.1-0.6-0.5-1.1-0.9-1.4C12.6,7.2,12,7,11.3,7.1C10.7,7.2,10.2,7.6,9.9,8L9.9,8z"/>
<path class="st0" d="M13.1,17.2l0,0.1h0c0,0.7,0.2,1.6,0.5,2.3c0.3,0.6,0.6,1.2,1,1.2v0l0,0l0,0c1,0,2.1,0.2,2.9,0.5
	c0.9,0.4,1.5,0.9,1.5,1.6l0,0v0v0.4h-0.4H4.8H4.4l0-0.4c0-0.6,0.6-1.2,1.5-1.5c0.8-0.4,2-0.6,2.9-0.6c1.2,0,1.5-2,1.6-2.8h0l0,0
	l0.8,0.1l0,0l0,0c-0.2,1-0.6,3.6-2.4,3.6h0c-0.8,0-1.8,0.2-2.6,0.5c-0.3,0.1-0.5,0.2-0.6,0.3h12.4c-0.2-0.1-0.4-0.3-0.7-0.4
	c-0.7-0.3-1.7-0.5-2.6-0.5l0,0h0l0,0h0c-0.8,0-1.4-0.8-1.8-1.7c-0.3-0.8-0.5-1.9-0.5-2.6h0l0-0.2L13.1,17.2L13.1,17.2z"/>
</svg>
