<svg width="30" height="30" viewBox="0 0 30 30" fill="none" xmlns="http://www.w3.org/2000/svg">
<path d="M21.8493 8.18749L18.2993 4.63749C18.1831 4.52033 18.0448 4.42733 17.8925 4.36387C17.7402 4.30041 17.5768 4.26774 17.4118 4.26774C17.2467 4.26774 17.0834 4.30041 16.931 4.36387C16.7787 4.42733 16.6405 4.52033 16.5243 4.63749C16.2914 4.87169 16.1608 5.18851 16.1608 5.51874C16.1608 5.84897 16.2914 6.16578 16.5243 6.39999L19.1743 9.04999L9.04926 19.175L6.39926 16.525C6.16505 16.2922 5.84824 16.1615 5.51801 16.1615C5.18777 16.1615 4.87096 16.2922 4.63676 16.525C4.51959 16.6412 4.4266 16.7794 4.36314 16.9318C4.29968 17.0841 4.26701 17.2475 4.26701 17.4125C4.26701 17.5775 4.29968 17.7409 4.36314 17.8932C4.4266 18.0455 4.51959 18.1838 4.63676 18.3L8.14926 21.8125L11.6618 25.325C11.7775 25.4431 11.9156 25.5371 12.0679 25.6014C12.2203 25.6658 12.3839 25.6993 12.5493 25.7C12.7975 25.7014 13.0406 25.6289 13.2475 25.4917C13.4544 25.3544 13.6158 25.1586 13.711 24.9293C13.8062 24.7 13.8309 24.4476 13.7821 24.2041C13.7333 23.9607 13.613 23.7373 13.4368 23.5625L10.8243 20.95L20.9493 10.825L23.5993 13.475C23.7158 13.5907 23.854 13.6824 24.006 13.7447C24.1579 13.807 24.3207 13.8388 24.4849 13.8382C24.6492 13.8376 24.8117 13.8047 24.9632 13.7413C25.1147 13.6779 25.2523 13.5853 25.368 13.4687C25.4837 13.3522 25.5754 13.214 25.6377 13.062C25.7 12.9101 25.7318 12.7473 25.7312 12.5831C25.7306 12.4188 25.6977 12.2563 25.6343 12.1048C25.5709 11.9533 25.4783 11.8157 25.3618 11.7L21.8493 8.18749ZM4.63676 21.825C4.40138 21.5896 4.08213 21.4574 3.74926 21.4574C3.41638 21.4574 3.09713 21.5896 2.86176 21.825C2.62638 22.0604 2.49414 22.3796 2.49414 22.7125C2.49414 23.0454 2.62638 23.3646 2.86176 23.6L6.39926 27.1375C6.51606 27.2533 6.65458 27.345 6.80687 27.4072C6.95917 27.4694 7.12225 27.5009 7.28676 27.5C7.45126 27.5009 7.61434 27.4694 7.76664 27.4072C7.91894 27.345 8.05746 27.2533 8.17426 27.1375C8.29142 27.0213 8.38441 26.883 8.44787 26.7307C8.51133 26.5784 8.544 26.415 8.544 26.25C8.544 26.085 8.51133 25.9216 8.44787 25.7693C8.38441 25.6169 8.29142 25.4787 8.17426 25.3625L4.63676 21.825ZM27.1368 6.39999L23.5993 2.86249C23.4827 2.74594 23.3443 2.65349 23.1921 2.59041C23.0398 2.52734 22.8766 2.49487 22.7118 2.49487C22.5469 2.49487 22.3837 2.52734 22.2314 2.59041C22.0792 2.65349 21.9408 2.74594 21.8243 2.86249C21.7077 2.97904 21.6153 3.1174 21.5522 3.26968C21.4891 3.42195 21.4566 3.58516 21.4566 3.74999C21.4566 3.91481 21.4891 4.07802 21.5522 4.2303C21.6153 4.38258 21.7077 4.52094 21.8243 4.63749L25.3618 8.17499C25.478 8.29215 25.6162 8.38514 25.7685 8.4486C25.9209 8.51206 26.0842 8.54474 26.2493 8.54474C26.4143 8.54474 26.5777 8.51206 26.73 8.4486C26.8823 8.38514 27.0206 8.29215 27.1368 8.17499C27.2539 8.05878 27.3469 7.92053 27.4104 7.76821C27.4738 7.61588 27.5065 7.4525 27.5065 7.28749C27.5065 7.12247 27.4738 6.95909 27.4104 6.80677C27.3469 6.65444 27.2539 6.51619 27.1368 6.39999Z" fill="#5A4596"/>
</svg>
