<?xml version="1.0" encoding="utf-8"?>
<!-- Generator: Adobe Illustrator 27.8.0, SVG Export Plug-In . SVG Version: 6.00 Build 0)  -->
<svg version="1.1" id="Layer_1" xmlns="http://www.w3.org/2000/svg" xmlns:xlink="http://www.w3.org/1999/xlink" x="0px" y="0px"
	 viewBox="0 0 23 23" style="enable-background:new 0 0 23 23;" xml:space="preserve">
<style type="text/css">
	.st0{fill:#5A4596;}
</style>
<path class="st0" d="M4.9,14.6H1.2H0.7H0.4v-0.3v-0.5v-1.4v-0.3V12l0.1-0.1l0.2-0.1l10.3-6.4l0.3-0.2l0.1-0.1l0.1,0.1l0.3,0.2
	l10.4,6.5l0.2,0.1l0.1,0.1v0.1v0.3v1.4v0.5v0.3h-0.3h-0.5v0l-3.7,0V14l3.7,0v0h0.2v-0.2v-1.4v-0.1L22,12.3L11.6,5.8l-0.1-0.1
	l-0.1,0.1L1,12.2l-0.1,0.1v0.1v1.4V14h0.2h3.7V14.6L4.9,14.6z M18.1,13.1l2.9,0l-9.5-5.2l-9.4,5.2h2.8v0.5H1.6H1.4v-0.3V13v-0.2
	l0.1-0.1l9.8-5.5l0.1-0.1l0.1,0.1l9.9,5.4l0.1,0.1V13v0.4v0.3l-0.3,0l-3.3,0V13.1L18.1,13.1z"/>
<path class="st0" d="M10.7,3.3c-0.2,0-0.3-0.1-0.4-0.3C10.1,3,10.1,2.9,10,2.8l0,0L9.9,2.7C9.9,2.5,9.8,2.3,9.8,2.2
	c0-0.2,0-0.3,0-0.5c0-0.2,0.1-0.4,0.2-0.6l0,0c0.1-0.2,0.2-0.3,0.4-0.5c0.1-0.1,0.3-0.2,0.5-0.3c0.2-0.1,0.4-0.1,0.6-0.1l0,0h0v0
	l0,0l0,0h0v0c0.2,0,0.4,0,0.6,0.1c0.2,0.1,0.4,0.2,0.6,0.3C12.9,0.8,13,1,13.2,1.2c0.1,0.2,0.2,0.4,0.2,0.7l0,0v0h0l0,0l0,0v0h0
	c0,0.8-0.5,1.4-0.9,1.9l0,0l0,0c-0.1,0.2-0.3,0.3-0.4,0.4c-0.1,0.1-0.1,0.2-0.1,0.3v0l0,0.8l0,0.2l-0.2,0l-0.6,0l-0.2,0l0-0.2l0-0.8
	c0-0.3,0.1-0.6,0.2-0.8c0.1-0.2,0.3-0.4,0.5-0.6l0,0C11.9,3,12,2.8,12.2,2.6c0.1-0.2,0.2-0.4,0.2-0.6l0,0c0-0.1,0-0.2-0.1-0.3
	c0-0.1-0.1-0.2-0.2-0.2c-0.1-0.1-0.2-0.1-0.3-0.2c-0.1,0-0.2-0.1-0.3,0v0l0,0h0c-0.1,0-0.2,0-0.3,0.1v0c-0.1,0-0.2,0.1-0.2,0.1v0
	c-0.1,0.1-0.1,0.1-0.2,0.2l0,0c0,0.1-0.1,0.1-0.1,0.2c0,0.1,0,0.1,0,0.2c0,0.1,0,0.1,0.1,0.2l0,0c0,0,0,0.1,0.1,0.1c0,0,0,0,0,0
	l0.2,0.1l-0.1,0.2l-0.2,0.6l-0.1,0.2L10.7,3.3L10.7,3.3z M10.5,2.8C10.5,2.8,10.6,2.8,10.5,2.8l0.1-0.1c0,0,0,0,0,0
	c-0.1-0.1-0.1-0.1-0.2-0.2l0,0v0c0-0.1-0.1-0.2-0.1-0.3c0-0.1,0-0.2,0-0.3v0c0-0.1,0.1-0.2,0.1-0.4h0c0.1-0.1,0.1-0.2,0.2-0.3l0,0
	c0.1-0.1,0.2-0.2,0.4-0.2h0c0.1,0,0.3-0.1,0.4-0.1l0,0h0c0.1,0,0.3,0,0.4,0.1c0.1,0.1,0.3,0.1,0.4,0.2c0.1,0.1,0.2,0.2,0.3,0.4
	c0.1,0.1,0.1,0.3,0.1,0.4v0l0,0v0c0,0.3-0.1,0.6-0.2,0.8C12.4,3,12.2,3.3,12,3.5h0c-0.2,0.2-0.3,0.4-0.5,0.6
	c-0.1,0.2-0.2,0.4-0.2,0.6l0,0.6l0.2,0l0-0.6v0c0-0.2,0.1-0.4,0.2-0.6c0.1-0.2,0.2-0.3,0.4-0.5l0,0l0,0C12.5,3.1,13,2.6,12.9,2l0,0
	v0h0l0,0v0v0l0,0v0h0c0-0.2-0.1-0.4-0.1-0.5c-0.1-0.2-0.2-0.3-0.3-0.4c-0.1-0.1-0.3-0.2-0.4-0.3c-0.2-0.1-0.3-0.1-0.5-0.1h0l0,0h0v0
	l0,0l0,0h0v0c-0.2,0-0.3,0-0.5,0.1c-0.2,0.1-0.3,0.1-0.4,0.2c-0.1,0.1-0.2,0.2-0.3,0.3v0c-0.1,0.1-0.1,0.3-0.1,0.4v0
	c0,0.1,0,0.3,0,0.4c0,0.1,0.1,0.2,0.1,0.3l0,0C10.3,2.6,10.4,2.7,10.5,2.8L10.5,2.8z M11.5,0.6L11.5,0.6L11.5,0.6L11.5,0.6z
	 M11.5,0.6L11.5,0.6L11.5,0.6L11.5,0.6z"/>
<path class="st0" d="M4.9,11.6h13.3h0.4V12v10.6V23h-0.4H4.9H4.5v-0.4V12v-0.4H4.9L4.9,11.6z M17.8,12.4H5.3v9.8h12.5V12.4
	L17.8,12.4z"/>
</svg>
