<?xml version="1.0" encoding="utf-8"?>
<!-- Generator: Adobe Illustrator 27.8.0, SVG Export Plug-In . SVG Version: 6.00 Build 0)  -->
<svg version="1.1" id="Layer_1" xmlns="http://www.w3.org/2000/svg" xmlns:xlink="http://www.w3.org/1999/xlink" x="0px" y="0px"
	 viewBox="0 0 23 23" style="enable-background:new 0 0 23 23;" xml:space="preserve">
<style type="text/css">
	.st0{fill:#5A4596;stroke:#5A4596;stroke-width:0.25;stroke-miterlimit:10;}
	.st1{fill:#5A4596;}
	.st2{fill:none;}
	.st3{fill:none;stroke:#5A4596;stroke-width:0.65;stroke-miterlimit:10;}
	.st4{fill:none;stroke:#5A4596;stroke-width:0.75;stroke-miterlimit:10;}
	.st5{fill:none;stroke:#5A4596;stroke-width:0.25;stroke-miterlimit:10;}
	.st6{fill:#5A4596;stroke:#5A4596;stroke-width:0.15;stroke-miterlimit:10;}
	.st7{fill:none;stroke:#5A4596;stroke-width:0.5;stroke-miterlimit:10;}
</style>
<g>
	<path class="st1" d="M16.5,11.2h0.9c0.3-0.2,0.6-0.3,1-0.3c0.9,0,1.7,0.8,1.7,1.7h0.7c0-1.3-1.1-2.4-2.4-2.4c-0.2,0-0.5,0-0.7,0.1
		c-0.1-1.2-1.1-2.1-2.3-2.1c-0.9,0-1.6,0.5-2,1.2c-0.4-0.7-1.2-1.2-2-1.2s-1.6,0.5-2,1.2C9,8.6,8.2,8.2,7.3,8.2
		c-1.2,0-2.2,0.9-2.3,2c0,0,0,0,0,0c-1.3,0-2.4,1.1-2.4,2.4h0.7c0-0.9,0.8-1.7,1.7-1.7c0.9,0,1.7,0.8,1.7,1.7h0h0.7h0
		c0-0.9,0.8-1.7,1.7-1.7s1.7,0.8,1.7,1.7h0h0.7h0c0-0.9,0.8-1.7,1.7-1.7c0.4,0,0.7,0.1,1,0.3h0.5H15c-0.3-0.4-0.7-0.7-1.2-0.9
		c0.1-0.8,0.8-1.5,1.7-1.5c0.9,0,1.7,0.8,1.7,1.7h0.1C17,10.7,16.7,10.9,16.5,11.2 M5.7,10.3c0.1-0.8,0.8-1.5,1.7-1.5
		c0.8,0,1.5,0.6,1.7,1.4c-0.8,0-1.6,0.5-2,1.2C6.7,10.9,6.2,10.5,5.7,10.3 M9.7,10.3c0.1-0.8,0.8-1.5,1.7-1.5c0.8,0,1.5,0.6,1.7,1.4
		c-0.8,0-1.6,0.5-2,1.2C10.8,10.9,10.3,10.5,9.7,10.3"/>
	<rect x="0.9" y="21.3" class="st1" width="21.6" height="0.7"/>
	<path class="st1" d="M21.8,13.3l-0.3,0l0,0l-1.5,0l-0.4,0c-0.1-0.3-0.2-0.6-0.5-0.9c-0.3-0.3-0.7-0.5-1.2-0.5h-0.1l-0.1,0l-0.7,0
		l-0.7,0l-0.9,0l-0.4,0l-0.4,0l-0.8,0h-0.1c-0.4,0-0.9,0.2-1.2,0.5c-0.1,0.1-0.1,0.1-0.2,0.2c-0.2,0.3-0.3,0.6-0.3,1l0,3.1l4.7,0
		l0-2.7v-0.4c0-0.3,0.1-0.5,0.3-0.7c0.2-0.2,0.4-0.3,0.7-0.3h0.1c0.3,0,0.5,0.1,0.7,0.3c0.1,0.1,0.2,0.3,0.2,0.4l-1.4,0l0,0.7l2.5,0
		l1.3,0l0,5.5c0,0.2-0.1,0.3-0.2,0.5c-0.1,0.1-0.3,0.2-0.5,0.2L2.9,20c-0.4,0-0.7-0.3-0.7-0.7l0-5.5l9.1,0l0-0.7l-9.8,0v0l-0.7,0
		l0,0.7l0.7,0l0,5.5c0,0.7,0.6,1.3,1.3,1.4l17.5,0.1h0c0.4,0,0.7-0.1,1-0.4c0.3-0.3,0.4-0.6,0.4-1l0-5.5l0.7,0l0-0.7L21.8,13.3
		L21.8,13.3z M16.1,16l-3.4,0l0-2.4c0-0.3,0.1-0.5,0.3-0.7c0.2-0.2,0.4-0.3,0.6-0.3c0,0,0.1,0,0.1,0h0.1l0.9,0l0.3,0l0.3,0l0.7,0
		l0.3,0c0,0,0,0,0,0c-0.2,0.3-0.3,0.6-0.3,1V14L16.1,16z"/>
	<path class="st1" d="M14.4,4.5c0.7,0,1.3-0.6,1.3-1.3s-0.6-1.3-1.3-1.3c-0.7,0-1.3,0.6-1.3,1.3S13.7,4.5,14.4,4.5 M14.4,2.5
		c0.4,0,0.7,0.3,0.7,0.7s-0.3,0.7-0.7,0.7s-0.7-0.3-0.7-0.7S14,2.5,14.4,2.5"/>
	<path class="st1" d="M5,7.2c0-0.7-0.6-1.3-1.3-1.3S2.3,6.4,2.3,7.2s0.6,1.3,1.3,1.3S5,7.9,5,7.2 M3,7.2c0-0.4,0.3-0.7,0.7-0.7
		s0.7,0.3,0.7,0.7c0,0.4-0.3,0.7-0.7,0.7S3,7.6,3,7.2"/>
	<path class="st1" d="M21.8,8.5c0-0.7-0.6-1.3-1.3-1.3c-0.7,0-1.3,0.6-1.3,1.3s0.6,1.3,1.3,1.3C21.2,9.9,21.8,9.3,21.8,8.5
		 M20.5,9.2c-0.4,0-0.7-0.3-0.7-0.7s0.3-0.7,0.7-0.7c0.4,0,0.7,0.3,0.7,0.7S20.9,9.2,20.5,9.2"/>
	<rect x="17.8" y="6.8" class="st1" width="0.7" height="0.7"/>
	<rect x="10.4" y="6.8" class="st1" width="0.7" height="0.7"/>
	<rect x="8.4" y="4.8" class="st1" width="0.7" height="0.7"/>
	<rect x="5.7" y="14.6" class="st1" width="5.7" height="0.7"/>
	<rect x="3" y="14.6" class="st1" width="0.7" height="0.7"/>
	<rect x="4.3" y="14.6" class="st1" width="0.7" height="0.7"/>
	<rect x="17.5" y="14.6" class="st1" width="3" height="0.7"/>
</g>
</svg>
