<?xml version="1.0" encoding="utf-8"?>
<!-- Generator: Adobe Illustrator 27.8.0, SVG Export Plug-In . SVG Version: 6.00 Build 0)  -->
<svg version="1.1" id="Layer_1" xmlns="http://www.w3.org/2000/svg" xmlns:xlink="http://www.w3.org/1999/xlink" x="0px" y="0px"
	 viewBox="0 0 23 23" style="enable-background:new 0 0 23 23;" xml:space="preserve">
<style type="text/css">
	.st0{fill:#5A4596;stroke:#5A4596;stroke-width:0.25;stroke-miterlimit:10;}
	.st1{fill:#5A4596;}
	.st2{fill:none;}
	.st3{fill:none;stroke:#5A4596;stroke-width:0.65;stroke-miterlimit:10;}
	.st4{fill:none;stroke:#5A4596;stroke-width:0.75;stroke-miterlimit:10;}
	.st5{fill:none;stroke:#5A4596;stroke-width:0.25;stroke-miterlimit:10;}
	.st6{fill:#5A4596;stroke:#5A4596;stroke-width:0.15;stroke-miterlimit:10;}
	.st7{fill:none;stroke:#5A4596;stroke-width:0.5;stroke-miterlimit:10;}
</style>
<g id="Element_00000023280996088050748930000014490662761705415299_">
	<path class="st1" d="M17.6,5L17.6,5c0.6,0,1-0.2,1.3-0.6c0.3-0.3,0.5-0.8,0.5-1.3c0-1.1-0.8-1.9-1.8-1.9l-0.1,0c-1,0-1.9,1-1.9,1.9
		C15.7,4.1,16.6,5,17.6,5z M17.6,1.8L17.6,1.8c0.7,0,1.3,0.5,1.3,1.3c0,0.3-0.1,0.7-0.3,0.9c-0.2,0.2-0.5,0.4-0.9,0.4l0,0
		c-0.7,0-1.3-0.6-1.3-1.3C16.3,2.5,16.9,1.8,17.6,1.8z"/>
	<path class="st1" d="M5.8,5.1L5.8,5.1c0.6,0,1-0.2,1.4-0.6c0.3-0.3,0.5-0.8,0.5-1.3c0-1-0.9-1.8-1.9-1.8h0c-0.5,0-1,0.2-1.3,0.6
		C4.2,2.4,4,2.9,4,3.3C4,4.4,4.8,5.1,5.8,5.1z M4.9,2.4c0.2-0.2,0.6-0.4,0.9-0.4c0.7,0,1.2,0.6,1.2,1.2c0,0.3-0.1,0.6-0.3,0.9
		C6.6,4.4,6.2,4.5,5.9,4.5l0,0c-0.7,0-1.2-0.5-1.2-1.2C4.6,3,4.7,2.7,4.9,2.4z"/>
	<path class="st1" d="M11.9,1.7c-0.2,0-0.3,0.1-0.3,0.3v19.6c0,0.2,0.1,0.3,0.3,0.3c0.2,0,0.3-0.1,0.3-0.3V2
		C12.2,1.9,12.1,1.7,11.9,1.7z"/>
	<path class="st1" d="M8.7,7c-0.3-0.8-1-1.3-2-1.4c-0.3,0-0.6,0-0.9,0c0,0-0.2,0-0.3,0c-0.3,0-0.6,0-0.9,0c-1,0-1.7,0.5-2,1.4
		c-0.5,1.7-1,3.3-1.4,4.8c0,0.1-0.1,0.5,0,0.8c0.1,0.1,0.2,0.2,0.5,0.3c0.1,0,0.2,0,0.4,0c0.3,0,0.7-0.1,0.9-0.7
		c0.1-0.3,0.2-0.6,0.3-1l-0.4,3.8c0,0.1,0,0.3,0.1,0.4c0.1,0.1,0.2,0.2,0.4,0.2h0.6l0,1.4c0,1.1,0,3.5,0,3.5c0,0.1,0,0.3,0,0.4
		c0.2,0.7,0.6,0.8,0.9,0.8c0,0,0.1,0,0.1,0c0.3,0,0.5-0.1,0.6-0.3c0.2,0.2,0.5,0.3,0.7,0.3c0,0,0,0,0,0c0.3,0,0.6-0.1,0.7-0.3
		c0.2-0.2,0.2-0.5,0.2-0.8c0-1.1,0-2.2,0-3.3l0-1.4c0-0.1,0-0.2,0-0.3H8c0.1,0,0.3-0.1,0.4-0.2c0,0,0,0,0,0c0.1-0.1,0.1-0.2,0.1-0.4
		l-0.4-3.8c0.1,0.3,0.2,0.6,0.3,1c0.2,0.5,0.6,0.7,0.9,0.7c0.2,0,0.3,0,0.4,0c0.3-0.1,0.4-0.2,0.5-0.3c0.2-0.3,0.1-0.6,0-0.8
		C9.7,10.3,9.3,8.7,8.7,7z M9.6,12.2C9.6,12.2,9.6,12.2,9.6,12.2C9.1,12.3,9,12.2,9,12C8.6,11,8.3,9.8,7.8,8.5l0,0
		C7.7,8.3,7.6,8.2,7.4,8.3c-0.1,0-0.2,0.2-0.2,0.3c0,0,0,0,0,0L7.9,15c0,0-0.1,0-0.1,0H7.2c-0.1,0-0.3,0.2-0.3,0.2c0,0,0,0,0,0.1
		c0,0,0,0,0,0.1c0,0.2,0,0.4,0,0.6l0,1.4c0,1.1,0,2.2,0,3.3c0,0.2,0,0.4-0.1,0.5c0,0-0.1,0.1-0.3,0.1c0,0,0,0,0,0
		c-0.1,0-0.4,0-0.4-0.6c0-1.1,0-2.2,0-3.3l0-1.7c0-0.2-0.1-0.3-0.3-0.3c0,0,0,0,0,0c-0.2,0-0.3,0.1-0.3,0.3l0,1.7c0,1.1,0,2.2,0,3.3
		c0,0,0,0.1,0,0.1c0,0,0,0,0,0.1c0,0.3-0.1,0.4-0.4,0.4c-0.1,0-0.3,0-0.4-0.4c0-0.1,0-0.2,0-0.3l0-0.1c0-1.1,0-2.3,0-3.4l0-1.7
		c0,0,0,0,0,0s0,0,0,0c0-0.2-0.1-0.3-0.3-0.3H3.5l0.7-6.4c0.1-0.2,0-0.3-0.2-0.4c-0.2-0.1-0.3,0-0.4,0.2l0,0C3.2,9.8,2.8,11,2.5,12
		c-0.1,0.2-0.1,0.3-0.6,0.2c0,0-0.1,0-0.1,0c0,0,0-0.1,0-0.3c0.4-1.4,0.9-3.1,1.4-4.7c0.2-0.6,0.7-0.9,1.5-1c0.3,0,1.7,0,1.9,0
		c0.8,0,1.3,0.4,1.5,1c0.5,1.7,1,3.3,1.4,4.7C9.6,12.1,9.6,12.2,9.6,12.2z"/>
	<path class="st1" d="M21.6,7.4c-0.1-1.3-0.8-2-2.1-2.1c-0.4,0-0.9,0-1.4,0c0,0,0,0,0,0c-0.1,0-0.2,0-0.3,0c-0.1,0-0.2,0-0.3,0
		c0,0,0,0,0,0c-0.5,0-0.9,0-1.3,0c-1.4,0.1-2.1,0.8-2.1,2.1c-0.1,1.2-0.1,2.5,0,3.7c0,0.5,0,1,0,1.5c0,0.1,0,0.2,0,0.2
		c0,0,0,0,0,0.1c0.1,0.6,0.4,0.8,0.9,0.8c0,0,0,0,0,0c0.2,0,0.4-0.1,0.5-0.2l0.1,0.1l0,2.2c0,1.3,0,4.2,0.1,4.4
		c0.2,0.6,0.6,0.9,1.2,0.9c0,0,0.1,0,0.1,0c0.4,0,0.7-0.2,0.9-0.4c0.2,0.3,0.5,0.4,1,0.4c0,0,0,0,0,0c0.8,0,1.3-0.5,1.3-1.4
		c0-1.3,0-2.6,0-4l0-1.7c0-0.2,0-0.3,0-0.5l0.1-0.2c0.1,0.1,0.3,0.2,0.5,0.2c0,0,0,0,0,0c0.5,0,0.8-0.3,0.9-0.8c0,0,0,0,0-0.1
		c0-0.1,0-0.1,0-0.2c0-0.5,0-1,0-1.5C21.6,9.9,21.6,8.7,21.6,7.4z M21,11.1c0,0.5,0,1,0,1.5c0,0-0.1,0.5-0.3,0.5
		c-0.2,0-0.4-0.1-0.4-0.4c0-0.4,0-0.7,0-1.1c0-0.1,0-0.3,0-0.4c0-0.7,0-1.4,0-2.1l0-0.9c0-0.2-0.1-0.3-0.3-0.3
		c-0.2,0-0.3,0.1-0.3,0.3l0,0.9c0,0.7,0,1.4,0,2.1c0,0.1,0,0.3,0,0.4c0,0.4,0,0.8,0,1.2c0,0.1,0,0.2,0.1,0.3l-0.2,0.2
		c-0.1,0-0.2,0.1-0.2,0.3c0,0.3,0,0.5,0,0.7l0,1.6c0,1.3,0,2.6,0,4c0,0.5-0.2,0.8-0.7,0.8c0,0,0,0,0,0c-0.3,0-0.7-0.1-0.7-0.8
		c0-1.3,0-2.6,0-3.9l0-2c0-0.2-0.1-0.3-0.3-0.3c0,0,0,0,0,0c-0.2,0-0.3,0.1-0.3,0.3l0,2c0,1.3,0,2.6,0,3.9c0,0,0,0.1,0,0.1
		c0,0,0,0.1,0,0.1c0,0.1,0,0.5-0.7,0.5c-0.4,0-0.6-0.1-0.7-0.5c0-0.1,0-0.2,0-0.3c0,0,0-0.1,0-0.1c0-1.3,0-2.5,0-3.8l0-2.3
		c0,0,0,0,0,0c0,0-0.1-0.1-0.1-0.2l-0.3-0.3c0-0.1,0.1-0.2,0.1-0.3c0-0.4,0-0.8,0-1.2c0-0.1,0-0.3,0-0.4c0-0.7,0-1.4,0-2.1l0-0.9
		c0-0.2-0.1-0.3-0.3-0.3c-0.2,0-0.3,0.1-0.3,0.3l0,0.9c0,0.7,0,1.4,0,2.1c0,0.1,0,0.3,0,0.4c0,0.4,0,0.7,0,1.1
		c0,0.3-0.2,0.4-0.4,0.4c-0.1,0-0.2,0-0.3-0.4c0,0,0-0.1,0-0.1c0,0,0-0.1,0-0.1c0-0.5,0-1,0-1.5c0-1.2,0-2.5,0-3.7
		c0-1,0.5-1.5,1.6-1.5c0.6,0,1.1,0,1.7,0c0.6,0,1.1,0,1.7,0c1,0.1,1.5,0.5,1.6,1.5C21,8.7,21,9.9,21,11.1z"/>
</g>
</svg>
