<?xml version="1.0" encoding="utf-8"?>
<!-- Generator: Adobe Illustrator 27.8.0, SVG Export Plug-In . SVG Version: 6.00 Build 0)  -->
<svg version="1.1" id="Layer_1" xmlns="http://www.w3.org/2000/svg" xmlns:xlink="http://www.w3.org/1999/xlink" x="0px" y="0px"
	 viewBox="0 0 23 23" style="enable-background:new 0 0 23 23;" xml:space="preserve">
<style type="text/css">
	.st0{fill:#5A4596;stroke:#5A4596;stroke-width:0.25;stroke-miterlimit:10;}
	.st1{fill:#5A4596;}
	.st2{fill:none;}
	.st3{fill:none;stroke:#5A4596;stroke-width:0.65;stroke-miterlimit:10;}
	.st4{fill:none;stroke:#5A4596;stroke-width:0.75;stroke-miterlimit:10;}
	.st5{fill:none;stroke:#5A4596;stroke-width:0.25;stroke-miterlimit:10;}
	.st6{fill:#5A4596;stroke:#5A4596;stroke-width:0.15;stroke-miterlimit:10;}
	.st7{fill:none;stroke:#5A4596;stroke-width:0.5;stroke-miterlimit:10;}
</style>
<g id="Element_40_">
	<path class="st1" d="M21.4,13.7c0.2,0,0.3-0.1,0.3-0.3v-1c0-0.2-0.1-0.3-0.3-0.3h-2.8V1.3H4.4v10.8H1.6c-0.2,0-0.3,0.1-0.3,0.3v1
		c0,0.2,0.1,0.3,0.3,0.3c0.2,0,0.3-0.1,0.3-0.3v-0.7h2.5v6.9H1.3V22h20.4v-2.4h-3.1v-6.9H21v0.7C21,13.6,21.2,13.7,21.4,13.7z
		 M17.9,12.1h-6.1V2h6.1V12.1z M11.8,19.6v-6.9h2.4v6.9H11.8z M8.4,19.6v-6.9h2.7v6.9H8.4z M5.1,2h6.1v10.1H5.1V2z M5.1,12.7h2.7
		v6.9H5.1V12.7z M21,21.3H2v-1.1H21V21.3z M17.9,19.6h-3.1v-6.9h3.1V19.6z"/>
</g>
</svg>
