<?xml version="1.0" encoding="utf-8"?>
<!-- Generator: Adobe Illustrator 27.8.0, SVG Export Plug-In . SVG Version: 6.00 Build 0)  -->
<svg version="1.1" id="Layer_1" xmlns="http://www.w3.org/2000/svg" xmlns:xlink="http://www.w3.org/1999/xlink" x="0px" y="0px"
	 viewBox="0 0 23 23" style="enable-background:new 0 0 23 23;" xml:space="preserve">
<style type="text/css">
	.st0{fill:#5A4596;stroke:#5A4596;stroke-width:0.25;stroke-miterlimit:10;}
	.st1{fill:#5A4596;}
	.st2{fill:none;}
	.st3{fill:none;stroke:#5A4596;stroke-width:0.65;stroke-miterlimit:10;}
	.st4{fill:none;stroke:#5A4596;stroke-width:0.75;stroke-miterlimit:10;}
	.st5{fill:none;stroke:#5A4596;stroke-width:0.25;stroke-miterlimit:10;}
	.st6{fill:#5A4596;stroke:#5A4596;stroke-width:0.15;stroke-miterlimit:10;}
	.st7{fill:none;stroke:#5A4596;stroke-width:0.5;stroke-miterlimit:10;}
</style>
<g id="telephone_3_00000023249225231179872130000016856132106929736076_">
	<g id="Group_23_00000005254330860110633900000013996717691554494888_">
		<path id="Vector_37_00000146486395994242196440000007319910229529178252_" class="st4" d="M20.5,4.5c0,0-8.1-7.5-17.7-0.3
			c0,0-1.7,1.2-1.3,2.4l0.2,0.8c0.2,0.8,1,1.2,1.7,1.1l2.2-0.4C6.3,8,6.7,7.6,6.8,7l0.6-2.2c0.1-0.2,0.2-0.4,0.5-0.5
			c1.1-0.3,4.2-1.1,7.1,0c0.2,0.1,0.4,0.3,0.4,0.5L16,6.9c0.1,0.5,0.5,0.9,1,1.1l2.4,0.7c0.8,0.2,1.6-0.2,1.8-1
			C21.5,6.7,21.6,5.5,20.5,4.5L20.5,4.5z"/>
		<path id="Vector_38_00000029727260336782717440000011539629324439842231_" class="st4" d="M1.5,19.3h19.9v2.6H1.5V19.3z"/>
		<path id="Vector_39_00000156560730132845468670000002581532945565945002_" class="st4" d="M11.5,14.4c1,0,1.9-0.8,1.9-1.9
			c0-1-0.8-1.9-1.9-1.9s-1.9,0.8-1.9,1.9C9.6,13.6,10.4,14.4,11.5,14.4z"/>
		<path id="Vector_40_00000003066365447811384680000016251832500262280371_" class="st4" d="M18.8,11.2c-0.4-0.4-0.9-0.8-1.5-1.1
			c-2.4-1.2-3-3.5-3-3.5H8.6c0,0-0.6,2.3-3,3.5c-0.6,0.3-1.1,0.7-1.5,1.1c-1.2,1.2-1.8,2.9-1.8,4.7v1.8h18.4v-1.8
			C20.7,14.2,20.1,12.5,18.8,11.2L18.8,11.2z M11.5,16.4c-2.1,0-3.9-1.7-3.9-3.9s1.7-3.9,3.9-3.9c2.1,0,3.9,1.7,3.9,3.9
			S13.6,16.4,11.5,16.4z"/>
	</g>
</g>
</svg>
