<?xml version="1.0" encoding="utf-8"?>
<!-- Generator: Adobe Illustrator 27.8.0, SVG Export Plug-In . SVG Version: 6.00 Build 0)  -->
<svg version="1.1" id="Layer_1" xmlns="http://www.w3.org/2000/svg" xmlns:xlink="http://www.w3.org/1999/xlink" x="0px" y="0px"
	 viewBox="0 0 23 23" style="enable-background:new 0 0 23 23;" xml:space="preserve">
<style type="text/css">
	.st0{fill:#5A4596;stroke:#5A4596;stroke-width:0.25;stroke-miterlimit:10;}
	.st1{fill:#5A4596;}
	.st2{fill:none;}
	.st3{fill:none;stroke:#5A4596;stroke-width:0.65;stroke-miterlimit:10;}
	.st4{fill:none;stroke:#5A4596;stroke-width:0.75;stroke-miterlimit:10;}
	.st5{font-family:'MyriadHebrew-Bold';}
	.st6{font-size:4px;}
	.st7{fill:none;stroke:#5A4596;stroke-width:0.25;stroke-miterlimit:10;}
	.st8{fill:#5A4596;stroke:#5A4596;stroke-width:0.15;stroke-miterlimit:10;}
	.st9{fill:none;stroke:#5A4596;stroke-width:0.5;stroke-miterlimit:10;}
</style>
<g>
	<path class="st1" d="M2.6,16.7c-0.1,0-0.2-0.1-0.2-0.2c0-0.1,0.1-0.2,0.2-0.2s0.2,0.1,0.2,0.2C2.8,16.6,2.7,16.7,2.6,16.7L2.6,16.7
		z M2.6,15.6c-0.5,0-0.9,0.4-0.9,0.9c0,0.5,0.4,0.9,0.9,0.9s0.9-0.4,0.9-0.9C3.5,16,3.1,15.6,2.6,15.6L2.6,15.6z"/>
	<path class="st1" d="M2.6,14.6c-0.1,0-0.2-0.1-0.2-0.2s0.1-0.2,0.2-0.2s0.2,0.1,0.2,0.2S2.7,14.6,2.6,14.6L2.6,14.6z M2.6,13.5
		c-0.5,0-0.9,0.4-0.9,0.9c0,0.5,0.4,0.9,0.9,0.9s0.9-0.4,0.9-0.9C3.5,13.9,3.1,13.5,2.6,13.5L2.6,13.5z"/>
	<path class="st1" d="M4.9,14.6c-0.1,0-0.2-0.1-0.2-0.2s0.1-0.2,0.2-0.2s0.2,0.1,0.2,0.2S5,14.6,4.9,14.6L4.9,14.6z M4.9,13.5
		c-0.5,0-0.9,0.4-0.9,0.9c0,0.5,0.4,0.9,0.9,0.9s0.9-0.4,0.9-0.9C5.7,13.9,5.3,13.5,4.9,13.5L4.9,13.5z"/>
	<path class="st1" d="M4.9,16.7c-0.1,0-0.2-0.1-0.2-0.2c0-0.1,0.1-0.2,0.2-0.2s0.2,0.1,0.2,0.2C5.1,16.6,5,16.7,4.9,16.7L4.9,16.7z
		 M4.9,15.6C4.4,15.6,4,16,4,16.5c0,0.5,0.4,0.9,0.9,0.9s0.9-0.4,0.9-0.9C5.7,16,5.3,15.6,4.9,15.6L4.9,15.6z"/>
	<path class="st1" d="M11.5,15.4c1.8,0,3.5-0.8,4.5-2.2h5.1c0.3,0,0.5,0.2,0.5,0.5v3.5v0.4v0.7h-4.5c-0.1-0.5-0.6-0.9-1.1-0.9H7.1
		c-0.5,0-1,0.4-1.1,0.9H1.4v-0.7v-0.4v-3.5c0-0.3,0.2-0.5,0.5-0.5h5c0,0,0.1,0,0.1,0C8,14.5,9.7,15.4,11.5,15.4L11.5,15.4z
		 M11.5,4.5c0.7,0,1.3,0.1,1.8,0.3l-1.3,2.6c-0.2-0.1-0.4-0.1-0.6-0.1c-1.2,0-2.3,1-2.3,2.3c0,1.2,1,2.3,2.3,2.3
		c1.1,0,2-0.7,2.2-1.7l2.9-0.4c0,2.8-2.3,5-5.1,5c-2.8,0-5.1-2.3-5.1-5.1S8.7,4.5,11.5,4.5L11.5,4.5z M13.1,9.6c0,0.1,0,0.1,0,0.2
		c0,0,0,0,0,0c-0.1,0.8-0.8,1.4-1.6,1.4c-0.9,0-1.6-0.7-1.6-1.6c0-0.9,0.7-1.6,1.6-1.6c0.2,0,0.4,0,0.6,0.1c0,0,0,0,0,0
		C12.7,8.4,13.1,9,13.1,9.6L13.1,9.6z M14,5.1c1.4,0.8,2.4,2.2,2.6,3.9l-2.8,0.4c-0.1-0.7-0.5-1.3-1-1.7L14,5.1L14,5.1z M15.9,19.1
		H7.1c-0.3,0-0.5-0.2-0.5-0.5c0-0.3,0.2-0.5,0.5-0.5h8.8c0.3,0,0.5,0.2,0.5,0.5C16.4,18.9,16.2,19.1,15.9,19.1L15.9,19.1z
		 M21.6,20.2c0,0.3-0.2,0.5-0.5,0.5H1.9c-0.3,0-0.5-0.2-0.5-0.5V19h4.5c0.1,0.5,0.6,0.8,1.1,0.8h8.8c0.5,0,1-0.4,1.1-0.8h4.5V20.2
		L21.6,20.2z M0.7,13.7v3.5v0.4v2.6c0,0.6,0.5,1.2,1.2,1.2h19.2c0.6,0,1.2-0.5,1.2-1.2v-2.6v-0.4v-3.5c0-0.6-0.5-1.2-1.2-1.2h-4.6
		c0.5-0.9,0.8-1.9,0.8-2.9c0-0.1,0-0.2,0-0.3c0,0,0,0,0,0c-0.1-2.2-1.4-4-3.3-4.9c0,0,0,0,0,0c0,0,0,0,0,0c-0.7-0.3-1.6-0.5-2.4-0.5
		c-3.2,0-5.8,2.6-5.8,5.8c0,1.1,0.3,2.1,0.8,2.9H1.9C1.2,12.5,0.7,13,0.7,13.7L0.7,13.7z"/>
	<path class="st1" d="M17.4,16.7c0.2,0,0.3-0.2,0.3-0.3v-2.3c0-0.2-0.2-0.3-0.3-0.3c-0.2,0-0.3,0.2-0.3,0.3v2.3
		C17.1,16.6,17.3,16.7,17.4,16.7L17.4,16.7z"/>
	<path class="st1" d="M18.9,16.7c0.2,0,0.3-0.2,0.3-0.3v-2.3c0-0.2-0.2-0.3-0.3-0.3c-0.2,0-0.3,0.2-0.3,0.3v2.3
		C18.5,16.6,18.7,16.7,18.9,16.7L18.9,16.7z"/>
	<path class="st1" d="M20.3,16.7c0.2,0,0.3-0.2,0.3-0.3v-2.3c0-0.2-0.2-0.3-0.3-0.3S20,13.9,20,14.1v2.3
		C20,16.6,20.1,16.7,20.3,16.7L20.3,16.7z"/>
</g>
<rect x="21.6" y="15.8" class="st2" width="17.4" height="17.1"/>
<text transform="matrix(1 0 0 1 33.7948 18.5959)" class="st1 st5 st6">CD</text>
</svg>
