<?xml version="1.0" encoding="utf-8"?>
<!-- Generator: Adobe Illustrator 27.8.0, SVG Export Plug-In . SVG Version: 6.00 Build 0)  -->
<svg version="1.1" id="Layer_1" xmlns="http://www.w3.org/2000/svg" xmlns:xlink="http://www.w3.org/1999/xlink" x="0px" y="0px"
	 viewBox="0 0 23 23" style="enable-background:new 0 0 23 23;" xml:space="preserve">
<style type="text/css">
	.st0{fill:#5A4596;stroke:#5A4596;stroke-width:0.25;stroke-miterlimit:10;}
	.st1{fill:#5A4596;}
	.st2{fill:none;}
	.st3{fill:none;stroke:#5A4596;stroke-width:0.65;stroke-miterlimit:10;}
	.st4{fill:none;stroke:#5A4596;stroke-width:0.75;stroke-miterlimit:10;}
	.st5{fill:none;stroke:#5A4596;stroke-width:0.25;stroke-miterlimit:10;}
	.st6{fill:#5A4596;stroke:#5A4596;stroke-width:0.15;stroke-miterlimit:10;}
	.st7{fill:none;stroke:#5A4596;stroke-width:0.5;stroke-miterlimit:10;}
</style>
<g>
	<path class="st1" d="M1.1,14.4h21V1.3h-21V14.4z M21.4,13.8H1.7V2h19.7V13.8z"/>
	<path class="st1" d="M8,9.8V9.7c0.5,0.7,1.4,1.1,2.3,1.1h0.3l0-2.3c0-0.5-0.4-1-1-1H9.5c0.7-0.5,1.1-1.4,1.1-2.3V4.9l-2.3,0
		c-0.5,0-1,0.4-1,1V6C6.8,5.3,5.9,4.9,5,4.9H4.7l0,2.3c0,0.5,0.4,1,1,1h0.1c-0.7,0.5-1.1,1.4-1.1,2.3v0.3l2.3,0
		C7.5,10.8,8,10.4,8,9.8 M9.6,8.2c0.2,0,0.3,0.1,0.3,0.3l0,1.6C8.9,10,8.1,9.2,8,8.2H9.6z M8,5.9c0-0.2,0.1-0.3,0.3-0.3h1.6
		C9.8,6.6,9,7.4,8,7.5V5.9z M5.7,7.5c-0.2,0-0.3-0.1-0.3-0.3l0-1.6c1,0.1,1.8,0.9,1.9,1.9H5.7z M5.4,10.2c0.1-1,0.9-1.8,1.9-1.9v1.6
		c0,0.2-0.1,0.3-0.3,0.3L5.4,10.2z"/>
	<path class="st1" d="M7.6,13.1c2.9,0,5.3-2.4,5.3-5.3s-2.4-5.3-5.3-5.3S2.4,5,2.4,7.9S4.7,13.1,7.6,13.1 M7.6,3.3
		c2.5,0,4.6,2.1,4.6,4.6s-2.1,4.6-4.6,4.6S3,10.4,3,7.9S5.1,3.3,7.6,3.3"/>
	<rect x="13.9" y="4.6" class="st1" width="6.6" height="0.7"/>
	<rect x="13.9" y="5.9" class="st1" width="6.6" height="0.7"/>
	<rect x="13.9" y="7.2" class="st1" width="6.6" height="0.7"/>
	<rect x="13.9" y="8.5" class="st1" width="6.6" height="0.7"/>
	<rect x="13.9" y="9.8" class="st1" width="6.6" height="0.7"/>
	<path class="st1" d="M7.1,16.6C7,16.4,7,16.3,7,16.1l-0.7,0c0,0.3,0.1,0.5,0.2,0.8c0.2,0.3,0.2,0.7,0,1c-0.3,0.5-0.3,1.1,0,1.6
		c0.1,0.2,0.1,0.3,0.1,0.5c0,0.2,0,0.3-0.1,0.5c-0.3,0.5-0.3,1.1,0,1.6l0.1,0.2h0.7l-0.2-0.5c-0.2-0.3-0.2-0.7,0-1
		c0.1-0.2,0.2-0.5,0.2-0.8c0-0.3-0.1-0.6-0.2-0.8c-0.2-0.3-0.2-0.7,0-1C7.4,17.7,7.4,17.1,7.1,16.6"/>
	<path class="st1" d="M5.1,16.6C5.1,16.4,5,16.3,5,16.1l-0.7,0c0,0.3,0.1,0.5,0.2,0.8c0.2,0.3,0.2,0.7,0,1c-0.3,0.5-0.3,1.1,0,1.6
		c0.1,0.2,0.1,0.3,0.1,0.5c0,0.2,0,0.3-0.1,0.5c-0.3,0.5-0.3,1.1,0,1.6l0.1,0.2h0.7l-0.2-0.5c-0.2-0.3-0.2-0.7,0-1
		c0.1-0.2,0.2-0.5,0.2-0.8c0-0.3-0.1-0.6-0.2-0.8c-0.2-0.3-0.2-0.7,0-1C5.4,17.7,5.4,17.1,5.1,16.6"/>
	<path class="st1" d="M3.2,16.6C3.1,16.4,3,16.3,3,16.1l-0.7,0c0,0.3,0.1,0.5,0.2,0.8c0.2,0.3,0.2,0.7,0,1c-0.3,0.5-0.3,1.1,0,1.6
		c0.1,0.2,0.1,0.3,0.1,0.5c0,0.2,0,0.3-0.1,0.5c-0.3,0.5-0.3,1.1,0,1.6l0.1,0.2h0.7l-0.2-0.5c-0.2-0.3-0.2-0.7,0-1
		c0.1-0.2,0.2-0.5,0.2-0.8c0-0.3-0.1-0.6-0.2-0.8c-0.2-0.3-0.2-0.7,0-1C3.4,17.7,3.4,17.1,3.2,16.6"/>
	<path class="st1" d="M9.1,16.6C9,16.4,9,16.3,9,16.1l-0.7,0c0,0.3,0.1,0.5,0.2,0.8c0.2,0.3,0.2,0.7,0,1c-0.3,0.5-0.3,1.1,0,1.6
		c0.1,0.2,0.1,0.3,0.1,0.5c0,0.2,0,0.3-0.1,0.5c-0.3,0.5-0.3,1.1,0,1.6l0.1,0.2h0.7l-0.2-0.5c-0.2-0.3-0.2-0.7,0-1
		c0.1-0.2,0.2-0.5,0.2-0.8c0-0.3-0.1-0.6-0.2-0.8c-0.2-0.3-0.2-0.7,0-1C9.3,17.7,9.3,17.1,9.1,16.6"/>
	<path class="st1" d="M15,16.6c-0.1-0.2-0.1-0.3-0.1-0.5l-0.7,0c0,0.3,0.1,0.5,0.2,0.8c0.2,0.3,0.2,0.7,0,1c-0.3,0.5-0.3,1.1,0,1.6
		c0.1,0.2,0.1,0.3,0.1,0.5c0,0.2,0,0.3-0.1,0.5c-0.3,0.5-0.3,1.1,0,1.6l0.1,0.2h0.7L15,21.8c-0.2-0.3-0.2-0.7,0-1
		c0.1-0.2,0.2-0.5,0.2-0.8c0-0.3-0.1-0.6-0.2-0.8c-0.2-0.3-0.2-0.7,0-1C15.2,17.7,15.2,17.1,15,16.6"/>
	<path class="st1" d="M13,16.6c-0.1-0.2-0.1-0.3-0.1-0.5l-0.7,0c0,0.3,0.1,0.5,0.2,0.8c0.2,0.3,0.2,0.7,0,1c-0.3,0.5-0.3,1.1,0,1.6
		c0.1,0.2,0.1,0.3,0.1,0.5c0,0.2,0,0.3-0.1,0.5c-0.3,0.5-0.3,1.1,0,1.6l0.1,0.2h0.7L13,21.8c-0.2-0.3-0.2-0.7,0-1
		c0.1-0.2,0.2-0.5,0.2-0.8c0-0.3-0.1-0.6-0.2-0.8c-0.2-0.3-0.2-0.7,0-1C13.3,17.7,13.3,17.1,13,16.6"/>
	<path class="st1" d="M11,16.6c-0.1-0.2-0.1-0.3-0.1-0.5l-0.7,0c0,0.3,0.1,0.5,0.2,0.8c0.2,0.3,0.2,0.7,0,1c-0.3,0.5-0.3,1.1,0,1.6
		c0.1,0.2,0.1,0.3,0.1,0.5c0,0.2,0,0.3-0.1,0.5c-0.3,0.5-0.3,1.1,0,1.6l0.1,0.2h0.7L11,21.8c-0.2-0.3-0.2-0.7,0-1
		c0.1-0.2,0.2-0.5,0.2-0.8c0-0.3-0.1-0.6-0.2-0.8c-0.2-0.3-0.2-0.7,0-1C11.3,17.7,11.3,17.1,11,16.6"/>
	<path class="st1" d="M17,16.6c-0.1-0.2-0.1-0.3-0.1-0.5l-0.7,0c0,0.3,0.1,0.5,0.2,0.8c0.2,0.3,0.2,0.7,0,1c-0.3,0.5-0.3,1.1,0,1.6
		c0.1,0.2,0.1,0.3,0.1,0.5c0,0.2,0,0.3-0.1,0.5c-0.3,0.5-0.3,1.1,0,1.6l0.1,0.2h0.7L17,21.8c-0.2-0.3-0.2-0.7,0-1
		c0.1-0.2,0.2-0.5,0.2-0.8c0-0.3-0.1-0.6-0.2-0.8c-0.2-0.3-0.2-0.7,0-1C17.2,17.7,17.2,17.1,17,16.6"/>
	<path class="st1" d="M18.9,16.6c-0.1-0.2-0.1-0.3-0.1-0.5l-0.7,0c0,0.3,0.1,0.5,0.2,0.8c0.2,0.3,0.2,0.7,0,1
		c-0.3,0.5-0.3,1.1,0,1.6c0.1,0.2,0.1,0.3,0.1,0.5c0,0.2,0,0.3-0.1,0.5c-0.3,0.5-0.3,1.1,0,1.6l0.1,0.2h0.7l-0.2-0.5
		c-0.2-0.3-0.2-0.7,0-1c0.1-0.2,0.2-0.5,0.2-0.8c0-0.3-0.1-0.6-0.2-0.8c-0.2-0.3-0.2-0.7,0-1C19.2,17.7,19.2,17.1,18.9,16.6"/>
	<path class="st1" d="M20.9,16.6c-0.1-0.2-0.1-0.3-0.1-0.5l-0.7,0c0,0.3,0.1,0.5,0.2,0.8c0.2,0.3,0.2,0.7,0,1
		c-0.3,0.5-0.3,1.1,0,1.6c0.1,0.2,0.1,0.3,0.1,0.5c0,0.2,0,0.3-0.1,0.5c-0.3,0.5-0.3,1.1,0,1.6l0.1,0.2h0.7l-0.2-0.5
		c-0.2-0.3-0.2-0.7,0-1c0.1-0.2,0.2-0.5,0.2-0.8c0-0.3-0.1-0.6-0.2-0.8c-0.2-0.3-0.2-0.7,0-1C21.2,17.7,21.2,17.1,20.9,16.6"/>
</g>
</svg>
