<?xml version="1.0" encoding="utf-8"?>
<!-- Generator: Adobe Illustrator 27.8.0, SVG Export Plug-In . SVG Version: 6.00 Build 0)  -->
<svg version="1.1" id="Layer_1" xmlns="http://www.w3.org/2000/svg" xmlns:xlink="http://www.w3.org/1999/xlink" x="0px" y="0px"
	 viewBox="0 0 23 23" style="enable-background:new 0 0 23 23;" xml:space="preserve">
<style type="text/css">
	.st0{fill:#5A4596;stroke:#5A4596;stroke-width:0.25;stroke-miterlimit:10;}
	.st1{fill:#5A4596;}
	.st2{fill:none;}
	.st3{fill:none;stroke:#5A4596;stroke-width:0.65;stroke-miterlimit:10;}
	.st4{fill:none;stroke:#5A4596;stroke-width:0.75;stroke-miterlimit:10;}
	.st5{fill:none;stroke:#5A4596;stroke-width:0.25;stroke-miterlimit:10;}
	.st6{fill:#5A4596;stroke:#5A4596;stroke-width:0.15;stroke-miterlimit:10;}
	.st7{fill:none;stroke:#5A4596;stroke-width:0.5;stroke-miterlimit:10;}
</style>
<g>
	<g>
		<g>
			<path class="st1" d="M19.6,21.5h-17c-0.4,0-0.8-0.2-1-0.4c-0.3-0.3-0.4-0.6-0.4-1V3c0-0.4,0.2-0.8,0.4-1c0.3-0.3,0.6-0.4,1-0.4
				h17c0.4,0,0.7,0.1,1,0.4C20.8,2.3,21,2.7,21,3v17c0,0.4-0.2,0.7-0.4,1C20.3,21.3,19.9,21.5,19.6,21.5z M2.5,2.2
				C2.3,2.2,2.1,2.3,2,2.4C1.8,2.6,1.7,2.8,1.7,3v17c0,0.2,0.1,0.4,0.2,0.6c0.2,0.2,0.4,0.2,0.6,0.2h17c0.2,0,0.4-0.1,0.6-0.2
				c0.2-0.2,0.2-0.4,0.2-0.6V3c0-0.2-0.1-0.4-0.2-0.6c-0.2-0.2-0.4-0.2-0.6-0.2H2.5z"/>
		</g>
	</g>
	<g>
		<g>
			<path class="st1" d="M4.6,18.3c-0.1,0-0.2,0-0.2-0.1L1.2,15c-0.1-0.1-0.1-0.3,0-0.4c0.1-0.1,0.3-0.1,0.4,0l3.2,3.2
				c0.1,0.1,0.1,0.3,0,0.4C4.8,18.2,4.7,18.3,4.6,18.3z"/>
		</g>
		<g>
			<path class="st1" d="M14.3,21.5c-0.1,0-0.2,0-0.2-0.1l-9.6-9.6c-0.1-0.1-0.1-0.3,0-0.4c0.1-0.1,0.3-0.1,0.4,0l9.6,9.6
				c0.1,0.1,0.1,0.3,0,0.4C14.4,21.5,14.3,21.5,14.3,21.5z"/>
		</g>
		<g>
			<path class="st1" d="M17.5,18.3c-0.1,0-0.2,0-0.2-0.1L14,15c-0.1-0.1-0.1-0.3,0-0.4c0.1-0.1,0.3-0.1,0.4,0l3.2,3.2
				c0.1,0.1,0.1,0.3,0,0.4C17.6,18.2,17.6,18.3,17.5,18.3z"/>
		</g>
		<g>
			<path class="st1" d="M11.1,11.8c-0.1,0-0.2,0-0.2-0.1L7.6,8.5c-0.1-0.1-0.1-0.3,0-0.4C7.7,8,7.9,8,8.1,8.1l3.2,3.2
				c0.1,0.1,0.1,0.3,0,0.4C11.2,11.8,11.1,11.8,11.1,11.8z"/>
		</g>
		<g>
			<path class="st1" d="M20.7,15.1c-0.1,0-0.2,0-0.2-0.1L7.6,2.1l0.4-0.4l12.8,12.9c0.1,0.1,0.1,0.3,0,0.4
				C20.8,15,20.8,15.1,20.7,15.1z"/>
		</g>
		<g>
			<path class="st1" d="M17.5,5.4c-0.1,0-0.2,0-0.2-0.1L14,2.1c-0.1-0.1-0.1-0.3,0-0.4c0.1-0.1,0.3-0.1,0.4,0l3.2,3.2
				c0.1,0.1,0.1,0.3,0,0.4C17.6,5.4,17.6,5.4,17.5,5.4z"/>
		</g>
	</g>
	<g>
		<g>
			<path class="st1" d="M4.6,5.4c-0.1,0-0.2,0-0.2-0.1C4.3,5.2,4.3,5,4.4,4.9l3.2-3.2c0.1-0.1,0.3-0.1,0.4,0c0.1,0.1,0.1,0.3,0,0.4
				L4.8,5.3C4.8,5.4,4.7,5.4,4.6,5.4z"/>
		</g>
		<g>
			<path class="st1" d="M4.6,11.8L4.6,11.8c-0.1,0-0.2,0-0.2-0.1L1.2,8.5c-0.1-0.1-0.1-0.3,0-0.4l3.2-3.2c0.1-0.1,0.3-0.1,0.4,0
				C5,5,5,5.2,4.8,5.3l-3,3l2.8,2.8l3-3C7.7,8,7.9,8,8.1,8.1c0.1,0.1,0.1,0.3,0,0.4l-3.2,3.2C4.8,11.8,4.7,11.8,4.6,11.8z"/>
		</g>
		<g>
			<path class="st1" d="M7.8,8.6c-0.1,0-0.2,0-0.2-0.1c-0.1-0.1-0.1-0.3,0-0.4L14,1.7c0.1-0.1,0.3-0.1,0.4,0c0.1,0.1,0.1,0.3,0,0.4
				L8.1,8.5C8,8.6,7.9,8.6,7.8,8.6z"/>
		</g>
		<g>
			<path class="st1" d="M1.4,15.1c-0.1,0-0.2,0-0.2-0.1c-0.1-0.1-0.1-0.3,0-0.4l3.2-3.2c0.1-0.1,0.3-0.1,0.4,0
				c0.1,0.1,0.1,0.3,0,0.4L1.6,15C1.6,15,1.5,15.1,1.4,15.1z"/>
		</g>
		<g>
			<path class="st1" d="M1.7,21.2c-0.1,0-0.2,0-0.2-0.1c-0.1-0.1-0.1-0.3,0-0.4L20.1,2c0.1-0.1,0.3-0.1,0.4,0c0.1,0.1,0.1,0.3,0,0.4
				L2,21.1C1.9,21.1,1.8,21.2,1.7,21.2z"/>
		</g>
		<g>
			<path class="st1" d="M7.8,21.5c-0.1,0-0.2,0-0.2-0.1c-0.1-0.1-0.1-0.3,0-0.4L20.5,8.1c0.1-0.1,0.3-0.1,0.4,0
				c0.1,0.1,0.1,0.3,0,0.4L8.1,21.4C8,21.5,7.9,21.5,7.8,21.5z"/>
		</g>
		<g>
			<path class="st1" d="M14.3,21.5c-0.1,0-0.2,0-0.2-0.1c-0.1-0.1-0.1-0.3,0-0.4l6.4-6.4c0.1-0.1,0.1-0.1,0.2-0.1
				c0.2,0,0.3,0.1,0.3,0.3c0,0.1,0,0.2-0.1,0.2l-6.4,6.4C14.4,21.5,14.3,21.5,14.3,21.5z"/>
		</g>
	</g>
</g>
</svg>
