<?xml version="1.0" encoding="utf-8"?>
<!-- Generator: Adobe Illustrator 27.8.0, SVG Export Plug-In . SVG Version: 6.00 Build 0)  -->
<svg version="1.1" id="Layer_1" xmlns="http://www.w3.org/2000/svg" xmlns:xlink="http://www.w3.org/1999/xlink" x="0px" y="0px"
	 viewBox="0 0 23 23" style="enable-background:new 0 0 23 23;" xml:space="preserve">
<style type="text/css">
	.st0{fill:#5A4596;stroke:#5A4596;stroke-width:0.25;stroke-miterlimit:10;}
	.st1{fill:#5A4596;}
	.st2{fill:none;}
	.st3{fill:none;stroke:#5A4596;stroke-width:0.65;stroke-miterlimit:10;}
	.st4{fill:none;stroke:#5A4596;stroke-width:0.75;stroke-miterlimit:10;}
	.st5{fill:none;stroke:#5A4596;stroke-width:0.25;stroke-miterlimit:10;}
	.st6{fill:#5A4596;stroke:#5A4596;stroke-width:0.15;stroke-miterlimit:10;}
	.st7{fill:none;stroke:#5A4596;stroke-width:0.5;stroke-miterlimit:10;}
</style>
<g>
	<polygon class="st2" points="11.2,20 5.9,20 5.9,21.4 11.2,21.4 11.8,21.4 17.1,21.4 17.1,20 11.8,20 	"/>
	<polygon class="st2" points="11.2,20 5.9,20 5.9,21.4 11.2,21.4 11.8,21.4 17.1,21.4 17.1,20 11.8,20 	"/>
	<path class="st1" d="M22.2,20V3.9H20l0,0.7h1.5v14.6h-9.7h-0.6H1.5V4.6H3l0-0.7H0.8V20h4.4v1.5H3.8v0.7h7.5h0.5h7.5v-0.7h-1.4V20
		H22.2z M17.1,21.4h-5.3h-0.5H5.9V20h5.3h0.6h5.3V21.4z"/>
	<polygon class="st1" points="20,5.3 20.7,5.3 20.7,17.8 11.8,17.8 11.2,17.8 2.3,17.8 2.3,5.3 3,5.3 3,6.1 3,6.1 3,17 11.2,17 
		11.8,17 20,17 20,6.1 	"/>
	<path class="st1" d="M10.4,10.3c-0.6,0.6-0.6,1.6,0,2.2c0.3,0.3,0.7,0.5,1.1,0.5c0.4,0,0.8-0.2,1.1-0.5c0.6-0.6,0.6-1.6,0-2.2
		C12,9.7,11,9.7,10.4,10.3z M12.2,12.1c-0.4,0.4-1,0.4-1.3,0c-0.4-0.4-0.4-1,0-1.3c0.2-0.2,0.4-0.3,0.7-0.3c0.2,0,0.5,0.1,0.7,0.3
		C12.5,11.1,12.5,11.7,12.2,12.1z"/>
	<path class="st1" d="M9.6,8.3C9.3,8.4,9.1,8.6,8.9,8.8L9,8.9l0.3,0.3l0,0c0,0,0,0,0,0C9.5,9.1,9.6,9,9.7,8.9c1.1-0.7,2.5-0.7,3.5,0
		c0.1,0.1,0.3,0.2,0.4,0.3c0,0,0,0,0,0l0,0L14,8.9l0.1-0.1c-0.2-0.2-0.4-0.4-0.7-0.5C12.3,7.5,10.7,7.5,9.6,8.3z"/>
	<path class="st1" d="M8.1,6.7C7.9,6.8,7.8,6.9,7.7,7C7.6,7.1,7.5,7.2,7.4,7.3l0.3,0.3l0.1,0.1c0,0,0.1-0.1,0.1-0.1
		C8.2,7.4,8.4,7.2,8.7,7c0.2-0.1,0.4-0.2,0.6-0.3c0.7-0.3,1.4-0.5,2.2-0.5c0.8,0,1.5,0.2,2.2,0.5c0.2,0.1,0.4,0.2,0.6,0.3
		c0.3,0.2,0.6,0.4,0.8,0.6c0,0,0.1,0.1,0.1,0.1l0.1-0.1l0.3-0.3c-0.1-0.1-0.2-0.2-0.3-0.3c-0.1-0.1-0.3-0.2-0.4-0.3
		c-1-0.7-2.2-1.1-3.4-1.1C10.3,5.6,9.1,6,8.1,6.7z"/>
	<path class="st1" d="M10.5,4.1H8.2C7.8,4.3,7.4,4.5,7.1,4.8h1.3C9.1,4.4,9.8,4.2,10.5,4.1z"/>
	<path class="st1" d="M10.4,3.5h2.1C11.9,3.4,11.1,3.4,10.4,3.5z"/>
	<path class="st1" d="M14.6,4.8h1.3c-0.4-0.2-0.8-0.5-1.1-0.6h-2.3C13.2,4.2,13.9,4.4,14.6,4.8z"/>
	<path class="st1" d="M17.2,5.8c-0.1-0.1-0.3-0.2-0.4-0.4h-1c0.3,0.2,0.7,0.5,1,0.8L17.2,5.8z"/>
	<path class="st1" d="M6.3,6.2c0.3-0.3,0.6-0.6,1-0.8h-1C6.1,5.5,6,5.6,5.8,5.8L6.3,6.2z"/>
	<path class="st1" d="M16.7,3.5h1.1c-3.7-2.9-9-2.9-12.6,0h1.1C9.4,1.4,13.6,1.4,16.7,3.5z"/>
	<path class="st1" d="M4.8,4.7C5,4.5,5.2,4.3,5.4,4.1H4.5c0,0-0.1,0.1-0.1,0.1L4.8,4.7z"/>
	<path class="st1" d="M18.2,4.7l0.4-0.4c0,0-0.1-0.1-0.1-0.1h-0.9C17.8,4.3,18,4.5,18.2,4.7z"/>
	<path class="st1" d="M12.1,4.1h0.4c-0.6-0.1-1.3-0.1-1.9,0h0.4H12.1z"/>
	<path class="st1" d="M10.4,3.5C9.7,3.6,8.9,3.8,8.2,4.1h2.3c0.6-0.1,1.3-0.1,1.9,0h2.3c-0.7-0.3-1.5-0.5-2.2-0.6H10.4z"/>
	<path class="st1" d="M17.6,4.1h0.9c-0.2-0.2-0.5-0.4-0.7-0.6h-1.1C17,3.7,17.3,3.9,17.6,4.1z"/>
	<path class="st1" d="M6.3,3.5H5.2C4.9,3.7,4.7,3.9,4.5,4.1h0.9C5.7,3.9,6,3.7,6.3,3.5z"/>
	<path class="st1" d="M15.7,5.4h1c-0.3-0.2-0.5-0.4-0.8-0.6h-1.3C15,5,15.4,5.2,15.7,5.4z"/>
	<path class="st1" d="M7.3,5.4C7.6,5.2,8,5,8.4,4.8H7.1C6.8,5,6.5,5.2,6.2,5.4H7.3z"/>
</g>
</svg>
