<?xml version="1.0" encoding="utf-8"?>
<!-- Generator: Adobe Illustrator 27.8.0, SVG Export Plug-In . SVG Version: 6.00 Build 0)  -->
<svg version="1.1" id="Layer_1" xmlns="http://www.w3.org/2000/svg" xmlns:xlink="http://www.w3.org/1999/xlink" x="0px" y="0px"
	 viewBox="0 0 23 23" style="enable-background:new 0 0 23 23;" xml:space="preserve">
<style type="text/css">
	.st0{fill:#5A4596;stroke:#5A4596;stroke-width:0.25;stroke-miterlimit:10;}
	.st1{fill:#5A4596;}
	.st2{fill:none;}
	.st3{fill:none;stroke:#5A4596;stroke-width:0.65;stroke-miterlimit:10;}
	.st4{fill:none;stroke:#5A4596;stroke-width:0.75;stroke-miterlimit:10;}
	.st5{fill:none;stroke:#5A4596;stroke-width:0.25;stroke-miterlimit:10;}
	.st6{fill:#5A4596;stroke:#5A4596;stroke-width:0.15;stroke-miterlimit:10;}
	.st7{fill:none;stroke:#5A4596;stroke-width:0.5;stroke-miterlimit:10;}
</style>
<path class="st6" d="M21.6,10.5c-0.3,0-0.5,0.1-0.7,0.3V8.3c0-1.2-0.9-2.2-2-2.2h-7.2c0,0,0,0-0.1,0c0,0,0,0-0.1,0H4.2
	c-1.1,0-2,1-2,2.2v2.5c-0.2-0.2-0.4-0.3-0.7-0.3c-0.6,0-1.1,0.5-1.1,1.1v3c0,0.5,0.2,1,0.5,1.4c0.3,0.4,0.8,0.6,1.3,0.6c0,0,0,0,0,0
	h0.5v3.1c0,0.1,0.1,0.2,0.2,0.2h0.7c0.1,0,0.2-0.1,0.2-0.2v-3.1h15.5v3.1c0,0.1,0.1,0.2,0.2,0.2h0.7c0.1,0,0.2-0.1,0.2-0.2v-3.1h0.5
	c0,0,0,0,0,0c0.5,0,1-0.2,1.3-0.6c0.4-0.4,0.5-0.9,0.5-1.4v-3C22.6,11,22.2,10.5,21.6,10.5z M11.7,6.5h7.1c0.9,0,1.7,0.8,1.7,1.8
	v3.3V13c0,0-0.1-0.1-0.1-0.1c-0.2-0.2-0.5-0.4-0.9-0.4h-7.8V6.5z M11.7,14.4L11.7,14.4v-1.7h7.8c0,0,0,0,0,0c0.3,0,0.5,0.1,0.7,0.3
	c0.1,0.1,0.2,0.2,0.2,0.4v0.9v0.1v0L11.7,14.4L11.7,14.4z M2.5,11.6V8.3c0-1,0.8-1.8,1.7-1.8h7.1v6H3.5c-0.3,0-0.6,0.1-0.9,0.4
	c0,0-0.1,0.1-0.1,0.1V11.6z M2.5,14.4L2.5,14.4v-1c0.1-0.1,0.1-0.3,0.2-0.4c0.2-0.2,0.5-0.3,0.7-0.3c0,0,0,0,0,0h7.8v1.6v0.1v0
	L2.5,14.4L2.5,14.4z M3.4,19.6H3.1v-2.9h0.3V19.6z M19.9,19.6h-0.3v-2.9h0.3V19.6z M22.3,14.6c0,0.9-0.7,1.7-1.5,1.7c0,0,0,0,0,0
	H2.3c0,0,0,0,0,0c-0.9,0-1.5-0.8-1.5-1.7v-3c0-0.4,0.3-0.8,0.7-0.8s0.7,0.3,0.7,0.8v2.9v0.1c0,0.1,0.1,0.2,0.2,0.2h18.4
	c0.1,0,0.2-0.1,0.2-0.2v-0.1v-2.9c0-0.4,0.3-0.8,0.7-0.8c0.4,0,0.7,0.3,0.7,0.8V14.6z"/>
</svg>
