<?xml version="1.0" encoding="utf-8"?>
<!-- Generator: Adobe Illustrator 27.8.0, SVG Export Plug-In . SVG Version: 6.00 Build 0)  -->
<svg version="1.1" id="Layer_1" xmlns="http://www.w3.org/2000/svg" xmlns:xlink="http://www.w3.org/1999/xlink" x="0px" y="0px"
	 viewBox="0 0 23 23" style="enable-background:new 0 0 23 23;" xml:space="preserve">
<style type="text/css">
	.st0{fill:#5A4596;stroke:#5A4596;stroke-width:0.25;stroke-miterlimit:10;}
	.st1{fill:#5A4596;}
	.st2{fill:none;}
	.st3{fill:none;stroke:#5A4596;stroke-width:0.65;stroke-miterlimit:10;}
	.st4{fill:none;stroke:#5A4596;stroke-width:0.75;stroke-miterlimit:10;}
	.st5{fill:none;stroke:#5A4596;stroke-width:0.25;stroke-miterlimit:10;}
	.st6{fill:#5A4596;stroke:#5A4596;stroke-width:0.15;stroke-miterlimit:10;}
	.st7{fill:none;stroke:#5A4596;stroke-width:0.5;stroke-miterlimit:10;}
</style>
<g>
	<g>
		<g>
			<path class="st0" d="M-565.2,22.2h-20.5c-0.1,0-0.2-0.1-0.2-0.2V1.5c0-0.1,0.1-0.2,0.2-0.2h20.5c0.1,0,0.2,0.1,0.2,0.2V22
				C-565,22.1-565.1,22.2-565.2,22.2z M-585.6,21.8h20.2V1.6h-20.2V21.8z"/>
		</g>
		<g>
			<path class="st0" d="M-567.7,18.7h-13.6c-0.1,0-0.2-0.1-0.2-0.2V17c0-0.1,0.1-0.2,0.2-0.2h1.7v-2.1h-1.7c-0.1,0-0.2-0.1-0.2-0.2
				V9c0-0.1,0.1-0.2,0.2-0.2h1.7V6.7h-1.7c-0.1,0-0.2-0.1-0.2-0.2V4.9c0-0.1,0.1-0.2,0.2-0.2h13.6c0.1,0,0.2,0.1,0.2,0.2v13.6
				C-567.6,18.6-567.6,18.7-567.7,18.7z M-581.1,18.3h13.2V5.1h-13.2v1.2h1.7c0.1,0,0.2,0.1,0.2,0.2V9c0,0.1-0.1,0.2-0.2,0.2h-1.7
				v5.2h1.7c0.1,0,0.2,0.1,0.2,0.2V17c0,0.1-0.1,0.2-0.2,0.2h-1.7V18.3z"/>
		</g>
		<g>
			<path class="st0" d="M-579.4,9.1h-3.8c-0.1,0-0.2-0.1-0.2-0.2V6.5c0-0.1,0.1-0.2,0.2-0.2h3.8c0.1,0,0.2,0.1,0.2,0.2V9
				C-579.2,9.1-579.3,9.1-579.4,9.1z M-583,8.8h3.5V6.7h-3.5V8.8z"/>
		</g>
		<g>
			<path class="st0" d="M-574.5,14.5c-1.5,0-2.7-1.2-2.7-2.7c0-1.5,1.2-2.7,2.7-2.7c1.5,0,2.7,1.2,2.7,2.7
				C-571.8,13.2-573,14.5-574.5,14.5z M-574.5,9.3c-1.3,0-2.4,1.1-2.4,2.4c0,1.3,1.1,2.4,2.4,2.4s2.4-1.1,2.4-2.4
				C-572.1,10.4-573.2,9.3-574.5,9.3z"/>
		</g>
		<g>
			<path class="st0" d="M-579.4,17.2h-3.8c-0.1,0-0.2-0.1-0.2-0.2v-2.5c0-0.1,0.1-0.2,0.2-0.2h3.8c0.1,0,0.2,0.1,0.2,0.2V17
				C-579.2,17.1-579.3,17.2-579.4,17.2z M-583,16.8h3.5v-2.1h-3.5V16.8z"/>
		</g>
		<g>
			<path class="st0" d="M-574.5,12.8c-0.6,0-1-0.5-1-1c0-0.6,0.5-1,1-1c0.6,0,1,0.5,1,1C-573.5,12.3-573.9,12.8-574.5,12.8z
				 M-574.5,11c-0.4,0-0.7,0.3-0.7,0.7c0,0.4,0.3,0.7,0.7,0.7c0.4,0,0.7-0.3,0.7-0.7C-573.8,11.3-574.1,11-574.5,11z"/>
		</g>
		<g>
			<path class="st0" d="M-574.5,11c-0.1,0-0.2-0.1-0.2-0.2V7.9c0-0.1,0.1-0.2,0.2-0.2s0.2,0.1,0.2,0.2v2.9
				C-574.3,11-574.4,11-574.5,11z"/>
		</g>
		<g>
			<path class="st0" d="M-570.7,11.9h-2.9c-0.1,0-0.2-0.1-0.2-0.2c0-0.1,0.1-0.2,0.2-0.2h2.9c0.1,0,0.2,0.1,0.2,0.2
				C-570.6,11.8-570.6,11.9-570.7,11.9z"/>
		</g>
		<g>
			<path class="st0" d="M-574.5,15.7c-0.1,0-0.2-0.1-0.2-0.2v-2.9c0-0.1,0.1-0.2,0.2-0.2s0.2,0.1,0.2,0.2v2.9
				C-574.3,15.6-574.4,15.7-574.5,15.7z"/>
		</g>
		<g>
			<path class="st0" d="M-575.4,11.9h-2.9c-0.1,0-0.2-0.1-0.2-0.2c0-0.1,0.1-0.2,0.2-0.2h2.9c0.1,0,0.2,0.1,0.2,0.2
				C-575.2,11.8-575.3,11.9-575.4,11.9z"/>
		</g>
	</g>
</g>
<g>
	<polygon class="st1" points="-609.5,15.6 -605.6,15.6 -605.6,16.9 -606.9,16.9 -606.9,17.6 -599.8,17.6 -599.8,16.9 -605,16.9 
		-605,15.6 -599.8,15.6 -599.8,15 -608.8,15 -608.8,2.1 -589.4,2.1 -589.4,15 -591.3,15 -591.3,15.6 -588.8,15.6 -588.8,1.4 
		-609.5,1.4 	"/>
	<polygon class="st1" points="-590.7,3.3 -590.7,13 -591.3,13 -591.3,13.7 -590.1,13.7 -590.1,2.7 -608.2,2.7 -608.2,13.7 
		-599.8,13.7 -599.8,13 -607.6,13 -607.6,3.3 	"/>
	<path class="st1" d="M-599.1,22.1h7.1V10.5h-7.1V22.1z M-598.5,11.1h5.8v10.4h-5.8V11.1z"/>
	<rect x="-596.5" y="17.6" class="st1" width="0.6" height="0.6"/>
	<rect x="-595.2" y="17.6" class="st1" width="0.6" height="0.6"/>
	<rect x="-597.8" y="17.6" class="st1" width="0.6" height="0.6"/>
	<rect x="-593.9" y="17.6" class="st1" width="0.6" height="0.6"/>
	<rect x="-596.5" y="16.3" class="st1" width="0.6" height="0.6"/>
	<rect x="-595.2" y="16.3" class="st1" width="0.6" height="0.6"/>
	<rect x="-593.9" y="16.3" class="st1" width="0.6" height="0.6"/>
	<rect x="-597.8" y="16.3" class="st1" width="0.6" height="0.6"/>
	<rect x="-593.9" y="15" class="st1" width="0.6" height="0.6"/>
	<rect x="-597.8" y="15" class="st1" width="0.6" height="0.6"/>
	<rect x="-595.2" y="15" class="st1" width="0.6" height="0.6"/>
	<rect x="-596.5" y="15" class="st1" width="0.6" height="0.6"/>
	<rect x="-595.2" y="13.7" class="st1" width="0.6" height="0.6"/>
	<rect x="-597.8" y="13.7" class="st1" width="0.6" height="0.6"/>
	<rect x="-596.5" y="13.7" class="st1" width="0.6" height="0.6"/>
	<rect x="-593.9" y="13.7" class="st1" width="0.6" height="0.6"/>
	<rect x="-597.8" y="11.8" class="st1" width="0.6" height="0.6"/>
	<rect x="-593.9" y="11.8" class="st1" width="0.6" height="0.6"/>
	<rect x="-614.7" y="-3.8" class="st2" width="31.1" height="31.1"/>
</g>
<g>
	<polygon class="st2" points="-551.6,20 -556.9,20 -556.9,21.4 -551.6,21.4 -551.1,21.4 -545.8,21.4 -545.8,20 -551,20 	"/>
	<polygon class="st2" points="-551.6,20 -556.9,20 -556.9,21.4 -551.6,21.4 -551.1,21.4 -545.8,21.4 -545.8,20 -551,20 	"/>
	<path class="st1" d="M-540.6,20V3.9h-2.2l0,0.7h1.5v14.6h-9.7h-0.6h-9.7V4.6h1.5l0-0.7h-2.2V20h4.4v1.5h-1.4v0.7h7.5h0.5h7.5v-0.7
		h-1.4V20H-540.6z M-545.8,21.4h-5.3h-0.5h-5.3V20h5.3h0.6h5.3V21.4z"/>
	<polygon class="st1" points="-542.8,5.3 -542.1,5.3 -542.1,17.8 -551.1,17.8 -551.6,17.8 -560.6,17.8 -560.6,5.3 -559.8,5.3 
		-559.8,6.1 -559.8,6.1 -559.8,17 -551.6,17 -551.1,17 -542.8,17 -542.8,6.1 	"/>
	<path class="st1" d="M-552.4,10.3c-0.6,0.6-0.6,1.6,0,2.2c0.3,0.3,0.7,0.5,1.1,0.5c0.4,0,0.8-0.2,1.1-0.5c0.6-0.6,0.6-1.6,0-2.2
		C-550.8,9.7-551.8,9.7-552.4,10.3z M-550.7,12.1c-0.4,0.4-1,0.4-1.3,0c-0.4-0.4-0.4-1,0-1.3c0.2-0.2,0.4-0.3,0.7-0.3
		c0.2,0,0.5,0.1,0.7,0.3C-550.3,11.1-550.3,11.7-550.7,12.1z"/>
	<path class="st1" d="M-553.3,8.3c-0.2,0.1-0.5,0.3-0.7,0.5l0.1,0.1l0.3,0.3l0,0c0,0,0,0,0,0c0.1-0.1,0.3-0.2,0.4-0.3
		c1.1-0.7,2.5-0.7,3.5,0c0.1,0.1,0.3,0.2,0.4,0.3c0,0,0,0,0,0l0,0l0.3-0.3l0.1-0.1c-0.2-0.2-0.4-0.4-0.7-0.5
		C-550.6,7.5-552.1,7.5-553.3,8.3z"/>
	<path class="st1" d="M-554.8,6.7c-0.1,0.1-0.3,0.2-0.4,0.3c-0.1,0.1-0.2,0.2-0.3,0.3l0.3,0.3l0.1,0.1c0,0,0.1-0.1,0.1-0.1
		c0.3-0.2,0.5-0.5,0.8-0.6c0.2-0.1,0.4-0.2,0.6-0.3c0.7-0.3,1.4-0.5,2.2-0.5c0.8,0,1.5,0.2,2.2,0.5c0.2,0.1,0.4,0.2,0.6,0.3
		c0.3,0.2,0.6,0.4,0.8,0.6c0,0,0.1,0.1,0.1,0.1l0.1-0.1l0.3-0.3c-0.1-0.1-0.2-0.2-0.3-0.3c-0.1-0.1-0.3-0.2-0.4-0.3
		c-1-0.7-2.2-1.1-3.4-1.1C-552.6,5.6-553.8,6-554.8,6.7z"/>
	<path class="st1" d="M-552.3,4.1h-2.3c-0.4,0.2-0.8,0.4-1.1,0.6h1.3C-553.8,4.4-553,4.2-552.3,4.1z"/>
	<path class="st1" d="M-552.4,3.5h2.1C-551,3.4-551.7,3.4-552.4,3.5z"/>
	<path class="st1" d="M-548.2,4.8h1.3c-0.4-0.2-0.8-0.5-1.1-0.6h-2.3C-549.6,4.2-548.9,4.4-548.2,4.8z"/>
	<path class="st1" d="M-545.7,5.8c-0.1-0.1-0.3-0.2-0.4-0.4h-1c0.3,0.2,0.7,0.5,1,0.8L-545.7,5.8z"/>
	<path class="st1" d="M-556.5,6.2c0.3-0.3,0.6-0.6,1-0.8h-1c-0.1,0.1-0.3,0.2-0.4,0.4L-556.5,6.2z"/>
	<path class="st1" d="M-546.1,3.5h1.1c-3.7-2.9-9-2.9-12.6,0h1.1C-553.4,1.4-549.2,1.4-546.1,3.5z"/>
	<path class="st1" d="M-558.1,4.7c0.2-0.2,0.4-0.4,0.6-0.6h-0.9c0,0-0.1,0.1-0.1,0.1L-558.1,4.7z"/>
	<path class="st1" d="M-544.6,4.7l0.4-0.4c0,0-0.1-0.1-0.1-0.1h-0.9C-545,4.3-544.8,4.5-544.6,4.7z"/>
	<path class="st1" d="M-550.8,4.1h0.4c-0.6-0.1-1.3-0.1-1.9,0h0.4H-550.8z"/>
	<path class="st1" d="M-552.4,3.5c-0.8,0.1-1.5,0.3-2.2,0.6h2.3c0.6-0.1,1.3-0.1,1.9,0h2.3c-0.7-0.3-1.5-0.5-2.2-0.6H-552.4z"/>
	<path class="st1" d="M-545.2,4.1h0.9c-0.2-0.2-0.5-0.4-0.7-0.6h-1.1C-545.8,3.7-545.5,3.9-545.2,4.1z"/>
	<path class="st1" d="M-556.6,3.5h-1.1c-0.2,0.2-0.5,0.4-0.7,0.6h0.9C-557.2,3.9-556.9,3.7-556.6,3.5z"/>
	<path class="st1" d="M-547.1,5.4h1c-0.3-0.2-0.5-0.4-0.8-0.6h-1.3C-547.8,5-547.5,5.2-547.1,5.4z"/>
	<path class="st1" d="M-555.6,5.4c0.3-0.2,0.7-0.5,1.1-0.6h-1.3c-0.3,0.2-0.6,0.4-0.8,0.6H-555.6z"/>
</g>
<g id="fax_2">
	<g id="Group_4">
		<path id="Vector_16" class="st3" d="M-534.9,4.8L-534.9,4.8c-1.4,0-2.4,1.1-2.4,2.4v13.2c0,0.8,0.6,1.4,1.4,1.4h2.1
			c0.8,0,1.4-0.6,1.4-1.4V7.2C-532.4,5.9-533.5,4.8-534.9,4.8z"/>
		<path id="Vector_17" class="st3" d="M-517.3,7.2h-0.6v4.9H-530V7.2h-1.2v4.9v0.7v8.5c0,0.3,0.3,0.6,0.6,0.6h13.3
			c0.3,0,0.6-0.3,0.6-0.6v-8.8v-0.4V7.8C-516.7,7.4-517,7.2-517.3,7.2z M-527.8,19.1c-0.1,0.1-0.3,0.2-0.4,0.2
			c-0.2,0-0.3-0.1-0.4-0.2c-0.1-0.1-0.2-0.3-0.2-0.4c0-0.2,0.1-0.3,0.2-0.4c0.1-0.1,0.3-0.2,0.4-0.2c0.2,0,0.3,0.1,0.4,0.2
			c0.1,0.1,0.2,0.3,0.2,0.4C-527.6,18.9-527.7,19-527.8,19.1z M-527.8,16.7c-0.1,0.1-0.3,0.2-0.4,0.2c-0.2,0-0.3-0.1-0.4-0.2
			c-0.1-0.1-0.2-0.3-0.2-0.4c0-0.2,0.1-0.3,0.2-0.4c0.1-0.1,0.3-0.2,0.4-0.2c0.2,0,0.3,0.1,0.4,0.2c0.1,0.1,0.2,0.3,0.2,0.4
			C-527.6,16.4-527.7,16.6-527.8,16.7z M-527.8,14.3c-0.1,0.1-0.3,0.2-0.4,0.2c-0.2,0-0.3-0.1-0.4-0.2c-0.1-0.1-0.2-0.3-0.2-0.4
			c0-0.2,0.1-0.3,0.2-0.4c0.1-0.1,0.3-0.2,0.4-0.2c0.2,0,0.3,0.1,0.4,0.2c0.1,0.1,0.2,0.3,0.2,0.4C-527.6,14-527.7,14.2-527.8,14.3z
			 M-525.4,19.1c-0.1,0.1-0.3,0.2-0.4,0.2c-0.2,0-0.3-0.1-0.4-0.2c-0.1-0.1-0.2-0.3-0.2-0.4c0-0.2,0.1-0.3,0.2-0.4
			c0.1-0.1,0.3-0.2,0.4-0.2c0.2,0,0.3,0.1,0.4,0.2c0.1,0.1,0.2,0.3,0.2,0.4C-525.2,18.9-525.3,19-525.4,19.1z M-525.4,16.7
			c-0.1,0.1-0.3,0.2-0.4,0.2c-0.2,0-0.3-0.1-0.4-0.2c-0.1-0.1-0.2-0.3-0.2-0.4c0-0.2,0.1-0.3,0.2-0.4c0.1-0.1,0.3-0.2,0.4-0.2
			c0.2,0,0.3,0.1,0.4,0.2c0.1,0.1,0.2,0.3,0.2,0.4C-525.2,16.4-525.3,16.6-525.4,16.7z M-525.4,14.3c-0.1,0.1-0.3,0.2-0.4,0.2
			c-0.2,0-0.3-0.1-0.4-0.2c-0.1-0.1-0.2-0.3-0.2-0.4c0-0.2,0.1-0.3,0.2-0.4c0.1-0.1,0.3-0.2,0.4-0.2c0.2,0,0.3,0.1,0.4,0.2
			c0.1,0.1,0.2,0.3,0.2,0.4C-525.2,14-525.3,14.2-525.4,14.3z M-523,19.1c-0.1,0.1-0.3,0.2-0.4,0.2c-0.2,0-0.3-0.1-0.4-0.2
			c-0.1-0.1-0.2-0.3-0.2-0.4c0-0.2,0.1-0.3,0.2-0.4c0.1-0.1,0.3-0.2,0.4-0.2c0.2,0,0.3,0.1,0.4,0.2c0.1,0.1,0.2,0.3,0.2,0.4
			C-522.8,18.9-522.8,19-523,19.1z M-523,16.7c-0.1,0.1-0.3,0.2-0.4,0.2c-0.2,0-0.3-0.1-0.4-0.2c-0.1-0.1-0.2-0.3-0.2-0.4
			c0-0.2,0.1-0.3,0.2-0.4c0.1-0.1,0.3-0.2,0.4-0.2c0.2,0,0.3,0.1,0.4,0.2c0.1,0.1,0.2,0.3,0.2,0.4C-522.8,16.4-522.8,16.6-523,16.7z
			 M-523,14.3c-0.1,0.1-0.3,0.2-0.4,0.2s-0.3-0.1-0.4-0.2c-0.1-0.1-0.2-0.3-0.2-0.4c0-0.2,0.1-0.3,0.2-0.4c0.1-0.1,0.3-0.2,0.4-0.2
			c0.2,0,0.3,0.1,0.4,0.2c0.1,0.1,0.2,0.3,0.2,0.4C-522.8,14-522.8,14.2-523,14.3z M-519.8,16.9h-1.2c-0.3,0-0.6-0.3-0.6-0.6
			c0-0.3,0.3-0.6,0.6-0.6h1.2c0.3,0,0.6,0.3,0.6,0.6C-519.2,16.6-519.4,16.9-519.8,16.9z M-519.8,14.5h-1.2c-0.3,0-0.6-0.3-0.6-0.6
			c0-0.3,0.3-0.6,0.6-0.6h1.2c0.3,0,0.6,0.3,0.6,0.6C-519.2,14.2-519.4,14.5-519.8,14.5z"/>
		<path id="Vector_18" class="st3" d="M-519.2,1.9c0-0.3-0.3-0.6-0.6-0.6h-8.5c-0.3,0-0.6,0.3-0.6,0.6v9h9.7L-519.2,1.9L-519.2,1.9z
			 M-522.2,9.7h-3.8c-0.3,0-0.6-0.3-0.6-0.6c0-0.3,0.3-0.6,0.6-0.6h3.8c0.3,0,0.6,0.3,0.6,0.6C-521.6,9.4-521.8,9.7-522.2,9.7z
			 M-522.2,7.3h-3.8c-0.3,0-0.6-0.3-0.6-0.6c0-0.3,0.3-0.6,0.6-0.6h3.8c0.3,0,0.6,0.3,0.6,0.6C-521.6,7-521.8,7.3-522.2,7.3z
			 M-522.2,4.9h-3.8c-0.3,0-0.6-0.3-0.6-0.6c0-0.3,0.3-0.6,0.6-0.6h3.8c0.3,0,0.6,0.3,0.6,0.6C-521.6,4.6-521.8,4.9-522.2,4.9z"/>
	</g>
</g>
<g id="telephone_3_00000023249225231179872130000016856132106929736076_">
	<g id="Group_23_00000005254330860110633900000013996717691554494888_">
		<path id="Vector_37_00000146486395994242196440000007319910229529178252_" class="st4" d="M-493.5,4.5c0,0-8.1-7.5-17.7-0.3
			c0,0-1.7,1.2-1.3,2.4l0.2,0.8c0.2,0.8,1,1.2,1.7,1.1l2.2-0.4c0.6-0.1,1-0.5,1.2-1.1l0.6-2.2c0.1-0.2,0.2-0.4,0.5-0.5
			c1.1-0.3,4.2-1.1,7.1,0c0.2,0.1,0.4,0.3,0.4,0.5l0.5,2.1c0.1,0.5,0.5,0.9,1,1.1l2.4,0.7c0.8,0.2,1.6-0.2,1.8-1
			C-492.5,6.7-492.4,5.5-493.5,4.5L-493.5,4.5z"/>
		<path id="Vector_38_00000029727260336782717440000011539629324439842231_" class="st4" d="M-512.6,19.3h19.9v2.6h-19.9V19.3z"/>
		<path id="Vector_39_00000156560730132845468670000002581532945565945002_" class="st4" d="M-502.6,14.4c1,0,1.9-0.8,1.9-1.9
			c0-1-0.8-1.9-1.9-1.9c-1,0-1.9,0.8-1.9,1.9C-504.5,13.6-503.6,14.4-502.6,14.4z"/>
		<path id="Vector_40_00000003066365447811384680000016251832500262280371_" class="st4" d="M-495.2,11.2c-0.4-0.4-0.9-0.8-1.5-1.1
			c-2.4-1.2-3-3.5-3-3.5h-5.7c0,0-0.6,2.3-3,3.5c-0.6,0.3-1.1,0.7-1.5,1.1c-1.2,1.2-1.8,2.9-1.8,4.7v1.8h18.4v-1.8
			C-493.4,14.2-494,12.5-495.2,11.2L-495.2,11.2z M-502.6,16.4c-2.1,0-3.9-1.7-3.9-3.9s1.7-3.9,3.9-3.9c2.1,0,3.9,1.7,3.9,3.9
			S-500.5,16.4-502.6,16.4z"/>
	</g>
</g>
<g>
	<g>
		<g>
			<path class="st0" d="M-200,16.3c0,0-0.1,0-0.1-0.1c-0.1-0.1-0.1-0.2,0-0.2c4-4,4-10.5,0-14.5c-0.1-0.1-0.1-0.2,0-0.2
				c0.1-0.1,0.2-0.1,0.2,0c4.1,4.1,4.1,10.9,0,15C-199.9,16.3-200,16.3-200,16.3z"/>
		</g>
		<g>
			<path class="st0" d="M-201.3,15c0,0-0.1,0-0.1-0.1c-0.1-0.1-0.1-0.2,0-0.2c1.6-1.6,2.5-3.7,2.5-6c0-2.3-0.9-4.4-2.5-6
				c-0.1-0.1-0.1-0.2,0-0.2s0.2-0.1,0.2,0c1.7,1.7,2.6,3.9,2.6,6.2c0,2.4-0.9,4.6-2.6,6.2C-201.2,15-201.3,15-201.3,15z"/>
		</g>
		<g>
			<path class="st0" d="M-202.6,13.8c0,0-0.1,0-0.1-0.1c-0.1-0.1-0.1-0.2,0-0.2c2.6-2.6,2.6-6.8,0-9.4c-0.1-0.1-0.1-0.2,0-0.2
				c0.1-0.1,0.2-0.1,0.2,0c2.7,2.7,2.7,7.1,0,9.9C-202.5,13.7-202.6,13.8-202.6,13.8z"/>
		</g>
		<g>
			<path class="st0" d="M-203.9,12.5c0,0-0.1,0-0.1-0.1c-0.1-0.1-0.1-0.2,0-0.2c1.9-1.9,1.9-4.9,0-6.8c-0.1-0.1-0.1-0.2,0-0.2
				c0.1-0.1,0.2-0.1,0.2,0c2,2,2,5.3,0,7.3C-203.8,12.4-203.9,12.5-203.9,12.5z"/>
		</g>
		<g>
			<path class="st0" d="M-205.2,11.2c0,0-0.1,0-0.1-0.1c-0.1-0.1-0.1-0.2,0-0.2c1.2-1.2,1.2-3.1,0-4.2c-0.1-0.1-0.1-0.2,0-0.2
				c0.1-0.1,0.2-0.1,0.2,0c1.3,1.3,1.3,3.4,0,4.7C-205.1,11.2-205.2,11.2-205.2,11.2z"/>
		</g>
		<g>
			<path class="st0" d="M-215,16.3c0,0-0.1,0-0.1-0.1c-4.1-4.1-4.1-10.9,0-15c0.1-0.1,0.2-0.1,0.2,0c0.1,0.1,0.1,0.2,0,0.2
				c-4,4-4,10.5,0,14.5c0.1,0.1,0.1,0.2,0,0.2C-214.9,16.3-215,16.3-215,16.3z"/>
		</g>
		<g>
			<path class="st0" d="M-213.7,15c0,0-0.1,0-0.1-0.1c-3.4-3.4-3.4-9,0-12.5c0.1-0.1,0.2-0.1,0.2,0s0.1,0.2,0,0.2
				c-3.3,3.3-3.3,8.7,0,12c0.1,0.1,0.1,0.2,0,0.2C-213.7,15-213.7,15-213.7,15z"/>
		</g>
		<g>
			<path class="st0" d="M-212.5,13.8c0,0-0.1,0-0.1-0.1c-2.7-2.7-2.7-7.2,0-9.9c0.1-0.1,0.2-0.1,0.2,0c0.1,0.1,0.1,0.2,0,0.2
				c-2.6,2.6-2.6,6.8,0,9.4c0.1,0.1,0.1,0.2,0,0.2C-212.4,13.7-212.4,13.8-212.5,13.8z"/>
		</g>
		<g>
			<path class="st0" d="M-211.2,12.5c0,0-0.1,0-0.1-0.1c-2-2-2-5.3,0-7.3c0.1-0.1,0.2-0.1,0.2,0c0.1,0.1,0.1,0.2,0,0.2
				c-1.9,1.9-1.9,4.9,0,6.8c0.1,0.1,0.1,0.2,0,0.2C-211.1,12.4-211.1,12.5-211.2,12.5z"/>
		</g>
		<g>
			<path class="st0" d="M-209.9,11.2c0,0-0.1,0-0.1-0.1c-1.3-1.3-1.3-3.4,0-4.7c0.1-0.1,0.2-0.1,0.2,0c0.1,0.1,0.1,0.2,0,0.2
				c-1.2,1.2-1.2,3.1,0,4.2c0.1,0.1,0.1,0.2,0,0.2C-209.8,11.2-209.8,11.2-209.9,11.2z"/>
		</g>
		<g>
			<path class="st0" d="M-207.5,10.2c-0.7,0-1.3-0.6-1.3-1.3c0-0.7,0.6-1.3,1.3-1.3c0.7,0,1.3,0.6,1.3,1.3
				C-206.2,9.6-206.8,10.2-207.5,10.2z M-207.5,8c-0.5,0-0.9,0.4-0.9,0.9c0,0.5,0.4,0.9,0.9,0.9c0.5,0,0.9-0.4,0.9-0.9
				C-206.6,8.4-207,8-207.5,8z"/>
		</g>
		<g>
			<path class="st0" d="M-204.5,22.2h-6.1c-0.1,0-0.1,0-0.1-0.1c0,0,0-0.1,0-0.1l2.1-12.5c0-0.1,0.1-0.1,0.1-0.1
				c0.1,0,0.1,0,0.2,0.1c0.2,0.3,0.5,0.4,0.8,0.4c0.3,0,0.6-0.2,0.8-0.4c0-0.1,0.1-0.1,0.2-0.1c0.1,0,0.1,0.1,0.1,0.1l2.1,12.5
				c0,0.1,0,0.1,0,0.1C-204.4,22.2-204.5,22.2-204.5,22.2z M-210.4,21.9h5.6l-2-12c-0.5,0.4-1.2,0.4-1.6,0L-210.4,21.9z"/>
		</g>
	</g>
</g>
<g>
	<path class="st1" d="M-488.6,14.4h21V1.3h-21V14.4z M-468.2,13.8H-488V2h19.7V13.8z"/>
	<path class="st1" d="M-481.7,9.8V9.7c0.5,0.7,1.4,1.1,2.3,1.1h0.3l0-2.3c0-0.5-0.4-1-1-1h-0.1c0.7-0.5,1.1-1.4,1.1-2.3V4.9l-2.3,0
		c-0.5,0-1,0.4-1,1V6c-0.5-0.7-1.4-1.1-2.3-1.1h-0.3l0,2.3c0,0.5,0.4,1,1,1h0.1c-0.7,0.5-1.1,1.4-1.1,2.3v0.3l2.3,0
		C-482.2,10.8-481.7,10.4-481.7,9.8 M-480.1,8.2c0.2,0,0.3,0.1,0.3,0.3l0,1.6c-1-0.1-1.8-0.9-1.9-1.9H-480.1z M-481.7,5.9
		c0-0.2,0.1-0.3,0.3-0.3h1.6c-0.1,1-0.9,1.8-1.9,1.9V5.9z M-484,7.5c-0.2,0-0.3-0.1-0.3-0.3l0-1.6c1,0.1,1.8,0.9,1.9,1.9H-484z
		 M-484.3,10.2c0.1-1,0.9-1.8,1.9-1.9v1.6c0,0.2-0.1,0.3-0.3,0.3L-484.3,10.2z"/>
	<path class="st1" d="M-482,13.1c2.9,0,5.3-2.4,5.3-5.3s-2.4-5.3-5.3-5.3s-5.3,2.4-5.3,5.3S-484.9,13.1-482,13.1 M-482,3.3
		c2.5,0,4.6,2.1,4.6,4.6s-2.1,4.6-4.6,4.6s-4.6-2.1-4.6-4.6S-484.6,3.3-482,3.3"/>
	<rect x="-475.8" y="4.6" class="st1" width="6.6" height="0.7"/>
	<rect x="-475.8" y="5.9" class="st1" width="6.6" height="0.7"/>
	<rect x="-475.8" y="7.2" class="st1" width="6.6" height="0.7"/>
	<rect x="-475.8" y="8.5" class="st1" width="6.6" height="0.7"/>
	<rect x="-475.8" y="9.8" class="st1" width="6.6" height="0.7"/>
	<path class="st1" d="M-482.6,16.6c-0.1-0.2-0.1-0.3-0.1-0.5l-0.7,0c0,0.3,0.1,0.5,0.2,0.8c0.2,0.3,0.2,0.7,0,1
		c-0.3,0.5-0.3,1.1,0,1.6c0.1,0.2,0.1,0.3,0.1,0.5c0,0.2,0,0.3-0.1,0.5c-0.3,0.5-0.3,1.1,0,1.6l0.1,0.2h0.7l-0.2-0.5
		c-0.2-0.3-0.2-0.7,0-1c0.1-0.2,0.2-0.5,0.2-0.8c0-0.3-0.1-0.6-0.2-0.8c-0.2-0.3-0.2-0.7,0-1C-482.3,17.7-482.3,17.1-482.6,16.6"/>
	<path class="st1" d="M-484.5,16.6c-0.1-0.2-0.1-0.3-0.1-0.5l-0.7,0c0,0.3,0.1,0.5,0.2,0.8c0.2,0.3,0.2,0.7,0,1
		c-0.3,0.5-0.3,1.1,0,1.6c0.1,0.2,0.1,0.3,0.1,0.5c0,0.2,0,0.3-0.1,0.5c-0.3,0.5-0.3,1.1,0,1.6l0.1,0.2h0.7l-0.2-0.5
		c-0.2-0.3-0.2-0.7,0-1c0.1-0.2,0.2-0.5,0.2-0.8c0-0.3-0.1-0.6-0.2-0.8c-0.2-0.3-0.2-0.7,0-1C-484.3,17.7-484.3,17.1-484.5,16.6"/>
	<path class="st1" d="M-486.5,16.6c-0.1-0.2-0.1-0.3-0.1-0.5l-0.7,0c0,0.3,0.1,0.5,0.2,0.8c0.2,0.3,0.2,0.7,0,1
		c-0.3,0.5-0.3,1.1,0,1.6c0.1,0.2,0.1,0.3,0.1,0.5c0,0.2,0,0.3-0.1,0.5c-0.3,0.5-0.3,1.1,0,1.6l0.1,0.2h0.7l-0.2-0.5
		c-0.2-0.3-0.2-0.7,0-1c0.1-0.2,0.2-0.5,0.2-0.8c0-0.3-0.1-0.6-0.2-0.8c-0.2-0.3-0.2-0.7,0-1C-486.3,17.7-486.3,17.1-486.5,16.6"/>
	<path class="st1" d="M-480.6,16.6c-0.1-0.2-0.1-0.3-0.1-0.5l-0.7,0c0,0.3,0.1,0.5,0.2,0.8c0.2,0.3,0.2,0.7,0,1
		c-0.3,0.5-0.3,1.1,0,1.6c0.1,0.2,0.1,0.3,0.1,0.5c0,0.2,0,0.3-0.1,0.5c-0.3,0.5-0.3,1.1,0,1.6l0.1,0.2h0.7l-0.2-0.5
		c-0.2-0.3-0.2-0.7,0-1c0.1-0.2,0.2-0.5,0.2-0.8c0-0.3-0.1-0.6-0.2-0.8c-0.2-0.3-0.2-0.7,0-1C-480.3,17.7-480.3,17.1-480.6,16.6"/>
	<path class="st1" d="M-474.7,16.6c-0.1-0.2-0.1-0.3-0.1-0.5l-0.7,0c0,0.3,0.1,0.5,0.2,0.8c0.2,0.3,0.2,0.7,0,1
		c-0.3,0.5-0.3,1.1,0,1.6c0.1,0.2,0.1,0.3,0.1,0.5c0,0.2,0,0.3-0.1,0.5c-0.3,0.5-0.3,1.1,0,1.6l0.1,0.2h0.7l-0.2-0.5
		c-0.2-0.3-0.2-0.7,0-1c0.1-0.2,0.2-0.5,0.2-0.8c0-0.3-0.1-0.6-0.2-0.8c-0.2-0.3-0.2-0.7,0-1C-474.4,17.7-474.4,17.1-474.7,16.6"/>
	<path class="st1" d="M-476.7,16.6c-0.1-0.2-0.1-0.3-0.1-0.5l-0.7,0c0,0.3,0.1,0.5,0.2,0.8c0.2,0.3,0.2,0.7,0,1
		c-0.3,0.5-0.3,1.1,0,1.6c0.1,0.2,0.1,0.3,0.1,0.5c0,0.2,0,0.3-0.1,0.5c-0.3,0.5-0.3,1.1,0,1.6l0.1,0.2h0.7l-0.2-0.5
		c-0.2-0.3-0.2-0.7,0-1c0.1-0.2,0.2-0.5,0.2-0.8c0-0.3-0.1-0.6-0.2-0.8c-0.2-0.3-0.2-0.7,0-1C-476.4,17.7-476.4,17.1-476.7,16.6"/>
	<path class="st1" d="M-478.6,16.6c-0.1-0.2-0.1-0.3-0.1-0.5l-0.7,0c0,0.3,0.1,0.5,0.2,0.8c0.2,0.3,0.2,0.7,0,1
		c-0.3,0.5-0.3,1.1,0,1.6c0.1,0.2,0.1,0.3,0.1,0.5c0,0.2,0,0.3-0.1,0.5c-0.3,0.5-0.3,1.1,0,1.6l0.1,0.2h0.7l-0.2-0.5
		c-0.2-0.3-0.2-0.7,0-1c0.1-0.2,0.2-0.5,0.2-0.8c0-0.3-0.1-0.6-0.2-0.8c-0.2-0.3-0.2-0.7,0-1C-478.4,17.7-478.4,17.1-478.6,16.6"/>
	<path class="st1" d="M-472.7,16.6c-0.1-0.2-0.1-0.3-0.1-0.5l-0.7,0c0,0.3,0.1,0.5,0.2,0.8c0.2,0.3,0.2,0.7,0,1
		c-0.3,0.5-0.3,1.1,0,1.6c0.1,0.2,0.1,0.3,0.1,0.5c0,0.2,0,0.3-0.1,0.5c-0.3,0.5-0.3,1.1,0,1.6l0.1,0.2h0.7l-0.2-0.5
		c-0.2-0.3-0.2-0.7,0-1c0.1-0.2,0.2-0.5,0.2-0.8c0-0.3-0.1-0.6-0.2-0.8c-0.2-0.3-0.2-0.7,0-1C-472.5,17.7-472.5,17.1-472.7,16.6"/>
	<path class="st1" d="M-470.7,16.6c-0.1-0.2-0.1-0.3-0.1-0.5l-0.7,0c0,0.3,0.1,0.5,0.2,0.8c0.2,0.3,0.2,0.7,0,1
		c-0.3,0.5-0.3,1.1,0,1.6c0.1,0.2,0.1,0.3,0.1,0.5c0,0.2,0,0.3-0.1,0.5c-0.3,0.5-0.3,1.1,0,1.6l0.1,0.2h0.7l-0.2-0.5
		c-0.2-0.3-0.2-0.7,0-1c0.1-0.2,0.2-0.5,0.2-0.8c0-0.3-0.1-0.6-0.2-0.8c-0.2-0.3-0.2-0.7,0-1C-470.5,17.7-470.5,17.1-470.7,16.6"/>
	<path class="st1" d="M-468.8,16.6c-0.1-0.2-0.1-0.3-0.1-0.5l-0.7,0c0,0.3,0.1,0.5,0.2,0.8c0.2,0.3,0.2,0.7,0,1
		c-0.3,0.5-0.3,1.1,0,1.6c0.1,0.2,0.1,0.3,0.1,0.5c0,0.2,0,0.3-0.1,0.5c-0.3,0.5-0.3,1.1,0,1.6l0.1,0.2h0.7l-0.2-0.5
		c-0.2-0.3-0.2-0.7,0-1c0.1-0.2,0.2-0.5,0.2-0.8c0-0.3-0.1-0.6-0.2-0.8c-0.2-0.3-0.2-0.7,0-1C-468.5,17.7-468.5,17.1-468.8,16.6"/>
</g>
<g id="smartphone">
	<g id="Group_27">
		<path id="Vector_51" class="st3" d="M-454.8,3.2l0.6-1.9h-4.8l0.6,1.9H-454.8z"/>
		<path id="Vector_52" class="st3" d="M-461.6,19.5c-0.2,0-0.5,0-0.7-0.1v0.9c0,0.6,0.5,1.2,1.2,1.2h9c0.6,0,1.2-0.5,1.2-1.2v-0.9
			c-0.2,0.1-0.4,0.1-0.7,0.1L-461.6,19.5L-461.6,19.5z"/>
		<path id="Vector_53" class="st3" d="M-462.2,17.6c0,0.4,0.3,0.7,0.7,0.7h10c0.3,0,0.5-0.2,0.6-0.4c-3-0.6-5.3-3.3-5.3-6.5
			c0-3.2,2.3-5.9,5.4-6.5V2.5c0-0.6-0.5-1.2-1.2-1.2h-0.9l-1,3.1h-5.2l-1-3.1h-0.9c-0.6,0-1.2,0.5-1.2,1.2V17.6z"/>
		<path id="Vector_54" class="st3" d="M-448.1,10.2c0-0.8-0.7-1.5-1.5-1.5c-0.4,0-0.8,0.1-1.1,0.4c-0.3,0.3-0.4,0.7-0.4,1.1v2.6
			c0,0.2,0,0.4-0.1,0.6h3.2c-0.1-0.2-0.1-0.4-0.1-0.6V10.2L-448.1,10.2z"/>
		<path id="Vector_55" class="st3" d="M-449.6,5.9c-3,0-5.5,2.5-5.5,5.5c0,3,2.5,5.5,5.5,5.5s5.5-2.5,5.5-5.5
			C-444.2,8.3-446.6,5.9-449.6,5.9L-449.6,5.9z M-446.1,14.6h-2.9v1.1h-1.2v-1.1h-2.9v-1.2h0.2c0.4,0,0.6-0.3,0.6-0.6v-2.6
			c0-0.7,0.3-1.4,0.8-1.9c0.4-0.4,0.8-0.6,1.3-0.7V7h1.2v0.6c1.2,0.3,2.1,1.4,2.1,2.6v2.5c0,0.4,0.3,0.6,0.6,0.6h0.2V14.6z"/>
	</g>
</g>
<g>
	<path class="st1" d="M-424.6,11.2h0.9c0.3-0.2,0.6-0.3,1-0.3c0.9,0,1.7,0.8,1.7,1.7h0.7c0-1.3-1.1-2.4-2.4-2.4
		c-0.2,0-0.5,0-0.7,0.1c-0.1-1.2-1.1-2.1-2.3-2.1c-0.9,0-1.6,0.5-2,1.2c-0.4-0.7-1.2-1.2-2-1.2s-1.6,0.5-2,1.2
		c-0.4-0.7-1.2-1.2-2-1.2c-1.2,0-2.2,0.9-2.3,2c0,0,0,0,0,0c-1.3,0-2.4,1.1-2.4,2.4h0.7c0-0.9,0.8-1.7,1.7-1.7
		c0.9,0,1.7,0.8,1.7,1.7h0h0.7h0c0-0.9,0.8-1.7,1.7-1.7c0.9,0,1.7,0.8,1.7,1.7h0h0.7h0c0-0.9,0.8-1.7,1.7-1.7c0.4,0,0.7,0.1,1,0.3
		h0.5h0.4c-0.3-0.4-0.7-0.7-1.2-0.9c0.1-0.8,0.8-1.5,1.7-1.5c0.9,0,1.7,0.8,1.7,1.7h0.1C-424.1,10.7-424.4,10.9-424.6,11.2
		 M-435.4,10.3c0.1-0.8,0.8-1.5,1.7-1.5c0.8,0,1.5,0.6,1.7,1.4c-0.8,0-1.6,0.5-2,1.2C-434.4,10.9-434.9,10.5-435.4,10.3
		 M-431.4,10.3c0.1-0.8,0.8-1.5,1.7-1.5c0.8,0,1.5,0.6,1.7,1.4c-0.8,0-1.6,0.5-2,1.2C-430.3,10.9-430.8,10.5-431.4,10.3"/>
	<rect x="-440.2" y="21.3" class="st1" width="21.6" height="0.7"/>
	<path class="st1" d="M-419.3,13.3l-0.3,0l0,0l-1.5,0l-0.4,0c-0.1-0.3-0.2-0.6-0.5-0.9c-0.3-0.3-0.7-0.5-1.2-0.5h-0.1l-0.1,0l-0.7,0
		l-0.7,0l-0.9,0l-0.4,0l-0.4,0l-0.8,0h-0.1c-0.4,0-0.9,0.2-1.2,0.5c-0.1,0.1-0.1,0.1-0.2,0.2c-0.2,0.3-0.3,0.6-0.3,1l0,3.1l4.7,0
		l0-2.7v-0.4c0-0.3,0.1-0.5,0.3-0.7c0.2-0.2,0.4-0.3,0.7-0.3h0.1c0.3,0,0.5,0.1,0.7,0.3c0.1,0.1,0.2,0.3,0.2,0.4l-1.4,0l0,0.7l2.5,0
		l1.3,0l0,5.5c0,0.2-0.1,0.3-0.2,0.5c-0.1,0.1-0.3,0.2-0.5,0.2l-17.5-0.1c-0.4,0-0.7-0.3-0.7-0.7l0-5.5l9.1,0l0-0.7l-9.8,0v0l-0.7,0
		l0,0.7l0.7,0l0,5.5c0,0.7,0.6,1.3,1.3,1.4l17.5,0.1h0c0.4,0,0.7-0.1,1-0.4c0.3-0.3,0.4-0.6,0.4-1l0-5.5l0.7,0l0-0.7L-419.3,13.3
		L-419.3,13.3z M-425,16l-3.4,0l0-2.4c0-0.3,0.1-0.5,0.3-0.7c0.2-0.2,0.4-0.3,0.6-0.3c0,0,0.1,0,0.1,0h0.1l0.9,0l0.3,0l0.3,0l0.7,0
		l0.3,0c0,0,0,0,0,0c-0.2,0.3-0.3,0.6-0.3,1V14L-425,16z"/>
	<path class="st1" d="M-426.7,4.5c0.7,0,1.3-0.6,1.3-1.3s-0.6-1.3-1.3-1.3c-0.7,0-1.3,0.6-1.3,1.3S-427.4,4.5-426.7,4.5 M-426.7,2.5
		c0.4,0,0.7,0.3,0.7,0.7s-0.3,0.7-0.7,0.7c-0.4,0-0.7-0.3-0.7-0.7S-427.1,2.5-426.7,2.5"/>
	<path class="st1" d="M-436.1,7.2c0-0.7-0.6-1.3-1.3-1.3s-1.3,0.6-1.3,1.3s0.6,1.3,1.3,1.3S-436.1,7.9-436.1,7.2 M-438.1,7.2
		c0-0.4,0.3-0.7,0.7-0.7s0.7,0.3,0.7,0.7c0,0.4-0.3,0.7-0.7,0.7S-438.1,7.6-438.1,7.2"/>
	<path class="st1" d="M-419.3,8.5c0-0.7-0.6-1.3-1.3-1.3c-0.7,0-1.3,0.6-1.3,1.3s0.6,1.3,1.3,1.3C-419.9,9.9-419.3,9.3-419.3,8.5
		 M-420.6,9.2c-0.4,0-0.7-0.3-0.7-0.7s0.3-0.7,0.7-0.7c0.4,0,0.7,0.3,0.7,0.7S-420.2,9.2-420.6,9.2"/>
	<rect x="-423.3" y="6.8" class="st1" width="0.7" height="0.7"/>
	<rect x="-430.7" y="6.8" class="st1" width="0.7" height="0.7"/>
	<rect x="-432.7" y="4.8" class="st1" width="0.7" height="0.7"/>
	<rect x="-435.4" y="14.6" class="st1" width="5.7" height="0.7"/>
	<rect x="-438.1" y="14.6" class="st1" width="0.7" height="0.7"/>
	<rect x="-436.8" y="14.6" class="st1" width="0.7" height="0.7"/>
	<rect x="-423.6" y="14.6" class="st1" width="3" height="0.7"/>
</g>
<g>
	<path class="st1" d="M-398.2,9.1c0.3,0,0.5-0.1,0.7-0.3c0.3-0.3,0.4-0.7,0.4-1.2c-0.1-1.2-1.2-3.4-2.5-4c0.1-0.3,0-0.6-0.1-0.9
		c-0.2-0.3-0.5-0.5-0.8-0.5c-0.3,0-0.5-0.1-0.8-0.2c-1.3-0.3-2.6-0.5-3.8-0.3c-0.2,0-0.5,0.2-0.6,0.3c-0.2-0.3-0.4-0.5-0.7-0.6
		c-0.4-0.2-0.9-0.2-1.3-0.1c-1.8,0.7-3.5,1.8-4.8,3.1c-1.4,1.4-2.4,3-3.1,4.8c-0.2,0.4-0.1,0.9,0.1,1.3c0.1,0.3,0.4,0.5,0.6,0.7
		c-0.2,0.2-0.3,0.4-0.3,0.6c-0.2,1.2,0,2.5,0.3,3.8c0.1,0.3,0.1,0.6,0.2,0.8c0.1,0.3,0.3,0.6,0.5,0.8c0.2,0.1,0.4,0.2,0.6,0.2
		c0.1,0,0.2,0,0.3,0c0.6,1.3,2.7,2.4,4,2.5c0.1,0,0.1,0,0.2,0c0.4,0,0.8-0.1,1.1-0.4c0.2-0.2,0.3-0.5,0.3-0.8c0-0.1-0.5-2-0.7-2.7
		c0.3-0.2,0.5-0.6,0.6-1.1c0-0.3,0.1-0.5,0.2-0.7c0.1-0.2,0.1-0.4,0.2-0.7c0-0.1,0-0.3,0-0.4c0.1,0,0.2,0,0.2,0
		c0.6,0,1.1-0.3,1.5-0.9c0.2-0.3,0.4-0.6,0.6-0.8s0.5-0.5,0.8-0.6c0.6-0.3,0.9-1,0.8-1.7c0.1,0,0.2,0,0.3,0c0.1,0,0.1,0,0.2,0
		c0.3,0,0.5-0.1,0.7-0.2c0.2-0.1,0.4-0.1,0.7-0.2c0.5-0.1,0.9-0.3,1.1-0.6C-400.3,8.6-398.4,9.1-398.2,9.1
		C-398.3,9.1-398.2,9.1-398.2,9.1 M-408.7,19c0,0.1,0,0.2-0.1,0.3c-0.1,0.1-0.4,0.2-0.7,0.2c-1.1-0.1-2.8-1.1-3.4-2.1l3.5-0.9
		C-409.1,17.4-408.8,18.9-408.7,19 M-408.5,13.7c0,0.2-0.1,0.4-0.1,0.6c-0.1,0.2-0.1,0.5-0.2,0.8c-0.1,0.5-0.2,0.6-0.4,0.7l-4.4,1.2
		c-0.1,0-0.3,0-0.4-0.1c-0.1-0.1-0.2-0.2-0.2-0.4c-0.1-0.3-0.1-0.5-0.2-0.8c-0.2-1.2-0.5-2.4-0.3-3.6c0-0.2,0.1-0.3,0.2-0.4
		c0.1-0.1,0.2-0.1,0.3-0.1c0,0,0,0,0,0l3.3,0.9l2,0.5C-408.7,13.1-408.5,13.4-408.5,13.7 M-405.1,10.5c-0.3,0.2-0.7,0.4-1,0.7
		c-0.3,0.3-0.5,0.6-0.7,1c-0.2,0.4-0.7,0.6-1.1,0.5l-2.9-0.8L-414,11c0,0-0.1,0-0.1,0l-0.4-0.1c-0.3-0.1-0.5-0.3-0.6-0.5
		c-0.1-0.3-0.1-0.5,0-0.8c0.7-1.7,1.7-3.3,3-4.6c1.3-1.3,2.9-2.3,4.6-3c0.1,0,0.2-0.1,0.3-0.1c0.2,0,0.3,0,0.4,0.1
		c0.3,0.1,0.4,0.4,0.5,0.6l0.1,0.5c0,0,0,0.1,0,0.1l0.5,1.9l1.1,4.2C-404.5,9.8-404.7,10.2-405.1,10.5 M-402.2,8.4
		c-0.3,0-0.6,0.1-0.8,0.2c-0.2,0.1-0.4,0.1-0.6,0.1c-0.3,0-0.5-0.1-0.6-0.4l-0.9-3.4l-0.5-2c0-0.1,0-0.2,0.1-0.3
		c0.1-0.1,0.2-0.2,0.4-0.2c0.3-0.1,0.6-0.1,0.9-0.1c0.9,0,1.8,0.2,2.7,0.4c0.3,0.1,0.6,0.1,0.8,0.2c0.2,0,0.3,0.1,0.4,0.2
		c0.1,0.1,0.1,0.3,0.1,0.4l-1.2,4.4C-401.5,8.1-401.7,8.3-402.2,8.4 M-399.9,4.3c1,0.5,2,2.3,2.1,3.4c0,0.3,0,0.6-0.2,0.7
		c-0.1,0.1-0.2,0.1-0.2,0.1c-0.1,0-1.6-0.4-2.6-0.7L-399.9,4.3z"/>
	<path class="st1" d="M-409.1,3.4c-1,0.6-1.9,1.3-2.7,2.1c-1.2,1.2-2.2,2.7-2.8,4.4c-0.1,0.2,0,0.4,0.2,0.4c0,0,0.1,0,0.1,0
		c0.1,0,0.3-0.1,0.3-0.2c0.6-1.5,1.5-3,2.7-4.1c0.8-0.8,1.6-1.4,2.6-2c0.2-0.1,0.2-0.3,0.1-0.4C-408.7,3.4-408.9,3.3-409.1,3.4"/>
	<path class="st1" d="M-407.4,2.6c-0.2,0.1-0.4,0.2-0.6,0.2c-0.2,0.1-0.2,0.3-0.2,0.4c0.1,0.1,0.2,0.2,0.3,0.2c0,0,0.1,0,0.1,0
		c0.2-0.1,0.4-0.2,0.6-0.2c0.2-0.1,0.2-0.3,0.2-0.4S-407.3,2.6-407.4,2.6"/>
	<path class="st1" d="M-413.6,12.7c0-0.2-0.1-0.3-0.3-0.3c-0.2,0-0.3,0.1-0.3,0.3c0,0.9,0.2,1.9,0.4,2.8l0.1,0.4
		c0,0.2,0.2,0.3,0.3,0.3c0,0,0,0,0.1,0c0.2,0,0.3-0.2,0.3-0.4l-0.1-0.4C-413.4,14.5-413.6,13.5-413.6,12.7"/>
	<path class="st1" d="M-409.8,18.1c-0.3-0.1-0.7-0.3-1-0.5c-0.2-0.1-0.4,0-0.4,0.1c-0.1,0.2,0,0.4,0.1,0.4c0.4,0.2,0.8,0.4,1.2,0.5
		c0,0,0.1,0,0.1,0c0.1,0,0.3-0.1,0.3-0.2C-409.5,18.3-409.6,18.1-409.8,18.1"/>
	<path class="st1" d="M-401.4,4.1c0.2,0,0.3-0.1,0.3-0.3c0-0.2-0.1-0.3-0.3-0.4l-0.4-0.1c-0.9-0.2-1.9-0.4-2.8-0.4
		c-0.2,0-0.3,0.2-0.3,0.3c0,0.2,0.2,0.3,0.3,0.3c0.8,0,1.7,0.2,2.7,0.3L-401.4,4.1C-401.4,4.1-401.4,4.1-401.4,4.1"/>
	<path class="st1" d="M-399.1,6.1c-0.1-0.2-0.3-0.2-0.4-0.1c-0.2,0.1-0.2,0.3-0.1,0.4c0.2,0.4,0.4,0.7,0.5,1c0,0.1,0.2,0.2,0.3,0.2
		c0,0,0.1,0,0.1,0c0.2-0.1,0.3-0.2,0.2-0.4C-398.6,6.9-398.8,6.5-399.1,6.1"/>
	<path class="st1" d="M-397.3,18.8c1.1,0,2-0.9,2-2s-0.9-2-2-2h-0.2v-1.3h-8.4v5.1c0,0.6,0.3,1.2,0.7,1.6h-3v1.2l2.8,0.7l7.2,0
		l2.9-0.7v-1.2h-2.9c0.3-0.3,0.6-0.8,0.7-1.3H-397.3z M-397.3,15.3c0.8,0,1.4,0.6,1.4,1.4c0,0.8-0.6,1.4-1.4,1.4h-0.2v-2.8H-397.3z
		 M-395.9,20.7L-395.9,20.7l-2.3,0.6h-7l-2.3-0.6v-0.1h3.9h3.9H-395.9z M-398.1,18.4c0,0.9-0.7,1.6-1.6,1.6h-3.9
		c-0.9,0-1.6-0.7-1.6-1.6V14h7.1V18.4z"/>
	<rect x="-404.6" y="15.9" class="st1" width="0.6" height="2.6"/>
	<rect x="-404.6" y="14.6" class="st1" width="0.6" height="0.6"/>
	<path class="st1" d="M-399.7,11.4c-0.3,0.3-0.4,0.6-0.4,1v0.2h0.6v-0.2c0-0.2,0.1-0.4,0.2-0.6c0.3-0.3,0.4-0.6,0.4-1v-0.2h-0.6v0.2
		C-399.4,11.1-399.5,11.3-399.7,11.4"/>
	<path class="st1" d="M-401.4,10.8c0,0.2-0.1,0.4-0.2,0.6c-0.3,0.3-0.4,0.6-0.4,1v0.2h0.6v-0.2c0-0.2,0.1-0.4,0.2-0.6
		c0.3-0.3,0.4-0.6,0.4-1v-0.2h-0.6V10.8z"/>
	<path class="st1" d="M-403.3,10.8c0,0.2-0.1,0.4-0.2,0.6c-0.3,0.3-0.4,0.6-0.4,1v0.2h0.6v-0.2c0-0.2,0.1-0.4,0.2-0.6
		c0.3-0.3,0.4-0.6,0.4-1v-0.2h-0.6V10.8z"/>
</g>
<g id="Element_40_">
	<path class="st1" d="M-370.4,13.7c0.2,0,0.3-0.1,0.3-0.3v-1c0-0.2-0.1-0.3-0.3-0.3h-2.8V1.3h-14.2v10.8h-2.8
		c-0.2,0-0.3,0.1-0.3,0.3v1c0,0.2,0.1,0.3,0.3,0.3c0.2,0,0.3-0.1,0.3-0.3v-0.7h2.5v6.9h-3.1V22h20.4v-2.4h-3.1v-6.9h2.5v0.7
		C-370.8,13.6-370.6,13.7-370.4,13.7z M-373.9,12.1h-6.1V2h6.1V12.1z M-380,19.6v-6.9h2.4v6.9H-380z M-383.4,19.6v-6.9h2.7v6.9
		H-383.4z M-386.8,2h6.1v10.1h-6.1V2z M-386.8,12.7h2.7v6.9h-2.7V12.7z M-370.8,21.3h-19.1v-1.1h19.1V21.3z M-373.9,19.6h-3.1v-6.9
		h3.1V19.6z"/>
</g>
<rect x="-362.3" y="3" class="st3" width="3.4" height="2.5"/>
<rect x="-362.3" y="5.5" class="st3" width="3.4" height="5.5"/>
<path class="st3" d="M-357.2,20.6V1.3h9.5v17.6c0,0.9-0.8,1.7-1.7,1.7h-1.5H-357.2z"/>
<path class="st3" d="M-358.9,11V5.5V3h-3.4v2.5V11H-358.9z M-357.2,1.3v19.3h-3.9h-1.7c-0.7,0-1.2-0.6-1.2-1.2V1.3H-357.2z"/>
<polyline class="st3" points="-357.2,1.3 -357.2,20.6 -361,20.6 "/>
<line class="st3" x1="-364" y1="1.3" x2="-357.2" y2="1.3"/>
<line class="st3" x1="-357.2" y1="20.6" x2="-350.8" y2="20.6"/>
<line class="st3" x1="-347.6" y1="1.3" x2="-357.2" y2="1.3"/>
<line class="st3" x1="-355.1" y1="5.7" x2="-355.1" y2="10.1"/>
<polygon class="st3" points="-362.3,5.5 -362.3,3 -358.9,3 -358.9,5.5 -358.9,11 -362.3,11 "/>
<line class="st3" x1="-362.3" y1="5.5" x2="-358.9" y2="5.5"/>
<rect x="-362.7" y="20.6" class="st3" width="1.7" height="1.4"/>
<polygon class="st3" points="-350.8,20.6 -349.4,20.6 -349.1,20.6 -349.1,22 -350.8,22 "/>
<g>
	<g>
		<rect x="-329.8" y="4.8" class="st4" width="8.8" height="16.5"/>
		<polyline class="st4" points="-321,11.5 -329.8,11.5 -329.8,16.9 -341.9,16.9 -341.9,21.3 -341.9,4.8 -329.8,4.8 		"/>
		<line class="st4" x1="-327" y1="14.8" x2="-327" y2="17.5"/>
	</g>
	<rect x="-341.9" y="3" class="st4" width="20.9" height="1.8"/>
</g>
<g>
	<path class="st1" d="M-307.6,6.8h-6.3c-0.7,0-1.2-0.5-1.2-1.2c0-0.7,0.5-1.2,1.2-1.2h6.3c0.7,0,1.2,0.5,1.2,1.2
		C-306.4,6.2-306.9,6.8-307.6,6.8z M-313.9,5c-0.3,0-0.5,0.2-0.5,0.5c0,0.3,0.2,0.5,0.5,0.5h6.3c0.3,0,0.5-0.2,0.5-0.5
		c0-0.3-0.2-0.5-0.5-0.5H-313.9z"/>
	<path class="st1" d="M-308.7,5h-6.3c-0.7,0-1.2-0.5-1.2-1.2c0-0.7,0.5-1.2,1.2-1.2h6.3c0.7,0,1.2,0.5,1.2,1.2
		C-307.5,4.5-308,5-308.7,5z M-315,3.3c-0.3,0-0.5,0.2-0.5,0.5c0,0.3,0.2,0.5,0.5,0.5h6.3c0.3,0,0.5-0.2,0.5-0.5
		c0-0.3-0.2-0.5-0.5-0.5H-315z"/>
	<path class="st1" d="M-307.1,3.3h-6.3c-0.7,0-1.2-0.5-1.2-1.2c0-0.7,0.5-1.2,1.2-1.2h6.3c0.7,0,1.2,0.5,1.2,1.2
		C-305.9,2.7-306.4,3.3-307.1,3.3z M-313.4,1.5c-0.3,0-0.5,0.2-0.5,0.5c0,0.3,0.2,0.5,0.5,0.5h6.3c0.3,0,0.5-0.2,0.5-0.5
		c0-0.3-0.2-0.5-0.5-0.5H-313.4z"/>
	<path class="st1" d="M-301.6,20.3c-0.1,0-0.2,0-0.2-0.1l-13.5-11c-0.1-0.1-0.2-0.3,0-0.5c0.1-0.1,0.3-0.2,0.5,0l13.5,11
		c0.1,0.1,0.2,0.3,0,0.5C-301.4,20.3-301.5,20.3-301.6,20.3z"/>
	<path class="st1" d="M-301.1,22.5h-1.3c-0.8,0-1.4-0.6-1.4-1.4s0.6-1.4,1.4-1.4h1.3c0.8,0,1.4,0.6,1.4,1.4S-300.3,22.5-301.1,22.5z
		 M-302.4,20.3c-0.4,0-0.7,0.3-0.7,0.7c0,0.4,0.3,0.7,0.7,0.7h1.3c0.4,0,0.7-0.3,0.7-0.7c0-0.4-0.3-0.7-0.7-0.7H-302.4z"/>
	<path class="st1" d="M-311.6,20.3c-0.1,0-0.2,0-0.3-0.1c-0.1-0.1-0.1-0.4,0-0.5l11.7-9.5c0.1-0.1,0.4-0.1,0.5,0
		c0.1,0.1,0.1,0.4,0,0.5l-11.7,9.5C-311.4,20.3-311.5,20.3-311.6,20.3z"/>
	<path class="st1" d="M-310.9,22.5h-1.3c-0.8,0-1.4-0.6-1.4-1.4s0.6-1.4,1.4-1.4h1.3c0.8,0,1.4,0.6,1.4,1.4S-310.1,22.5-310.9,22.5z
		 M-312.2,20.3c-0.4,0-0.7,0.3-0.7,0.7c0,0.4,0.3,0.7,0.7,0.7h1.3c0.4,0,0.7-0.3,0.7-0.7c0-0.4-0.3-0.7-0.7-0.7H-312.2z"/>
	<path class="st1" d="M-298.3,10.8h-6.6c-0.2,0-0.3-0.2-0.3-0.3v-4c0-0.2,0.2-0.3,0.3-0.3h6.6c0.2,0,0.3,0.2,0.3,0.3v4
		C-297.9,10.7-298.1,10.8-298.3,10.8z M-304.5,10.1h5.9V6.8h-5.9V10.1z"/>
	<path class="st1" d="M-304.8,9.3h-11.3c-0.5,0-0.9-0.4-0.9-0.9V7.8c0-0.9,0.8-1.7,1.7-1.7h10.5c0.2,0,0.3,0.2,0.3,0.3V9
		C-304.5,9.2-304.7,9.3-304.8,9.3z M-315.3,6.8c-0.6,0-1,0.5-1,1v0.6c0,0.1,0.1,0.2,0.2,0.2h11V6.8H-315.3z"/>
	<path class="st1" d="M-297.2,9.3h-1c-0.2,0-0.3-0.2-0.3-0.3V6.4c0-0.2,0.2-0.3,0.3-0.3h1c0.6,0,1,0.5,1,1v1.2
		C-296.2,8.9-296.7,9.3-297.2,9.3z M-297.9,8.6h0.7c0.2,0,0.3-0.1,0.3-0.3V7.1c0-0.2-0.1-0.3-0.3-0.3h-0.7V8.6z"/>
	<path class="st1" d="M-298.5,6.8h-5.3c-0.2,0-0.4-0.1-0.6-0.3c-0.1-0.2-0.1-0.4-0.1-0.6c0.3-0.8,1.1-2.3,2.7-2.8
		c1.5-0.5,3.4-0.6,4.4-0.6c0.3,0,0.5,0.1,0.7,0.3c0.2,0.2,0.3,0.4,0.3,0.7c0,0.5-0.4,0.9-0.8,1l-1,0.2l0.4,1.1
		c0.1,0.3,0.1,0.5-0.1,0.8C-298,6.6-298.2,6.8-298.5,6.8z M-297.3,3.1c-1,0-2.8,0.1-4.2,0.6c-1.3,0.5-2,1.7-2.3,2.5l5.3,0
		c0.1,0,0.1,0,0.1-0.1c0,0,0-0.1,0-0.1l-0.6-1.5c0-0.1,0-0.2,0-0.3c0.1-0.1,0.1-0.1,0.2-0.2l1.4-0.2c0.2,0,0.3-0.2,0.3-0.3
		c0-0.1,0-0.2-0.1-0.2C-297.1,3.1-297.2,3.1-297.3,3.1C-297.3,3.1-297.3,3.1-297.3,3.1z"/>
	<path class="st1" d="M-300.2,4.9c-0.2,0-0.3-0.1-0.3-0.3c0-0.2,0.1-0.4,0.3-0.4l1.6-0.3c0.2,0,0.4,0.1,0.4,0.3
		c0,0.2-0.1,0.4-0.3,0.4L-300.2,4.9C-300.2,4.9-300.2,4.9-300.2,4.9z"/>
</g>
<g>
	<path class="st1" d="M-290.9,16.7c-0.1,0-0.2-0.1-0.2-0.2c0-0.1,0.1-0.2,0.2-0.2s0.2,0.1,0.2,0.2
		C-290.7,16.6-290.8,16.7-290.9,16.7L-290.9,16.7z M-290.9,15.6c-0.5,0-0.9,0.4-0.9,0.9c0,0.5,0.4,0.9,0.9,0.9
		c0.5,0,0.9-0.4,0.9-0.9C-290,16-290.4,15.6-290.9,15.6L-290.9,15.6z"/>
	<path class="st1" d="M-290.9,14.6c-0.1,0-0.2-0.1-0.2-0.2s0.1-0.2,0.2-0.2s0.2,0.1,0.2,0.2S-290.8,14.6-290.9,14.6L-290.9,14.6z
		 M-290.9,13.5c-0.5,0-0.9,0.4-0.9,0.9c0,0.5,0.4,0.9,0.9,0.9c0.5,0,0.9-0.4,0.9-0.9C-290,13.9-290.4,13.5-290.9,13.5L-290.9,13.5z"
		/>
	<path class="st1" d="M-288.7,14.6c-0.1,0-0.2-0.1-0.2-0.2s0.1-0.2,0.2-0.2s0.2,0.1,0.2,0.2S-288.6,14.6-288.7,14.6L-288.7,14.6z
		 M-288.7,13.5c-0.5,0-0.9,0.4-0.9,0.9c0,0.5,0.4,0.9,0.9,0.9c0.5,0,0.9-0.4,0.9-0.9C-287.8,13.9-288.2,13.5-288.7,13.5L-288.7,13.5
		z"/>
	<path class="st1" d="M-288.7,16.7c-0.1,0-0.2-0.1-0.2-0.2c0-0.1,0.1-0.2,0.2-0.2s0.2,0.1,0.2,0.2
		C-288.5,16.6-288.6,16.7-288.7,16.7L-288.7,16.7z M-288.7,15.6c-0.5,0-0.9,0.4-0.9,0.9c0,0.5,0.4,0.9,0.9,0.9
		c0.5,0,0.9-0.4,0.9-0.9C-287.8,16-288.2,15.6-288.7,15.6L-288.7,15.6z"/>
	<path class="st1" d="M-282,15.4c1.8,0,3.5-0.8,4.5-2.2h5.1c0.3,0,0.5,0.2,0.5,0.5v3.5v0.4v0.7h-4.5c-0.1-0.5-0.6-0.9-1.1-0.9h-8.8
		c-0.5,0-1,0.4-1.1,0.9h-4.5v-0.7v-0.4v-3.5c0-0.3,0.2-0.5,0.5-0.5h5c0,0,0.1,0,0.1,0C-285.5,14.5-283.9,15.4-282,15.4L-282,15.4z
		 M-282,4.5c0.7,0,1.3,0.1,1.8,0.3l-1.3,2.6c-0.2-0.1-0.4-0.1-0.6-0.1c-1.2,0-2.3,1-2.3,2.3c0,1.2,1,2.3,2.3,2.3
		c1.1,0,2-0.7,2.2-1.7l2.9-0.4c0,2.8-2.3,5-5.1,5c-2.8,0-5.1-2.3-5.1-5.1S-284.9,4.5-282,4.5L-282,4.5z M-280.5,9.6
		c0,0.1,0,0.1,0,0.2c0,0,0,0,0,0c-0.1,0.8-0.8,1.4-1.6,1.4c-0.9,0-1.6-0.7-1.6-1.6c0-0.9,0.7-1.6,1.6-1.6c0.2,0,0.4,0,0.6,0.1
		c0,0,0,0,0,0C-280.9,8.4-280.5,9-280.5,9.6L-280.5,9.6z M-279.6,5.1c1.4,0.8,2.4,2.2,2.6,3.9l-2.8,0.4c-0.1-0.7-0.5-1.3-1-1.7
		L-279.6,5.1L-279.6,5.1z M-277.6,19.1h-8.8c-0.3,0-0.5-0.2-0.5-0.5c0-0.3,0.2-0.5,0.5-0.5h8.8c0.3,0,0.5,0.2,0.5,0.5
		C-277.1,18.9-277.3,19.1-277.6,19.1L-277.6,19.1z M-272,20.2c0,0.3-0.2,0.5-0.5,0.5h-19.2c-0.3,0-0.5-0.2-0.5-0.5V19h4.5
		c0.1,0.5,0.6,0.8,1.1,0.8h8.8c0.5,0,1-0.4,1.1-0.8h4.5V20.2L-272,20.2z M-292.8,13.7v3.5v0.4v2.6c0,0.6,0.5,1.2,1.2,1.2h19.2
		c0.6,0,1.2-0.5,1.2-1.2v-2.6v-0.4v-3.5c0-0.6-0.5-1.2-1.2-1.2h-4.6c0.5-0.9,0.8-1.9,0.8-2.9c0-0.1,0-0.2,0-0.3c0,0,0,0,0,0
		c-0.1-2.2-1.4-4-3.3-4.9c0,0,0,0,0,0c0,0,0,0,0,0c-0.7-0.3-1.6-0.5-2.4-0.5c-3.2,0-5.8,2.6-5.8,5.8c0,1.1,0.3,2.1,0.8,2.9h-4.6
		C-292.3,12.5-292.8,13-292.8,13.7L-292.8,13.7z"/>
	<path class="st1" d="M-276.1,16.7c0.2,0,0.3-0.2,0.3-0.3v-2.3c0-0.2-0.2-0.3-0.3-0.3s-0.3,0.2-0.3,0.3v2.3
		C-276.4,16.6-276.3,16.7-276.1,16.7L-276.1,16.7z"/>
	<path class="st1" d="M-274.7,16.7c0.2,0,0.3-0.2,0.3-0.3v-2.3c0-0.2-0.2-0.3-0.3-0.3c-0.2,0-0.3,0.2-0.3,0.3v2.3
		C-275,16.6-274.9,16.7-274.7,16.7L-274.7,16.7z"/>
	<path class="st1" d="M-273.2,16.7c0.2,0,0.3-0.2,0.3-0.3v-2.3c0-0.2-0.2-0.3-0.3-0.3s-0.3,0.2-0.3,0.3v2.3
		C-273.6,16.6-273.4,16.7-273.2,16.7L-273.2,16.7z"/>
</g>
<circle class="st4" cx="-256.9" cy="11.2" r="9.1"/>
<circle class="st4" cx="-256.9" cy="11.2" r="3.1"/>
<line class="st4" x1="-256.2" y1="8.1" x2="-254" y2="2.6"/>
<line class="st4" x1="-254" y1="11.9" x2="-247.8" y2="10.8"/>
<rect x="-272" y="15.8" class="st2" width="17.4" height="17.1"/>
<text transform="matrix(1 0 0 1 -259.7518 18.5959)" class="st1" style="font-family:'MyriadHebrew-Bold'; font-size:4px;">CD</text>
<g>
	<path class="st1" d="M-235.9,3.7C-235.9,3.7-235.9,3.7-235.9,3.7C-235.9,3.8-235.9,3.8-235.9,3.7C-235.9,3.8-235.9,3.8-235.9,3.7
		C-235.9,3.7-235.9,3.7-235.9,3.7L-235.9,3.7z M-235.9,4.4c0.3,0,0.6-0.3,0.6-0.6c0-0.3-0.3-0.6-0.6-0.6s-0.6,0.3-0.6,0.6
		C-236.5,4.1-236.3,4.4-235.9,4.4L-235.9,4.4z"/>
	<path class="st1" d="M-225.5,21.7v-1.3h2.5v1.3H-225.5L-225.5,21.7z M-243.1,2.3h4.4v19.4h-4.4V2.3L-243.1,2.3z M-225.5,7.6V6h2.5
		v1.6H-225.5L-225.5,7.6z M-225.5,15.9V8.2h2.5v7.7H-225.5L-225.5,15.9z M-225.5,17.8v-1.3h2.5v1.3H-225.5L-225.5,17.8z
		 M-225.5,18.4h2.5v1.3h-2.5V18.4L-225.5,18.4z M-233.1,20.4h7v1.3h-7V20.4L-233.1,20.4z M-238.1,18.7h4.3v3h-4.3V18.7L-238.1,18.7z
		 M-233.8,5.4h-4.3V2.3h4.3V5.4L-233.8,5.4z M-228.8,5.4c0-0.1,0-0.1,0-0.2c0-0.2-0.1-0.4-0.2-0.5c0.1-0.1,0.2-0.3,0.2-0.5
		c0-0.4-0.4-0.8-0.8-0.8h-2.5c-0.4,0-0.8,0.4-0.8,0.8c0,0.2,0.1,0.4,0.2,0.5c-0.1,0.1-0.2,0.3-0.2,0.5c0,0.1,0,0.1,0,0.2h-0.3V2.3h7
		v3.1H-228.8L-228.8,5.4z M-232.2,5.3c0-0.1,0.1-0.2,0.2-0.2h2.5c0.1,0,0.2,0.1,0.2,0.2c0,0.1,0,0.1-0.1,0.2h-2.6
		C-232.2,5.4-232.2,5.3-232.2,5.3L-232.2,5.3z M-229.6,4.4h-2.5c-0.1,0-0.2-0.1-0.2-0.2c0-0.1,0.1-0.2,0.2-0.2h2.5
		c0.1,0,0.2,0.1,0.2,0.2C-229.4,4.3-229.5,4.4-229.6,4.4L-229.6,4.4z M-228.3,15.8v-3.4h1.3v3.4H-228.3L-228.3,15.8z M-229.8,14.6
		h-2.5c-0.1,0-0.2-0.1-0.2-0.2c0-0.1,0.1-0.2,0.2-0.2h2.5c0.1,0,0.2,0.1,0.2,0.2C-229.7,14.5-229.8,14.6-229.8,14.6L-229.8,14.6z
		 M-232.3,15.3h2.5c0.1,0,0.2,0.1,0.2,0.2c0,0.1-0.1,0.2-0.2,0.2h-2.5c-0.1,0-0.2-0.1-0.2-0.2C-232.5,15.3-232.4,15.3-232.3,15.3
		L-232.3,15.3z M-226.2,17.8l-7,0v-1.4h7V17.8L-226.2,17.8z M-233.1,18.5l7,0v1.3h-7V18.5L-233.1,18.5z M-238.1,15.5h4.3V18h-4.3
		V15.5L-238.1,15.5z M-238.1,12.3h4.3v2.5h-4.3V12.3L-238.1,12.3z M-238.1,9.2h4.3v2.5h-4.3V9.2L-238.1,9.2z M-238.1,6h4.3v2.5h-4.3
		V6L-238.1,6z M-226.2,15.9h-0.2v-3.7c0-0.3-0.2-0.5-0.5-0.5h-1.5c-0.3,0-0.5,0.2-0.5,0.5v3.7h-0.3c0.1-0.1,0.1-0.3,0.1-0.5
		c0-0.2-0.1-0.4-0.2-0.5c0.1-0.1,0.2-0.3,0.2-0.5c0-0.4-0.4-0.8-0.8-0.8h-2.5c-0.4,0-0.8,0.4-0.8,0.8c0,0.2,0.1,0.4,0.2,0.5
		c-0.1,0.1-0.2,0.3-0.2,0.5c0,0.2,0.1,0.3,0.1,0.5h-0.2V6h1c0,0,0.1,0,0.1,0h2.5c0,0,0.1,0,0.1,0h3.3V15.9L-226.2,15.9z M-223,5.4
		h-2.5V2.3h2.5V5.4L-223,5.4z M-222.7,1.7h-20.7c-0.2,0-0.3,0.1-0.3,0.3v20c0,0.2,0.1,0.3,0.3,0.3h20.7c0.2,0,0.3-0.1,0.3-0.3V2
		C-222.4,1.8-222.5,1.7-222.7,1.7L-222.7,1.7z"/>
	<path class="st1" d="M-235.9,7.3C-235.9,7.3-235.9,7.3-235.9,7.3C-235.9,7.3-235.9,7.3-235.9,7.3C-235.9,7.3-235.9,7.3-235.9,7.3
		C-235.9,7.3-235.9,7.3-235.9,7.3L-235.9,7.3z M-235.9,6.6c-0.3,0-0.6,0.3-0.6,0.6c0,0.3,0.3,0.6,0.6,0.6c0.3,0,0.6-0.3,0.6-0.6
		C-235.3,6.9-235.5,6.6-235.9,6.6L-235.9,6.6z"/>
	<path class="st1" d="M-235.9,10.6C-235.9,10.6-235.9,10.6-235.9,10.6C-235.9,10.5-235.9,10.5-235.9,10.6
		C-235.9,10.5-235.9,10.5-235.9,10.6C-235.9,10.6-235.9,10.6-235.9,10.6L-235.9,10.6z M-235.9,9.9c-0.3,0-0.6,0.3-0.6,0.6
		s0.3,0.6,0.6,0.6s0.6-0.3,0.6-0.6S-235.5,9.9-235.9,9.9L-235.9,9.9z"/>
	<path class="st1" d="M-235.9,13.6C-235.9,13.6-235.9,13.6-235.9,13.6C-235.9,13.6-235.9,13.6-235.9,13.6
		C-235.9,13.6-235.9,13.6-235.9,13.6C-235.9,13.6-235.9,13.6-235.9,13.6L-235.9,13.6z M-235.9,12.9c-0.3,0-0.6,0.3-0.6,0.6
		c0,0.3,0.3,0.6,0.6,0.6c0.3,0,0.6-0.3,0.6-0.6C-235.2,13.2-235.5,12.9-235.9,12.9L-235.9,12.9z"/>
	<path class="st1" d="M-235.9,16.9C-235.9,16.9-235.9,16.8-235.9,16.9C-235.9,16.8-235.9,16.8-235.9,16.9
		C-235.9,16.8-235.8,16.8-235.9,16.9C-235.8,16.8-235.9,16.9-235.9,16.9L-235.9,16.9z M-235.9,16.2c-0.3,0-0.6,0.3-0.6,0.6
		c0,0.3,0.3,0.6,0.6,0.6c0.3,0,0.6-0.3,0.6-0.6C-235.2,16.5-235.5,16.2-235.9,16.2L-235.9,16.2z"/>
	<path class="st1" d="M-235.9,20.2C-235.9,20.2-235.9,20.2-235.9,20.2C-235.9,20.2-235.9,20.2-235.9,20.2
		C-235.9,20.2-235.9,20.2-235.9,20.2C-235.9,20.2-235.9,20.2-235.9,20.2L-235.9,20.2z M-235.9,19.6c-0.3,0-0.6,0.3-0.6,0.6
		c0,0.3,0.3,0.6,0.6,0.6s0.6-0.3,0.6-0.6C-235.3,19.9-235.6,19.6-235.9,19.6L-235.9,19.6z"/>
	<path class="st1" d="M-239.6,10.2c-0.2,0-0.3,0.1-0.3,0.3v3.3c0,0.2,0.1,0.3,0.3,0.3s0.3-0.1,0.3-0.3v-3.3
		C-239.3,10.4-239.4,10.2-239.6,10.2L-239.6,10.2z"/>
</g>
<g>
	<g>
		<g>
			<path class="st5" d="M-190.7,22.3c-1.1,0-2-0.9-2-2c0-1.1,0.9-2,2-2c1.1,0,2,0.9,2,2C-188.7,21.4-189.6,22.3-190.7,22.3z
				 M-190.7,18.7c-0.9,0-1.7,0.7-1.7,1.7c0,0.9,0.7,1.7,1.7,1.7c0.9,0,1.7-0.7,1.7-1.7C-189,19.4-189.7,18.7-190.7,18.7z"/>
		</g>
		<g>
			<path class="st5" d="M-173.6,20.2c-0.1,0-0.2-0.1-0.2-0.2c0-9.3-7.6-16.9-16.9-16.9c-0.1,0-0.2-0.1-0.2-0.2
				c0-0.1,0.1-0.2,0.2-0.2c9.5,0,17.2,7.7,17.2,17.2C-173.5,20.1-173.5,20.2-173.6,20.2z"/>
		</g>
		<g>
			<path class="st5" d="M-176.6,20.2c-0.1,0-0.2-0.1-0.2-0.2c0-7.7-6.2-13.9-13.9-13.9c-0.1,0-0.2-0.1-0.2-0.2
				c0-0.1,0.1-0.2,0.2-0.2c7.8,0,14.2,6.4,14.2,14.2C-176.4,20.1-176.5,20.2-176.6,20.2z"/>
		</g>
		<g>
			<path class="st5" d="M-179.6,20.2c-0.1,0-0.2-0.1-0.2-0.2c0-6-4.9-10.9-10.9-10.9c-0.1,0-0.2-0.1-0.2-0.2c0-0.1,0.1-0.2,0.2-0.2
				c6.2,0,11.3,5.1,11.3,11.3C-179.4,20.1-179.5,20.2-179.6,20.2z"/>
		</g>
		<g>
			<path class="st5" d="M-182.5,20.2c-0.1,0-0.2-0.1-0.2-0.2c0-4.4-3.6-8-8-8c-0.1,0-0.2-0.1-0.2-0.2c0-0.1,0.1-0.2,0.2-0.2
				c4.6,0,8.3,3.7,8.3,8.3C-182.4,20.1-182.5,20.2-182.5,20.2z"/>
		</g>
		<g>
			<path class="st5" d="M-185.5,20.2c-0.1,0-0.2-0.1-0.2-0.2c0-2.8-2.2-5-5-5c-0.1,0-0.2-0.1-0.2-0.2s0.1-0.2,0.2-0.2
				c2.9,0,5.3,2.4,5.3,5.3C-185.4,20.1-185.4,20.2-185.5,20.2z"/>
		</g>
	</g>
</g>
<path class="st1" d="M-156.3,12c0.2,0,0.3,0,0.4,0c2.7,0,5.4,0,8.1,0c0.2,0,0.3-0.1,0.5,0.1c0.1,0.2,0,0.4-0.1,0.5
	c-0.9,1.6-1.8,3.2-2.7,4.7c-0.4,0.7-0.8,1.3-1.2,1.9c-0.1,0.2-0.3,0.3-0.6,0.3c-2.1,0-4.2,0.1-6.3,0.1c-2.2,0-4.3,0.1-6.5,0
	c-1.8-0.1-4-1.5-4.8-4.2c-0.7-2.6,0.4-4.8,2.1-6c1.8-1.4,3.7-2.7,5.6-4.1c1.4-1,2.9-1.1,4.3-0.2c1.4,0.9,2.1,2.3,2.1,4.2
	c0,0.9-0.3,1.6-0.7,2.4C-156.2,11.8-156.2,11.9-156.3,12z M-148.1,12.6c0,0-0.1,0-0.1,0c-2.8,0-5.6,0-8.5,0c-0.1,0-0.2,0-0.3,0.1
	c-1.2,1-2.4,2-3.6,3c-0.4,0.3-0.7,0.5-1.1,0.9c-0.7,0.8-1.5,1.3-2.5,1.4c-1.5,0.2-2.9-0.7-3.5-2.3c-0.6-1.8,0.1-3.6,1.7-4.1
	c1.5-0.5,2.9,0.6,3,2.2c0,0.8-0.3,1.4-0.9,1.8c-0.6,0.4-1.1,0.4-1.7,0c-0.8-0.5-0.9-1.7-0.3-2.4c0.6-0.6,1.6-0.4,1.8,0.4
	c0.2,0.7-0.2,1.3-0.8,1.4c-0.2,0-0.3-0.1-0.3-0.3c0-0.2,0.1-0.3,0.2-0.3c0.3,0,0.4-0.2,0.4-0.5c0-0.3-0.2-0.5-0.5-0.5
	c-0.4,0-0.7,0.3-0.8,0.7c-0.1,0.6,0.3,1.1,0.8,1.2c0.6,0.1,1.2-0.4,1.4-1c0.2-0.8-0.3-1.8-1-2.1c-0.8-0.3-1.8,0-2.4,0.9
	c-0.7,1.1-0.5,3,0.8,4c1.1,0.8,2.7,0.6,3.7-0.4c1.2-1,1.6-2.4,1.2-4.1c-0.6-3-3.8-4.3-6.1-2.6c-1.1,0.9-1.9,2.1-2,3.7
	c-0.1,2.4,1.4,4.7,3.5,5.3c0.8,0.2,1.6,0.2,2.4,0.2c3.8,0.1,7.5-0.1,11.3-0.1c0.1,0,0.2-0.1,0.3-0.2c0.2-0.4,0.4-0.7,0.6-1.1
	c1-1.6,1.9-3.3,2.9-4.9C-148.2,12.8-148.1,12.7-148.1,12.6z M-160.8,15.2c0.1-0.1,0.2-0.1,0.2-0.2c1-0.9,2.1-1.7,3.1-2.6
	c1.6-1.3,2-3.8,0.8-5.6c-1.1-1.8-3.3-2.2-5-1c-1.1,0.8-2.3,1.7-3.4,2.5c-0.1,0.1-0.2,0.2-0.4,0.3C-162,8.4-159.8,11.9-160.8,15.2z"
	/>
<g id="Element_00000023280996088050748930000014490662761705415299_">
	<path class="st1" d="M-128.6,5L-128.6,5c0.6,0,1-0.2,1.3-0.6c0.3-0.3,0.5-0.8,0.5-1.3c0-1.1-0.8-1.9-1.8-1.9l-0.1,0
		c-1,0-1.9,1-1.9,1.9C-130.5,4.1-129.6,5-128.6,5z M-128.6,1.8L-128.6,1.8c0.7,0,1.3,0.5,1.3,1.3c0,0.3-0.1,0.7-0.3,0.9
		c-0.2,0.2-0.5,0.4-0.9,0.4l0,0c-0.7,0-1.3-0.6-1.3-1.3C-129.9,2.5-129.3,1.8-128.6,1.8z"/>
	<path class="st1" d="M-140.3,5.1L-140.3,5.1c0.6,0,1-0.2,1.4-0.6c0.3-0.3,0.5-0.8,0.5-1.3c0-1-0.9-1.8-1.9-1.8h0
		c-0.5,0-1,0.2-1.3,0.6c-0.3,0.4-0.5,0.8-0.5,1.3C-142.2,4.4-141.4,5.1-140.3,5.1z M-141.2,2.4c0.2-0.2,0.6-0.4,0.9-0.4
		c0.7,0,1.2,0.6,1.2,1.2c0,0.3-0.1,0.6-0.3,0.9c-0.2,0.2-0.5,0.4-0.9,0.4l0,0c-0.7,0-1.2-0.5-1.2-1.2C-141.6,3-141.5,2.7-141.2,2.4z
		"/>
	<path class="st1" d="M-134.3,1.7c-0.2,0-0.3,0.1-0.3,0.3v19.6c0,0.2,0.1,0.3,0.3,0.3c0.2,0,0.3-0.1,0.3-0.3V2
		C-134,1.9-134.1,1.7-134.3,1.7z"/>
	<path class="st1" d="M-137.5,7c-0.3-0.8-1-1.3-2-1.4c-0.3,0-0.6,0-0.9,0c0,0-0.2,0-0.3,0c-0.3,0-0.6,0-0.9,0c-1,0-1.7,0.5-2,1.4
		c-0.5,1.7-1,3.3-1.4,4.8c0,0.1-0.1,0.5,0,0.8c0.1,0.1,0.2,0.2,0.5,0.3c0.1,0,0.2,0,0.4,0c0.3,0,0.7-0.1,0.9-0.7
		c0.1-0.3,0.2-0.6,0.3-1l-0.4,3.8c0,0.1,0,0.3,0.1,0.4c0.1,0.1,0.2,0.2,0.4,0.2h0.6l0,1.4c0,1.1,0,3.5,0,3.5c0,0.1,0,0.3,0,0.4
		c0.2,0.7,0.6,0.8,0.9,0.8c0,0,0.1,0,0.1,0c0.3,0,0.5-0.1,0.6-0.3c0.2,0.2,0.5,0.3,0.7,0.3c0,0,0,0,0,0c0.3,0,0.6-0.1,0.7-0.3
		c0.2-0.2,0.2-0.5,0.2-0.8c0-1.1,0-2.2,0-3.3l0-1.4c0-0.1,0-0.2,0-0.3h0.5c0.1,0,0.3-0.1,0.4-0.2c0,0,0,0,0,0
		c0.1-0.1,0.1-0.2,0.1-0.4l-0.4-3.8c0.1,0.3,0.2,0.6,0.3,1c0.2,0.5,0.6,0.7,0.9,0.7c0.2,0,0.3,0,0.4,0c0.3-0.1,0.4-0.2,0.5-0.3
		c0.2-0.3,0.1-0.6,0-0.8C-136.4,10.3-136.9,8.7-137.5,7z M-136.6,12.2C-136.6,12.2-136.6,12.2-136.6,12.2c-0.5,0.1-0.6,0-0.6-0.2
		c-0.3-1.1-0.7-2.2-1.2-3.6l0,0c-0.1-0.2-0.2-0.2-0.4-0.2c-0.1,0-0.2,0.2-0.2,0.3c0,0,0,0,0,0l0.7,6.4c0,0-0.1,0-0.1,0h-0.6
		c-0.1,0-0.3,0.2-0.3,0.2c0,0,0,0,0,0.1c0,0,0,0,0,0.1c0,0.2,0,0.4,0,0.6l0,1.4c0,1.1,0,2.2,0,3.3c0,0.2,0,0.4-0.1,0.5
		c0,0-0.1,0.1-0.3,0.1c0,0,0,0,0,0c-0.1,0-0.4,0-0.4-0.6c0-1.1,0-2.2,0-3.3l0-1.7c0-0.2-0.1-0.3-0.3-0.3c0,0,0,0,0,0
		c-0.2,0-0.3,0.1-0.3,0.3l0,1.7c0,1.1,0,2.2,0,3.3c0,0,0,0.1,0,0.1c0,0,0,0,0,0.1c0,0.3-0.1,0.4-0.4,0.4c-0.1,0-0.3,0-0.4-0.4
		c0-0.1,0-0.2,0-0.3l0-0.1c0-1.1,0-2.3,0-3.4l0-1.7c0,0,0,0,0,0s0,0,0,0c0-0.2-0.1-0.3-0.3-0.3h-0.8l0.7-6.4c0.1-0.2,0-0.3-0.2-0.4
		c-0.2-0.1-0.3,0-0.4,0.2l0,0c-0.5,1.4-0.8,2.5-1.2,3.6c-0.1,0.2-0.1,0.3-0.6,0.2c0,0-0.1,0-0.1,0c0,0,0-0.1,0-0.3
		c0.4-1.4,0.9-3.1,1.4-4.7c0.2-0.6,0.7-0.9,1.5-1c0.3,0,1.7,0,1.9,0c0.8,0,1.3,0.4,1.5,1c0.5,1.7,1,3.3,1.4,4.7
		C-136.5,12.1-136.6,12.2-136.6,12.2z"/>
	<path class="st1" d="M-124.6,7.4c-0.1-1.3-0.8-2-2.1-2.1c-0.4,0-0.9,0-1.4,0c0,0,0,0,0,0c-0.1,0-0.2,0-0.3,0c-0.1,0-0.2,0-0.3,0
		c0,0,0,0,0,0c-0.5,0-0.9,0-1.3,0c-1.4,0.1-2.1,0.8-2.1,2.1c-0.1,1.2-0.1,2.5,0,3.7c0,0.5,0,1,0,1.5c0,0.1,0,0.2,0,0.2
		c0,0,0,0,0,0.1c0.1,0.6,0.4,0.8,0.9,0.8c0,0,0,0,0,0c0.2,0,0.4-0.1,0.5-0.2l0.1,0.1l0,2.2c0,1.3,0,4.2,0.1,4.4
		c0.2,0.6,0.6,0.9,1.2,0.9c0,0,0.1,0,0.1,0c0.4,0,0.7-0.2,0.9-0.4c0.2,0.3,0.5,0.4,1,0.4c0,0,0,0,0,0c0.8,0,1.3-0.5,1.3-1.4
		c0-1.3,0-2.6,0-4l0-1.7c0-0.2,0-0.3,0-0.5l0.1-0.2c0.1,0.1,0.3,0.2,0.5,0.2c0,0,0,0,0,0c0.5,0,0.8-0.3,0.9-0.8c0,0,0,0,0-0.1
		c0-0.1,0-0.1,0-0.2c0-0.5,0-1,0-1.5C-124.5,9.9-124.5,8.7-124.6,7.4z M-125.1,11.1c0,0.5,0,1,0,1.5c0,0-0.1,0.5-0.3,0.5
		c-0.2,0-0.4-0.1-0.4-0.4c0-0.4,0-0.7,0-1.1c0-0.1,0-0.3,0-0.4c0-0.7,0-1.4,0-2.1l0-0.9c0-0.2-0.1-0.3-0.3-0.3
		c-0.2,0-0.3,0.1-0.3,0.3l0,0.9c0,0.7,0,1.4,0,2.1c0,0.1,0,0.3,0,0.4c0,0.4,0,0.8,0,1.2c0,0.1,0,0.2,0.1,0.3l-0.2,0.2
		c-0.1,0-0.2,0.1-0.2,0.3c0,0.3,0,0.5,0,0.7l0,1.6c0,1.3,0,2.6,0,4c0,0.5-0.2,0.8-0.7,0.8c0,0,0,0,0,0c-0.3,0-0.7-0.1-0.7-0.8
		c0-1.3,0-2.6,0-3.9l0-2c0-0.2-0.1-0.3-0.3-0.3c0,0,0,0,0,0c-0.2,0-0.3,0.1-0.3,0.3l0,2c0,1.3,0,2.6,0,3.9c0,0,0,0.1,0,0.1
		c0,0,0,0.1,0,0.1c0,0.1,0,0.5-0.7,0.5c-0.4,0-0.6-0.1-0.7-0.5c0-0.1,0-0.2,0-0.3c0,0,0-0.1,0-0.1c0-1.3,0-2.5,0-3.8l0-2.3
		c0,0,0,0,0,0c0,0-0.1-0.1-0.1-0.2l-0.3-0.3c0-0.1,0.1-0.2,0.1-0.3c0-0.4,0-0.8,0-1.2c0-0.1,0-0.3,0-0.4c0-0.7,0-1.4,0-2.1l0-0.9
		c0-0.2-0.1-0.3-0.3-0.3c-0.2,0-0.3,0.1-0.3,0.3l0,0.9c0,0.7,0,1.4,0,2.1c0,0.1,0,0.3,0,0.4c0,0.4,0,0.7,0,1.1
		c0,0.3-0.2,0.4-0.4,0.4c-0.1,0-0.2,0-0.3-0.4c0,0,0-0.1,0-0.1c0,0,0-0.1,0-0.1c0-0.5,0-1,0-1.5c0-1.2,0-2.5,0-3.7
		c0-1,0.5-1.5,1.6-1.5c0.6,0,1.1,0,1.7,0c0.6,0,1.1,0,1.7,0c1,0.1,1.5,0.5,1.6,1.5C-125.1,8.7-125.1,9.9-125.1,11.1z"/>
</g>
<path class="st0" d="M-99.9,11.5c-0.1,0.1-0.2,0.2-0.2,0.2c-0.7,0.7-1.4,1.4-2.1,2.1c-2.7,2.7-5.3,5.3-8,8c-0.2,0.2-0.3,0.2-0.5,0
	c-2.1-2.1-4.2-4.2-6.3-6.3c-1.3-1.3-2.6-2.6-3.9-3.9c-0.1-0.1-0.2-0.2,0-0.4c3.4-3.4,6.8-6.8,10.1-10.1c0.2-0.2,0.3-0.2,0.4,0
	c3.4,3.4,6.7,6.7,10.1,10.1C-100.1,11.4-100,11.4-99.9,11.5z M-103.5,14.6c0.1-0.1,0.2-0.2,0.2-0.2c0.9-0.9,1.8-1.8,2.7-2.6
	c0.2-0.2,0.2-0.2,0-0.4c-1.9-1.9-3.8-3.8-5.7-5.7c-0.2-0.2-0.2-0.1-0.4,0c-0.9,0.9-1.8,1.8-2.7,2.7c-0.2,0.2-0.1,0.2,0,0.4
	c0.4,0.4,0.7,0.7,1.1,1.1c0.1,0.1,0.2,0.1,0,0.3c-0.1,0.1-0.2,0.1-0.3,0c-0.3-0.3-0.7-0.7-1-1c-0.2-0.2-0.3-0.2-0.5,0
	c-0.8,0.8-1.6,1.6-2.4,2.5c-0.1,0.1-0.2,0.2-0.4,0c-0.1-0.2,0-0.2,0.1-0.3c1.9-1.9,3.8-3.8,5.8-5.8c0.2-0.2,0.2-0.3,0-0.4
	c-1.1-1.1-2.2-2.2-3.3-3.3c-0.1-0.1-0.2-0.2-0.4,0c-2.3,2.3-4.7,4.7-7,7c-0.2,0.2-0.2,0.2,0,0.4c0.5,0.5,1,1,1.5,1.5
	c0.1,0.1,0.2,0.2,0.1,0.3c-0.2,0.2-0.2,0-0.3-0.1c-0.5-0.5-1-1-1.5-1.5c-0.1-0.1-0.2-0.2-0.4,0c-0.7,0.7-1.3,1.3-2,2
	c-0.1,0.1-0.1,0.2,0,0.3c1.1,1.1,2.3,2.3,3.4,3.4c0.1,0.1,0.2,0.1,0.3,0c0.6-0.6,1.2-1.2,1.8-1.8c0.1-0.1,0.4-0.3,0.4-0.4
	c0-0.1-0.2-0.3-0.4-0.4c-0.1-0.1-0.1-0.2,0-0.3c0.1-0.1,0.2-0.1,0.2,0c0.2,0.2,0.3,0.4,0.5,0.5c0.1,0.1,0.1,0.2,0,0.3
	c-0.7,0.7-1.3,1.3-2,2c-0.5,0.5-0.5,0.5,0,1c1.8,1.8,3.6,3.5,5.3,5.3c0.2,0.2,0.3,0.2,0.5,0c2-2.1,4.1-4.1,6.1-6.2
	c0.4-0.4,0.4-0.4,0-0.7c-0.7-0.7-1.3-1.4-2-2c-0.1-0.1-0.1-0.2,0-0.3c0.1-0.1,0.2,0,0.3,0.1C-105.1,13-104.3,13.8-103.5,14.6z"/>
<g>
	<g>
		<g>
			<path class="st6" d="M-83.6,22.3h-5.8c-1.2,0-2.2-1-2.2-2.2V9.2c0-0.1,0-0.1,0.1-0.1c1.1-1,2.4-1.1,3.7-1.1c0.5,0,1-0.1,1.5-0.1
				c1.4-0.2,2.2-1.3,2.2-2.2c0-0.7-0.6-1.1-1.4-1.1l0,0c-0.9,0-2,0.5-2.9,1c-0.8,0.4-1.6,0.8-2.2,0.8c-0.5,0-0.8-0.2-1-0.7
				c0,0,0,0,0,0c-0.2-0.8,0-1.7,0.7-2.5c1.1-1.4,3.3-2.4,5.3-2.4c1.3,0,2.4,0.4,3.2,1.2c0.9,0.9,1.3,2.2,1.3,3.9c0,1.4,0,2.8,0,4.1
				l0,0.6v9.6C-81.5,21.4-82.4,22.3-83.6,22.3z M-91.3,9.3v10.9c0,1,0.8,1.8,1.8,1.8h5.8c1,0,1.8-0.8,1.8-1.8l0-10.2
				c0-1.3,0-2.7,0-4.1c0-1.6-0.4-2.9-1.2-3.7c-0.7-0.7-1.7-1.1-2.9-1.1c-1.9,0-3.9,0.9-5,2.2c-0.6,0.7-0.8,1.4-0.6,2.1
				c0.1,0.3,0.4,0.4,0.7,0.4c0.5,0,1.3-0.4,2-0.7c1-0.5,2.1-1,3.1-1l0.1,0c1.3,0,1.7,0.8,1.8,1.4c0.1,1.1-0.8,2.3-2.5,2.6
				c-0.5,0.1-1.1,0.1-1.6,0.1C-89.1,8.4-90.2,8.4-91.3,9.3z"/>
		</g>
		<g>
			<path class="st6" d="M-86.2,13.5h-1.2c-1.2,0-2.1-0.9-2.1-2.1s0.9-2.1,2.1-2.1h1.2c1.2,0,2.1,0.9,2.1,2.1S-85,13.5-86.2,13.5z
				 M-87.4,9.7c-1,0-1.7,0.8-1.7,1.8s0.8,1.8,1.7,1.8h1.2c1,0,1.7-0.8,1.7-1.8s-0.8-1.8-1.7-1.8H-87.4z"/>
		</g>
		<g>
			<path class="st6" d="M-86.8,20.7c-0.1,0-0.2-0.1-0.2-0.2v-6.9c0-0.1,0.1-0.2,0.2-0.2c0.1,0,0.2,0.1,0.2,0.2v6.9
				C-86.6,20.6-86.7,20.7-86.8,20.7z"/>
		</g>
		<g>
			<path class="st6" d="M-85.3,19.9h-1.5c-0.1,0-0.2-0.1-0.2-0.2c0-0.1,0.1-0.2,0.2-0.2h1.5c0.1,0,0.2,0.1,0.2,0.2
				C-85.1,19.8-85.2,19.9-85.3,19.9z"/>
		</g>
		<g>
			<path class="st6" d="M-85.7,18.6h-1c-0.1,0-0.2-0.1-0.2-0.2c0-0.1,0.1-0.2,0.2-0.2h1c0.1,0,0.2,0.1,0.2,0.2
				C-85.6,18.5-85.6,18.6-85.7,18.6z"/>
		</g>
		<g>
			<path class="st6" d="M-85.4,17.3h-1.3c-0.1,0-0.2-0.1-0.2-0.2c0-0.1,0.1-0.2,0.2-0.2h1.3c0.1,0,0.2,0.1,0.2,0.2
				C-85.3,17.2-85.3,17.3-85.4,17.3z"/>
		</g>
		<g>
			<path class="st6" d="M-86.2,12.6h-1.1c-0.6,0-1.2-0.5-1.2-1.2c0-0.6,0.5-1.2,1.2-1.2h1.1c0.6,0,1.2,0.5,1.2,1.2
				C-85.1,12.1-85.6,12.6-86.2,12.6z M-87.3,10.6c-0.4,0-0.8,0.4-0.8,0.8c0,0.4,0.4,0.8,0.8,0.8h1.1c0.4,0,0.8-0.4,0.8-0.8
				c0-0.4-0.4-0.8-0.8-0.8H-87.3z"/>
		</g>
	</g>
</g>
<path class="st6" d="M-51.6,10.5c-0.3,0-0.5,0.1-0.7,0.3V8.3c0-1.2-0.9-2.2-2-2.2h-7.2c0,0,0,0-0.1,0s0,0-0.1,0H-69
	c-1.1,0-2,1-2,2.2v2.5c-0.2-0.2-0.4-0.3-0.7-0.3c-0.6,0-1.1,0.5-1.1,1.1v3c0,0.5,0.2,1,0.5,1.4c0.3,0.4,0.8,0.6,1.3,0.6c0,0,0,0,0,0
	h0.5v3.1c0,0.1,0.1,0.2,0.2,0.2h0.7c0.1,0,0.2-0.1,0.2-0.2v-3.1H-54v3.1c0,0.1,0.1,0.2,0.2,0.2h0.7c0.1,0,0.2-0.1,0.2-0.2v-3.1h0.5
	c0,0,0,0,0,0c0.5,0,1-0.2,1.3-0.6c0.4-0.4,0.5-0.9,0.5-1.4v-3C-50.6,11-51,10.5-51.6,10.5z M-61.5,6.5h7.1c0.9,0,1.7,0.8,1.7,1.8
	v3.3V13c0,0-0.1-0.1-0.1-0.1c-0.2-0.2-0.5-0.4-0.9-0.4h-7.8V6.5z M-61.5,14.4L-61.5,14.4v-1.7h7.8c0,0,0,0,0,0
	c0.3,0,0.5,0.1,0.7,0.3c0.1,0.1,0.2,0.2,0.2,0.4v0.9v0.1v0L-61.5,14.4L-61.5,14.4z M-70.7,11.6V8.3c0-1,0.8-1.8,1.7-1.8h7.1v6h-7.8
	c-0.3,0-0.6,0.1-0.9,0.4c0,0-0.1,0.1-0.1,0.1V11.6z M-70.7,14.4L-70.7,14.4v-1c0.1-0.1,0.1-0.3,0.2-0.4c0.2-0.2,0.5-0.3,0.7-0.3
	c0,0,0,0,0,0h7.8v1.6v0.1v0L-70.7,14.4L-70.7,14.4z M-69.8,19.6h-0.3v-2.9h0.3V19.6z M-53.3,19.6h-0.3v-2.9h0.3V19.6z M-50.9,14.6
	c0,0.9-0.7,1.7-1.5,1.7c0,0,0,0,0,0h-18.5c0,0,0,0,0,0c-0.9,0-1.5-0.8-1.5-1.7v-3c0-0.4,0.3-0.8,0.7-0.8s0.7,0.3,0.7,0.8v2.9v0.1
	c0,0.1,0.1,0.2,0.2,0.2h18.4c0.1,0,0.2-0.1,0.2-0.2v-0.1v-2.9c0-0.4,0.3-0.8,0.7-0.8c0.4,0,0.7,0.3,0.7,0.8V14.6z"/>
<circle class="st7" cx="-37.7" cy="11.9" r="10.4"/>
<g>
	<polygon class="st7" points="-32.2,18.6 -39.7,15.3 -39.7,9.3 -32.4,6.1 	"/>
	<path class="st7" d="M-39.7,15.3h-1.3c-1.7,0-3-1.4-3-3v0c0-1.7,1.4-3,3-3h1.3V15.3z"/>
	<line class="st7" x1="-44" y1="11.3" x2="-42.4" y2="11.3"/>
	<line class="st7" x1="-44" y1="13.1" x2="-42.4" y2="13.1"/>
</g>
<circle class="st7" cx="-37.6" cy="11.9" r="10.3"/>
<line class="st7" x1="-44" y1="17.5" x2="-45.3" y2="18.7"/>
<line class="st7" x1="-30.6" y1="4.4" x2="-37.7" y2="11.3"/>
<g>
	<g>
		<g>
			<path class="st1" d="M-5.4,21.5h-17c-0.4,0-0.8-0.2-1-0.4c-0.3-0.3-0.4-0.6-0.4-1V3c0-0.4,0.2-0.8,0.4-1c0.3-0.3,0.6-0.4,1-0.4
				h17c0.4,0,0.7,0.1,1,0.4c0.3,0.3,0.4,0.6,0.4,1v17c0,0.4-0.2,0.7-0.4,1C-4.6,21.3-5,21.5-5.4,21.5z M-22.4,2.2
				c-0.2,0-0.4,0.1-0.6,0.2c-0.2,0.2-0.2,0.4-0.2,0.6v17c0,0.2,0.1,0.4,0.2,0.6c0.2,0.2,0.4,0.2,0.6,0.2h17c0.2,0,0.4-0.1,0.6-0.2
				c0.2-0.2,0.2-0.4,0.2-0.6V3c0-0.2-0.1-0.4-0.2-0.6c-0.2-0.2-0.4-0.2-0.6-0.2H-22.4z"/>
		</g>
	</g>
	<g>
		<g>
			<path class="st1" d="M-20.3,18.3c-0.1,0-0.2,0-0.2-0.1l-3.2-3.2c-0.1-0.1-0.1-0.3,0-0.4c0.1-0.1,0.3-0.1,0.4,0l3.2,3.2
				c0.1,0.1,0.1,0.3,0,0.4C-20.1,18.2-20.2,18.3-20.3,18.3z"/>
		</g>
		<g>
			<path class="st1" d="M-10.6,21.5c-0.1,0-0.2,0-0.2-0.1l-9.6-9.6c-0.1-0.1-0.1-0.3,0-0.4c0.1-0.1,0.3-0.1,0.4,0l9.6,9.6
				c0.1,0.1,0.1,0.3,0,0.4C-10.5,21.5-10.6,21.5-10.6,21.5z"/>
		</g>
		<g>
			<path class="st1" d="M-7.4,18.3c-0.1,0-0.2,0-0.2-0.1l-3.2-3.2c-0.1-0.1-0.1-0.3,0-0.4c0.1-0.1,0.3-0.1,0.4,0l3.2,3.2
				c0.1,0.1,0.1,0.3,0,0.4C-7.3,18.2-7.4,18.3-7.4,18.3z"/>
		</g>
		<g>
			<path class="st1" d="M-13.9,11.8c-0.1,0-0.2,0-0.2-0.1l-3.2-3.2c-0.1-0.1-0.1-0.3,0-0.4c0.1-0.1,0.3-0.1,0.4,0l3.2,3.2
				c0.1,0.1,0.1,0.3,0,0.4C-13.7,11.8-13.8,11.8-13.9,11.8z"/>
		</g>
		<g>
			<path class="st1" d="M-4.2,15.1c-0.1,0-0.2,0-0.2-0.1L-17.3,2.1l0.4-0.4L-4,14.5c0.1,0.1,0.1,0.3,0,0.4
				C-4.1,15-4.1,15.1-4.2,15.1z"/>
		</g>
		<g>
			<path class="st1" d="M-7.4,5.4c-0.1,0-0.2,0-0.2-0.1l-3.2-3.2C-11,2-11,1.8-10.9,1.7c0.1-0.1,0.3-0.1,0.4,0l3.2,3.2
				c0.1,0.1,0.1,0.3,0,0.4C-7.3,5.4-7.4,5.4-7.4,5.4z"/>
		</g>
	</g>
	<g>
		<g>
			<path class="st1" d="M-20.3,5.4c-0.1,0-0.2,0-0.2-0.1c-0.1-0.1-0.1-0.3,0-0.4l3.2-3.2c0.1-0.1,0.3-0.1,0.4,0
				c0.1,0.1,0.1,0.3,0,0.4l-3.2,3.2C-20.1,5.4-20.2,5.4-20.3,5.4z"/>
		</g>
		<g>
			<path class="st1" d="M-20.3,11.8L-20.3,11.8c-0.1,0-0.2,0-0.2-0.1l-3.2-3.2c-0.1-0.1-0.1-0.3,0-0.4l3.2-3.2
				c0.1-0.1,0.3-0.1,0.4,0c0.1,0.1,0.1,0.3,0,0.4l-3,3l2.8,2.8l3-3c0.1-0.1,0.3-0.1,0.4,0c0.1,0.1,0.1,0.3,0,0.4l-3.2,3.2
				C-20.1,11.8-20.2,11.8-20.3,11.8z"/>
		</g>
		<g>
			<path class="st1" d="M-17.1,8.6c-0.1,0-0.2,0-0.2-0.1c-0.1-0.1-0.1-0.3,0-0.4l6.4-6.4c0.1-0.1,0.3-0.1,0.4,0
				c0.1,0.1,0.1,0.3,0,0.4l-6.4,6.4C-16.9,8.6-17,8.6-17.1,8.6z"/>
		</g>
		<g>
			<path class="st1" d="M-23.5,15.1c-0.1,0-0.2,0-0.2-0.1c-0.1-0.1-0.1-0.3,0-0.4l3.2-3.2c0.1-0.1,0.3-0.1,0.4,0
				c0.1,0.1,0.1,0.3,0,0.4l-3.2,3.2C-23.3,15-23.4,15.1-23.5,15.1z"/>
		</g>
		<g>
			<path class="st1" d="M-23.2,21.2c-0.1,0-0.2,0-0.2-0.1c-0.1-0.1-0.1-0.3,0-0.4L-4.8,2c0.1-0.1,0.3-0.1,0.4,0
				c0.1,0.1,0.1,0.3,0,0.4L-23,21.1C-23,21.1-23.1,21.2-23.2,21.2z"/>
		</g>
		<g>
			<path class="st1" d="M-17.1,21.5c-0.1,0-0.2,0-0.2-0.1c-0.1-0.1-0.1-0.3,0-0.4L-4.4,8.1C-4.3,8-4.1,8-4,8.1
				c0.1,0.1,0.1,0.3,0,0.4l-12.9,12.8C-16.9,21.5-17,21.5-17.1,21.5z"/>
		</g>
		<g>
			<path class="st1" d="M-10.6,21.5c-0.1,0-0.2,0-0.2-0.1c-0.1-0.1-0.1-0.3,0-0.4l6.4-6.4c0.1-0.1,0.1-0.1,0.2-0.1
				c0.2,0,0.3,0.1,0.3,0.3c0,0.1,0,0.2-0.1,0.2l-6.4,6.4C-10.5,21.5-10.6,21.5-10.6,21.5z"/>
		</g>
	</g>
</g>
<g>
	<g>
		<path class="st7" d="M2.5,20.3h8.8V6.9c0-2.4-2-4.4-4.4-4.4c-2.4,0-4.4,2-4.4,4.4V20.3z"/>
		<line class="st7" x1="2.5" y1="6.9" x2="11.4" y2="6.9"/>
		<line class="st7" x1="7" y1="6.8" x2="4" y2="3.8"/>
		<line class="st7" x1="7" y1="6.8" x2="9.9" y2="3.8"/>
		<line class="st7" x1="7" y1="2.5" x2="7" y2="6.9"/>
		<path class="st7" d="M11.4,6.9h10.8v14.8h-21V6.9c0-3.2,2.6-5.8,5.8-5.8s5.8,2.6,5.8,5.8"/>
		<rect x="12.7" y="8.2" class="st7" width="8.1" height="12.1"/>
		<line class="st7" x1="16.8" y1="8.2" x2="16.8" y2="20.3"/>
		<line class="st7" x1="20.9" y1="12.3" x2="12.7" y2="12.3"/>
		<line class="st7" x1="20.9" y1="16.4" x2="12.7" y2="16.4"/>
		<polyline class="st7" points="2.6,16.3 5.3,13.7 9.3,17.7 11.4,17.7 		"/>
		<polyline class="st7" points="6.8,15.2 8.3,13.7 11.4,16.7 		"/>
		<circle class="st7" cx="9" cy="10.6" r="1"/>
		<line class="st7" x1="9.7" y1="17.7" x2="6.6" y2="17.7"/>
		<line class="st7" x1="6.3" y1="19.1" x2="3.2" y2="19.1"/>
	</g>
	<line class="st7" x1="11.4" y1="20.3" x2="11.4" y2="21.4"/>
</g>
</svg>
