<?xml version="1.0" encoding="utf-8"?>
<!-- Generator: Adobe Illustrator 27.8.0, SVG Export Plug-In . SVG Version: 6.00 Build 0)  -->
<svg version="1.1" id="Layer_1" xmlns="http://www.w3.org/2000/svg" xmlns:xlink="http://www.w3.org/1999/xlink" x="0px" y="0px"
	 viewBox="0 0 23 23" style="enable-background:new 0 0 23 23;" xml:space="preserve">
<style type="text/css">
	.st0{fill:#5A4596;stroke:#5A4596;stroke-width:0.25;stroke-miterlimit:10;}
	.st1{fill:#5A4596;}
	.st2{fill:none;}
	.st3{fill:none;stroke:#5A4596;stroke-width:0.65;stroke-miterlimit:10;}
	.st4{fill:none;stroke:#5A4596;stroke-width:0.75;stroke-miterlimit:10;}
	.st5{fill:none;stroke:#5A4596;stroke-width:0.25;stroke-miterlimit:10;}
	.st6{fill:#5A4596;stroke:#5A4596;stroke-width:0.15;stroke-miterlimit:10;}
	.st7{fill:none;stroke:#5A4596;stroke-width:0.5;stroke-miterlimit:10;}
</style>
<g>
	<path class="st1" d="M10.7,6.8H4.4c-0.7,0-1.2-0.5-1.2-1.2c0-0.7,0.5-1.2,1.2-1.2h6.3c0.7,0,1.2,0.5,1.2,1.2
		C12,6.2,11.4,6.8,10.7,6.8z M4.4,5C4.1,5,3.9,5.3,3.9,5.6c0,0.3,0.2,0.5,0.5,0.5h6.3c0.3,0,0.5-0.2,0.5-0.5C11.3,5.3,11,5,10.7,5
		H4.4z"/>
	<path class="st1" d="M9.6,5H3.3C2.7,5,2.1,4.5,2.1,3.8c0-0.7,0.5-1.2,1.2-1.2h6.3c0.7,0,1.2,0.5,1.2,1.2C10.9,4.5,10.3,5,9.6,5z
		 M3.3,3.3C3,3.3,2.8,3.5,2.8,3.8c0,0.3,0.2,0.5,0.5,0.5h6.3c0.3,0,0.5-0.2,0.5-0.5c0-0.3-0.2-0.5-0.5-0.5H3.3z"/>
	<path class="st1" d="M11.3,3.3H5c-0.7,0-1.2-0.5-1.2-1.2c0-0.7,0.5-1.2,1.2-1.2h6.3c0.7,0,1.2,0.5,1.2,1.2
		C12.5,2.7,11.9,3.3,11.3,3.3z M5,1.5c-0.3,0-0.5,0.2-0.5,0.5c0,0.3,0.2,0.5,0.5,0.5h6.3c0.3,0,0.5-0.2,0.5-0.5
		c0-0.3-0.2-0.5-0.5-0.5H5z"/>
	<path class="st1" d="M16.7,20.3c-0.1,0-0.2,0-0.2-0.1L3,9.2C2.9,9.1,2.8,8.9,3,8.8c0.1-0.1,0.3-0.2,0.5,0l13.5,11
		c0.1,0.1,0.2,0.3,0,0.5C16.9,20.3,16.8,20.3,16.7,20.3z"/>
	<path class="st1" d="M17.3,22.5H16c-0.8,0-1.4-0.6-1.4-1.4s0.6-1.4,1.4-1.4h1.3c0.8,0,1.4,0.6,1.4,1.4S18.1,22.5,17.3,22.5z
		 M16,20.3c-0.4,0-0.7,0.3-0.7,0.7c0,0.4,0.3,0.7,0.7,0.7h1.3c0.4,0,0.7-0.3,0.7-0.7c0-0.4-0.3-0.7-0.7-0.7H16z"/>
	<path class="st1" d="M6.8,20.3c-0.1,0-0.2,0-0.3-0.1c-0.1-0.1-0.1-0.4,0-0.5l11.7-9.5c0.1-0.1,0.4-0.1,0.5,0c0.1,0.1,0.1,0.4,0,0.5
		L7,20.3C6.9,20.3,6.8,20.3,6.8,20.3z"/>
	<path class="st1" d="M7.5,22.5H6.2c-0.8,0-1.4-0.6-1.4-1.4s0.6-1.4,1.4-1.4h1.3c0.8,0,1.4,0.6,1.4,1.4S8.2,22.5,7.5,22.5z
		 M6.2,20.3c-0.4,0-0.7,0.3-0.7,0.7c0,0.4,0.3,0.7,0.7,0.7h1.3c0.4,0,0.7-0.3,0.7-0.7c0-0.4-0.3-0.7-0.7-0.7H6.2z"/>
	<path class="st1" d="M20.1,10.8h-6.6c-0.2,0-0.3-0.2-0.3-0.3v-4c0-0.2,0.2-0.3,0.3-0.3h6.6c0.2,0,0.3,0.2,0.3,0.3v4
		C20.4,10.7,20.3,10.8,20.1,10.8z M13.8,10.1h5.9V6.8h-5.9V10.1z"/>
	<path class="st1" d="M13.5,9.3H2.2c-0.5,0-0.9-0.4-0.9-0.9V7.8c0-0.9,0.8-1.7,1.7-1.7h10.5c0.2,0,0.3,0.2,0.3,0.3V9
		C13.8,9.2,13.7,9.3,13.5,9.3z M3,6.8c-0.6,0-1,0.5-1,1v0.6c0,0.1,0.1,0.2,0.2,0.2h11V6.8H3z"/>
	<path class="st1" d="M21.1,9.3h-1c-0.2,0-0.3-0.2-0.3-0.3V6.4c0-0.2,0.2-0.3,0.3-0.3h1c0.6,0,1,0.5,1,1v1.2
		C22.1,8.9,21.7,9.3,21.1,9.3z M20.4,8.6h0.7c0.2,0,0.3-0.1,0.3-0.3V7.1c0-0.2-0.1-0.3-0.3-0.3h-0.7V8.6z"/>
	<path class="st1" d="M19.8,6.8h-5.3c-0.2,0-0.4-0.1-0.6-0.3c-0.1-0.2-0.1-0.4-0.1-0.6c0.3-0.8,1.1-2.3,2.7-2.8
		C18.1,2.5,20,2.4,21,2.4c0.3,0,0.5,0.1,0.7,0.3C21.9,2.9,22,3.1,22,3.4c0,0.5-0.4,0.9-0.8,1l-1,0.2l0.4,1.1
		c0.1,0.3,0.1,0.5-0.1,0.8C20.4,6.6,20.1,6.8,19.8,6.8z M21,3.1c-1,0-2.8,0.1-4.2,0.6c-1.3,0.5-2,1.7-2.3,2.5l5.3,0
		c0.1,0,0.1,0,0.1-0.1c0,0,0-0.1,0-0.1l-0.6-1.5c0-0.1,0-0.2,0-0.3C19.5,4,19.6,4,19.7,3.9l1.4-0.2c0.2,0,0.3-0.2,0.3-0.3
		c0-0.1,0-0.2-0.1-0.2C21.2,3.1,21.1,3.1,21,3.1C21,3.1,21,3.1,21,3.1z"/>
	<path class="st1" d="M18.1,4.9c-0.2,0-0.3-0.1-0.3-0.3c0-0.2,0.1-0.4,0.3-0.4l1.6-0.3c0.2,0,0.4,0.1,0.4,0.3c0,0.2-0.1,0.4-0.3,0.4
		L18.1,4.9C18.2,4.9,18.1,4.9,18.1,4.9z"/>
</g>
</svg>
