<?xml version="1.0" encoding="utf-8"?>
<!-- Generator: Adobe Illustrator 27.8.0, SVG Export Plug-In . SVG Version: 6.00 Build 0)  -->
<svg version="1.1" id="Layer_1" xmlns="http://www.w3.org/2000/svg" xmlns:xlink="http://www.w3.org/1999/xlink" x="0px" y="0px"
	 viewBox="0 0 23 23" style="enable-background:new 0 0 23 23;" xml:space="preserve">
<style type="text/css">
	.st0{fill:#5A4596;stroke:#5A4596;stroke-width:0.25;stroke-miterlimit:10;}
	.st1{fill:#5A4596;}
	.st2{fill:none;}
	.st3{fill:none;stroke:#5A4596;stroke-width:0.65;stroke-miterlimit:10;}
	.st4{fill:none;stroke:#5A4596;stroke-width:0.75;stroke-miterlimit:10;}
	.st5{fill:none;stroke:#5A4596;stroke-width:0.25;stroke-miterlimit:10;}
	.st6{fill:#5A4596;stroke:#5A4596;stroke-width:0.15;stroke-miterlimit:10;}
	.st7{fill:none;stroke:#5A4596;stroke-width:0.5;stroke-miterlimit:10;}
</style>
<g>
	<path class="st1" d="M8.6,3.7C8.6,3.7,8.6,3.7,8.6,3.7C8.6,3.8,8.6,3.8,8.6,3.7C8.6,3.8,8.6,3.8,8.6,3.7C8.6,3.7,8.6,3.7,8.6,3.7
		L8.6,3.7z M8.6,4.4c0.3,0,0.6-0.3,0.6-0.6c0-0.3-0.3-0.6-0.6-0.6c-0.3,0-0.6,0.3-0.6,0.6C7.9,4.1,8.2,4.4,8.6,4.4L8.6,4.4z"/>
	<path class="st1" d="M19,21.7v-1.3h2.5v1.3H19L19,21.7z M1.4,2.3h4.4v19.4H1.4V2.3L1.4,2.3z M19,7.6V6h2.5v1.6H19L19,7.6z M19,15.9
		V8.2h2.5v7.7H19L19,15.9z M19,17.8v-1.3h2.5v1.3H19L19,17.8z M19,18.4h2.5v1.3H19V18.4L19,18.4z M11.3,20.4h7v1.3h-7V20.4
		L11.3,20.4z M6.4,18.7h4.3v3H6.4V18.7L6.4,18.7z M10.7,5.4H6.4V2.3h4.3V5.4L10.7,5.4z M15.7,5.4c0-0.1,0-0.1,0-0.2
		c0-0.2-0.1-0.4-0.2-0.5c0.1-0.1,0.2-0.3,0.2-0.5c0-0.4-0.4-0.8-0.8-0.8h-2.5c-0.4,0-0.8,0.4-0.8,0.8c0,0.2,0.1,0.4,0.2,0.5
		c-0.1,0.1-0.2,0.3-0.2,0.5c0,0.1,0,0.1,0,0.2h-0.3V2.3h7v3.1H15.7L15.7,5.4z M12.3,5.3c0-0.1,0.1-0.2,0.2-0.2h2.5
		c0.1,0,0.2,0.1,0.2,0.2c0,0.1,0,0.1-0.1,0.2h-2.6C12.3,5.4,12.3,5.3,12.3,5.3L12.3,5.3z M14.9,4.4h-2.5c-0.1,0-0.2-0.1-0.2-0.2
		c0-0.1,0.1-0.2,0.2-0.2h2.5c0.1,0,0.2,0.1,0.2,0.2C15.1,4.3,15,4.4,14.9,4.4L14.9,4.4z M16.2,15.8v-3.4h1.3v3.4H16.2L16.2,15.8z
		 M14.6,14.6h-2.5c-0.1,0-0.2-0.1-0.2-0.2c0-0.1,0.1-0.2,0.2-0.2h2.5c0.1,0,0.2,0.1,0.2,0.2C14.8,14.5,14.7,14.6,14.6,14.6
		L14.6,14.6z M12.2,15.3h2.5c0.1,0,0.2,0.1,0.2,0.2c0,0.1-0.1,0.2-0.2,0.2h-2.5c-0.1,0-0.2-0.1-0.2-0.2C12,15.3,12.1,15.3,12.2,15.3
		L12.2,15.3z M18.3,17.8l-7,0v-1.4h7V17.8L18.3,17.8z M11.3,18.5l7,0v1.3h-7V18.5L11.3,18.5z M6.4,15.5h4.3V18H6.4V15.5L6.4,15.5z
		 M6.4,12.3h4.3v2.5H6.4V12.3L6.4,12.3z M6.4,9.2h4.3v2.5H6.4V9.2L6.4,9.2z M6.4,6h4.3v2.5H6.4V6L6.4,6z M18.3,15.9h-0.2v-3.7
		c0-0.3-0.2-0.5-0.5-0.5H16c-0.3,0-0.5,0.2-0.5,0.5v3.7h-0.3c0.1-0.1,0.1-0.3,0.1-0.5c0-0.2-0.1-0.4-0.2-0.5
		c0.1-0.1,0.2-0.3,0.2-0.5c0-0.4-0.4-0.8-0.8-0.8h-2.5c-0.4,0-0.8,0.4-0.8,0.8c0,0.2,0.1,0.4,0.2,0.5c-0.1,0.1-0.2,0.3-0.2,0.5
		c0,0.2,0.1,0.3,0.1,0.5h-0.2V6h1c0,0,0.1,0,0.1,0h2.5c0,0,0.1,0,0.1,0h3.3V15.9L18.3,15.9z M21.5,5.4H19V2.3h2.5V5.4L21.5,5.4z
		 M21.8,1.7H1.1C0.9,1.7,0.8,1.8,0.8,2v20c0,0.2,0.1,0.3,0.3,0.3h20.7c0.2,0,0.3-0.1,0.3-0.3V2C22.1,1.8,21.9,1.7,21.8,1.7L21.8,1.7
		z"/>
	<path class="st1" d="M8.6,7.3C8.6,7.3,8.6,7.3,8.6,7.3C8.6,7.3,8.6,7.3,8.6,7.3C8.6,7.3,8.6,7.3,8.6,7.3C8.6,7.3,8.6,7.3,8.6,7.3
		L8.6,7.3z M8.6,6.6C8.2,6.6,8,6.9,8,7.3c0,0.3,0.3,0.6,0.6,0.6s0.6-0.3,0.6-0.6C9.2,6.9,8.9,6.6,8.6,6.6L8.6,6.6z"/>
	<path class="st1" d="M8.6,10.6C8.6,10.6,8.6,10.6,8.6,10.6C8.6,10.5,8.6,10.5,8.6,10.6C8.6,10.5,8.6,10.5,8.6,10.6
		C8.6,10.6,8.6,10.6,8.6,10.6L8.6,10.6z M8.6,9.9C8.3,9.9,8,10.2,8,10.5s0.3,0.6,0.6,0.6c0.3,0,0.6-0.3,0.6-0.6S9,9.9,8.6,9.9
		L8.6,9.9z"/>
	<path class="st1" d="M8.6,13.6C8.6,13.6,8.6,13.6,8.6,13.6C8.6,13.6,8.6,13.6,8.6,13.6C8.6,13.6,8.6,13.6,8.6,13.6
		C8.6,13.6,8.6,13.6,8.6,13.6L8.6,13.6z M8.6,12.9c-0.3,0-0.6,0.3-0.6,0.6c0,0.3,0.3,0.6,0.6,0.6c0.3,0,0.6-0.3,0.6-0.6
		C9.3,13.2,9,12.9,8.6,12.9L8.6,12.9z"/>
	<path class="st1" d="M8.6,16.9C8.6,16.9,8.6,16.8,8.6,16.9C8.6,16.8,8.6,16.8,8.6,16.9C8.6,16.8,8.6,16.8,8.6,16.9
		C8.6,16.8,8.6,16.9,8.6,16.9L8.6,16.9z M8.6,16.2c-0.3,0-0.6,0.3-0.6,0.6c0,0.3,0.3,0.6,0.6,0.6c0.3,0,0.6-0.3,0.6-0.6
		C9.3,16.5,9,16.2,8.6,16.2L8.6,16.2z"/>
	<path class="st1" d="M8.6,20.2C8.6,20.2,8.6,20.2,8.6,20.2C8.6,20.2,8.6,20.2,8.6,20.2C8.6,20.2,8.6,20.2,8.6,20.2
		C8.6,20.2,8.6,20.2,8.6,20.2L8.6,20.2z M8.6,19.6c-0.3,0-0.6,0.3-0.6,0.6c0,0.3,0.3,0.6,0.6,0.6c0.3,0,0.6-0.3,0.6-0.6
		C9.2,19.9,8.9,19.6,8.6,19.6L8.6,19.6z"/>
	<path class="st1" d="M4.9,10.2c-0.2,0-0.3,0.1-0.3,0.3v3.3c0,0.2,0.1,0.3,0.3,0.3c0.2,0,0.3-0.1,0.3-0.3v-3.3
		C5.2,10.4,5.1,10.2,4.9,10.2L4.9,10.2z"/>
</g>
</svg>
