<?xml version="1.0" encoding="utf-8"?>
<!-- Generator: Adobe Illustrator 27.8.0, SVG Export Plug-In . SVG Version: 6.00 Build 0)  -->
<svg version="1.1" id="Layer_1" xmlns="http://www.w3.org/2000/svg" xmlns:xlink="http://www.w3.org/1999/xlink" x="0px" y="0px"
	 viewBox="0 0 23 23" style="enable-background:new 0 0 23 23;" xml:space="preserve">
<style type="text/css">
	.st0{fill:#5A4596;stroke:#5A4596;stroke-width:0.25;stroke-miterlimit:10;}
	.st1{fill:#5A4596;}
	.st2{fill:none;}
	.st3{fill:none;stroke:#5A4596;stroke-width:0.65;stroke-miterlimit:10;}
	.st4{fill:none;stroke:#5A4596;stroke-width:0.75;stroke-miterlimit:10;}
	.st5{fill:none;stroke:#5A4596;stroke-width:0.25;stroke-miterlimit:10;}
	.st6{fill:#5A4596;stroke:#5A4596;stroke-width:0.15;stroke-miterlimit:10;}
	.st7{fill:none;stroke:#5A4596;stroke-width:0.5;stroke-miterlimit:10;}
</style>
<rect x="5" y="3" class="st3" width="3.4" height="2.5"/>
<rect x="5" y="5.5" class="st3" width="3.4" height="5.5"/>
<path class="st3" d="M10.1,20.6V1.3h9.5v17.6c0,0.9-0.8,1.7-1.7,1.7h-1.5H10.1z"/>
<path class="st3" d="M8.4,11V5.5V3H5v2.5V11H8.4z M10.1,1.3v19.3H6.3H4.6c-0.7,0-1.2-0.6-1.2-1.2V1.3H10.1z"/>
<polyline class="st3" points="10.1,1.3 10.1,20.6 6.3,20.6 "/>
<line class="st3" x1="3.3" y1="1.3" x2="10.1" y2="1.3"/>
<line class="st3" x1="10.1" y1="20.6" x2="16.5" y2="20.6"/>
<line class="st3" x1="19.7" y1="1.3" x2="10.1" y2="1.3"/>
<line class="st3" x1="12.2" y1="5.7" x2="12.2" y2="10.1"/>
<polygon class="st3" points="5,5.5 5,3 8.4,3 8.4,5.5 8.4,11 5,11 "/>
<line class="st3" x1="5" y1="5.5" x2="8.4" y2="5.5"/>
<rect x="4.6" y="20.6" class="st3" width="1.7" height="1.4"/>
<polygon class="st3" points="16.5,20.6 17.9,20.6 18.2,20.6 18.2,22 16.5,22 "/>
</svg>
