<?xml version="1.0" encoding="utf-8"?>
<!-- Generator: Adobe Illustrator 27.8.0, SVG Export Plug-In . SVG Version: 6.00 Build 0)  -->
<svg version="1.1" id="Layer_1" xmlns="http://www.w3.org/2000/svg" xmlns:xlink="http://www.w3.org/1999/xlink" x="0px" y="0px"
	 viewBox="0 0 23 23" style="enable-background:new 0 0 23 23;" xml:space="preserve">
<style type="text/css">
	.st0{fill:#5A4596;stroke:#5A4596;stroke-width:0.25;stroke-miterlimit:10;}
	.st1{fill:#5A4596;}
	.st2{fill:none;}
	.st3{fill:none;stroke:#5A4596;stroke-width:0.65;stroke-miterlimit:10;}
	.st4{fill:none;stroke:#5A4596;stroke-width:0.75;stroke-miterlimit:10;}
	.st5{fill:none;stroke:#5A4596;stroke-width:0.25;stroke-miterlimit:10;}
	.st6{fill:#5A4596;stroke:#5A4596;stroke-width:0.15;stroke-miterlimit:10;}
	.st7{fill:none;stroke:#5A4596;stroke-width:0.5;stroke-miterlimit:10;}
</style>
<path class="st1" d="M13.8,12c0.2,0,0.3,0,0.4,0c2.7,0,5.4,0,8.1,0c0.2,0,0.3-0.1,0.5,0.1c0.1,0.2,0,0.4-0.1,0.5
	c-0.9,1.6-1.8,3.2-2.7,4.7c-0.4,0.7-0.8,1.3-1.2,1.9c-0.1,0.2-0.3,0.3-0.6,0.3c-2.1,0-4.2,0.1-6.3,0.1c-2.2,0-4.3,0.1-6.5,0
	c-1.8-0.1-4-1.5-4.8-4.2c-0.7-2.6,0.4-4.8,2.1-6c1.8-1.4,3.7-2.7,5.6-4.1c1.4-1,2.9-1.1,4.3-0.2c1.4,0.9,2.1,2.3,2.1,4.2
	c0,0.9-0.3,1.6-0.7,2.4C13.9,11.8,13.8,11.9,13.8,12z M22,12.6c0,0-0.1,0-0.1,0c-2.8,0-5.6,0-8.5,0c-0.1,0-0.2,0-0.3,0.1
	c-1.2,1-2.4,2-3.6,3c-0.4,0.3-0.7,0.5-1.1,0.9c-0.7,0.8-1.5,1.3-2.5,1.4c-1.5,0.2-2.9-0.7-3.5-2.3c-0.6-1.8,0.1-3.6,1.7-4.1
	c1.5-0.5,2.9,0.6,3,2.2c0,0.8-0.3,1.4-0.9,1.8c-0.6,0.4-1.1,0.4-1.7,0c-0.8-0.5-0.9-1.7-0.3-2.4c0.6-0.6,1.6-0.4,1.8,0.4
	C6.2,14.3,5.8,15,5.2,15c-0.2,0-0.3-0.1-0.3-0.3c0-0.2,0.1-0.3,0.2-0.3c0.3,0,0.4-0.2,0.4-0.5c0-0.3-0.2-0.5-0.5-0.5
	c-0.4,0-0.7,0.3-0.8,0.7c-0.1,0.6,0.3,1.1,0.8,1.2c0.6,0.1,1.2-0.4,1.4-1c0.2-0.8-0.3-1.8-1-2.1c-0.8-0.3-1.8,0-2.4,0.9
	c-0.7,1.1-0.5,3,0.8,4c1.1,0.8,2.7,0.6,3.7-0.4c1.2-1,1.6-2.4,1.2-4.1c-0.6-3-3.8-4.3-6.1-2.6c-1.1,0.9-1.9,2.1-2,3.7
	c-0.1,2.4,1.4,4.7,3.5,5.3c0.8,0.2,1.6,0.2,2.4,0.2c3.8,0.1,7.5-0.1,11.3-0.1c0.1,0,0.2-0.1,0.3-0.2c0.2-0.4,0.4-0.7,0.6-1.1
	c1-1.6,1.9-3.3,2.9-4.9C21.9,12.8,22,12.7,22,12.6z M9.3,15.2C9.4,15.1,9.4,15,9.5,15c1-0.9,2.1-1.7,3.1-2.6c1.6-1.3,2-3.8,0.8-5.6
	c-1.1-1.8-3.3-2.2-5-1C7.3,6.7,6.2,7.5,5.1,8.3C4.9,8.4,4.8,8.5,4.7,8.6C8,8.4,10.3,11.9,9.3,15.2z"/>
</svg>
