<?xml version="1.0" encoding="utf-8"?>
<!-- Generator: Adobe Illustrator 27.8.0, SVG Export Plug-In . SVG Version: 6.00 Build 0)  -->
<svg version="1.1" id="Layer_1" xmlns="http://www.w3.org/2000/svg" xmlns:xlink="http://www.w3.org/1999/xlink" x="0px" y="0px"
	 viewBox="0 0 23 23" style="enable-background:new 0 0 23 23;" xml:space="preserve">
<style type="text/css">
	.st0{fill:#5A4596;stroke:#5A4596;stroke-width:0.25;stroke-miterlimit:10;}
	.st1{fill:#5A4596;}
	.st2{fill:none;}
	.st3{fill:none;stroke:#5A4596;stroke-width:0.65;stroke-miterlimit:10;}
	.st4{fill:none;stroke:#5A4596;stroke-width:0.75;stroke-miterlimit:10;}
	.st5{fill:none;stroke:#5A4596;stroke-width:0.25;stroke-miterlimit:10;}
	.st6{fill:#5A4596;stroke:#5A4596;stroke-width:0.15;stroke-miterlimit:10;}
	.st7{fill:none;stroke:#5A4596;stroke-width:0.5;stroke-miterlimit:10;}
</style>
<g>
	<g>
		<g>
			<path class="st0" d="M19.2,16.3c0,0-0.1,0-0.1-0.1c-0.1-0.1-0.1-0.2,0-0.2c4-4,4-10.5,0-14.5c-0.1-0.1-0.1-0.2,0-0.2
				c0.1-0.1,0.2-0.1,0.2,0c4.1,4.1,4.1,10.9,0,15C19.3,16.3,19.2,16.3,19.2,16.3z"/>
		</g>
		<g>
			<path class="st0" d="M17.9,15c0,0-0.1,0-0.1-0.1c-0.1-0.1-0.1-0.2,0-0.2c1.6-1.6,2.5-3.7,2.5-6c0-2.3-0.9-4.4-2.5-6
				c-0.1-0.1-0.1-0.2,0-0.2c0.1-0.1,0.2-0.1,0.2,0c1.7,1.7,2.6,3.9,2.6,6.2c0,2.4-0.9,4.6-2.6,6.2C18,15,18,15,17.9,15z"/>
		</g>
		<g>
			<path class="st0" d="M16.6,13.8c0,0-0.1,0-0.1-0.1c-0.1-0.1-0.1-0.2,0-0.2c2.6-2.6,2.6-6.8,0-9.4c-0.1-0.1-0.1-0.2,0-0.2
				c0.1-0.1,0.2-0.1,0.2,0c2.7,2.7,2.7,7.1,0,9.9C16.7,13.7,16.7,13.8,16.6,13.8z"/>
		</g>
		<g>
			<path class="st0" d="M15.3,12.5c0,0-0.1,0-0.1-0.1c-0.1-0.1-0.1-0.2,0-0.2c1.9-1.9,1.9-4.9,0-6.8c-0.1-0.1-0.1-0.2,0-0.2
				c0.1-0.1,0.2-0.1,0.2,0c2,2,2,5.3,0,7.3C15.4,12.4,15.4,12.5,15.3,12.5z"/>
		</g>
		<g>
			<path class="st0" d="M14,11.2c0,0-0.1,0-0.1-0.1c-0.1-0.1-0.1-0.2,0-0.2c1.2-1.2,1.2-3.1,0-4.2c-0.1-0.1-0.1-0.2,0-0.2
				c0.1-0.1,0.2-0.1,0.2,0c1.3,1.3,1.3,3.4,0,4.7C14.1,11.2,14.1,11.2,14,11.2z"/>
		</g>
		<g>
			<path class="st0" d="M4.2,16.3c0,0-0.1,0-0.1-0.1c-4.1-4.1-4.1-10.9,0-15c0.1-0.1,0.2-0.1,0.2,0c0.1,0.1,0.1,0.2,0,0.2
				c-4,4-4,10.5,0,14.5c0.1,0.1,0.1,0.2,0,0.2C4.3,16.3,4.2,16.3,4.2,16.3z"/>
		</g>
		<g>
			<path class="st0" d="M5.5,15c0,0-0.1,0-0.1-0.1c-3.4-3.4-3.4-9,0-12.5c0.1-0.1,0.2-0.1,0.2,0c0.1,0.1,0.1,0.2,0,0.2
				c-3.3,3.3-3.3,8.7,0,12c0.1,0.1,0.1,0.2,0,0.2C5.6,15,5.5,15,5.5,15z"/>
		</g>
		<g>
			<path class="st0" d="M6.8,13.8c0,0-0.1,0-0.1-0.1c-2.7-2.7-2.7-7.2,0-9.9c0.1-0.1,0.2-0.1,0.2,0C7,3.9,7,4,6.9,4.1
				c-2.6,2.6-2.6,6.8,0,9.4c0.1,0.1,0.1,0.2,0,0.2C6.9,13.7,6.8,13.8,6.8,13.8z"/>
		</g>
		<g>
			<path class="st0" d="M8.1,12.5c0,0-0.1,0-0.1-0.1c-2-2-2-5.3,0-7.3c0.1-0.1,0.2-0.1,0.2,0c0.1,0.1,0.1,0.2,0,0.2
				c-1.9,1.9-1.9,4.9,0,6.8c0.1,0.1,0.1,0.2,0,0.2C8.2,12.4,8.1,12.5,8.1,12.5z"/>
		</g>
		<g>
			<path class="st0" d="M9.4,11.2c0,0-0.1,0-0.1-0.1c-1.3-1.3-1.3-3.4,0-4.7c0.1-0.1,0.2-0.1,0.2,0c0.1,0.1,0.1,0.2,0,0.2
				c-1.2,1.2-1.2,3.1,0,4.2c0.1,0.1,0.1,0.2,0,0.2C9.5,11.2,9.4,11.2,9.4,11.2z"/>
		</g>
		<g>
			<path class="st0" d="M11.7,10.2c-0.7,0-1.3-0.6-1.3-1.3c0-0.7,0.6-1.3,1.3-1.3c0.7,0,1.3,0.6,1.3,1.3C13,9.6,12.4,10.2,11.7,10.2
				z M11.7,8c-0.5,0-0.9,0.4-0.9,0.9c0,0.5,0.4,0.9,0.9,0.9c0.5,0,0.9-0.4,0.9-0.9C12.6,8.4,12.2,8,11.7,8z"/>
		</g>
		<g>
			<path class="st0" d="M14.7,22.2H8.7c-0.1,0-0.1,0-0.1-0.1c0,0,0-0.1,0-0.1l2.1-12.5c0-0.1,0.1-0.1,0.1-0.1c0.1,0,0.1,0,0.2,0.1
				c0.2,0.3,0.5,0.4,0.8,0.4c0.3,0,0.6-0.2,0.8-0.4c0-0.1,0.1-0.1,0.2-0.1c0.1,0,0.1,0.1,0.1,0.1L14.9,22c0,0.1,0,0.1,0,0.1
				C14.8,22.2,14.8,22.2,14.7,22.2z M8.9,21.9h5.6l-2-12c-0.5,0.4-1.2,0.4-1.6,0L8.9,21.9z"/>
		</g>
	</g>
</g>
</svg>
