<?xml version="1.0" encoding="utf-8"?>
<!-- Generator: Adobe Illustrator 27.8.0, SVG Export Plug-In . SVG Version: 6.00 Build 0)  -->
<svg version="1.1" id="Layer_1" xmlns="http://www.w3.org/2000/svg" xmlns:xlink="http://www.w3.org/1999/xlink" x="0px" y="0px"
	 viewBox="0 0 23 23" style="enable-background:new 0 0 23 23;" xml:space="preserve">
<style type="text/css">
	.st0{fill:#5A4596;stroke:#5A4596;stroke-width:0.25;stroke-miterlimit:10;}
	.st1{fill:#5A4596;}
	.st2{fill:none;}
	.st3{fill:none;stroke:#5A4596;stroke-width:0.65;stroke-miterlimit:10;}
	.st4{fill:none;stroke:#5A4596;stroke-width:0.75;stroke-miterlimit:10;}
	.st5{fill:none;stroke:#5A4596;stroke-width:0.25;stroke-miterlimit:10;}
	.st6{fill:#5A4596;stroke:#5A4596;stroke-width:0.15;stroke-miterlimit:10;}
	.st7{fill:none;stroke:#5A4596;stroke-width:0.5;stroke-miterlimit:10;}
</style>
<g id="smartphone">
	<g id="Group_27">
		<path id="Vector_51" class="st3" d="M10.5,3.2l0.6-1.9H6.3L7,3.2H10.5z"/>
		<path id="Vector_52" class="st3" d="M3.7,19.5c-0.2,0-0.5,0-0.7-0.1v0.9c0,0.6,0.5,1.2,1.2,1.2h9c0.6,0,1.2-0.5,1.2-1.2v-0.9
			c-0.2,0.1-0.4,0.1-0.7,0.1L3.7,19.5L3.7,19.5z"/>
		<path id="Vector_53" class="st3" d="M3.1,17.6c0,0.4,0.3,0.7,0.7,0.7h10c0.3,0,0.5-0.2,0.6-0.4c-3-0.6-5.3-3.3-5.3-6.5
			c0-3.2,2.3-5.9,5.4-6.5V2.5c0-0.6-0.5-1.2-1.2-1.2h-0.9l-1,3.1H6.1l-1-3.1H4.2c-0.6,0-1.2,0.5-1.2,1.2V17.6z"/>
		<path id="Vector_54" class="st3" d="M17.2,10.2c0-0.8-0.7-1.5-1.5-1.5c-0.4,0-0.8,0.1-1.1,0.4c-0.3,0.3-0.4,0.7-0.4,1.1v2.6
			c0,0.2,0,0.4-0.1,0.6h3.2c-0.1-0.2-0.1-0.4-0.1-0.6V10.2L17.2,10.2z"/>
		<path id="Vector_55" class="st3" d="M15.7,5.9c-3,0-5.5,2.5-5.5,5.5c0,3,2.5,5.5,5.5,5.5s5.5-2.5,5.5-5.5
			C21.2,8.3,18.7,5.9,15.7,5.9L15.7,5.9z M19.2,14.6h-2.9v1.1h-1.2v-1.1h-2.9v-1.2h0.2c0.4,0,0.6-0.3,0.6-0.6v-2.6
			c0-0.7,0.3-1.4,0.8-1.9c0.4-0.4,0.8-0.6,1.3-0.7V7h1.2v0.6c1.2,0.3,2.1,1.4,2.1,2.6v2.5c0,0.4,0.3,0.6,0.6,0.6h0.2V14.6z"/>
	</g>
</g>
</svg>
