<?xml version="1.0" encoding="utf-8"?>
<!-- Generator: Adobe Illustrator 27.8.0, SVG Export Plug-In . SVG Version: 6.00 Build 0)  -->
<svg version="1.1" id="Layer_1" xmlns="http://www.w3.org/2000/svg" xmlns:xlink="http://www.w3.org/1999/xlink" x="0px" y="0px"
	 viewBox="0 0 23 23" style="enable-background:new 0 0 23 23;" xml:space="preserve">
<style type="text/css">
	.st0{fill:#5A4596;stroke:#5A4596;stroke-width:0.25;stroke-miterlimit:10;}
	.st1{fill:#5A4596;}
	.st2{fill:none;}
	.st3{fill:none;stroke:#5A4596;stroke-width:0.65;stroke-miterlimit:10;}
	.st4{fill:none;stroke:#5A4596;stroke-width:0.75;stroke-miterlimit:10;}
	.st5{fill:none;stroke:#5A4596;stroke-width:0.25;stroke-miterlimit:10;}
	.st6{fill:#5A4596;stroke:#5A4596;stroke-width:0.15;stroke-miterlimit:10;}
	.st7{fill:none;stroke:#5A4596;stroke-width:0.5;stroke-miterlimit:10;}
</style>
<g>
	<g>
		<g>
			<path class="st0" d="M21.9,22.2H1.4c-0.1,0-0.2-0.1-0.2-0.2V1.5c0-0.1,0.1-0.2,0.2-0.2h20.5C22,1.3,22,1.4,22,1.5V22
				C22,22.1,22,22.2,21.9,22.2z M1.5,21.8h20.2V1.6H1.5V21.8z"/>
		</g>
		<g>
			<path class="st0" d="M19.4,18.7H5.8c-0.1,0-0.2-0.1-0.2-0.2V17c0-0.1,0.1-0.2,0.2-0.2h1.7v-2.1H5.8c-0.1,0-0.2-0.1-0.2-0.2V9
				c0-0.1,0.1-0.2,0.2-0.2h1.7V6.7H5.8c-0.1,0-0.2-0.1-0.2-0.2V4.9c0-0.1,0.1-0.2,0.2-0.2h13.6c0.1,0,0.2,0.1,0.2,0.2v13.6
				C19.5,18.6,19.4,18.7,19.4,18.7z M6,18.3h13.2V5.1H6v1.2h1.7c0.1,0,0.2,0.1,0.2,0.2V9c0,0.1-0.1,0.2-0.2,0.2H6v5.2h1.7
				c0.1,0,0.2,0.1,0.2,0.2V17c0,0.1-0.1,0.2-0.2,0.2H6V18.3z"/>
		</g>
		<g>
			<path class="st0" d="M7.7,9.1H3.9C3.8,9.1,3.7,9.1,3.7,9V6.5c0-0.1,0.1-0.2,0.2-0.2h3.8c0.1,0,0.2,0.1,0.2,0.2V9
				C7.9,9.1,7.8,9.1,7.7,9.1z M4.1,8.8h3.5V6.7H4.1V8.8z"/>
		</g>
		<g>
			<path class="st0" d="M12.6,14.5c-1.5,0-2.7-1.2-2.7-2.7c0-1.5,1.2-2.7,2.7-2.7c1.5,0,2.7,1.2,2.7,2.7
				C15.3,13.2,14.1,14.5,12.6,14.5z M12.6,9.3c-1.3,0-2.4,1.1-2.4,2.4c0,1.3,1.1,2.4,2.4,2.4c1.3,0,2.4-1.1,2.4-2.4
				C15,10.4,13.9,9.3,12.6,9.3z"/>
		</g>
		<g>
			<path class="st0" d="M7.7,17.2H3.9c-0.1,0-0.2-0.1-0.2-0.2v-2.5c0-0.1,0.1-0.2,0.2-0.2h3.8c0.1,0,0.2,0.1,0.2,0.2V17
				C7.9,17.1,7.8,17.2,7.7,17.2z M4.1,16.8h3.5v-2.1H4.1V16.8z"/>
		</g>
		<g>
			<path class="st0" d="M12.6,12.8c-0.6,0-1-0.5-1-1c0-0.6,0.5-1,1-1c0.6,0,1,0.5,1,1C13.6,12.3,13.1,12.8,12.6,12.8z M12.6,11
				c-0.4,0-0.7,0.3-0.7,0.7c0,0.4,0.3,0.7,0.7,0.7c0.4,0,0.7-0.3,0.7-0.7C13.3,11.3,13,11,12.6,11z"/>
		</g>
		<g>
			<path class="st0" d="M12.6,11c-0.1,0-0.2-0.1-0.2-0.2V7.9c0-0.1,0.1-0.2,0.2-0.2s0.2,0.1,0.2,0.2v2.9C12.7,11,12.7,11,12.6,11z"
				/>
		</g>
		<g>
			<path class="st0" d="M16.4,11.9h-2.9c-0.1,0-0.2-0.1-0.2-0.2c0-0.1,0.1-0.2,0.2-0.2h2.9c0.1,0,0.2,0.1,0.2,0.2
				C16.5,11.8,16.5,11.9,16.4,11.9z"/>
		</g>
		<g>
			<path class="st0" d="M12.6,15.7c-0.1,0-0.2-0.1-0.2-0.2v-2.9c0-0.1,0.1-0.2,0.2-0.2s0.2,0.1,0.2,0.2v2.9
				C12.7,15.6,12.7,15.7,12.6,15.7z"/>
		</g>
		<g>
			<path class="st0" d="M11.7,11.9H8.8c-0.1,0-0.2-0.1-0.2-0.2c0-0.1,0.1-0.2,0.2-0.2h2.9c0.1,0,0.2,0.1,0.2,0.2
				C11.9,11.8,11.8,11.9,11.7,11.9z"/>
		</g>
	</g>
</g>
<g>
	<rect x="-27.6" y="-3.8" class="st2" width="31.1" height="31.1"/>
</g>
</svg>
