<?xml version="1.0" encoding="utf-8"?>
<!-- Generator: Adobe Illustrator 27.8.0, SVG Export Plug-In . SVG Version: 6.00 Build 0)  -->
<svg version="1.1" id="Layer_1" xmlns="http://www.w3.org/2000/svg" xmlns:xlink="http://www.w3.org/1999/xlink" x="0px" y="0px"
	 viewBox="0 0 23 23" style="enable-background:new 0 0 23 23;" xml:space="preserve">
<style type="text/css">
	.st0{fill:#5A4596;stroke:#5A4596;stroke-width:0.25;stroke-miterlimit:10;}
	.st1{fill:#5A4596;}
	.st2{fill:none;}
	.st3{fill:none;stroke:#5A4596;stroke-width:0.65;stroke-miterlimit:10;}
	.st4{fill:none;stroke:#5A4596;stroke-width:0.75;stroke-miterlimit:10;}
	.st5{fill:none;stroke:#5A4596;stroke-width:0.25;stroke-miterlimit:10;}
	.st6{fill:#5A4596;stroke:#5A4596;stroke-width:0.15;stroke-miterlimit:10;}
	.st7{fill:none;stroke:#5A4596;stroke-width:0.5;stroke-miterlimit:10;}
</style>
<g>
	<polygon class="st1" points="1.1,15.6 5,15.6 5,16.9 3.8,16.9 3.8,17.6 10.8,17.6 10.8,16.9 5.7,16.9 5.7,15.6 10.9,15.6 10.9,15 
		1.8,15 1.8,2.1 21.2,2.1 21.2,15 19.3,15 19.3,15.6 21.9,15.6 21.9,1.4 1.1,1.4 	"/>
	<polygon class="st1" points="19.9,3.3 19.9,13 19.3,13 19.3,13.7 20.6,13.7 20.6,2.7 2.4,2.7 2.4,13.7 10.8,13.7 10.8,13 3.1,13 
		3.1,3.3 	"/>
	<path class="st1" d="M11.5,22.1h7.1V10.5h-7.1V22.1z M12.1,11.1H18v10.4h-5.8V11.1z"/>
	<rect x="14.1" y="17.6" class="st1" width="0.6" height="0.6"/>
	<rect x="15.4" y="17.6" class="st1" width="0.6" height="0.6"/>
	<rect x="12.8" y="17.6" class="st1" width="0.6" height="0.6"/>
	<rect x="16.7" y="17.6" class="st1" width="0.6" height="0.6"/>
	<rect x="14.1" y="16.3" class="st1" width="0.6" height="0.6"/>
	<rect x="15.4" y="16.3" class="st1" width="0.6" height="0.6"/>
	<rect x="16.7" y="16.3" class="st1" width="0.6" height="0.6"/>
	<rect x="12.8" y="16.3" class="st1" width="0.6" height="0.6"/>
	<rect x="16.7" y="15" class="st1" width="0.6" height="0.6"/>
	<rect x="12.8" y="15" class="st1" width="0.6" height="0.6"/>
	<rect x="15.4" y="15" class="st1" width="0.6" height="0.6"/>
	<rect x="14.1" y="15" class="st1" width="0.6" height="0.6"/>
	<rect x="15.4" y="13.7" class="st1" width="0.6" height="0.6"/>
	<rect x="12.8" y="13.7" class="st1" width="0.6" height="0.6"/>
	<rect x="14.1" y="13.7" class="st1" width="0.6" height="0.6"/>
	<rect x="16.7" y="13.7" class="st1" width="0.6" height="0.6"/>
	<rect x="12.8" y="11.8" class="st1" width="0.6" height="0.6"/>
	<rect x="16.7" y="11.8" class="st1" width="0.6" height="0.6"/>
	<rect x="-4" y="-3.8" class="st2" width="31.1" height="31.1"/>
</g>
</svg>
