<?xml version="1.0" encoding="utf-8"?>
<!-- Generator: Adobe Illustrator 27.8.0, SVG Export Plug-In . SVG Version: 6.00 Build 0)  -->
<svg version="1.1" id="Layer_1" xmlns="http://www.w3.org/2000/svg" xmlns:xlink="http://www.w3.org/1999/xlink" x="0px" y="0px"
	 viewBox="0 0 23 23" style="enable-background:new 0 0 23 23;" xml:space="preserve">
<style type="text/css">
	.st0{fill:#5A4596;stroke:#5A4596;stroke-width:0.25;stroke-miterlimit:10;}
	.st1{fill:#5A4596;}
	.st2{fill:none;}
	.st3{fill:none;stroke:#5A4596;stroke-width:0.65;stroke-miterlimit:10;}
	.st4{fill:none;stroke:#5A4596;stroke-width:0.75;stroke-miterlimit:10;}
	.st5{fill:none;stroke:#5A4596;stroke-width:0.25;stroke-miterlimit:10;}
	.st6{fill:#5A4596;stroke:#5A4596;stroke-width:0.15;stroke-miterlimit:10;}
	.st7{fill:none;stroke:#5A4596;stroke-width:0.5;stroke-miterlimit:10;}
</style>
<g>
	<path class="st1" d="M18.5,9.1c0.3,0,0.5-0.1,0.7-0.3c0.3-0.3,0.4-0.7,0.4-1.2c-0.1-1.2-1.2-3.4-2.5-4c0.1-0.3,0-0.6-0.1-0.9
		c-0.2-0.3-0.5-0.5-0.8-0.5c-0.3,0-0.5-0.1-0.8-0.2c-1.3-0.3-2.6-0.5-3.8-0.3c-0.2,0-0.5,0.2-0.6,0.3c-0.2-0.3-0.4-0.5-0.7-0.6
		C9.7,1.3,9.2,1.2,8.8,1.4C7,2.1,5.4,3.2,4,4.5c-1.4,1.4-2.4,3-3.1,4.8c-0.2,0.4-0.1,0.9,0.1,1.3c0.1,0.3,0.4,0.5,0.6,0.7
		c-0.2,0.2-0.3,0.4-0.3,0.6c-0.2,1.2,0,2.5,0.3,3.8c0.1,0.3,0.1,0.6,0.2,0.8c0.1,0.3,0.3,0.6,0.5,0.8c0.2,0.1,0.4,0.2,0.6,0.2
		c0.1,0,0.2,0,0.3,0c0.6,1.3,2.7,2.4,4,2.5c0.1,0,0.1,0,0.2,0c0.4,0,0.8-0.1,1.1-0.4c0.2-0.2,0.3-0.5,0.3-0.8c0-0.1-0.5-2-0.7-2.7
		c0.3-0.2,0.5-0.6,0.6-1.1c0-0.3,0.1-0.5,0.2-0.7c0.1-0.2,0.1-0.4,0.2-0.7c0-0.1,0-0.3,0-0.4c0.1,0,0.2,0,0.2,0
		c0.6,0,1.1-0.3,1.5-0.9c0.2-0.3,0.4-0.6,0.6-0.8s0.5-0.5,0.8-0.6c0.6-0.3,0.9-1,0.8-1.7c0.1,0,0.2,0,0.3,0c0.1,0,0.1,0,0.2,0
		c0.3,0,0.5-0.1,0.7-0.2C14.1,9.1,14.3,9,14.6,9c0.5-0.1,0.9-0.3,1.1-0.6C16.4,8.6,18.3,9.1,18.5,9.1C18.4,9.1,18.4,9.1,18.5,9.1
		 M7.9,19c0,0.1,0,0.2-0.1,0.3c-0.1,0.1-0.4,0.2-0.7,0.2c-1.1-0.1-2.8-1.1-3.4-2.1l3.5-0.9C7.6,17.4,7.9,18.9,7.9,19 M8.2,13.7
		c0,0.2-0.1,0.4-0.1,0.6C8,14.5,7.9,14.7,7.8,15c-0.1,0.5-0.2,0.6-0.4,0.7L3,16.9c-0.1,0-0.3,0-0.4-0.1c-0.1-0.1-0.2-0.2-0.2-0.4
		c-0.1-0.3-0.1-0.5-0.2-0.8c-0.2-1.2-0.5-2.4-0.3-3.6c0-0.2,0.1-0.3,0.2-0.4c0.1-0.1,0.2-0.1,0.3-0.1c0,0,0,0,0,0l3.3,0.9l2,0.5
		C8,13.1,8.2,13.4,8.2,13.7 M11.6,10.5c-0.3,0.2-0.7,0.4-1,0.7c-0.3,0.3-0.5,0.6-0.7,1c-0.2,0.4-0.7,0.6-1.1,0.5l-2.9-0.8L2.7,11
		c0,0-0.1,0-0.1,0l-0.4-0.1c-0.3-0.1-0.5-0.3-0.6-0.5c-0.1-0.3-0.1-0.5,0-0.8c0.7-1.7,1.7-3.3,3-4.6C5.8,3.7,7.3,2.7,9,2
		c0.1,0,0.2-0.1,0.3-0.1c0.2,0,0.3,0,0.4,0.1c0.3,0.1,0.4,0.4,0.5,0.6l0.1,0.5c0,0,0,0.1,0,0.1L11,5.1l1.1,4.2
		C12.2,9.8,12,10.2,11.6,10.5 M14.5,8.4c-0.3,0-0.6,0.1-0.8,0.2c-0.2,0.1-0.4,0.1-0.6,0.1c-0.3,0-0.5-0.1-0.6-0.4L11.6,5l-0.5-2
		c0-0.1,0-0.2,0.1-0.3c0.1-0.1,0.2-0.2,0.4-0.2c0.3-0.1,0.6-0.1,0.9-0.1c0.9,0,1.8,0.2,2.7,0.4c0.3,0.1,0.6,0.1,0.8,0.2
		c0.2,0,0.3,0.1,0.4,0.2c0.1,0.1,0.1,0.3,0.1,0.4L15.2,8C15.1,8.1,15,8.3,14.5,8.4 M16.8,4.3c1,0.5,2,2.3,2.1,3.4
		c0,0.3,0,0.6-0.2,0.7c-0.1,0.1-0.2,0.1-0.2,0.1c-0.1,0-1.6-0.4-2.6-0.7L16.8,4.3z"/>
	<path class="st1" d="M7.6,3.4C6.6,4,5.7,4.7,4.9,5.5C3.7,6.7,2.7,8.2,2.1,9.8c-0.1,0.2,0,0.4,0.2,0.4c0,0,0.1,0,0.1,0
		c0.1,0,0.3-0.1,0.3-0.2c0.6-1.5,1.5-3,2.7-4.1C6.1,5.2,7,4.5,7.9,4c0.2-0.1,0.2-0.3,0.1-0.4C8,3.4,7.8,3.3,7.6,3.4"/>
	<path class="st1" d="M9.3,2.6C9.1,2.7,8.9,2.8,8.7,2.9C8.5,2.9,8.4,3.1,8.5,3.3c0.1,0.1,0.2,0.2,0.3,0.2c0,0,0.1,0,0.1,0
		c0.2-0.1,0.4-0.2,0.6-0.2C9.7,3.2,9.8,3,9.7,2.8C9.6,2.6,9.4,2.6,9.3,2.6"/>
	<path class="st1" d="M3.1,12.7c0-0.2-0.1-0.3-0.3-0.3c-0.2,0-0.3,0.1-0.3,0.3c0,0.9,0.2,1.9,0.4,2.8l0.1,0.4c0,0.2,0.2,0.3,0.3,0.3
		c0,0,0,0,0.1,0c0.2,0,0.3-0.2,0.3-0.4l-0.1-0.4C3.3,14.5,3.1,13.5,3.1,12.7"/>
	<path class="st1" d="M6.9,18.1c-0.3-0.1-0.7-0.3-1-0.5c-0.2-0.1-0.4,0-0.4,0.1c-0.1,0.2,0,0.4,0.1,0.4c0.4,0.2,0.8,0.4,1.2,0.5
		c0,0,0.1,0,0.1,0c0.1,0,0.3-0.1,0.3-0.2C7.2,18.3,7.1,18.1,6.9,18.1"/>
	<path class="st1" d="M15.3,4.1c0.2,0,0.3-0.1,0.3-0.3c0-0.2-0.1-0.3-0.3-0.4L15,3.4C14,3.2,13,3,12.2,3c-0.2,0-0.3,0.2-0.3,0.3
		c0,0.2,0.2,0.3,0.3,0.3c0.8,0,1.7,0.2,2.7,0.3L15.3,4.1C15.3,4.1,15.3,4.1,15.3,4.1"/>
	<path class="st1" d="M17.6,6.1c-0.1-0.2-0.3-0.2-0.4-0.1C17,6.1,17,6.3,17,6.4c0.2,0.4,0.4,0.7,0.5,1c0,0.1,0.2,0.2,0.3,0.2
		c0,0,0.1,0,0.1,0c0.2-0.1,0.3-0.2,0.2-0.4C18,6.9,17.8,6.5,17.6,6.1"/>
	<path class="st1" d="M19.4,18.8c1.1,0,2-0.9,2-2s-0.9-2-2-2h-0.2v-1.3h-8.4v5.1c0,0.6,0.3,1.2,0.7,1.6h-3v1.2l2.8,0.7l7.2,0
		l2.9-0.7v-1.2h-2.9c0.3-0.3,0.6-0.8,0.7-1.3H19.4z M19.4,15.3c0.8,0,1.4,0.6,1.4,1.4c0,0.8-0.6,1.4-1.4,1.4h-0.2v-2.8H19.4z
		 M20.8,20.7L20.8,20.7l-2.3,0.6h-7l-2.3-0.6v-0.1h3.9H17H20.8z M18.6,18.4c0,0.9-0.7,1.6-1.6,1.6h-3.9c-0.9,0-1.6-0.7-1.6-1.6V14
		h7.1V18.4z"/>
	<rect x="12.1" y="15.9" class="st1" width="0.6" height="2.6"/>
	<rect x="12.1" y="14.6" class="st1" width="0.6" height="0.6"/>
	<path class="st1" d="M17,11.4c-0.3,0.3-0.4,0.6-0.4,1v0.2h0.6v-0.2c0-0.2,0.1-0.4,0.2-0.6c0.3-0.3,0.4-0.6,0.4-1v-0.2h-0.6v0.2
		C17.3,11.1,17.2,11.3,17,11.4"/>
	<path class="st1" d="M15.3,10.8c0,0.2-0.1,0.4-0.2,0.6c-0.3,0.3-0.4,0.6-0.4,1v0.2h0.6v-0.2c0-0.2,0.1-0.4,0.2-0.6
		c0.3-0.3,0.4-0.6,0.4-1v-0.2h-0.6V10.8z"/>
	<path class="st1" d="M13.4,10.8c0,0.2-0.1,0.4-0.2,0.6c-0.3,0.3-0.4,0.6-0.4,1v0.2h0.6v-0.2c0-0.2,0.1-0.4,0.2-0.6
		c0.3-0.3,0.4-0.6,0.4-1v-0.2h-0.6V10.8z"/>
</g>
</svg>
