<?xml version="1.0" encoding="utf-8"?>
<!-- Generator: Adobe Illustrator 27.8.0, SVG Export Plug-In . SVG Version: 6.00 Build 0)  -->
<svg version="1.1" id="Layer_1" xmlns="http://www.w3.org/2000/svg" xmlns:xlink="http://www.w3.org/1999/xlink" x="0px" y="0px"
	 viewBox="0 0 23 23" style="enable-background:new 0 0 23 23;" xml:space="preserve">
<style type="text/css">
	.st0{fill:#5A4596;stroke:#5A4596;stroke-width:0.25;stroke-miterlimit:10;}
	.st1{fill:#5A4596;}
	.st2{fill:none;}
	.st3{fill:none;stroke:#5A4596;stroke-width:0.65;stroke-miterlimit:10;}
	.st4{fill:none;stroke:#5A4596;stroke-width:0.75;stroke-miterlimit:10;}
	.st5{fill:none;stroke:#5A4596;stroke-width:0.25;stroke-miterlimit:10;}
	.st6{fill:#5A4596;stroke:#5A4596;stroke-width:0.15;stroke-miterlimit:10;}
	.st7{fill:none;stroke:#5A4596;stroke-width:0.5;stroke-miterlimit:10;}
</style>
<g>
	<g>
		<g>
			<path class="st5" d="M4,22.3c-1.1,0-2-0.9-2-2c0-1.1,0.9-2,2-2c1.1,0,2,0.9,2,2C6,21.4,5.1,22.3,4,22.3z M4,18.7
				c-0.9,0-1.7,0.7-1.7,1.7C2.4,21.3,3.1,22,4,22c0.9,0,1.7-0.7,1.7-1.7C5.7,19.4,5,18.7,4,18.7z"/>
		</g>
		<g>
			<path class="st5" d="M21.1,20.2c-0.1,0-0.2-0.1-0.2-0.2c0-9.3-7.6-16.9-16.9-16.9C4,3.1,3.9,3,3.9,3C3.9,2.9,4,2.8,4,2.8
				c9.5,0,17.2,7.7,17.2,17.2C21.2,20.1,21.2,20.2,21.1,20.2z"/>
		</g>
		<g>
			<path class="st5" d="M18.1,20.2C18,20.2,18,20.1,18,20C18,12.3,11.7,6.1,4,6.1C4,6.1,3.9,6,3.9,5.9C3.9,5.8,4,5.8,4,5.8
				c7.8,0,14.2,6.4,14.2,14.2C18.3,20.1,18.2,20.2,18.1,20.2z"/>
		</g>
		<g>
			<path class="st5" d="M15.1,20.2C15,20.2,15,20.1,15,20C15,14,10.1,9.1,4,9.1C4,9.1,3.9,9,3.9,8.9C3.9,8.8,4,8.7,4,8.7
				c6.2,0,11.3,5.1,11.3,11.3C15.3,20.1,15.2,20.2,15.1,20.2z"/>
		</g>
		<g>
			<path class="st5" d="M12.2,20.2c-0.1,0-0.2-0.1-0.2-0.2c0-4.4-3.6-8-8-8C4,12,3.9,12,3.9,11.9c0-0.1,0.1-0.2,0.2-0.2
				c4.6,0,8.3,3.7,8.3,8.3C12.3,20.1,12.2,20.2,12.2,20.2z"/>
		</g>
		<g>
			<path class="st5" d="M9.2,20.2C9.1,20.2,9,20.1,9,20c0-2.8-2.2-5-5-5C4,15,3.9,15,3.9,14.9S4,14.7,4,14.7c2.9,0,5.3,2.4,5.3,5.3
				C9.3,20.1,9.3,20.2,9.2,20.2z"/>
		</g>
	</g>
</g>
</svg>
