<?xml version="1.0" encoding="utf-8"?>
<!-- Generator: Adobe Illustrator 27.8.0, SVG Export Plug-In . SVG Version: 6.00 Build 0)  -->
<svg version="1.1" id="Layer_1" xmlns="http://www.w3.org/2000/svg" xmlns:xlink="http://www.w3.org/1999/xlink" x="0px" y="0px"
	 viewBox="0 0 23 23" style="enable-background:new 0 0 23 23;" xml:space="preserve">
<style type="text/css">
	.st0{fill:#5A4596;stroke:#5A4596;stroke-width:0.25;stroke-miterlimit:10;}
	.st1{fill:#5A4596;}
	.st2{fill:none;}
	.st3{fill:none;stroke:#5A4596;stroke-width:0.65;stroke-miterlimit:10;}
	.st4{fill:none;stroke:#5A4596;stroke-width:0.75;stroke-miterlimit:10;}
	.st5{fill:none;stroke:#5A4596;stroke-width:0.25;stroke-miterlimit:10;}
	.st6{fill:#5A4596;stroke:#5A4596;stroke-width:0.15;stroke-miterlimit:10;}
	.st7{fill:none;stroke:#5A4596;stroke-width:0.5;stroke-miterlimit:10;}
</style>
<g>
	<g>
		<g>
			<path class="st6" d="M14.2,22.3H8.4c-1.2,0-2.2-1-2.2-2.2V9.2c0-0.1,0-0.1,0.1-0.1C7.4,8.1,8.7,8,10,8c0.5,0,1-0.1,1.5-0.1
				c1.4-0.2,2.2-1.3,2.2-2.2c0-0.7-0.6-1.1-1.4-1.1l0,0c-0.9,0-2,0.5-2.9,1C8.4,5.9,7.7,6.2,7.1,6.2c-0.5,0-0.8-0.2-1-0.7
				c0,0,0,0,0,0c-0.2-0.8,0-1.7,0.7-2.5C7.8,1.7,10,0.7,12,0.7c1.3,0,2.4,0.4,3.2,1.2c0.9,0.9,1.3,2.2,1.3,3.9c0,1.4,0,2.8,0,4.1
				l0,0.6v9.6C16.4,21.4,15.4,22.3,14.2,22.3z M6.6,9.3v10.9c0,1,0.8,1.8,1.8,1.8h5.8c1,0,1.8-0.8,1.8-1.8L16,10c0-1.3,0-2.7,0-4.1
				c0-1.6-0.4-2.9-1.2-3.7c-0.7-0.7-1.7-1.1-2.9-1.1C10.1,1.1,8,2,7,3.3C6.4,4,6.2,4.8,6.4,5.5c0.1,0.3,0.4,0.4,0.7,0.4
				c0.5,0,1.3-0.4,2-0.7c1-0.5,2.1-1,3.1-1l0.1,0c1.3,0,1.7,0.8,1.8,1.4c0.1,1.1-0.8,2.3-2.5,2.6C11,8.3,10.5,8.3,10,8.3
				C8.8,8.4,7.6,8.4,6.6,9.3z"/>
		</g>
		<g>
			<path class="st6" d="M11.7,13.5h-1.2c-1.2,0-2.1-0.9-2.1-2.1s0.9-2.1,2.1-2.1h1.2c1.2,0,2.1,0.9,2.1,2.1S12.9,13.5,11.7,13.5z
				 M10.5,9.7c-1,0-1.7,0.8-1.7,1.8s0.8,1.8,1.7,1.8h1.2c1,0,1.7-0.8,1.7-1.8s-0.8-1.8-1.7-1.8H10.5z"/>
		</g>
		<g>
			<path class="st6" d="M11.1,20.7c-0.1,0-0.2-0.1-0.2-0.2v-6.9c0-0.1,0.1-0.2,0.2-0.2c0.1,0,0.2,0.1,0.2,0.2v6.9
				C11.3,20.6,11.2,20.7,11.1,20.7z"/>
		</g>
		<g>
			<path class="st6" d="M12.5,19.9h-1.5c-0.1,0-0.2-0.1-0.2-0.2c0-0.1,0.1-0.2,0.2-0.2h1.5c0.1,0,0.2,0.1,0.2,0.2
				C12.7,19.8,12.6,19.9,12.5,19.9z"/>
		</g>
		<g>
			<path class="st6" d="M12.1,18.6h-1c-0.1,0-0.2-0.1-0.2-0.2c0-0.1,0.1-0.2,0.2-0.2h1c0.1,0,0.2,0.1,0.2,0.2
				C12.3,18.5,12.2,18.6,12.1,18.6z"/>
		</g>
		<g>
			<path class="st6" d="M12.4,17.3h-1.3c-0.1,0-0.2-0.1-0.2-0.2c0-0.1,0.1-0.2,0.2-0.2h1.3c0.1,0,0.2,0.1,0.2,0.2
				C12.6,17.2,12.5,17.3,12.4,17.3z"/>
		</g>
		<g>
			<path class="st6" d="M11.6,12.6h-1.1c-0.6,0-1.2-0.5-1.2-1.2c0-0.6,0.5-1.2,1.2-1.2h1.1c0.6,0,1.2,0.5,1.2,1.2
				C12.8,12.1,12.3,12.6,11.6,12.6z M10.5,10.6c-0.4,0-0.8,0.4-0.8,0.8c0,0.4,0.4,0.8,0.8,0.8h1.1c0.4,0,0.8-0.4,0.8-0.8
				c0-0.4-0.4-0.8-0.8-0.8H10.5z"/>
		</g>
	</g>
</g>
</svg>
