<?xml version="1.0" encoding="utf-8"?>
<!-- Generator: Adobe Illustrator 27.8.0, SVG Export Plug-In . SVG Version: 6.00 Build 0)  -->
<svg version="1.1" id="Layer_1" xmlns="http://www.w3.org/2000/svg" xmlns:xlink="http://www.w3.org/1999/xlink" x="0px" y="0px"
	 viewBox="0 0 23 23" style="enable-background:new 0 0 23 23;" xml:space="preserve">
<style type="text/css">
	.st0{fill:#5A4596;}
</style>
<path class="st0" d="M8,14.2V7.7V7.5h0c0-0.4,0.1-0.8,0.2-1.1c0.1-0.4,0.3-0.8,0.5-1l0.1-0.1C9,4.9,9.3,4.7,9.6,4.5l0,0
	c0.4-0.2,0.8-0.3,1.2-0.3h0l0.1,0h0c0.4,0,0.7,0.1,1,0.2c0.3,0.1,0.6,0.3,0.8,0.6c0.3,0.3,0.5,0.6,0.6,1c0.1,0.4,0.2,0.9,0.2,1.4v0
	l0,0.1v0l0,0.1l0,0.2h-0.2h-1.1H12l0-0.2l0-0.2c0-0.4-0.1-0.6-0.1-0.9c-0.1-0.2-0.2-0.4-0.3-0.5C11.5,6,11.4,6,11.3,5.9
	c-0.1-0.1-0.3-0.1-0.4-0.1l0,0l0,0c-0.2,0-0.4,0-0.5,0.1C10.2,6,10.1,6.1,10,6.2l0,0.1C9.8,6.4,9.8,6.6,9.7,6.8
	c0,0.2-0.1,0.4-0.1,0.7v0.2v1.4h4.2V7.7V7.5h0c0-0.4,0.1-0.8,0.2-1.1v0c0.1-0.4,0.3-0.8,0.5-1c0.3-0.3,0.6-0.6,0.9-0.7
	c0.4-0.2,0.8-0.3,1.2-0.3l0,0h0v0l0,0l0,0h0v0c0.4,0,0.7,0.1,1.1,0.2h0c0.3,0.1,0.6,0.3,0.8,0.6c0.3,0.3,0.5,0.6,0.6,1.1
	c0.1,0.4,0.2,0.9,0.2,1.5l0,0v0v0.1v0.2h-0.2H18h-0.2l0-0.2l0-0.1c0-0.4,0-0.7-0.1-0.9c-0.1-0.2-0.2-0.4-0.3-0.6
	C17.3,6,17.1,6,17,5.9c-0.1-0.1-0.3-0.1-0.5-0.1l0,0c-0.2,0-0.4,0-0.5,0.1l0,0c-0.1,0.1-0.3,0.1-0.4,0.3c-0.1,0.1-0.2,0.3-0.3,0.6v0
	c0,0.2-0.1,0.4-0.1,0.7v0.2v6.5v0.2h-0.2H14h-0.2v-0.2v-1.1H9.6v1.1v0.2H9.4H8.3H8V14.2L8,14.2z M8.6,6.5C8.5,6.8,8.5,7.2,8.5,7.7
	l0,0.2V14h0.7v-1.1v-0.2h0.2H14h0.2v0.2V14h0.7V7.9h0l0-0.2c0-0.4,0-0.7,0.1-1h0c0.1-0.3,0.2-0.5,0.3-0.7c0.1-0.2,0.3-0.3,0.5-0.4v0
	c0.2-0.1,0.5-0.1,0.7-0.1l0,0h0c0.2,0,0.4,0,0.6,0.1c0.2,0.1,0.3,0.2,0.5,0.3C17.8,6,18,6.3,18.1,6.6c0.1,0.2,0.1,0.5,0.1,0.9h0.7
	c0-0.5-0.1-0.9-0.2-1.2c-0.1-0.4-0.3-0.7-0.5-0.9C18,5.1,17.7,5,17.5,4.9v0c-0.3-0.1-0.6-0.2-0.9-0.2v0h0v0l0,0l0,0h0v0
	c-0.3,0-0.7,0.1-1,0.2c-0.3,0.1-0.5,0.3-0.7,0.6c-0.2,0.2-0.3,0.5-0.4,0.9h0c-0.1,0.3-0.1,0.8-0.1,1.2l0,0.2h0v1.4v0.2H14H9.4H9.2
	V9.3V7.9h0l0-0.2c0-0.4,0-0.7,0.1-1c0.1-0.2,0.1-0.4,0.2-0.6L9.6,6c0.1-0.2,0.3-0.3,0.5-0.4c0.2-0.1,0.3-0.1,0.5-0.1l0.2,0l0.1,0h0
	c0.2,0,0.4,0,0.6,0.1c0.2,0.1,0.3,0.2,0.5,0.3c0.2,0.2,0.3,0.4,0.4,0.7c0.1,0.3,0.1,0.6,0.1,0.9h0.7c0-0.5-0.1-0.9-0.2-1.2
	c-0.1-0.4-0.3-0.7-0.5-0.9C12.2,5.1,12,5,11.8,4.9c-0.3-0.1-0.6-0.2-0.9-0.2h0l-0.1,0l0,0c-0.3,0-0.7,0.1-1,0.2h0
	C9.5,5.1,9.3,5.3,9,5.6C8.9,5.8,8.7,6.1,8.6,6.5L8.6,6.5z M10,6.2C10,6.2,10,6.2,10,6.2L10,6.2L10,6.2z M13.8,11.7v-1.2H9.6v1.2
	H13.8L13.8,11.7z M14.2,10.2v1.7v0.2H14H9.4H9.2v-0.2v-1.7V10h0.2H14h0.2V10.2L14.2,10.2z"/>
<path class="st0" d="M1.9,16.3c0.4,0,0.9-0.4,1.5-0.8l0,0l0,0c1-0.7,1.9-1.3,3.1-1.3c0.6,0,1.2,0.2,1.8,0.4c0.5,0.2,1,0.6,1.5,0.9
	c0.4,0.2,0.7,0.5,1,0.6c0.3,0.1,0.6,0.2,0.8,0.2c0.2,0,0.4-0.1,0.7-0.2c0.3-0.2,0.6-0.4,1-0.6c0.5-0.3,1-0.6,1.5-0.9
	c0.5-0.3,1.1-0.4,1.7-0.4c1.2,0,2.1,0.7,3,1.4l0,0l0,0l0,0c0.5,0.4,1.1,0.8,1.4,0.8v0.9c-0.6,0-1.2-0.5-1.9-1l0,0l0,0
	c-0.8-0.6-1.6-1.2-2.5-1.2c-0.5,0-0.9,0.1-1.3,0.3c-0.5,0.2-0.9,0.5-1.4,0.8c-0.4,0.2-0.7,0.5-1.1,0.7c-0.4,0.2-0.7,0.3-1.1,0.3
	c-0.4,0-0.8-0.1-1.2-0.3c-0.4-0.2-0.7-0.4-1.1-0.7C9,15.9,8.5,15.6,8,15.3C7.6,15.1,7.1,15,6.6,15c-0.9,0-1.8,0.6-2.6,1.1l0,0l0,0
	c-0.7,0.5-1.4,1-2.1,1V16.3L1.9,16.3z M21,19c-1.2,0-2.1-0.7-3.1-1.4l0,0l0,0l0,0l0,0c-0.5-0.4-1.1-0.8-1.4-0.8
	c-0.4,0-1,0.4-1.6,0.9v0l0,0l0,0l0,0l0,0c-1,0.7-2,1.3-3.2,1.3c-0.6,0-1.2-0.2-1.8-0.4c-0.5-0.2-1-0.6-1.5-0.9l0,0l0,0
	c-0.7-0.4-1.3-0.9-1.8-0.9c-0.2,0-0.4,0.1-0.6,0.2l0,0c-0.3,0.2-0.6,0.4-0.9,0.6l0,0c-1,0.7-1.9,1.3-3.1,1.3v-0.9
	c0.9,0,1.8-0.6,2.6-1.2l0,0c0.3-0.2,0.7-0.5,1-0.6h0C5.9,16.1,6.3,16,6.6,16c0.7,0,1.5,0.5,2.3,1l0,0l0,0c0.5,0.3,0.9,0.6,1.4,0.8
	c0.4,0.2,0.9,0.3,1.4,0.3c0.9,0,1.8-0.6,2.7-1.2l0,0l0,0l0,0l0,0l0,0l0,0l0,0c0.7-0.5,1.5-1,2.1-1c0.6,0,1.3,0.5,1.9,1l0,0l0,0l0,0
	c0.8,0.6,1.6,1.2,2.5,1.2V19L21,19z"/>
<path class="st0" d="M21,23.1c-1.2,0-2.1-0.7-3.1-1.4l0,0l0,0c-0.6-0.4-1.1-0.8-1.4-0.8c-0.4,0-1,0.4-1.6,0.9l0,0l0,0l0,0l0,0l0,0
	c-1,0.7-2,1.3-3.2,1.3c-1.2,0-2.3-0.6-3.3-1.3l0,0l0,0c-0.4-0.2-0.7-0.5-1-0.6c-0.3-0.1-0.6-0.2-0.8-0.2c-0.4,0-1,0.4-1.6,0.8l0,0
	l0,0l0,0c-1,0.7-1.9,1.3-3.1,1.3v-0.9c0.9,0,1.8-0.6,2.6-1.2l0,0l0,0c0.7-0.5,1.4-1,2.1-1c0.4,0,0.8,0.1,1.2,0.3
	c0.4,0.2,0.7,0.4,1.1,0.7l0,0l0,0c0.9,0.6,1.8,1.2,2.8,1.2c0.9,0,1.8-0.6,2.7-1.2v0l0,0l0,0l0,0c0.7-0.5,1.5-1,2.1-1
	c0.6,0,1.3,0.5,1.9,1l0,0c0.8,0.6,1.6,1.2,2.5,1.2V23.1L21,23.1z M1.9,20.3c0.2,0,0.4-0.1,0.6-0.2c0.3-0.2,0.6-0.4,0.9-0.6l0,0l0,0
	c1-0.7,1.9-1.3,3.1-1.3c1.2,0,2.3,0.6,3.3,1.3l0,0c0.4,0.2,0.7,0.4,1,0.6c0.3,0.1,0.6,0.2,0.8,0.2c0.4,0,1-0.4,1.6-0.9l0,0
	c0.5-0.3,1-0.6,1.5-0.9c0.5-0.3,1.1-0.4,1.7-0.4c0.6,0,1.2,0.2,1.7,0.5c0.5,0.3,0.9,0.6,1.4,0.9l0,0l0,0c0.5,0.4,1.1,0.8,1.4,0.8
	v0.9c-0.6,0-1.3-0.5-1.9-1l0,0l0,0c-0.4-0.3-0.8-0.6-1.3-0.8C17.4,19.1,17,19,16.5,19c-0.5,0-0.9,0.1-1.3,0.3
	c-0.5,0.2-0.9,0.5-1.4,0.8l0,0c-0.7,0.5-1.5,1-2.1,1c-0.4,0-0.8-0.1-1.2-0.3c-0.4-0.2-0.7-0.4-1.1-0.7l0,0l0,0
	C8.5,19.6,7.6,19,6.6,19c-0.9,0-1.8,0.6-2.6,1.1l0,0c-0.3,0.2-0.7,0.5-1,0.6c-0.4,0.2-0.7,0.3-1.1,0.3V20.3L1.9,20.3z M4,20.2
	L4,20.2L4,20.2L4,20.2z M13.3,19.4L13.3,19.4L13.3,19.4L13.3,19.4z M13.8,20.2L13.8,20.2L13.8,20.2L13.8,20.2z"/>
<polygon class="st0" points="1.4,4.7 11.4,0.1 11.6,0 11.7,0.1 21.6,4.7 21.2,5.5 11.6,1 1.8,5.5 1.4,4.7 "/>
</svg>
