<?xml version="1.0" encoding="utf-8"?>
<!-- Generator: Adobe Illustrator 27.8.0, SVG Export Plug-In . SVG Version: 6.00 Build 0)  -->
<svg version="1.1" id="Layer_1" xmlns="http://www.w3.org/2000/svg" xmlns:xlink="http://www.w3.org/1999/xlink" x="0px" y="0px"
	 viewBox="0 0 23 23" style="enable-background:new 0 0 23 23;" xml:space="preserve">
<style type="text/css">
	.st0{fill:#5A4596;}
</style>
<path class="st0" d="M12.2,7c0.8,0,1.6-0.3,2.1-0.9v0c0.5-0.5,0.9-1.3,0.9-2.1c0-0.8-0.3-1.6-0.9-2.1v0c-0.5-0.5-1.3-0.9-2.1-0.9
	c-0.8,0-1.6,0.3-2.1,0.9C9.5,2.5,9.2,3.2,9.2,4.1c0,0.8,0.3,1.6,0.9,2.1C10.6,6.7,11.3,7,12.2,7L12.2,7z M14.9,6.8
	c-0.7,0.7-1.6,1.1-2.7,1.1c-1.1,0-2-0.4-2.7-1.1C8.8,6.1,8.3,5.1,8.3,4.1c0-1.1,0.4-2,1.1-2.7c0.7-0.7,1.6-1.1,2.7-1.1
	c1.1,0,2,0.4,2.7,1.1l0,0C15.6,2.1,16,3,16,4.1C16,5.1,15.6,6.1,14.9,6.8L14.9,6.8L14.9,6.8z"/>
<path class="st0" d="M9,19.4l0-8.2H6H5.6v-0.4V8.7V8.3H6h1v0h0.4H11c0.3,0,0.6,0,1,0l0.3,0c0.8,0,1.7,0.3,2.3,0.9l0,0
	c0.5,0.5,0.9,1.3,0.9,2.2l0,0v8h2.8h0.4v0.4v2.1v0.4h-0.4H6H5.6v-0.4v-2.1v-0.4H6H9L9,19.4z M9.9,10.8l0,9l0,0.4H9.4h-3v1.3h11.4
	v-1.3H15h-0.4v-0.4v-8.4h0c0-0.7-0.3-1.2-0.6-1.6h0c-0.4-0.4-1.1-0.7-1.7-0.7h0l-0.3,0h0c-0.3,0-0.6,0-0.9,0l0,0H7.9v0H7.4h-1v1.3h3
	h0.4L9.9,10.8L9.9,10.8z"/>
</svg>
