<?xml version="1.0" encoding="utf-8"?>
<!-- Generator: Adobe Illustrator 27.8.0, SVG Export Plug-In . SVG Version: 6.00 Build 0)  -->
<svg version="1.1" id="Layer_1" xmlns="http://www.w3.org/2000/svg" xmlns:xlink="http://www.w3.org/1999/xlink" x="0px" y="0px"
	 viewBox="0 0 23 23" style="enable-background:new 0 0 23 23;" xml:space="preserve">
<style type="text/css">
	.st0{fill:#5A4596;}
</style>
<path class="st0" d="M0.3,16.5h22.4H23v0.3v1.5v0.3h-0.3H0.3H0v-0.3v-1.5v-0.3H0.3L0.3,16.5z M22.4,17.1H0.6V18h21.9V17.1L22.4,17.1
	z"/>
<path class="st0" d="M0.9,16.7c0-1.5,1-2.9,2.4-3.9c1.7-1.2,4-2.1,6.1-2.4l0.5-0.1l0,0.5l0,0c0,0.1,0.2,0.2,0.6,0.3
	c0.5,0.2,1.1,0.3,1.9,0.3c0.7,0,1.4-0.1,1.9-0.3c0.3-0.1,0.6-0.2,0.6-0.3h0l-0.1-0.6l0.6,0.1c3.3,0.3,5,1,5.9,2.1
	c0.9,1.1,1,2.5,1,4.2h-0.9c0-1.5-0.1-2.8-0.8-3.7c-0.8-0.9-2.2-1.5-5-1.8c-0.2,0.3-0.5,0.6-1,0.8c-0.6,0.2-1.3,0.3-2.2,0.3
	c-0.8,0-1.6-0.1-2.2-0.3c-0.5-0.2-0.8-0.4-1-0.7c-1.9,0.4-3.9,1.1-5.4,2.2c-1.2,0.9-2.1,2-2.1,3.2H0.9L0.9,16.7z M14.8,10.8
	L14.8,10.8L14.8,10.8L14.8,10.8L14.8,10.8z"/>
<path class="st0" d="M17.1,11V8.8h0c0-1.3-1.9-1.6-4-1.6c-1.1,0-2.2,0.1-3.2,0.2c-0.5,0-1,0.1-1.4,0.1C7,7.5,6,7.4,6,6.7v0
	c0-1.2,2.3-2.1,5.1-2.6c1.2-0.2,2.4-0.3,3.6-0.3c1.2,0,2.4,0,3.5,0.2C20.4,4.3,22,5.1,22,6.6l0.1,7.9l-0.8,0l-0.1-7.9v0
	c0-0.9-1.2-1.5-3-1.7c-1-0.2-2.2-0.2-3.3-0.2c-1.2,0-2.4,0.2-3.5,0.3C8.8,5.4,6.8,6,6.8,6.7c0,0,0.6,0,1.5-0.1
	c0.4,0,0.9-0.1,1.4-0.1c1-0.1,2.2-0.2,3.3-0.2c2.6,0,4.9,0.4,4.9,2.5h0V11H17.1L17.1,11z"/>
<path class="st0" d="M12.3,9.2c0.8,0,1.5,0.1,2.1,0.2c0.6,0.1,1,0.3,1,0.6c0,0.3-0.4,0.5-1,0.6c-0.5,0.1-1.3,0.2-2.1,0.2
	s-1.5-0.1-2.1-0.2c-0.6-0.1-1-0.3-1-0.6c0-0.3,0.4-0.5,1-0.6C10.7,9.3,11.5,9.2,12.3,9.2L12.3,9.2z M14.3,9.8
	c-0.5-0.1-1.2-0.2-2-0.2c-0.8,0-1.5,0.1-2,0.2C9.9,9.8,9.6,9.9,9.6,9.9c0,0,0.3,0.1,0.7,0.2c0.5,0.1,1.2,0.2,2,0.2
	c0.8,0,1.5-0.1,2-0.2C14.7,10,15,10,15,9.9C15,9.9,14.7,9.8,14.3,9.8L14.3,9.8z"/>
</svg>
