<?xml version="1.0" encoding="utf-8"?>
<!-- Generator: Adobe Illustrator 27.8.0, SVG Export Plug-In . SVG Version: 6.00 Build 0)  -->
<svg version="1.1" id="Layer_1" xmlns="http://www.w3.org/2000/svg" xmlns:xlink="http://www.w3.org/1999/xlink" x="0px" y="0px"
	 viewBox="0 0 23 23" style="enable-background:new 0 0 23 23;" xml:space="preserve">
<style type="text/css">
	.st0{fill:#5A4596;}
</style>
<path class="st0" d="M3.5,21.1h14.8h0.3v0.3v1.4V23h-0.3H3.5H3.2v-0.3v-1.4v-0.3H3.5L3.5,21.1z M18,21.6H3.7v0.8H18V21.6L18,21.6z"
	/>
<path class="st0" d="M15,3.2c0.8,1.7,1.3,4.1,1.6,7.2c0.3,3,0.3,6.7,0.3,10.8v0.4h-0.4H5.2H4.8v-0.4c0-1.6,0.3-6.2,1.1-10.6
	C6.5,7.7,7.2,5,8.2,3.2l0.1-0.2h0.2h6.1h0.3L15,3.2L15,3.2z M15.7,10.4c-0.2-2.8-0.7-5.1-1.4-6.7H8.8c-0.9,1.8-1.5,4.3-2,6.9
	c-0.7,4-1.1,8.2-1.1,10.1h10.4C16.1,16.8,16,13.3,15.7,10.4L15.7,10.4z"/>
<path class="st0" d="M11.6,5.7c0.4,0,0.7,0.1,0.9,0.4c0.2,0.2,0.4,0.6,0.4,0.9v10c0,0.4-0.1,0.7-0.4,0.9v0c-0.2,0.2-0.6,0.4-0.9,0.4
	c-0.4,0-0.7-0.1-0.9-0.4l0,0c-0.2-0.2-0.4-0.6-0.4-0.9v-10c0-0.4,0.1-0.7,0.4-0.9h0C10.9,5.9,11.3,5.7,11.6,5.7L11.6,5.7z M12.3,6.4
	c-0.2-0.2-0.4-0.3-0.6-0.3c-0.3,0-0.5,0.1-0.6,0.3l0,0c-0.2,0.2-0.3,0.4-0.3,0.6v10c0,0.3,0.1,0.5,0.3,0.6l0,0
	c0.2,0.2,0.4,0.3,0.6,0.3c0.3,0,0.5-0.1,0.6-0.3l0,0c0.2-0.2,0.3-0.4,0.3-0.6v-10C12.5,6.8,12.4,6.6,12.3,6.4L12.3,6.4z"/>
<path class="st0" d="M11.1,0.1c0.7,0,1.4,0.1,2,0.5l0,0c0.6,0.3,1,0.8,1.4,1.5l0.3,0.4h-0.5H8.8H8.3L8.6,2C8.9,1.4,9.3,1,9.8,0.6
	C10.2,0.3,10.6,0.1,11.1,0.1L11.1,0.1z M12.8,1c-0.5-0.3-1-0.4-1.7-0.4c-0.4,0-0.7,0.2-1.1,0.4C9.8,1.3,9.6,1.6,9.3,1.9h4.5
	C13.5,1.5,13.2,1.2,12.8,1L12.8,1L12.8,1z"/>
<path class="st0" d="M15.4,7.3c0.1-0.6,0.2-1.1,0.4-1.5c0.2-0.4,0.5-0.7,0.8-0.8c0.2-0.1,0.4-0.1,0.6-0.1c0.5,0,0.8,0.3,1.1,0.8
	c0.2,0.4,0.3,1,0.3,1.7c0.1,1.5-0.2,3.3-0.5,4.5c-0.3,1.2-0.7,2.2-1,3.1c-0.4,1-0.7,1.8-0.5,2.2c0,0,0,0,0,0c0.4-0.2,1-1.6,1.6-3.5
	c0.6-1.9,1-4.2,1-6.2c0-2.2-0.6-3.9-2.2-3.9v0h-1.4h-1.2V2.9h1.2h1.4v0c2,0,2.7,2,2.7,4.5c0,2-0.5,4.4-1.1,6.4
	c-0.6,2-1.3,3.6-1.9,3.8c-0.3,0.2-0.5,0.1-0.7-0.3c-0.3-0.6,0-1.4,0.5-2.6c0.3-0.8,0.7-1.8,1-3c0.3-1.1,0.5-2.9,0.4-4.3
	c0-0.6-0.1-1.1-0.3-1.5c-0.1-0.3-0.3-0.5-0.6-0.5c-0.1,0-0.2,0-0.4,0.1c-0.2,0.1-0.4,0.3-0.5,0.6c-0.2,0.3-0.3,0.8-0.4,1.3L15.4,7.3
	L15.4,7.3z"/>
<polygon class="st0" points="6.1,10.6 4,3.3 3.9,2.9 4.3,2.9 8.9,2.9 8.9,3.5 4.7,3.5 6.6,10.4 6.1,10.6 "/>
</svg>
