<?xml version="1.0" encoding="utf-8"?>
<!-- Generator: Adobe Illustrator 27.8.0, SVG Export Plug-In . SVG Version: 6.00 Build 0)  -->
<svg version="1.1" id="Layer_1" xmlns="http://www.w3.org/2000/svg" xmlns:xlink="http://www.w3.org/1999/xlink" x="0px" y="0px"
	 viewBox="0 0 23 23" style="enable-background:new 0 0 23 23;" xml:space="preserve">
<style type="text/css">
	.st0{fill:#5A4596;}
</style>
<path class="st0" d="M20.3,6.5v16.1v0.5h-0.5H2.7H2.3v-0.5V6.5V6h0.5h17.1h0.5V6.5L20.3,6.5z M19.4,22.2V6.9H3.2v15.2H19.4
	L19.4,22.2z"/>
<path class="st0" d="M11.3,10.2c1.1,0,2.1,0.4,2.8,1.2c0.7,0.7,1.2,1.7,1.2,2.8s-0.4,2.1-1.2,2.8c-0.7,0.7-1.7,1.2-2.8,1.2
	c-1.1,0-2.1-0.4-2.8-1.2c-0.7-0.7-1.2-1.7-1.2-2.8s0.4-2.1,1.2-2.8C9.2,10.6,10.2,10.2,11.3,10.2L11.3,10.2z M13.6,11.8
	c-0.6-0.6-1.4-1-2.4-1c-0.9,0-1.8,0.4-2.4,1c-0.6,0.6-1,1.4-1,2.4c0,0.9,0.4,1.8,1,2.4c0.6,0.6,1.4,1,2.4,1c0.9,0,1.8-0.4,2.4-1
	c0.6-0.6,1-1.4,1-2.4C14.6,13.2,14.2,12.4,13.6,11.8L13.6,11.8z"/>
<path class="st0" d="M11.3,8.3c1.6,0,3.1,0.7,4.1,1.7v0c1.1,1.1,1.7,2.5,1.7,4.1c0,1.6-0.7,3.1-1.7,4.1c-1.1,1.1-2.5,1.7-4.1,1.7
	c-1.6,0-3.1-0.7-4.1-1.7c-1.1-1.1-1.7-2.5-1.7-4.1c0-1.6,0.7-3.1,1.7-4.1v0C8.2,9,9.7,8.3,11.3,8.3L11.3,8.3z M14.7,10.7L14.7,10.7
	c-0.9-0.9-2.1-1.4-3.5-1.4c-1.4,0-2.6,0.5-3.5,1.4l0,0c-0.9,0.9-1.4,2.1-1.4,3.5c0,1.4,0.5,2.6,1.4,3.5c0.9,0.9,2.1,1.4,3.5,1.4
	c1.4,0,2.6-0.5,3.5-1.4c0.9-0.9,1.4-2.1,1.4-3.5C16.2,12.8,15.6,11.5,14.7,10.7L14.7,10.7z"/>
<path class="st0" d="M7.5,4.1c0.2,0,0.3,0.1,0.5,0.2h0c0.1,0.1,0.2,0.3,0.2,0.5c0,0.2-0.1,0.3-0.2,0.5C7.9,5.3,7.7,5.4,7.5,5.4
	c-0.2,0-0.3-0.1-0.5-0.2v0C7,5.1,6.9,4.9,6.9,4.8c0-0.2,0.1-0.3,0.2-0.5C7.2,4.2,7.4,4.1,7.5,4.1L7.5,4.1z M7.7,4.6
	c0,0-0.1-0.1-0.1-0.1c-0.1,0-0.1,0-0.1,0.1c0,0-0.1,0.1-0.1,0.1c0,0.1,0,0.1,0.1,0.1l0,0c0,0,0.1,0.1,0.1,0.1c0.1,0,0.1,0,0.1-0.1
	c0,0,0.1-0.1,0.1-0.1C7.8,4.7,7.7,4.6,7.7,4.6L7.7,4.6L7.7,4.6z"/>
<path class="st0" d="M6.1,4.1c0.2,0,0.3,0.1,0.5,0.2h0c0.1,0.1,0.2,0.3,0.2,0.5c0,0.2-0.1,0.3-0.2,0.5l0,0C6.4,5.3,6.3,5.4,6.1,5.4
	c-0.2,0-0.3-0.1-0.5-0.2C5.5,5.1,5.4,4.9,5.4,4.7c0-0.2,0.1-0.3,0.2-0.5h0C5.7,4.2,5.9,4.1,6.1,4.1L6.1,4.1z M6.2,4.6
	c0,0-0.1-0.1-0.1-0.1C6,4.5,6,4.6,5.9,4.6l0,0c0,0-0.1,0.1-0.1,0.1c0,0.1,0,0.1,0.1,0.1c0,0,0.1,0.1,0.1,0.1c0.1,0,0.1,0,0.1-0.1
	l0,0c0,0,0.1-0.1,0.1-0.1C6.3,4.7,6.3,4.6,6.2,4.6L6.2,4.6L6.2,4.6z"/>
<path class="st0" d="M4.6,4.1c0.2,0,0.3,0.1,0.5,0.2l0,0c0.1,0.1,0.2,0.3,0.2,0.5c0,0.2-0.1,0.3-0.2,0.5l0,0l0,0
	C5,5.3,4.8,5.4,4.6,5.4c-0.2,0-0.3-0.1-0.5-0.2l0,0C4.1,5.1,4,4.9,4,4.7c0-0.2,0.1-0.3,0.2-0.5C4.3,4.1,4.5,4.1,4.6,4.1L4.6,4.1z
	 M4.8,4.6c0,0-0.1-0.1-0.1-0.1c-0.1,0-0.1,0-0.1,0.1c0,0-0.1,0.1-0.1,0.1c0,0.1,0,0.1,0.1,0.1v0c0,0,0.1,0.1,0.1,0.1
	c0.1,0,0.1,0,0.1-0.1l0,0c0,0,0.1-0.1,0.1-0.1C4.8,4.7,4.8,4.6,4.8,4.6L4.8,4.6L4.8,4.6z"/>
<path class="st0" d="M7.6,2.7c0.2,0,0.3,0.1,0.5,0.2l0,0l0,0C8.1,3,8.2,3.2,8.2,3.4c0,0.2-0.1,0.3-0.2,0.5l0,0l0,0
	C7.9,4,7.7,4,7.6,4C7.4,4,7.2,4,7.1,3.8l0,0l0,0C7,3.7,6.9,3.6,6.9,3.4C6.9,3.2,7,3,7.1,2.9C7.2,2.8,7.4,2.7,7.6,2.7L7.6,2.7z
	 M7.7,3.2c0,0-0.1-0.1-0.1-0.1c-0.1,0-0.1,0-0.1,0.1c0,0-0.1,0.1-0.1,0.1c0,0.1,0,0.1,0.1,0.1l0,0c0,0,0.1,0.1,0.1,0.1
	c0.1,0,0.1,0,0.1-0.1l0,0c0,0,0.1-0.1,0.1-0.1C7.8,3.3,7.7,3.3,7.7,3.2L7.7,3.2L7.7,3.2z"/>
<path class="st0" d="M6.1,2.7c0.2,0,0.3,0.1,0.5,0.2l0,0C6.7,3,6.7,3.2,6.7,3.4c0,0.2-0.1,0.3-0.2,0.5v0C6.4,3.9,6.3,4,6.1,4
	C5.9,4,5.7,3.9,5.6,3.8l0,0C5.5,3.7,5.4,3.5,5.4,3.4c0-0.2,0.1-0.3,0.2-0.5v0C5.7,2.8,5.9,2.7,6.1,2.7L6.1,2.7z M6.2,3.2
	c0,0-0.1-0.1-0.1-0.1C6,3.2,6,3.2,5.9,3.2l0,0c0,0-0.1,0.1-0.1,0.1c0,0.1,0,0.1,0.1,0.1l0,0c0,0,0.1,0.1,0.1,0.1
	c0.1,0,0.1,0,0.1-0.1l0,0c0,0,0.1-0.1,0.1-0.1C6.3,3.3,6.3,3.3,6.2,3.2L6.2,3.2L6.2,3.2z"/>
<path class="st0" d="M4.6,2.7c0.2,0,0.3,0.1,0.5,0.2l0,0l0,0C5.2,3,5.3,3.2,5.3,3.3c0,0.2-0.1,0.3-0.2,0.5l0,0C5,3.9,4.8,4,4.6,4
	C4.5,4,4.3,3.9,4.2,3.8l0,0C4.1,3.7,4,3.5,4,3.3C4,3.2,4.1,3,4.2,2.9C4.3,2.8,4.5,2.7,4.6,2.7L4.6,2.7z M4.8,3.2
	c0,0-0.1-0.1-0.1-0.1c-0.1,0-0.1,0-0.1,0.1c0,0-0.1,0.1-0.1,0.1c0,0.1,0,0.1,0.1,0.1v0c0,0,0.1,0.1,0.1,0.1c0.1,0,0.1,0,0.1-0.1v0
	c0,0,0.1-0.1,0.1-0.1C4.8,3.3,4.8,3.2,4.8,3.2L4.8,3.2L4.8,3.2z"/>
<path class="st0" d="M10.2,2.7c0.4,0,0.7,0.1,0.9,0.4c0.2,0.2,0.4,0.6,0.4,0.9c0,0.4-0.1,0.7-0.4,0.9l0,0c-0.2,0.2-0.6,0.4-0.9,0.4
	C9.9,5.3,9.5,5.2,9.3,5l0,0C9.1,4.7,8.9,4.4,8.9,4c0-0.4,0.1-0.7,0.4-0.9l0,0C9.5,2.9,9.9,2.7,10.2,2.7L10.2,2.7z M10.8,3.4
	c-0.2-0.2-0.4-0.2-0.6-0.2c-0.2,0-0.4,0.1-0.6,0.2v0C9.5,3.6,9.4,3.8,9.4,4c0,0.2,0.1,0.4,0.2,0.6l0,0c0.2,0.2,0.4,0.2,0.6,0.2
	c0.2,0,0.4-0.1,0.6-0.2h0C11,4.5,11.1,4.3,11.1,4C11.1,3.8,11,3.6,10.8,3.4L10.8,3.4z"/>
<path class="st0" d="M12.7,2.8h5.7h0.2V3v2.2v0.2h-0.2h-5.7h-0.2V5.2V3V2.8H12.7L12.7,2.8z M18.2,3.2h-5.3V5h5.3V3.2L18.2,3.2z"/>
<path class="st0" d="M2.7,1.4h17.1h0.4v0.5l0,4.6l0,0.4l-0.4,0l-17.1,0H2.3V6.5V1.8V1.4H2.7L2.7,1.4z M19.4,2.3H3.2V6l16.2,0
	L19.4,2.3L19.4,2.3z"/>
</svg>
