<?xml version="1.0" encoding="utf-8"?>
<!-- Generator: Adobe Illustrator 27.8.0, SVG Export Plug-In . SVG Version: 6.00 Build 0)  -->
<svg version="1.1" id="Layer_1" xmlns="http://www.w3.org/2000/svg" xmlns:xlink="http://www.w3.org/1999/xlink" x="0px" y="0px"
	 viewBox="0 0 23 23" style="enable-background:new 0 0 23 23;" xml:space="preserve">
<style type="text/css">
	.st0{fill:#5A4596;}
</style>
<path class="st0" d="M3.8,4L3.8,4c1-1,2.3-1.8,3.6-2.4c1.3-0.6,2.8-0.8,4.2-0.8h0.4v0c1.3,0,2.6,0.3,3.8,0.8C17,2.2,18.2,2.9,19.3,4
	h0l0,0l0,0c1,1,1.8,2.3,2.4,3.6c0.6,1.3,0.8,2.8,0.8,4.2c0,1.4-0.3,2.9-0.8,4.2c-0.5,1.3-1.3,2.5-2.4,3.6c-1,1-2.3,1.8-3.6,2.4
	c-1.3,0.6-2.8,0.8-4.2,0.8h-0.4v0c-1.3,0-2.6-0.3-3.8-0.8c-1.3-0.5-2.5-1.3-3.6-2.4l0,0c-1-1-1.8-2.3-2.4-3.6
	c-0.6-1.3-0.8-2.8-0.8-4.2c0-1.4,0.3-2.9,0.8-4.2C1.9,6.3,2.7,5,3.8,4L3.8,4L3.8,4z M4.3,4.5L4.3,4.5L4.3,4.5c-1,1-1.7,2.1-2.2,3.3
	c-0.5,1.2-0.8,2.6-0.8,3.9s0.3,2.7,0.8,3.9C2.6,16.9,3.4,18,4.3,19h0c1,1,2.1,1.7,3.3,2.2c1.2,0.5,2.6,0.8,3.9,0.8
	c1.3,0,2.7-0.3,3.9-0.8c1.2-0.5,2.3-1.2,3.3-2.2c1-1,1.7-2.1,2.2-3.3c0.5-1.2,0.8-2.6,0.8-3.9c0-1.3-0.3-2.7-0.8-3.9
	c-0.5-1.2-1.2-2.3-2.2-3.3h0l0,0l0,0c-1-1-2.1-1.7-3.3-2.2c-1.2-0.5-2.6-0.8-3.9-0.8v0c-1.3,0-2.7,0.3-3.9,0.8
	C6.4,2.8,5.3,3.6,4.3,4.5L4.3,4.5z"/>
<path class="st0" d="M17.8,20L3.3,5.5L3.9,5l14.5,14.5L17.8,20L17.8,20z M5.3,3.5L19.8,18l-0.5,0.5L4.7,4.1L5.3,3.5L5.3,3.5z"/>
<path class="st0" d="M13.4,12.1l1.7-1.6l0,0l0.1-0.1l0.2-0.2l0.2,0.2l0.1,0.1l1.6,1.7l0.2,0.2l-0.2,0.2l-0.1,0.1l-1.6,1.5l-0.4-0.4
	l1.5-1.5L15.3,11l-1.6,1.5L13.4,12.1L13.4,12.1z M13.9,15.7l-5.1,4.8l-0.1,0.1l-0.2,0.2l-0.2-0.2l-0.1-0.1L6.8,19l0,0l-0.1-0.1
	l-0.2-0.2l0.2-0.2l0.1-0.1l5.1-4.8l0.4,0.4l-5,4.7l1.3,1.4l5-4.7L13.9,15.7L13.9,15.7z"/>
<path class="st0" d="M6.8,18.4l3.8-3.6l0.3-0.3l0.3,0.3l1.5,1.6l0.3,0.3L12.6,17l-3.8,3.6l-0.3,0.3l-0.3-0.3L6.8,19l-0.3-0.3
	L6.8,18.4L6.8,18.4z M10.8,15.7l-3.2,3l0.9,1l3.2-3L10.8,15.7L10.8,15.7z"/>
<path class="st0" d="M15.2,10.8c0-0.2,0-0.4,0.1-0.5c0-0.1,0.1-0.1,0.2-0.2h0c0.1-0.1,0.2-0.1,0.3-0.1c0,0,0.1,0,0.1,0
	c0.1,0,0.1,0,0.2,0c0.1,0,0.2,0,0.3,0.1l0,0c0,0,0.1,0.1,0.1,0.1c0,0,0.1,0,0.2,0c0.1,0,0.2,0.1,0.2,0.1c0.1,0,0.1,0,0.2,0.1h0
	c0.1,0,0.1,0.1,0.2,0.2c0,0.1,0.1,0.2,0.1,0.2v0c0,0,0,0,0,0.1c0.2,0.1,0.3,0.2,0.3,0.4c0.1,0,0.1,0.1,0.2,0.2l0,0
	c0,0.1,0,0.1,0,0.2v0c0,0.2-0.1,0.4-0.3,0.5l0,0c-0.1,0.1-0.1,0.1-0.2,0.2l0,0c-0.1,0.1-0.2,0.1-0.4,0.1l0-0.5c0.1,0,0.1,0,0.1,0
	l0,0c0.1,0,0.1-0.1,0.2-0.1l0,0c0,0,0.1-0.1,0.1-0.1l0,0l0,0c-0.1,0-0.1-0.1-0.2-0.2l0,0l0-0.1l0,0l0,0l0,0c0-0.1,0-0.1,0-0.1h0
	c0,0-0.1,0-0.1,0c-0.1,0-0.2,0-0.2-0.1c-0.1-0.1-0.1-0.2,0-0.3c-0.1,0-0.2-0.1-0.2-0.1c-0.2,0.1-0.4,0.1-0.5-0.1
	c-0.2,0.1-0.3,0-0.3,0l0,0c0,0,0,0.1,0,0.1L15.2,10.8L15.2,10.8z"/>
<path class="st0" d="M14.3,10c-0.1-0.4-0.3-0.6-0.4-0.7c-0.1-0.1-0.3-0.2-0.5-0.2v0l0,0l0,0c-0.3-0.1-0.6-0.2-0.9-0.5
	c-0.4-0.4-0.4-0.7-0.3-1.1v0l0,0c0-0.1,0-0.3-0.1-0.4v0C12,7,11.8,7,11.6,6.9l0,0l0,0h0c-0.5-0.1-0.9-0.2-1.1-0.8
	c-0.1-0.3-0.1-0.5,0-0.7c0.1-0.2,0.1-0.3,0.2-0.5c0-0.1,0.1-0.2,0.1-0.3c0-0.1,0-0.2,0-0.2c0,0-0.1-0.1-0.1-0.1l0,0
	c-0.1,0-0.1-0.1-0.2-0.1l0,0l-0.1,0l0,0c-0.3-0.1-0.7-0.1-0.9-0.4L10,3.3c0.1,0.1,0.3,0.1,0.5,0.2l0,0l0.1,0h0
	c0.2,0,0.3,0.1,0.4,0.2h0c0.2,0.1,0.4,0.3,0.5,0.5c0.1,0.2,0.1,0.4,0.1,0.6c0,0.2-0.1,0.3-0.2,0.5c-0.1,0.1-0.1,0.2-0.2,0.3
	c0,0.1,0,0.2,0,0.3c0.1,0.2,0.3,0.3,0.6,0.3v0h0c0.3,0.1,0.6,0.2,0.9,0.5l0,0c0.3,0.4,0.2,0.7,0.2,0.9v0l0,0c0,0.2,0,0.3,0.1,0.5
	c0.1,0.1,0.3,0.2,0.6,0.3l0,0l0,0c0.3,0.1,0.5,0.1,0.8,0.4c0.3,0.2,0.5,0.6,0.7,1.1L14.3,10L14.3,10z"/>
<path class="st0" d="M11.8,1.9c0.6,0.2,0.8,0.4,1,0.6c0.1,0.3,0.1,0.5,0,0.8c0,0.1,0,0.1,0,0.2c0,0,0,0.1,0,0.1l0,0
	c0,0,0.1,0.1,0.1,0.1l0,0c0.1,0,0.1,0.1,0.2,0.1c0.1,0.1,0.3,0.1,0.4,0.2c0.1,0.1,0.3,0.3,0.3,0.5c0.1,0.4,0.1,0.7,0,1l0,0h0
	c0,0.1,0,0.2,0.1,0.3h0C14,6,14.1,6.1,14.3,6.1v0l0.1,0l0,0c0.6,0.2,1.4,0.4,1.4,1.6l0,0.2c0,0.6,0,0.8,0.5,1.3l-0.5,0.6
	C15,9,15,8.8,15,7.9l0-0.2c0-0.6-0.5-0.7-0.9-0.8l0,0l-0.1,0h0c-0.3-0.1-0.6-0.3-0.8-0.6l0,0C13.1,6,13,5.7,13.1,5.4l0,0l0,0h0
	c0-0.2,0.1-0.3,0-0.5C13,4.8,13,4.7,13,4.7c-0.1-0.1-0.2-0.1-0.2-0.2c-0.1-0.1-0.2-0.1-0.3-0.2v0c-0.1-0.1-0.2-0.2-0.3-0.3h0
	C12,3.8,12,3.7,12,3.5c0-0.1,0-0.3,0.1-0.4c0-0.1,0.1-0.2,0.1-0.3c0-0.1-0.2-0.1-0.5-0.2L11.8,1.9L11.8,1.9z"/>
<path class="st0" d="M14.8,3.1c0,0.1,0.2,0.2,0.3,0.2c0.3,0.1,0.5,0.3,0.7,0.6l0,0l0,0c0.1,0.3,0,0.6-0.1,0.8c0,0.1-0.1,0.2-0.1,0.2
	c0,0.2,0.2,0.2,0.3,0.2c0.4,0.1,0.8,0.2,0.9,0.8C17,6.3,17,6.5,17,6.6C17,6.8,17,7,17,7.2h0c0,0.2,0,0.3,0,0.4
	c0,0.1,0.1,0.2,0.2,0.4l0,0c0.1,0.2,0.2,0.3,0.3,0.6c0.1,0.2,0.1,0.5,0.1,0.9l-0.8-0.1c0-0.2,0-0.4-0.1-0.6
	c-0.1-0.2-0.1-0.3-0.2-0.4h0c-0.2-0.2-0.3-0.4-0.3-0.6c-0.1-0.2-0.1-0.4,0-0.7v0c0-0.2,0-0.3,0.1-0.4c0-0.1,0-0.2,0-0.3
	C16.2,6.1,16,6,15.8,6c-0.4-0.1-0.7-0.2-0.9-0.8c-0.1-0.3,0-0.5,0.1-0.7c0-0.1,0.1-0.2,0.1-0.3c0-0.1-0.2-0.1-0.3-0.2
	c-0.3-0.1-0.6-0.3-0.7-0.7L14.8,3.1L14.8,3.1z"/>
</svg>
