<?xml version="1.0" encoding="utf-8"?>
<!-- Generator: Adobe Illustrator 27.8.0, SVG Export Plug-In . SVG Version: 6.00 Build 0)  -->
<svg version="1.1" id="Layer_1" xmlns="http://www.w3.org/2000/svg" xmlns:xlink="http://www.w3.org/1999/xlink" x="0px" y="0px"
	 viewBox="0 0 23 23" style="enable-background:new 0 0 23 23;" xml:space="preserve">
<style type="text/css">
	.st0{fill:#5A4596;}
</style>
<path class="st0" d="M14.7,14c1.1,0.6,2.2,1.6,3,2.9c0.8,1.2,1.4,2.7,1.8,4.5l0.1,0.5h-0.5H3.5H3l0.1-0.5c0.4-1.8,1-3.4,1.8-4.6
	c0.9-1.3,2-2.3,3.1-2.9l0.4-0.2l0.2,0.4l2.6,5.5l2.3-5l0.8,0L14.7,14L14.7,14z M17,17.4c-0.8-1.2-1.7-2-2.6-2.5l-2.7,6l-0.1,0.2h7
	C18.2,19.6,17.6,18.4,17,17.4L17,17.4z M4,21.1h6.9l-0.1-0.2l-2.8-6c-0.9,0.5-1.7,1.3-2.4,2.4C5,18.3,4.4,19.6,4,21.1L4,21.1z"/>
<path class="st0" d="M11.1,1.1c0.9,0,1.8,0.2,2.6,0.5C14.6,2,15.4,2.5,16,3.1l0.1,0.1v0c0.4,0.4,0.7,0.8,1,1.3
	c0.3,0.5,0.5,1,0.7,1.5c0.6,0.2,1.2,0.5,1.6,1C19.7,7.6,20,8.2,20,8.9c0,0.8-0.3,1.6-0.8,2.1c-0.5,0.5-1.2,0.9-1.9,0.9
	c-0.2,0.4-0.4,0.7-0.7,1c-0.3,0.4-0.6,0.7-1,1c-0.4,0.3-0.8,0.6-1.3,0.8c-0.4,0.2-0.8,0.3-1.2,0.5c0,0.3-0.2,0.5-0.4,0.7
	c-0.2,0.2-0.5,0.4-0.9,0.4c-0.3,0-0.7-0.1-0.9-0.4h0c-0.2-0.2-0.4-0.5-0.4-0.9c0-0.3,0.1-0.7,0.4-0.9v0c0.2-0.2,0.5-0.4,0.9-0.4
	c0.2,0,0.4,0,0.6,0.1c0.1,0.1,0.2,0.2,0.3,0.3c0.4-0.1,0.7-0.2,1.1-0.4c0.4-0.2,0.8-0.4,1.1-0.7c0.3-0.2,0.5-0.5,0.8-0.7
	c0.2-0.2,0.4-0.5,0.5-0.8V6.2c-0.1-0.4-0.3-0.7-0.5-1.1c-0.2-0.3-0.4-0.6-0.7-0.9l-0.1-0.1c-0.5-0.5-1.1-0.9-1.7-1.2
	c-0.6-0.3-1.3-0.4-2.1-0.4c-0.7,0-1.4,0.1-2.1,0.4C8.4,3.3,7.8,3.7,7.3,4.2C7,4.5,6.8,4.8,6.6,5.2C6.3,5.5,6.2,5.9,6,6.2v5.5v0.2
	l-0.2,0c-0.1,0-0.2,0-0.3,0v0c-0.1,0-0.2,0-0.3,0c-0.8,0-1.6-0.3-2.2-0.9h0c-0.6-0.6-0.9-1.3-0.9-2.2c0-0.7,0.2-1.4,0.7-1.9
	c0.4-0.5,0.9-0.9,1.6-1c0.2-0.5,0.4-1,0.7-1.5c0.3-0.5,0.7-1,1.1-1.4C6.9,2.5,7.6,2,8.5,1.6C9.3,1.3,10.2,1.1,11.1,1.1L11.1,1.1z
	 M13.6,2c-0.8-0.3-1.6-0.5-2.5-0.5c-0.9,0-1.7,0.2-2.5,0.5C7.9,2.3,7.1,2.8,6.5,3.4c-0.4,0.4-0.7,0.8-1,1.3C5.3,5.2,5,5.7,4.9,6.2
	l0,0.1l-0.1,0C4.1,6.5,3.6,6.8,3.3,7.3c-0.4,0.4-0.6,1-0.6,1.6c0,0.7,0.3,1.4,0.8,1.9l0,0c0.5,0.5,1.1,0.8,1.9,0.8
	c0.1,0,0.2,0,0.2,0v0l0,0V6.2v0l0,0C5.8,5.7,6,5.3,6.2,4.9c0.2-0.4,0.5-0.7,0.8-1c0.5-0.5,1.2-1,1.9-1.3c0.7-0.3,1.4-0.4,2.2-0.4
	c0.8,0,1.5,0.2,2.2,0.4c0.6,0.3,1.2,0.6,1.7,1.1l0,0l0.2,0.2c0.3,0.3,0.6,0.7,0.8,1c0.2,0.4,0.4,0.8,0.6,1.2l0,0v0v5.4v0.1l0,0
	c-0.2,0.3-0.4,0.6-0.6,0.9c-0.2,0.3-0.5,0.6-0.8,0.8c-0.4,0.3-0.8,0.5-1.2,0.7c-0.4,0.2-0.9,0.3-1.3,0.4l-0.1,0l-0.1-0.1
	c-0.1-0.1-0.2-0.2-0.3-0.2c-0.1-0.1-0.2-0.1-0.4-0.1c-0.2,0-0.4,0.1-0.6,0.2l0,0C11.1,14.5,11,14.7,11,15c0,0.2,0.1,0.4,0.2,0.6l0,0
	c0.1,0.1,0.4,0.2,0.6,0.2c0.2,0,0.4-0.1,0.6-0.2c0.1-0.1,0.2-0.4,0.2-0.6l0-0.2l0.2,0c0.4-0.1,0.9-0.3,1.3-0.5
	c0.4-0.2,0.8-0.4,1.2-0.7c0.3-0.3,0.6-0.6,0.9-0.9c0.3-0.3,0.5-0.7,0.7-1l0.1-0.1l0.1,0c0.7,0,1.3-0.3,1.8-0.8
	c0.4-0.5,0.7-1.1,0.7-1.8c0-0.6-0.2-1.2-0.6-1.6c-0.4-0.5-0.9-0.8-1.5-0.9l-0.1,0l0-0.1c-0.2-0.5-0.4-1-0.6-1.5
	c-0.3-0.5-0.6-0.9-1-1.3l-0.1-0.1v0C15.1,2.8,14.4,2.3,13.6,2L13.6,2z"/>
<path class="st0" d="M11.1,4c1.4,0,2.6,0.6,3.5,1.5l0,0c0.9,0.9,1.5,2.1,1.5,3.5c0,1.4-0.6,2.6-1.5,3.5v0c-0.9,0.9-2.1,1.5-3.5,1.5
	c-1.4,0-2.6-0.6-3.5-1.5l0,0C6.7,11.6,6.2,10.3,6.2,9c0-1.4,0.6-2.6,1.5-3.5l0,0l0,0C8.5,4.5,9.8,4,11.1,4L11.1,4z M14,6
	c-0.7-0.7-1.8-1.2-2.9-1.2C10,4.8,9,5.3,8.2,6l0,0C7.5,6.8,7,7.8,7,9c0,1.1,0.5,2.2,1.2,2.9h0c0.7,0.7,1.8,1.2,2.9,1.2
	c1.1,0,2.2-0.5,2.9-1.2l0,0c0.7-0.7,1.2-1.8,1.2-2.9C15.3,7.8,14.8,6.8,14,6L14,6L14,6z"/>
</svg>
