<svg width="30" height="30" viewBox="0 0 30 30" fill="none" xmlns="http://www.w3.org/2000/svg">
<g clip-path="url(#clip0_113_736)">
<path d="M15.0129 0.0132446C15.0089 0.0132446 15.0036 0.0139067 14.9997 0.0139067C14.995 0.0139067 14.9911 0.0132446 14.9864 0.0132446C6.71029 0.0132446 0 6.72287 0 15.0003C0 23.2765 6.71029 29.9868 14.9864 29.9868C14.9911 29.9868 14.995 29.9868 14.9997 29.9868C15.0036 29.9868 15.0089 29.9868 15.0129 29.9868C23.289 29.9868 29.9993 23.2765 29.9993 15.0003C30 6.72287 23.2897 0.0132446 15.0129 0.0132446ZM15.0129 25.6964C15.0089 25.6964 15.0036 25.6957 14.9997 25.6957C14.995 25.6957 14.9911 25.6964 14.9864 25.6964C13.6318 25.6964 12.5334 24.5987 12.5334 23.2434C12.5334 21.8894 13.6318 20.7916 14.9864 20.7916C14.9911 20.7916 14.995 20.7916 14.9997 20.7916C15.0036 20.7916 15.0089 20.7916 15.0129 20.7916C16.3669 20.7916 17.4666 21.8894 17.4666 23.2434C17.4666 24.598 16.3689 25.6964 15.0129 25.6964ZM18.5306 7.0036C18.3704 9.45135 17.2514 16.731 17.2514 16.731C17.2514 17.9586 16.2457 18.953 15.0182 18.953C15.0116 18.953 15.005 18.953 14.999 18.953C14.993 18.953 14.9858 18.953 14.9798 18.953C13.753 18.953 12.7472 17.9572 12.7472 16.731C12.7472 16.731 11.629 9.45135 11.4687 7.0036C11.3893 5.77807 12.3281 3.50246 14.9805 3.50246C14.9871 3.50246 14.9937 3.50313 14.9997 3.50313C15.0056 3.50313 15.0122 3.50246 15.0189 3.50246C17.6705 3.50246 18.6107 5.77807 18.5306 7.0036Z" fill="#5A4596"/>
</g>
<defs>
<clipPath id="clip0_113_736">
<rect width="30" height="30" fill="white"/>
</clipPath>
</defs>
</svg>
