<svg width="51" height="47" viewBox="0 0 51 47" fill="none" xmlns="http://www.w3.org/2000/svg">
<path d="M49.3294 2.46235C49.0514 1.98022 48.715 1.56016 48.3337 1.20942C48.3245 1.20011 48.3164 1.20011 48.3082 1.19287C47.4669 0.438624 46.3945 0.0175306 45.1985 0.000976562C44.0035 0.0175306 42.9302 0.438624 42.0899 1.19287C42.0807 1.20114 42.0735 1.20114 42.0643 1.20942C41.683 1.56016 41.3447 1.98022 41.0687 2.46235C40.2723 3.84772 40.1854 5.42553 40.809 6.85331L45.1995 14.5582L49.5911 6.85331C50.2147 5.42553 50.1278 3.84669 49.3315 2.46235H49.3294ZM45.1188 6.2077C44.3255 6.2077 43.6825 5.55796 43.6825 4.75405C43.6825 3.95015 44.3265 3.3004 45.1188 3.3004C45.911 3.3004 46.555 3.95222 46.555 4.75405C46.555 5.55589 45.911 6.2077 45.1188 6.2077Z" fill="#F9B233"/>
<path d="M20.6104 36.0196C20.0226 36.0196 19.5228 35.7299 19.2294 35.2167L8.71663 16.8169C7.89883 15.3787 6.49427 14.5593 4.8597 14.5593H4.47125C2.83668 14.5593 1.4311 15.3787 0.614323 16.8169C-0.203472 18.2467 -0.203472 19.8856 0.614323 21.3237L12.6114 42.3349C13.4506 43.8103 14.5884 44.9701 15.9367 45.7647L21.7942 35.496C21.4967 35.8344 21.0827 36.0216 20.6115 36.0216L20.6104 36.0196Z" fill="#5B4595"/>
<path d="M20.6268 47C24.0074 47 26.9208 45.3053 28.6116 42.3328L42.3158 18.5499L36.9827 9.19165L21.9925 35.2156C21.9343 35.317 21.8678 35.4101 21.7942 35.4939L15.9368 45.7626C17.3045 46.5696 18.889 47 20.5962 47H20.6278H20.6268Z" fill="#F9B233"/>
</svg>
