<?xml version="1.0" encoding="utf-8"?>
<!-- Generator: Adobe Illustrator 27.8.0, SVG Export Plug-In . SVG Version: 6.00 Build 0)  -->
<svg version="1.1" id="Layer_1" xmlns="http://www.w3.org/2000/svg" xmlns:xlink="http://www.w3.org/1999/xlink" x="0px" y="0px"
	 viewBox="0 0 23 23" style="enable-background:new 0 0 23 23;" xml:space="preserve">
<style type="text/css">
	.st0{fill:#5A4596;}
</style>
<path class="st0" d="M4.7,0.8h13.9c0.5,0,1.1,0.1,1.5,0.3c0.5,0.2,0.9,0.5,1.3,0.9c0.4,0.4,0.7,0.8,0.9,1.3c0.2,0.5,0.3,1,0.3,1.5
	v13.8c0,0.5-0.1,1.1-0.3,1.5c-0.2,0.5-0.5,0.9-0.9,1.3c-0.4,0.4-0.8,0.7-1.3,0.9c-0.5,0.2-1,0.3-1.5,0.3H4.7c-0.5,0-1.1-0.1-1.5-0.3
	c-0.5-0.2-0.9-0.5-1.3-0.9l0,0c-0.4-0.4-0.7-0.8-0.9-1.3c-0.2-0.5-0.3-1-0.3-1.5V4.8c0-0.5,0.1-1.1,0.3-1.5C1.2,2.8,1.5,2.4,1.9,2
	l0,0c0.4-0.4,0.8-0.7,1.3-0.9C3.7,0.9,4.2,0.8,4.7,0.8L4.7,0.8z M18.6,1.7H4.7c-0.4,0-0.8,0.1-1.2,0.2c-0.4,0.2-0.7,0.4-1,0.7v0
	C2.2,2.9,2,3.3,1.8,3.6C1.7,4,1.6,4.4,1.6,4.8v13.8c0,0.4,0.1,0.8,0.2,1.2c0.2,0.4,0.4,0.7,0.7,1v0c0.3,0.3,0.6,0.5,1,0.7
	c0.4,0.2,0.8,0.2,1.2,0.2h13.9c0.4,0,0.8-0.1,1.2-0.2c0.4-0.2,0.7-0.4,1-0.7c0.3-0.3,0.5-0.6,0.7-1c0.2-0.4,0.2-0.8,0.2-1.2V4.8
	c0-0.4-0.1-0.8-0.2-1.2c-0.2-0.4-0.4-0.7-0.7-1c-0.3-0.3-0.6-0.5-1-0.7C19.5,1.8,19.1,1.7,18.6,1.7L18.6,1.7z"/>
<path class="st0" d="M6.1,19.2V4.8V4.5h0.3h5.4c0.5,0,0.9,0,1.3,0h0c0.4,0,0.7,0.1,1,0.1v0c0.4,0.1,0.7,0.2,1,0.3
	c0.3,0.1,0.6,0.3,0.9,0.4l0,0c0.3,0.2,0.5,0.4,0.7,0.6c0.2,0.2,0.4,0.5,0.5,0.8c0.2,0.3,0.3,0.7,0.3,1c0.1,0.3,0.1,0.7,0.1,1.1
	c0,0.6-0.1,1.2-0.3,1.8c-0.2,0.6-0.5,1.1-0.9,1.5c-0.4,0.5-1,0.8-1.8,1c-0.7,0.2-1.6,0.3-2.7,0.3h-3l0,5.6l0,0.3l-0.3,0l-2.3,0H6.1
	V19.2L6.1,19.2z M6.7,5.1v13.8l1.7,0l0-5.6l0-0.3h0.3H12c1,0,1.8-0.1,2.5-0.3c0.7-0.2,1.2-0.5,1.5-0.9c0.4-0.4,0.6-0.8,0.8-1.3
	c0.2-0.5,0.3-1,0.3-1.6c0-0.3,0-0.7-0.1-1c-0.1-0.3-0.2-0.6-0.3-0.9c-0.1-0.3-0.3-0.5-0.5-0.7C16,6.2,15.8,6,15.6,5.9l0,0
	c-0.2-0.2-0.5-0.3-0.7-0.4c-0.3-0.1-0.6-0.2-0.9-0.2h0c-0.2,0-0.5-0.1-0.9-0.1c-0.4,0-0.8,0-1.2,0H6.7L6.7,5.1z M8.9,11.3h3
	c0.9,0,1.5-0.1,1.9-0.4c0.4-0.3,0.6-0.9,0.6-1.9c0-1-0.2-1.6-0.6-1.9c-0.4-0.3-1.1-0.4-2-0.4h-3L8.9,11.3L8.9,11.3z M12,11.9H8.6
	H8.4l0-0.3l0-5.1l0-0.3h0.3h3.3c1,0,1.8,0.1,2.3,0.5c0.6,0.4,0.9,1.1,0.9,2.3c0,1.2-0.3,1.9-0.9,2.3C13.7,11.8,13,11.9,12,11.9
	L12,11.9z"/>
</svg>
