<?xml version="1.0" encoding="utf-8"?>
<!-- Generator: Adobe Illustrator 27.8.0, SVG Export Plug-In . SVG Version: 6.00 Build 0)  -->
<svg version="1.1" id="Layer_1" xmlns="http://www.w3.org/2000/svg" xmlns:xlink="http://www.w3.org/1999/xlink" x="0px" y="0px"
	 viewBox="0 0 23 23" style="enable-background:new 0 0 23 23;" xml:space="preserve">
<style type="text/css">
	.st0{fill:#5A4596;}
</style>
<path class="st0" d="M11.8,8.8c2.8,0,3.2,1.8,3.7,3.6c0.2,0.9,0.4,1.7,0.9,2.2c0.6,0.6,1.1,1.7,1.2,2.7c0.2,1.1,0,2.1-0.5,2.7
	c-1.2,1.3-2.8,0.9-4.2,0.6c-0.5-0.1-0.9-0.2-1.3-0.2c-0.4,0-0.9,0.1-1.4,0.3C8.8,21,7,21.4,5.9,19.9c-0.5-0.7-0.5-1.6-0.3-2.4h0
	c0.2-1.1,0.8-2.2,1.3-2.8c0.4-0.5,0.7-1.3,0.9-2.1C8.4,10.7,8.9,8.8,11.8,8.8L11.8,8.8z M14.7,12.6c-0.3-1.5-0.7-3-2.8-3
	c-2.3,0-2.7,1.6-3.2,3.1c-0.3,0.9-0.5,1.8-1.1,2.4c-0.4,0.5-1,1.4-1.2,2.4v0c-0.1,0.7-0.1,1.3,0.2,1.8c0.7,1.1,2.2,0.7,3.5,0.4
	c0.6-0.1,1.1-0.3,1.6-0.3c0.4,0,0.9,0.1,1.5,0.2c1.2,0.3,2.5,0.6,3.4-0.4c0.3-0.4,0.4-1.2,0.3-2c-0.1-0.9-0.5-1.7-1-2.2
	C15.1,14.5,14.9,13.6,14.7,12.6L14.7,12.6z"/>
<path class="st0" d="M15.3,2c0.9,0.1,1.5,0.6,1.8,1.3c0.3,0.6,0.3,1.5,0.2,2.4v0l0,0c-0.1,0.9-0.5,1.7-1.1,2.3
	c-0.5,0.6-1.2,0.9-1.7,0.8C14,8.7,13.4,8.3,13,7.6c-0.4-0.6-0.6-1.5-0.5-2.4v0l0,0c0.1-0.9,0.3-1.7,0.8-2.3
	C13.7,2.3,14.3,1.9,15.3,2L15.3,2z M16.6,3.5c-0.2-0.5-0.7-0.9-1.4-0.9c-0.7-0.1-1.2,0.2-1.5,0.6c-0.4,0.5-0.5,1.2-0.6,2v0l0,0
	c-0.1,0.8,0.1,1.5,0.5,2.1c0.3,0.5,0.7,0.9,1.1,0.9c0.4,0,0.8-0.2,1.3-0.7c0.4-0.5,0.8-1.1,0.9-1.9l0,0C16.8,4.8,16.8,4.1,16.6,3.5
	L16.6,3.5z"/>
<path class="st0" d="M20.4,7.6c0.8,0.5,1.2,1.1,1.2,1.9c0,0.7-0.3,1.5-0.7,2.3l0,0c-0.5,0.8-1.2,1.4-1.9,1.7
	c-0.7,0.3-1.5,0.3-1.9,0.1c-0.5-0.3-0.8-0.9-0.9-1.7c-0.1-0.7,0-1.6,0.4-2.4v0l0-0.1c0.4-0.8,1-1.4,1.6-1.8
	C18.8,7.2,19.6,7.1,20.4,7.6L20.4,7.6z M21,9.5c0-0.6-0.3-1-0.9-1.4C19.5,7.7,19,7.8,18.5,8c-0.5,0.3-1,0.9-1.4,1.5l0,0
	c-0.4,0.7-0.5,1.5-0.4,2.1c0.1,0.6,0.3,1.1,0.6,1.3c0.3,0.2,0.9,0.1,1.4-0.1c0.6-0.3,1.2-0.7,1.6-1.4l0,0C20.8,10.8,21,10.1,21,9.5
	L21,9.5z"/>
<path class="st0" d="M8.1,2.6C7.4,2.7,6.9,3,6.7,3.5C6.5,4.1,6.4,4.8,6.5,5.6C6.6,6.4,6.9,7,7.4,7.5c0.4,0.5,1,0.8,1.4,0.8
	c0.4,0,0.8-0.4,1.1-0.9c0.3-0.6,0.5-1.3,0.5-2.1l0,0v0c-0.1-0.8-0.3-1.5-0.6-2C9.3,2.8,8.8,2.5,8.1,2.6L8.1,2.6z M6.2,3.3
	C6.5,2.6,7.1,2.1,8,2C9,1.9,9.6,2.3,10.1,2.9c0.4,0.6,0.7,1.4,0.8,2.3l0,0v0c0.1,0.9-0.1,1.8-0.5,2.4c-0.4,0.7-1,1.1-1.5,1.2
	c-0.6,0.1-1.3-0.3-1.9-1C6.5,7.3,6.1,6.5,6,5.7C5.9,4.8,5.9,3.9,6.2,3.3L6.2,3.3z"/>
<path class="st0" d="M3.2,8.1C2.5,8.4,2.3,8.9,2.3,9.5c0,0.6,0.3,1.3,0.7,2l0,0c0.4,0.7,1,1.2,1.6,1.4C5.1,13.1,5.6,13.2,6,13
	c0.3-0.2,0.6-0.7,0.6-1.3c0.1-0.6,0-1.4-0.4-2.1l0,0C5.8,8.9,5.3,8.3,4.8,8C4.3,7.8,3.8,7.7,3.2,8.1L3.2,8.1z M1.7,9.5
	c0-0.8,0.3-1.4,1.2-1.9c0.8-0.5,1.6-0.4,2.2,0c0.6,0.4,1.1,1,1.6,1.8l0,0.1v0c0.4,0.8,0.5,1.7,0.4,2.4c-0.1,0.8-0.5,1.4-0.9,1.7
	c-0.5,0.3-1.2,0.2-1.9-0.1c-0.7-0.3-1.4-0.9-1.9-1.7l0,0C2,11,1.7,10.2,1.7,9.5L1.7,9.5z"/>
</svg>
