<?xml version="1.0" encoding="utf-8"?>
<!-- Generator: Adobe Illustrator 27.8.0, SVG Export Plug-In . SVG Version: 6.00 Build 0)  -->
<svg version="1.1" id="Layer_1" xmlns="http://www.w3.org/2000/svg" xmlns:xlink="http://www.w3.org/1999/xlink" x="0px" y="0px"
	 viewBox="0 0 23 23" style="enable-background:new 0 0 23 23;" xml:space="preserve">
<style type="text/css">
	.st0{fill:#5A4596;}
</style>
<path class="st0" d="M7.6,12.1V5.1V4.9h0c0-0.5,0.1-0.9,0.2-1.2c0.1-0.4,0.3-0.8,0.5-1.1l0.1-0.1h0C8.7,2.2,9,2,9.3,1.8
	c0.4-0.2,0.8-0.3,1.3-0.3l0.1,0h0c0.4,0,0.7,0.1,1.1,0.2c0.3,0.1,0.6,0.3,0.9,0.6c0.3,0.3,0.5,0.6,0.6,1.1c0.1,0.4,0.2,0.9,0.2,1.5
	v0l0,0.1v0l0,0.1l0,0.2h-0.2h-1.2h-0.2l0-0.2l0-0.2c0-0.4-0.1-0.7-0.1-0.9c-0.1-0.3-0.2-0.4-0.3-0.6c-0.1-0.1-0.2-0.2-0.3-0.2l0,0
	c-0.1-0.1-0.3-0.1-0.5-0.1l-0.1,0c-0.2,0-0.4,0-0.6,0.1C9.9,3.3,9.8,3.4,9.7,3.5l0,0.1C9.5,3.7,9.4,4,9.4,4.2h0
	C9.3,4.4,9.3,4.7,9.3,5v0.2v1.5h4.5V5.1l0-0.2c0-0.5,0.1-0.9,0.2-1.2h0c0.1-0.4,0.3-0.8,0.5-1.1c0.3-0.4,0.6-0.6,1-0.8
	c0.4-0.2,0.8-0.3,1.3-0.3h0c0.4,0,0.8,0.1,1.1,0.2h0c0.3,0.1,0.6,0.3,0.9,0.6C19,2.7,19.2,3,19.4,3.5c0.1,0.4,0.2,0.9,0.2,1.5l0,0.1
	l0,0.2h-0.2h-1.2H18l0-0.2l0-0.1c0-0.4,0-0.7-0.1-1c-0.1-0.3-0.2-0.5-0.3-0.6c-0.1-0.1-0.2-0.2-0.3-0.2c-0.2-0.1-0.3-0.1-0.5-0.1
	l0,0c-0.2,0-0.4,0-0.6,0.1l0,0c-0.1,0.1-0.3,0.2-0.4,0.3c-0.1,0.2-0.2,0.4-0.3,0.6v0c-0.1,0.2-0.1,0.5-0.1,0.7v0.2v6.9v0.2h-0.2
	h-1.2h-0.2v-0.2v-1.2H9.3v1.2v0.2H9.1H7.8H7.6V12.1L7.6,12.1z M8.2,3.8C8.1,4.2,8.1,4.6,8.1,5.1l0,0.2l0,0v6.5h0.8v-1.2v-0.2h0.2
	h4.9h0.2v0.2v1.2h0.8V5.4h0l0-0.2c0-0.4,0-0.8,0.1-1h0c0.1-0.3,0.2-0.6,0.4-0.8c0.2-0.2,0.3-0.3,0.5-0.4v0c0.2-0.1,0.5-0.1,0.7-0.1
	l0,0h0c0.2,0,0.4,0,0.6,0.1c0.2,0.1,0.4,0.2,0.5,0.3C18,3.4,18.2,3.6,18.3,4c0.1,0.3,0.1,0.6,0.1,1h0.8c0-0.5-0.1-0.9-0.2-1.3
	c-0.1-0.4-0.3-0.7-0.6-1c-0.2-0.2-0.5-0.4-0.7-0.5v0C17.4,2,17,2,16.7,2h0c-0.4,0-0.7,0.1-1.1,0.2c-0.3,0.1-0.6,0.4-0.8,0.7
	c-0.2,0.3-0.4,0.6-0.5,1v0c-0.1,0.4-0.2,0.8-0.2,1.3l0,0.2h0v1.5v0.2h-0.2H9.1H8.8V6.9V5.4h0l0-0.2c0-0.4,0-0.7,0.1-1v0
	C9,3.9,9.1,3.7,9.2,3.5l0.1-0.2C9.5,3.1,9.6,3,9.8,2.9c0.2-0.1,0.5-0.2,0.7-0.2h0l0.1,0h0c0.2,0,0.4,0,0.6,0.1l0,0
	c0.2,0.1,0.3,0.2,0.5,0.3c0.2,0.2,0.3,0.4,0.4,0.7c0.1,0.3,0.1,0.6,0.2,1h0.8c0-0.5-0.1-1-0.2-1.4c-0.1-0.4-0.3-0.7-0.6-0.9
	c-0.2-0.2-0.5-0.4-0.7-0.5C11.3,2,11,2,10.6,2l-0.1,0l0,0C10.2,2,9.8,2,9.5,2.2C9.2,2.4,8.9,2.6,8.7,2.9C8.5,3.2,8.3,3.4,8.2,3.8
	L8.2,3.8z M13.7,9.4V8.1H9.3v1.4H13.7L13.7,9.4z M14.2,7.9v1.8v0.2h-0.2H9.1H8.8V9.6V7.9V7.7h0.2h4.9h0.2V7.9L14.2,7.9z"/>
<path class="st0" d="M1.1,15.1c0.2,0,0.4-0.1,0.7-0.3h0c0.3-0.2,0.7-0.4,1-0.6c0.5-0.3,1-0.7,1.5-0.9c0.6-0.3,1.2-0.5,1.8-0.5
	c0.7,0,1.3,0.2,1.9,0.4c0.6,0.3,1.1,0.6,1.6,0.9c0.4,0.2,0.8,0.5,1.1,0.7c0.3,0.2,0.6,0.3,0.8,0.3c0.2,0,0.4-0.1,0.7-0.3
	c0.3-0.2,0.7-0.4,1-0.7l0,0c1-0.7,2.1-1.4,3.4-1.4c1.3,0,2.2,0.7,3.2,1.4l0,0l0,0l0,0c0.6,0.4,1.2,0.9,1.5,0.9v0.9
	c-0.6,0-1.3-0.5-2-1l0,0l0,0l0,0l0,0l0,0l0,0l0,0c-0.9-0.6-1.7-1.3-2.7-1.3c-1,0-2,0.6-2.9,1.3l0,0c-0.4,0.3-0.8,0.5-1.1,0.7
	c-0.4,0.2-0.8,0.4-1.1,0.4c-0.4,0-0.8-0.1-1.2-0.4c-0.4-0.2-0.8-0.5-1.2-0.7c-0.5-0.3-1-0.6-1.5-0.9c-0.5-0.2-1-0.4-1.5-0.4
	c-0.5,0-1,0.1-1.4,0.4c-0.5,0.2-0.9,0.6-1.4,0.9c-0.4,0.2-0.7,0.5-1.1,0.7l0,0c-0.4,0.2-0.8,0.4-1.1,0.4V15.1L1.1,15.1z M13.3,14.1
	L13.3,14.1L13.3,14.1L13.3,14.1z M13.8,14.8L13.8,14.8L13.8,14.8L13.8,14.8z M21.4,17.9c-1.3,0-2.2-0.7-3.2-1.4l0,0l0,0
	c-0.6-0.4-1.2-0.9-1.5-0.9c-0.4,0-1.1,0.5-1.8,0.9l0,0l0,0l0,0c-1,0.7-2.1,1.4-3.4,1.4c-1.3,0-2.4-0.7-3.5-1.4l0,0l0,0l0,0
	c-0.7-0.5-1.4-0.9-1.9-0.9c-0.2,0-0.4,0.1-0.7,0.3h0c-0.3,0.2-0.7,0.4-1,0.6c-1,0.7-2,1.4-3.3,1.4v-0.9c1,0,1.9-0.6,2.8-1.3
	c0.4-0.2,0.7-0.5,1.1-0.7l0,0c0.4-0.2,0.8-0.4,1.1-0.4c0.7,0,1.6,0.5,2.4,1.1l0,0l0,0c1,0.6,1.9,1.2,3,1.2c1,0,2-0.6,2.9-1.3l0,0
	l0,0l0,0c0.8-0.5,1.6-1.1,2.2-1.1c0.6,0,1.3,0.5,2,1l0,0l0,0l0,0v0l0,0l0,0c0.9,0.6,1.7,1.3,2.7,1.3V17.9L21.4,17.9z"/>
<path class="st0" d="M1,19.3c0.4,0,1.1-0.4,1.7-0.9c0.5-0.3,1-0.7,1.5-0.9C4.8,17.2,5.4,17,6.1,17c1.3,0,2.4,0.7,3.5,1.4l0,0l0,0
	c0.4,0.2,0.8,0.5,1.1,0.7c0.3,0.2,0.6,0.3,0.8,0.3c0.2,0,0.4-0.1,0.7-0.3c0.3-0.2,0.7-0.4,1-0.6l0,0c1-0.7,2.1-1.4,3.4-1.4
	c1.3,0,2.2,0.7,3.2,1.4l0,0l0,0l0,0l0,0c0.6,0.4,1.2,0.9,1.5,0.9v0.9c-0.6,0-1.3-0.5-2-1l0,0l0,0l0,0l0,0l0,0l0,0
	c-0.9-0.6-1.7-1.3-2.7-1.3c-1,0-1.9,0.6-2.9,1.2l0,0l0,0c-0.4,0.3-0.8,0.5-1.1,0.7c-0.4,0.2-0.8,0.4-1.1,0.4c-0.4,0-0.8-0.1-1.2-0.4
	c-0.4-0.2-0.8-0.5-1.2-0.7l0,0l0,0c-1-0.6-1.9-1.2-3-1.2c-0.5,0-1,0.1-1.4,0.4c-0.5,0.2-0.9,0.6-1.4,0.9c-0.8,0.5-1.5,1-2.2,1V19.3
	L1,19.3z M21.4,22.2c-1.3,0-2.2-0.7-3.2-1.4l0,0l0,0c-0.6-0.4-1.2-0.9-1.5-0.9c-0.4,0-1.1,0.5-1.8,0.9l0,0l0,0l0,0l0,0
	c-1,0.7-2.1,1.4-3.3,1.4c-0.7,0-1.3-0.2-1.9-0.4c-0.6-0.3-1.1-0.6-1.6-0.9h0l0,0c-0.7-0.5-1.5-0.9-1.9-0.9c-0.2,0-0.4,0.1-0.7,0.3h0
	c-0.3,0.2-0.7,0.4-1,0.6l0,0l0,0l0,0c-1,0.7-2,1.4-3.3,1.4v-0.9c1,0,1.9-0.6,2.8-1.2l0,0l0,0l0,0c0.4-0.2,0.7-0.5,1.1-0.7l0,0
	C5.3,19.2,5.7,19,6.1,19c0.7,0,1.6,0.5,2.4,1.1l0,0c0.5,0.3,1,0.6,1.5,0.9c0.5,0.2,1,0.4,1.5,0.4c1,0,2-0.6,2.9-1.3l0,0l0,0l0,0
	c0.8-0.5,1.6-1.1,2.2-1.1c0.6,0,1.3,0.5,2,1l0,0l0,0l0,0c0.8,0.6,1.7,1.3,2.7,1.3V22.2L21.4,22.2z"/>
</svg>
