<?xml version="1.0" encoding="utf-8"?>
<!-- Generator: Adobe Illustrator 27.8.0, SVG Export Plug-In . SVG Version: 6.00 Build 0)  -->
<svg version="1.1" id="Layer_1" xmlns="http://www.w3.org/2000/svg" xmlns:xlink="http://www.w3.org/1999/xlink" x="0px" y="0px"
	 viewBox="0 0 23 23" style="enable-background:new 0 0 23 23;" xml:space="preserve">
<style type="text/css">
	.st0{fill:#5A4596;}
</style>
<path class="st0" d="M15.8,9.4l-0.9,0.9l-0.3,0.3l0-0.4l0.1-1.5l-0.3,0l-0.2,2.2l0,0.1l0,0l-1.5,1.5c0,0,0.1,0.1,0.1,0.1
	c0,0,0.1,0.1,0.1,0.1l1.5-1.5l0,0l0.1,0l2.2-0.3l0-0.3l-1.4,0.2l-0.5,0.1l0.3-0.3L16,9.6L15.8,9.4L15.8,9.4z M15,9.7L15.7,9l0.1-0.1
	L15.9,9l0.4,0.4l0.1,0.1l-0.1,0.1l-0.6,0.6l1.1-0.1l0.2,0l0,0.2l0.1,0.6l0,0.2l-0.2,0l-2.3,0.3l-1.6,1.6l-0.2,0.2l-0.1-0.2
	c0-0.1-0.1-0.1-0.1-0.2c-0.1-0.1-0.1-0.1-0.2-0.2l-0.2-0.1l0.1-0.1l1.6-1.6l0.2-2.3l0-0.2l0.2,0l0.6,0l0.2,0l0,0.2L15,9.7L15,9.7z"
	/>
<path class="st0" d="M11.1,14.1l-1.5,1.5l0,0l-0.1,0l-2.2,0.2l0,0.3l1.5-0.1l0.4,0L9,16.2L8,17.2l0.2,0.2l0.9-0.9l0.3-0.3l-0.1,0.5
	L9.2,18l0.3,0l0.3-2.2l0-0.1l0,0l1.5-1.5c0,0-0.1-0.1-0.1-0.1l0,0C11.1,14.2,11.1,14.1,11.1,14.1L11.1,14.1z M9.4,15.3l1.5-1.5
	l0.1-0.1l0.1,0.2c0,0.1,0.1,0.1,0.2,0.2l0,0c0.1,0.1,0.1,0.1,0.2,0.1l0.2,0.1l-0.2,0.2L10.1,16l-0.3,2.3l0,0.2l-0.2,0L9,18.3l-0.2,0
	l0-0.2L9,17l-0.7,0.7l-0.1,0.1l-0.1-0.1l-0.4-0.4l-0.1-0.1L7.7,17l0.7-0.8l-1.3,0.1l-0.2,0l0-0.2l0-0.6l0-0.2l0.2,0L9.4,15.3
	L9.4,15.3z"/>
<path class="st0" d="M8.4,9L9,9.7L8.9,8.4l0-0.2l0.2,0l0.6,0l0.2,0l0,0.2l0.2,2.3l1.6,1.6l0.1,0.1l-0.2,0.1c-0.1,0-0.1,0.1-0.2,0.2
	c-0.1,0.1-0.1,0.1-0.2,0.2l-0.1,0.2L11,12.9l-1.6-1.6l-2.3-0.3l-0.2,0l0-0.2L7,10.3l0-0.2l0.2,0l1.1,0.1L7.7,9.7L7.6,9.6l0.1-0.1
	L8.1,9l0.1-0.1L8.4,9L8.4,9z M9.1,10.2L8.2,9.4L8,9.6l0.8,0.8l0.3,0.3l-0.5-0.1l-1.4-0.2l0,0.3L9.5,11l0.1,0l0,0l1.5,1.5
	c0,0,0.1-0.1,0.1-0.1c0,0,0.1-0.1,0.1-0.1l-1.5-1.5l0,0l0-0.1L9.5,8.6l-0.3,0l0.1,1.5l0,0.4L9.1,10.2L9.1,10.2z"/>
<path class="st0" d="M13.1,13.7l1.6,1.6l2.3,0.2l0.2,0l0,0.2l0,0.6l0,0.2l-0.2,0l-1.3-0.1l0.8,0.7l0.1,0.1l-0.1,0.1l-0.4,0.4
	l-0.1,0.1l-0.1-0.1L15,17l0.1,1.1l0,0.2l-0.2,0l-0.6,0.1l-0.2,0l0-0.2L14,16l-1.6-1.6l-0.1-0.1l0.2-0.1c0.1,0,0.1-0.1,0.2-0.2l0,0
	c0.1-0.1,0.1-0.1,0.2-0.2l0.1-0.2L13.1,13.7L13.1,13.7z M14.4,15.6L13,14.1c0,0-0.1,0.1-0.1,0.1l0,0c0,0-0.1,0.1-0.1,0.1l1.5,1.5
	l0,0l0,0.1l0.3,2.2l0.3,0l-0.2-1.4l-0.1-0.5l0.3,0.3l0.9,0.9l0.2-0.2l-0.9-0.9l-0.3-0.3l0.4,0l1.5,0.1l0-0.3L14.4,15.6L14.4,15.6
	L14.4,15.6L14.4,15.6z"/>
<path class="st0" d="M6.4,12.9h0.9l-1-0.8L6.3,12l0.1-0.1l0.4-0.5l0.1-0.1L7,11.4l1.8,1.5H11h0.2l0,0.2c0,0,0,0.1,0,0.1
	c0,0,0,0.1,0,0.1c0,0.1,0,0.1,0,0.2v0c0,0.1,0,0.1,0,0.1l0.1,0.2H11H8.8L7,15.2l-0.1,0.1l-0.1-0.1l-0.4-0.5l-0.1-0.1l0.1-0.1
	l0.9-0.7H6.4H6.3v-0.2v-0.6v-0.2H6.4L6.4,12.9z M7.8,13.2H6.6v0.3h1.2h0.5l-0.4,0.3l-1.1,0.9l0.2,0.2l1.7-1.3l0,0h0.1h2.1
	c0-0.1,0-0.1,0-0.2c0,0,0-0.1,0-0.1H8.7H8.7l0,0l-1.7-1.4L6.7,12l1.2,1l0.3,0.3H7.8L7.8,13.2z"/>
<path class="st0" d="M13.1,12.9h2.2l1.8-1.5l0.1-0.1l0.1,0.1l0.4,0.5l0.1,0.1l-0.1,0.1l-1,0.8h1.1h0.2v0.2v0.6v0.2h-0.2h-1l0.9,0.7
	l0.1,0.1l-0.1,0.1l-0.4,0.5l-0.1,0.1l-0.1-0.1l-1.8-1.4H13h-0.2l0.1-0.2c0,0,0-0.1,0-0.1v0c0,0,0-0.1,0-0.2c0,0,0-0.1,0-0.1
	c0,0,0-0.1,0-0.1l0-0.2H13.1L13.1,12.9z M15.3,13.2h-2.1c0,0,0,0.1,0,0.1c0,0.1,0,0.1,0,0.2h2.1h0.1l0,0l1.7,1.3l0.2-0.2l-1.1-0.9
	l-0.4-0.3h0.5h1.3v-0.3h-1.3h-0.4l0.3-0.3l1.2-1l-0.2-0.2l-1.7,1.4L15.3,13.2L15.3,13.2L15.3,13.2z"/>
<path class="st0" d="M12.5,7.7v1l0.8-1l0.1-0.1l0.1,0.1L14,8l0.1,0.1L14,8.2L12.5,10v2.3v0.2l-0.2-0.1c0,0-0.1,0-0.1,0
	c0,0-0.1,0-0.1,0c0,0-0.1,0-0.1,0c0,0-0.1,0-0.1,0l-0.2,0.1v-0.2V10l-1.4-1.8l-0.1-0.1L10.2,8l0.5-0.4l0.1-0.1l0.1,0.1l0.7,0.9V7.7
	V7.5h0.2h0.6h0.2V7.7L12.5,7.7z M12.2,9V7.8h-0.3V9v0.5l-0.3-0.4L10.7,8l-0.2,0.2l1.3,1.7l0,0V10v2.2c0,0,0.1,0,0.1,0
	c0,0,0.1,0,0.1,0V10V9.9l0,0l1.4-1.7L13.4,8l-1,1.2l-0.3,0.3V9L12.2,9z"/>
<path class="st0" d="M12.5,14.4v2.2l1.5,1.8l0.1,0.1L14,18.5l-0.5,0.4L13.4,19l-0.1-0.1l-0.8-1V19v0.2h-0.2h-0.6h-0.2V19v-1
	l-0.7,0.9L10.8,19l-0.1-0.1l-0.5-0.4l-0.1-0.1l0.1-0.1l1.4-1.8v-2.2v-0.2l0.2,0.1c0,0,0.1,0,0.1,0c0,0,0.1,0,0.1,0
	c0.1,0,0.2,0,0.3,0l0.2-0.1V14.4L12.5,14.4z M12.2,16.6v-2c0,0-0.1,0-0.1,0c0,0-0.1,0-0.1,0v2v0.1l0,0l-1.3,1.7l0.2,0.2l0.9-1.1
	l0.3-0.4v0.5v1.3h0.3v-1.3v-0.4l0.3,0.3l1,1.2l0.2-0.2l-1.4-1.7L12.2,16.6L12.2,16.6L12.2,16.6z"/>
<path class="st0" d="M18.6,4.6V4.4h0h-6h0v0.2h0H18.6L18.6,4.6L18.6,4.6z M19,4.3v0.4C19,4.8,19,4.9,18.9,5h0C18.8,5,18.7,5,18.6,5
	h-6c-0.1,0-0.2,0-0.3-0.1c-0.1-0.1-0.2-0.2-0.2-0.3V4.3c0-0.1,0.1-0.2,0.2-0.3c0.1,0,0.2-0.1,0.3-0.1h6c0.1,0,0.2,0,0.3,0.1h0
	C19,4.1,19,4.2,19,4.3L19,4.3z"/>
<path class="st0" d="M4.9,1.9h14.4c0.3,0,0.7,0.1,0.9,0.4l0,0c0.2,0.2,0.4,0.5,0.4,0.9V21c0,0.3-0.1,0.7-0.4,0.9l0,0
	c-0.2,0.2-0.5,0.4-0.9,0.4H4.9c-0.3,0-0.7-0.1-0.9-0.4l0,0c-0.2-0.2-0.4-0.5-0.4-0.9V3.1c0-0.3,0.1-0.7,0.4-0.9l0,0
	C4.2,2,4.5,1.9,4.9,1.9L4.9,1.9z M19.3,2.7H4.9c-0.1,0-0.2,0-0.3,0.1l0,0C4.5,2.9,4.5,3,4.5,3.1V21c0,0.1,0,0.2,0.1,0.3l0,0
	c0.1,0.1,0.2,0.1,0.3,0.1h14.4c0.1,0,0.2,0,0.3-0.1l0,0c0.1-0.1,0.1-0.2,0.1-0.3V3.1c0-0.1,0-0.2-0.1-0.3l0,0
	C19.5,2.7,19.4,2.7,19.3,2.7L19.3,2.7z"/>
</svg>
