<?xml version="1.0" encoding="utf-8"?>
<!-- Generator: Adobe Illustrator 27.8.0, SVG Export Plug-In . SVG Version: 6.00 Build 0)  -->
<svg version="1.1" id="Layer_1" xmlns="http://www.w3.org/2000/svg" xmlns:xlink="http://www.w3.org/1999/xlink" x="0px" y="0px"
	 viewBox="0 0 23 23" style="enable-background:new 0 0 23 23;" xml:space="preserve">
<style type="text/css">
	.st0{fill:#5A4596;}
</style>
<g>
	<path class="st0" d="M1.3,3.3c0,0.7-0.1,1.4-0.2,2.1C1,6,0.9,6.7,0.9,7.3h0c0,0.1,0,0.2,0.1,0.2c0.1,0.1,0.3,0.2,0.6,0.2l0.3,0.1
		l0,0.3c0.1,2.2,0,4.4-0.1,6.5c-0.1,1.5-0.1,2.9-0.1,4.3h0c0,0.5,0.1,0.7,0.3,0.8c0,0,0.1,0,0.1,0c0,0,0.1,0,0.1,0
		c0.2-0.1,0.3-0.4,0.3-0.8h0c0-1.4-0.1-3-0.1-4.5c-0.1-2.1-0.2-4.2-0.1-6.2l0-0.3l0.3-0.1c0.3,0,0.5-0.1,0.6-0.2
		c0.1-0.1,0.1-0.1,0.1-0.2h0C3.2,6.6,3.1,6,3,5.4C2.9,4.7,2.8,4,2.8,3.3h0.8c0,0.6,0.1,1.3,0.2,1.9C3.9,5.9,4,6.6,4,7.3h0
		c0,0.3-0.2,0.6-0.4,0.8C3.4,8.3,3.2,8.4,2.9,8.5c0,1.9,0.1,3.9,0.1,5.9c0.1,1.6,0.1,3.2,0.1,4.6h0c0,0.8-0.3,1.3-0.7,1.5
		c-0.2,0.1-0.4,0.2-0.6,0.2c-0.2,0-0.4-0.1-0.6-0.2c-0.4-0.2-0.7-0.7-0.7-1.5h0c0-1.4,0.1-2.8,0.2-4.3c0.1-2,0.2-4,0.2-6.1
		C0.8,8.4,0.6,8.3,0.5,8.1C0.2,7.9,0,7.6,0,7.3h0c0-0.7,0.1-1.4,0.2-2.1c0.1-0.6,0.2-1.3,0.2-1.9H1.3L1.3,3.3z"/>
	<path class="st0" d="M20.5,3.5c-0.4,0-0.8,0.5-1.1,1.1c-0.2,0.4-0.3,0.8-0.3,1.2c0,0.4,0,0.8,0.1,1.1c0.1,0.5,0.4,0.8,0.9,0.9
		L20.4,8l0,0.3c0.1,2.2,0,4.4-0.1,6.5c-0.1,1.5-0.1,2.9-0.1,4.3h0c0,0.5,0.1,0.7,0.3,0.8c0,0,0.1,0,0.1,0c0,0,0.1,0,0.1,0h0
		c0.2-0.1,0.3-0.4,0.3-0.8h0c0-1.4-0.1-3-0.1-4.5c-0.1-2.1-0.2-4.2-0.1-6.2l0-0.3L21,7.9c0.5-0.1,0.8-0.5,0.9-0.9
		c0.1-0.3,0.1-0.7,0.1-1.1c0-0.4-0.2-0.8-0.3-1.2C21.4,4,21,3.5,20.5,3.5L20.5,3.5z M18.7,4.4c0.4-0.9,1.1-1.6,1.8-1.6
		c0.8,0,1.5,0.7,1.9,1.6c0.2,0.4,0.3,0.9,0.4,1.4c0.1,0.5,0,1-0.1,1.4c-0.2,0.7-0.6,1.2-1.2,1.4c0,1.9,0.1,3.9,0.1,5.9
		c0.1,1.6,0.1,3.2,0.1,4.6h0c0,0.8-0.3,1.3-0.7,1.5l0,0c-0.2,0.1-0.4,0.2-0.6,0.2c-0.2,0-0.4-0.1-0.6-0.2c-0.4-0.2-0.7-0.7-0.7-1.5
		h0c0-1.4,0.1-2.8,0.2-4.3c0.1-2,0.2-4,0.2-6.1c-0.7-0.2-1.1-0.8-1.3-1.4c-0.1-0.4-0.1-0.9-0.1-1.4C18.4,5.3,18.5,4.8,18.7,4.4
		L18.7,4.4z"/>
	<path class="st0" d="M11.3,6.6c1.4,0,2.7,0.6,3.6,1.5l0,0l0,0c0.9,0.9,1.5,2.2,1.5,3.6c0,1.4-0.6,2.7-1.5,3.6l0,0l0,0
		c-0.9,0.9-2.2,1.5-3.6,1.5c-1.4,0-2.7-0.6-3.6-1.5l0,0l0,0c-0.9-0.9-1.5-2.2-1.5-3.6c0-1.4,0.6-2.7,1.5-3.6l0,0l0,0
		C8.6,7.2,9.9,6.6,11.3,6.6L11.3,6.6z M14.7,8.4c-0.9-0.9-2-1.4-3.3-1.4C10,7,8.8,7.5,8,8.4l0,0c-0.9,0.9-1.4,2-1.4,3.3
		c0,1.3,0.5,2.5,1.4,3.3l0,0c0.9,0.9,2,1.4,3.3,1.4c1.3,0,2.5-0.5,3.3-1.4l0,0c0.9-0.9,1.4-2,1.4-3.3C16.1,10.4,15.5,9.2,14.7,8.4
		L14.7,8.4L14.7,8.4z"/>
	<path class="st0" d="M11.3,3.6c2.2,0,4.3,0.9,5.7,2.4c1.5,1.5,2.4,3.5,2.4,5.7c0,2.2-0.9,4.3-2.4,5.7c-1.5,1.5-3.5,2.4-5.7,2.4
		c-2.2,0-4.3-0.9-5.7-2.4C4.1,16,3.2,14,3.2,11.7S4.1,7.5,5.6,6C7.1,4.5,9.1,3.6,11.3,3.6L11.3,3.6z M16.5,6.6
		c-1.3-1.3-3.1-2.1-5.2-2.1c-2,0-3.8,0.8-5.2,2.1C4.8,7.9,4,9.7,4,11.7c0,2,0.8,3.8,2.1,5.2c1.3,1.3,3.1,2.1,5.2,2.1
		c2,0,3.8-0.8,5.2-2.1s2.1-3.1,2.1-5.2C18.6,9.7,17.8,7.9,16.5,6.6L16.5,6.6z"/>
	<path class="st0" d="M11.3,7.5c1.2,0,2.2,0.5,3,1.2l0,0c0.8,0.8,1.2,1.8,1.2,3c0,1.2-0.5,2.2-1.2,3l0,0l0,0c-0.8,0.8-1.8,1.2-3,1.2
		c-1.2,0-2.2-0.5-3-1.2l0,0c-0.8-0.8-1.2-1.8-1.2-3c0-1.2,0.5-2.2,1.2-3C9.1,8,10.2,7.5,11.3,7.5L11.3,7.5z M14.1,9
		c-0.7-0.7-1.7-1.1-2.7-1.1c-1.1,0-2,0.4-2.7,1.1c-0.7,0.7-1.1,1.7-1.1,2.7c0,1.1,0.4,2,1.1,2.7c0.7,0.7,1.7,1.1,2.7,1.1
		s2-0.4,2.7-1.1l0,0c0.7-0.7,1.1-1.7,1.1-2.7C15.2,10.7,14.8,9.7,14.1,9L14.1,9L14.1,9z"/>
	<polygon class="st0" points="1.9,3.3 1.9,6.2 1.5,6.2 1.5,3.3 1.9,3.3 	"/>
	<polygon class="st0" points="2.6,3.3 2.6,6.2 2.2,6.2 2.2,3.3 2.6,3.3 	"/>
</g>
</svg>
