<?xml version="1.0" encoding="utf-8"?>
<!-- Generator: Adobe Illustrator 27.8.0, SVG Export Plug-In . SVG Version: 6.00 Build 0)  -->
<svg version="1.1" id="Layer_1" xmlns="http://www.w3.org/2000/svg" xmlns:xlink="http://www.w3.org/1999/xlink" x="0px" y="0px"
	 viewBox="0 0 23 23" style="enable-background:new 0 0 23 23;" xml:space="preserve">
<style type="text/css">
	.st0{fill:#5A4596;}
</style>
<g>
	<polygon class="st0" points="16.3,17.2 19.7,5.3 19.7,5.1 19.9,5.2 22.8,5.2 23,5.2 23,5.4 23,6.1 23,6.3 22.8,6.3 20.6,6.3 
		16.9,19.1 16.5,19 20.2,6 20.3,5.9 20.4,5.9 22.6,5.9 22.6,5.6 20,5.6 16.7,17.3 16.3,17.2 	"/>
	<path class="st0" d="M4,19.8c0.4,0,0.8,0.2,1.1,0.5c0.3,0.3,0.5,0.7,0.5,1.1c0,0.4-0.2,0.8-0.5,1.1l0,0C4.9,22.8,4.5,23,4,23
		s-0.8-0.2-1.1-0.5l0,0c-0.3-0.3-0.5-0.7-0.5-1.1c0-0.4,0.2-0.8,0.5-1.1S3.6,19.8,4,19.8L4,19.8z M4.6,20.8
		c-0.1-0.1-0.3-0.2-0.5-0.2s-0.4,0.1-0.5,0.2c-0.1,0.1-0.2,0.3-0.2,0.5c0,0.2,0.1,0.4,0.2,0.5h0c0.1,0.1,0.3,0.2,0.5,0.2
		s0.4-0.1,0.5-0.2h0c0.1-0.1,0.2-0.3,0.2-0.5C4.8,21.2,4.7,21,4.6,20.8L4.6,20.8z"/>
	<path class="st0" d="M2.5,7.4h13.4h0.4l0,0.4L17.1,20l0,0.4l-0.4,0c-0.6,0-1.2-0.2-1.8-0.3c-0.6-0.2-1.1-0.3-1.6-0.3
		c-0.6,0-1.3,0.2-2,0.3c-0.7,0.2-1.4,0.3-2.1,0.3c-0.8,0-1.5-0.2-2.3-0.3c-0.7-0.2-1.4-0.3-2.1-0.3c-0.5,0-1.1,0.1-1.6,0.3
		c-0.6,0.2-1.2,0.3-1.8,0.3l-0.4,0l0-0.4L2.1,7.7l0-0.4H2.5L2.5,7.4z M15.6,8.2H2.9L1.7,19.5c0.4,0,0.8-0.2,1.2-0.3
		c0.6-0.2,1.2-0.3,1.8-0.3c0.8,0,1.5,0.2,2.3,0.3c0.7,0.2,1.4,0.3,2.1,0.3c0.6,0,1.3-0.2,2-0.3c0.7-0.2,1.4-0.3,2.1-0.3
		c0.6,0,1.2,0.2,1.8,0.3c0.4,0.1,0.8,0.2,1.2,0.3L15.6,8.2L15.6,8.2z"/>
	<path class="st0" d="M9.1,1.6c1,0,1.8,0.4,2.4,1c0.6,0.6,1,1.5,1,2.4l0,0.2h-0.2H5.8H5.6l0-0.2c0-1,0.4-1.8,1-2.4
		C7.3,2,8.1,1.6,9.1,1.6L9.1,1.6z M11.3,2.9C10.7,2.4,9.9,2,9.1,2C8.2,2,7.5,2.4,6.9,2.9C6.4,3.4,6.1,4.1,6,4.9h6.1
		C12.1,4.1,11.8,3.4,11.3,2.9L11.3,2.9z"/>
	<path class="st0" d="M9.1,0.3c0.2,0,0.4,0.1,0.5,0.2l0,0c0.1,0.1,0.2,0.3,0.2,0.5c0,0.2-0.1,0.4-0.2,0.5l0,0
		C9.5,1.7,9.3,1.8,9.1,1.8c-0.2,0-0.4-0.1-0.5-0.2l0,0C8.4,1.5,8.3,1.3,8.3,1.1c0-0.2,0.1-0.4,0.2-0.5l0,0C8.7,0.4,8.9,0.3,9.1,0.3
		L9.1,0.3z M9.3,0.8C9.3,0.8,9.2,0.7,9.1,0.7c-0.1,0-0.2,0-0.2,0.1l0,0C8.8,0.9,8.7,1,8.7,1.1s0,0.2,0.1,0.2l0,0
		C8.9,1.4,9,1.4,9.1,1.4c0.1,0,0.2,0,0.2-0.1v0c0.1-0.1,0.1-0.2,0.1-0.2C9.4,1,9.4,0.9,9.3,0.8L9.3,0.8L9.3,0.8z"/>
	<path class="st0" d="M13.8,5.6v0.3c0,0.2-0.1,0.4-0.2,0.5l0,0c-0.1,0.1-0.3,0.2-0.5,0.2h-8c-0.2,0-0.4-0.1-0.5-0.2
		C4.4,6.3,4.4,6.1,4.4,5.9V5.6V5.4h0.2h9.1h0.2V5.6L13.8,5.6z M13.4,5.9L13.4,5.9L4.8,5.8v0.1c0,0.1,0,0.2,0.1,0.2
		C4.9,6.2,5,6.2,5.1,6.2h8c0.1,0,0.2,0,0.2-0.1l0,0C13.4,6.1,13.4,6,13.4,5.9L13.4,5.9z"/>
	<path class="st0" d="M13.9,19.8c0.4,0,0.8,0.2,1.1,0.5l0,0c0.3,0.3,0.5,0.7,0.5,1.1c0,0.4-0.2,0.8-0.5,1.1h0
		c-0.3,0.3-0.7,0.5-1.1,0.5c-0.4,0-0.8-0.2-1.1-0.5l0,0c-0.3-0.3-0.5-0.7-0.5-1.1c0-0.4,0.2-0.8,0.5-1.1C13,20,13.4,19.8,13.9,19.8
		L13.9,19.8z M14.4,20.8c-0.1-0.1-0.3-0.2-0.5-0.2c-0.2,0-0.4,0.1-0.5,0.2c-0.1,0.1-0.2,0.3-0.2,0.5c0,0.2,0.1,0.4,0.2,0.5h0
		c0.1,0.1,0.3,0.2,0.5,0.2c0.2,0,0.4-0.1,0.5-0.2l0,0c0.1-0.1,0.2-0.3,0.2-0.5C14.7,21.2,14.6,21,14.4,20.8L14.4,20.8L14.4,20.8z"/>
</g>
</svg>
