<?xml version="1.0" encoding="utf-8"?>
<!-- Generator: Adobe Illustrator 27.8.0, SVG Export Plug-In . SVG Version: 6.00 Build 0)  -->
<svg version="1.1" id="Layer_1" xmlns="http://www.w3.org/2000/svg" xmlns:xlink="http://www.w3.org/1999/xlink" x="0px" y="0px"
	 viewBox="0 0 23 23" style="enable-background:new 0 0 23 23;" xml:space="preserve">
<style type="text/css">
	.st0{fill:#5A4596;}
</style>
<g>
	<path class="st0" d="M16.3,10.9l-0.2,2.9h1L17,10.9l0-0.2l0.2-0.1c0.2-0.1,0.4-0.3,0.5-0.5c0.1-0.2,0.2-0.4,0.2-0.7
		c0-0.3-0.1-0.6-0.4-0.9l0,0c-0.2-0.2-0.5-0.4-0.9-0.4S16,8.4,15.8,8.7l0,0c-0.2,0.2-0.4,0.5-0.4,0.9c0,0.2,0.1,0.5,0.2,0.7
		c0.1,0.2,0.3,0.4,0.5,0.5l0.2,0.1L16.3,10.9L16.3,10.9z M15.6,14.1l0.2-3c-0.2-0.1-0.4-0.3-0.6-0.6c-0.2-0.3-0.3-0.6-0.3-1
		c0-0.5,0.2-0.9,0.5-1.3h0c0.3-0.3,0.8-0.5,1.3-0.5c0.5,0,0.9,0.2,1.3,0.5l0,0l0,0c0.3,0.3,0.5,0.8,0.5,1.3c0,0.4-0.1,0.7-0.3,1
		c-0.1,0.2-0.4,0.4-0.6,0.6l0.2,3l0,0.3h-0.3h-1.6h-0.3L15.6,14.1L15.6,14.1z"/>
	<path class="st0" d="M3.1,4.5h16.8c0.2,0,0.4,0,0.6,0.1c0.2,0.1,0.3,0.2,0.5,0.3l0,0c0.1,0.1,0.2,0.3,0.3,0.5
		c0.1,0.2,0.1,0.4,0.1,0.6v10.4c0,0.2,0,0.4-0.1,0.6c-0.1,0.2-0.2,0.3-0.3,0.5l0,0c-0.1,0.1-0.3,0.2-0.5,0.3
		c-0.2,0.1-0.4,0.1-0.6,0.1H3.1c-0.2,0-0.4,0-0.6-0.1c-0.2-0.1-0.3-0.2-0.5-0.3l0,0c-0.1-0.1-0.2-0.3-0.3-0.5
		c-0.1-0.2-0.1-0.4-0.1-0.6V6c0-0.2,0-0.4,0.1-0.6C1.8,5.2,1.9,5.1,2,4.9l0,0c0.1-0.1,0.3-0.2,0.5-0.3C2.7,4.5,2.9,4.5,3.1,4.5
		L3.1,4.5z M19.9,5.3H3.1c-0.1,0-0.2,0-0.2,0c-0.1,0-0.1,0.1-0.2,0.1l0,0C2.6,5.6,2.5,5.7,2.5,5.7c0,0.1,0,0.2,0,0.2v10.4
		c0,0.1,0,0.2,0,0.2c0,0.1,0.1,0.1,0.1,0.2l0,0C2.7,16.9,2.8,17,2.8,17c0.1,0,0.2,0,0.2,0h16.8c0.1,0,0.2,0,0.2,0
		c0.1,0,0.1-0.1,0.2-0.1l0,0c0.1-0.1,0.1-0.1,0.1-0.2c0-0.1,0-0.2,0-0.2V6c0-0.1,0-0.2,0-0.2c0-0.1-0.1-0.1-0.1-0.2l0,0
		c-0.1-0.1-0.1-0.1-0.2-0.1C20.1,5.3,20,5.3,19.9,5.3L19.9,5.3z"/>
	<path class="st0" d="M12,12.8c0.3,0,0.6,0.1,0.8,0.3l0,0c0.2,0.2,0.3,0.5,0.3,0.8c0,0.3-0.1,0.6-0.3,0.8S12.3,15,12,15
		c-0.3,0-0.6-0.1-0.8-0.3l0,0c-0.2-0.2-0.3-0.5-0.3-0.8c0-0.3,0.1-0.6,0.3-0.8l0,0C11.4,12.9,11.6,12.8,12,12.8L12,12.8z M12.4,13.4
		c-0.1-0.1-0.3-0.2-0.5-0.2s-0.4,0.1-0.5,0.2v0c-0.1,0.1-0.2,0.3-0.2,0.5c0,0.2,0.1,0.4,0.2,0.5h0c0.1,0.1,0.3,0.2,0.5,0.2
		c0.2,0,0.4-0.1,0.5-0.2c0.1-0.1,0.2-0.3,0.2-0.5C12.6,13.7,12.5,13.5,12.4,13.4L12.4,13.4L12.4,13.4z"/>
	<path class="st0" d="M6,12.7c0.3,0,0.6,0.1,0.8,0.3l0,0c0.2,0.2,0.3,0.5,0.3,0.8c0,0.3-0.1,0.6-0.3,0.8c-0.2,0.2-0.5,0.3-0.8,0.3
		c-0.3,0-0.6-0.1-0.8-0.3s-0.3-0.5-0.3-0.8c0-0.3,0.1-0.6,0.3-0.8l0,0C5.5,12.9,5.7,12.7,6,12.7L6,12.7z M6.5,13.4
		c-0.1-0.1-0.3-0.2-0.5-0.2c-0.2,0-0.4,0.1-0.5,0.2l0,0c-0.1,0.1-0.2,0.3-0.2,0.5c0,0.2,0.1,0.4,0.2,0.5c0.1,0.1,0.3,0.2,0.5,0.2
		c0.2,0,0.4-0.1,0.5-0.2c0.1-0.1,0.2-0.3,0.2-0.5C6.7,13.7,6.6,13.5,6.5,13.4L6.5,13.4L6.5,13.4z"/>
	<path class="st0" d="M9,12.8c0.3,0,0.6,0.1,0.8,0.3l0,0c0.2,0.2,0.3,0.5,0.3,0.8c0,0.3-0.1,0.6-0.3,0.8l0,0C9.6,14.8,9.3,15,9,15
		c-0.3,0-0.6-0.1-0.8-0.3s-0.3-0.5-0.3-0.8c0-0.3,0.1-0.6,0.3-0.8l0,0C8.4,12.9,8.7,12.8,9,12.8L9,12.8z M9.5,13.4
		c-0.1-0.1-0.3-0.2-0.5-0.2s-0.4,0.1-0.5,0.2v0c-0.1,0.1-0.2,0.3-0.2,0.5c0,0.2,0.1,0.4,0.2,0.5c0.1,0.1,0.3,0.2,0.5,0.2
		c0.2,0,0.4-0.1,0.5-0.2v0c0.1-0.1,0.2-0.3,0.2-0.5C9.7,13.7,9.6,13.5,9.5,13.4L9.5,13.4L9.5,13.4z"/>
	<path class="st0" d="M12,10.1c0.3,0,0.6,0.1,0.8,0.3s0.3,0.5,0.3,0.8c0,0.3-0.1,0.6-0.3,0.8h0c-0.2,0.2-0.5,0.3-0.8,0.3
		c-0.3,0-0.6-0.1-0.8-0.3c-0.2-0.2-0.3-0.5-0.3-0.8c0-0.3,0.1-0.6,0.3-0.8C11.4,10.2,11.7,10.1,12,10.1L12,10.1z M12.4,10.7
		c-0.1-0.1-0.3-0.2-0.5-0.2c-0.2,0-0.4,0.1-0.5,0.2c-0.1,0.1-0.2,0.3-0.2,0.5c0,0.2,0.1,0.4,0.2,0.5c0.1,0.1,0.3,0.2,0.5,0.2
		c0.2,0,0.4-0.1,0.5-0.2l0,0c0.1-0.1,0.2-0.3,0.2-0.5C12.6,11,12.5,10.8,12.4,10.7L12.4,10.7z"/>
	<path class="st0" d="M6,10.1c0.3,0,0.6,0.1,0.8,0.3c0.2,0.2,0.3,0.5,0.3,0.8S7,11.7,6.8,11.9c-0.2,0.2-0.5,0.3-0.8,0.3
		c-0.3,0-0.6-0.1-0.8-0.3h0c-0.2-0.2-0.3-0.5-0.3-0.8c0-0.3,0.1-0.6,0.3-0.8C5.5,10.2,5.7,10.1,6,10.1L6,10.1z M6.5,10.7
		c-0.1-0.1-0.3-0.2-0.5-0.2c-0.2,0-0.4,0.1-0.5,0.2c-0.1,0.1-0.2,0.3-0.2,0.5c0,0.2,0.1,0.4,0.2,0.5l0,0c0.1,0.1,0.3,0.2,0.5,0.2
		c0.2,0,0.4-0.1,0.5-0.2c0.1-0.1,0.2-0.3,0.2-0.5S6.6,10.8,6.5,10.7L6.5,10.7z"/>
	<path class="st0" d="M9,10.1c0.3,0,0.6,0.1,0.8,0.3l0,0c0.2,0.2,0.3,0.5,0.3,0.8c0,0.3-0.1,0.6-0.3,0.8l0,0
		c-0.2,0.2-0.5,0.3-0.8,0.3c-0.3,0-0.6-0.1-0.8-0.3c-0.2-0.2-0.3-0.5-0.3-0.8c0-0.3,0.1-0.6,0.3-0.8l0,0C8.4,10.2,8.7,10.1,9,10.1
		L9,10.1z M9.5,10.7c-0.1-0.1-0.3-0.2-0.5-0.2c-0.2,0-0.4,0.1-0.5,0.2v0c-0.1,0.1-0.2,0.3-0.2,0.5c0,0.2,0.1,0.4,0.2,0.5
		c0.1,0.1,0.3,0.2,0.5,0.2c0.2,0,0.4-0.1,0.5-0.2v0c0.1-0.1,0.2-0.3,0.2-0.5C9.7,11,9.6,10.8,9.5,10.7L9.5,10.7L9.5,10.7z"/>
	<path class="st0" d="M12,7.3c0.3,0,0.6,0.1,0.8,0.3S13,8.1,13,8.4c0,0.3-0.1,0.6-0.3,0.8c-0.2,0.2-0.5,0.3-0.8,0.3
		c-0.3,0-0.6-0.1-0.8-0.3l0,0c-0.2-0.2-0.3-0.5-0.3-0.8c0-0.3,0.1-0.6,0.3-0.8C11.4,7.4,11.6,7.3,12,7.3L12,7.3z M12.4,7.9
		c-0.1-0.1-0.3-0.2-0.5-0.2c-0.2,0-0.4,0.1-0.5,0.2c-0.1,0.1-0.2,0.3-0.2,0.5c0,0.2,0.1,0.4,0.2,0.5h0C11.6,9,11.8,9,12,9
		c0.2,0,0.4-0.1,0.5-0.2c0.1-0.1,0.2-0.3,0.2-0.5C12.6,8.2,12.5,8,12.4,7.9L12.4,7.9z"/>
	<path class="st0" d="M6,7.2c0.3,0,0.6,0.1,0.8,0.3l0,0C7,7.7,7.1,8,7.1,8.3S7,8.9,6.8,9.1l0,0C6.6,9.3,6.3,9.4,6,9.4
		c-0.3,0-0.6-0.1-0.8-0.3l0,0C5.1,8.9,4.9,8.6,4.9,8.3c0-0.3,0.1-0.6,0.3-0.8l0,0C5.5,7.3,5.7,7.2,6,7.2L6,7.2z M6.5,7.8
		C6.4,7.7,6.2,7.6,6,7.6c-0.2,0-0.4,0.1-0.5,0.2l0,0C5.4,8,5.4,8.1,5.4,8.3c0,0.2,0.1,0.4,0.2,0.5v0C5.7,8.9,5.9,9,6,9
		c0.2,0,0.4-0.1,0.5-0.2h0c0.1-0.1,0.2-0.3,0.2-0.5S6.6,8,6.5,7.8L6.5,7.8L6.5,7.8z"/>
	<path class="st0" d="M9,7.2c0.3,0,0.6,0.1,0.8,0.3l0,0C10,7.8,10.1,8,10.1,8.3c0,0.3-0.1,0.6-0.3,0.8v0C9.6,9.3,9.3,9.4,9,9.4
		c-0.3,0-0.6-0.1-0.8-0.3C8,8.9,7.9,8.6,7.9,8.3C7.9,8,8,7.8,8.2,7.6l0,0C8.4,7.4,8.7,7.2,9,7.2L9,7.2z M9.5,7.9
		C9.4,7.7,9.2,7.7,9,7.7c-0.2,0-0.4,0.1-0.5,0.2h0C8.4,8,8.3,8.2,8.3,8.3c0,0.2,0.1,0.4,0.2,0.5C8.6,8.9,8.8,9,9,9
		c0.2,0,0.4-0.1,0.5-0.2l0,0c0.1-0.1,0.2-0.3,0.2-0.5C9.7,8.2,9.6,8,9.5,7.9L9.5,7.9L9.5,7.9z"/>
	<path class="st0" d="M2.1,3h18.8c0.6,0,1.1,0.2,1.4,0.6l0,0c0.4,0.4,0.6,0.9,0.6,1.4v13.1c0,0.6-0.2,1.1-0.6,1.4l0,0l0,0
		c-0.4,0.4-0.9,0.6-1.4,0.6H2.1c-0.6,0-1.1-0.2-1.4-0.6l0,0l0,0c-0.4-0.4-0.6-0.9-0.6-1.4V5c0-0.6,0.2-1.1,0.6-1.4l0,0
		C1,3.2,1.6,3,2.1,3L2.1,3z M20.9,3.6H2.1c-0.4,0-0.8,0.2-1,0.4C0.8,4.2,0.7,4.6,0.7,5v13.1c0,0.4,0.2,0.8,0.4,1l0,0
		c0.3,0.3,0.6,0.4,1,0.4h18.8c0.4,0,0.8-0.2,1-0.4l0,0c0.3-0.3,0.4-0.6,0.4-1V5c0-0.4-0.2-0.8-0.4-1C21.7,3.7,21.3,3.6,20.9,3.6
		L20.9,3.6z"/>
	<path class="st0" d="M7.2,19.8v0.8c0,0.3-0.1,0.6-0.3,0.7l0,0c-0.2,0.2-0.5,0.3-0.7,0.3H4.3c-0.3,0-0.6-0.1-0.7-0.3l0,0
		c-0.2-0.2-0.3-0.5-0.3-0.7v-0.8h0.9v0.8c0,0.1,0,0.1,0.1,0.1l0,0c0,0,0.1,0.1,0.1,0.1h1.8c0.1,0,0.1,0,0.1-0.1l0,0
		c0,0,0.1-0.1,0.1-0.1v-0.8H7.2L7.2,19.8z"/>
	<path class="st0" d="M19.7,19.9v0.8c0,0.3-0.1,0.6-0.3,0.7l0,0c-0.2,0.2-0.5,0.3-0.7,0.3h-1.8c-0.3,0-0.6-0.1-0.7-0.3l0,0
		c-0.2-0.2-0.3-0.5-0.3-0.7v-0.8h0.9v0.8c0,0.1,0,0.1,0.1,0.1l0,0c0,0,0.1,0.1,0.1,0.1h1.8c0.1,0,0.1,0,0.1-0.1l0,0
		c0,0,0.1-0.1,0.1-0.1v-0.8H19.7L19.7,19.9z"/>
</g>
</svg>
