<?xml version="1.0" encoding="utf-8"?>
<!-- Generator: Adobe Illustrator 27.8.0, SVG Export Plug-In . SVG Version: 6.00 Build 0)  -->
<svg version="1.1" id="Layer_1" xmlns="http://www.w3.org/2000/svg" xmlns:xlink="http://www.w3.org/1999/xlink" x="0px" y="0px"
	 viewBox="0 0 23 23" style="enable-background:new 0 0 23 23;" xml:space="preserve">
<style type="text/css">
	.st0{fill:#5A4596;}
</style>
<path class="st0" d="M0.5,15.4l16.7,0l0.2,0l0.3,0l0,0.3l0,0.2l0,3.4l0,0.3l-0.3,0l-0.2,0l-16.7,0l-0.2,0l-0.3,0l0-0.3L0,19l0-3.1
	l0-0.2l0-0.3l0.3,0L0.5,15.4L0.5,15.4z M17.2,15.9l-16.7,0l0,3.1l16.7,0L17.2,15.9L17.2,15.9z"/>
<path class="st0" d="M0.5,15.5l7.6,0l0.4,0l0,0.4l0,3.1l0,0.4l-0.4,0l-7.6,0l-0.4,0l0-0.4l0-3.1l0-0.4L0.5,15.5L0.5,15.5z M7.7,16.2
	l-6.8,0l0,2.4l6.8,0L7.7,16.2L7.7,16.2z"/>
<path class="st0" d="M17.2,15.8c0.1-0.2,0.3-0.3,0.6-0.4h0c0.1,0,0.2,0,0.3,0v0c0.1,0,0.2,0.1,0.3,0.2c0.1,0.1,0.1,0.1,0.1,0.2
	c0.1,0,0.2,0.1,0.2,0.1l0,0c0.1,0.1,0.1,0.2,0.2,0.3c0,0.1,0,0.2,0,0.3c0.1,0,0.2,0.1,0.2,0.2c0.1,0.1,0.1,0.2,0.1,0.3
	c0.1,0.1,0.1,0.2,0.2,0.3c0,0.1,0,0.2,0,0.3c0,0.1-0.1,0.2-0.1,0.3l0,0c0,0-0.1,0.1-0.1,0.1c0.1,0.2,0.2,0.5-0.1,0.8l0,0
	c0,0.1,0,0.2,0,0.3l0,0c0,0.1-0.1,0.2-0.2,0.2l0,0c-0.2,0.1-0.4,0.3-0.8,0.2c-0.1,0-0.3,0-0.4-0.1c-0.2,0-0.3-0.1-0.5-0.2l0.3-0.4
	c0.1,0.1,0.2,0.1,0.2,0.1c0.1,0,0.2,0,0.3,0c0.2,0,0.3,0,0.4-0.1c0,0,0,0-0.1-0.1l0,0l0,0l0,0l0,0l0,0c0-0.1,0-0.2,0-0.2l0,0l0,0
	l0,0l0,0l0,0c0.2-0.1,0.2-0.2,0.2-0.3c0-0.1-0.1-0.1-0.1-0.1c-0.1-0.1-0.1-0.1-0.1-0.3v0c0-0.2,0.1-0.2,0.3-0.2c0.1,0,0.1,0,0.1,0v0
	c0,0,0,0,0,0c0,0,0,0,0,0l0,0l0,0l0,0l0,0l0,0c-0.2-0.1-0.2-0.2-0.2-0.4h0c0,0,0,0,0,0c0,0-0.2,0-0.2,0c-0.2,0-0.4-0.4-0.2-0.5
	c0,0,0,0,0.1-0.1c0,0,0,0,0-0.1c0,0,0,0,0,0v0c0,0,0,0-0.1,0c-0.3,0.1-0.3-0.2-0.3-0.3c0,0,0,0,0,0h0c0,0-0.1,0-0.1,0v0
	c-0.1,0-0.2,0.1-0.2,0.1L17.2,15.8L17.2,15.8z"/>
<path class="st0" d="M16.9,14.3c0.2-0.6,0.1-1.1,0-1.4c-0.1-0.3-0.3-0.5-0.5-0.7l0,0l0,0l0,0c-0.3-0.3-0.6-0.7-0.8-1.2
	c-0.2-0.7,0.1-1.1,0.3-1.5l0,0l0,0l0,0c0.1-0.1,0.1-0.2,0.2-0.3c0-0.1,0.1-0.2,0-0.4c0-0.2-0.2-0.4-0.5-0.6
	c-0.2-0.2-0.4-0.4-0.6-0.7c-0.2-0.3-0.3-0.6-0.2-1c0.1-0.4,0.2-0.6,0.4-0.8c0.2-0.2,0.4-0.3,0.6-0.4c0.1-0.1,0.3-0.2,0.4-0.3
	c0.1-0.1,0.2-0.2,0.2-0.4c0-0.1,0-0.2-0.1-0.4c-0.1-0.1-0.1-0.2-0.2-0.3l0,0l-0.1-0.1l0,0c-0.3-0.3-0.7-0.6-0.8-1.1L16,2.6
	c0.1,0.2,0.3,0.5,0.6,0.7l0,0l0.1,0.1l0,0c0.2,0.2,0.3,0.3,0.4,0.5c0.2,0.3,0.2,0.6,0.2,0.9c0,0.3-0.2,0.5-0.4,0.8
	c-0.1,0.2-0.3,0.3-0.5,0.4c-0.2,0.1-0.3,0.2-0.5,0.3c-0.1,0.1-0.2,0.2-0.2,0.4c0,0.2,0,0.4,0.1,0.5c0.1,0.2,0.3,0.3,0.4,0.5
	c0.3,0.3,0.6,0.6,0.7,1.1c0,0.3,0,0.5-0.1,0.7c-0.1,0.2-0.2,0.3-0.3,0.5l0,0l0,0h0l0,0l0,0c-0.2,0.2-0.3,0.5-0.2,0.8
	c0.1,0.3,0.3,0.6,0.6,0.8l0,0l0,0v0c0.3,0.3,0.5,0.5,0.7,1c0.2,0.4,0.2,1,0,1.8L16.9,14.3L16.9,14.3z"/>
<path class="st0" d="M18.8,2.3c0.6,0.6,0.7,1,0.7,1.4c0,0.4-0.3,0.6-0.5,0.9c-0.1,0.1-0.3,0.3-0.3,0.5c0,0.2,0.1,0.4,0.2,0.6l0,0
	l0,0l0,0C19,5.8,19.1,6,19.2,6.2c0.1,0.2,0.1,0.5,0.1,0.7c0,0.3-0.2,0.5-0.3,0.7c-0.1,0.2-0.2,0.3-0.4,0.5c-0.2,0.2-0.2,0.4-0.2,0.6
	h0c0,0.3,0.2,0.5,0.4,0.7h0l0.1,0.1c0.6,0.6,1.4,1.4,0.6,2.9l0,0l-0.1,0.2h0c-0.5,0.8-0.6,1.1-0.3,2.2l-0.8,0.2
	c-0.4-1.4-0.2-1.7,0.4-2.8l0,0l0.1-0.2h0c0.5-0.9,0-1.4-0.5-1.9l-0.1-0.1l0,0c-0.3-0.3-0.5-0.8-0.6-1.2l0,0c0-0.4,0.1-0.8,0.4-1.2
	c0.1-0.1,0.2-0.2,0.3-0.3c0.1-0.1,0.1-0.2,0.2-0.4c0-0.1,0-0.2,0-0.3c0-0.1-0.1-0.3-0.2-0.4l0,0l0,0l0,0c-0.2-0.3-0.4-0.6-0.4-1
	c0-0.5,0.3-0.8,0.5-1c0.2-0.2,0.3-0.3,0.3-0.4c0-0.1-0.1-0.4-0.5-0.7L18.8,2.3L18.8,2.3z"/>
<path class="st0" d="M21,1.4c0.6,0.1,1.1,0.4,1.4,0.8c0.4,0.5,0.5,1,0.5,1.5c-0.1,0.7-0.5,0.9-0.8,1.1l0,0c-0.2,0.1-0.4,0.2-0.5,0.5
	c0,0.2,0.1,0.4,0.3,0.6C22,6.2,22.2,6.5,22.1,7l0,0l0,0C22,7.5,21.7,7.7,21.5,8l0,0c-0.1,0.1-0.3,0.2-0.3,0.3
	c-0.1,0.3,0.1,0.5,0.3,0.7c0.4,0.4,0.7,0.8,0.5,1.6c-0.1,0.3-0.2,0.5-0.3,0.7c-0.1,0.2-0.3,0.4-0.4,0.6l0,0
	c-0.2,0.2-0.3,0.4-0.4,0.6c-0.1,0.2-0.1,0.4,0,0.7c0,0.3,0,0.6,0,0.9c-0.1,0.3-0.2,0.7-0.5,1.2l-0.7-0.4c0.2-0.3,0.3-0.6,0.4-0.8
	c0-0.3,0-0.5,0-0.7c0-0.4,0-0.7,0.1-1c0.1-0.3,0.2-0.6,0.5-0.9h0c0.1-0.2,0.3-0.4,0.4-0.5c0.1-0.2,0.2-0.3,0.2-0.5
	c0.1-0.4-0.1-0.6-0.3-0.9c-0.4-0.4-0.7-0.7-0.5-1.5c0.1-0.3,0.3-0.5,0.6-0.7h0c0.2-0.1,0.3-0.3,0.4-0.5c0-0.2-0.1-0.4-0.3-0.6
	c-0.2-0.3-0.5-0.7-0.4-1.2c0.1-0.7,0.5-0.9,0.9-1.1v0C21.8,3.9,22,3.8,22,3.5c0-0.2,0-0.6-0.3-0.8c-0.2-0.2-0.5-0.4-0.9-0.5L21,1.4
	L21,1.4z"/>
</svg>
