<?xml version="1.0" encoding="utf-8"?>
<!-- Generator: Adobe Illustrator 27.8.0, SVG Export Plug-In . SVG Version: 6.00 Build 0)  -->
<svg version="1.1" id="Layer_1" xmlns="http://www.w3.org/2000/svg" xmlns:xlink="http://www.w3.org/1999/xlink" x="0px" y="0px"
	 viewBox="0 0 23 23" style="enable-background:new 0 0 23 23;" xml:space="preserve">
<style type="text/css">
	.st0{fill:#5A4596;}
</style>
<path class="st0" d="M19,2.5L19,2.5L19,2.5c0.6,0.3,1.1,0.7,1.3,1.2c0.2,0.5,0.3,1.1,0,1.7v0l0,0l0,0h0c-0.2,0.6-0.7,1-1.2,1.2
	c-0.5,0.2-1.1,0.3-1.7,0h0l0,0c-0.6-0.2-1-0.7-1.2-1.2c-0.2-0.5-0.3-1.1,0-1.7l0,0c0.2-0.6,0.7-1,1.2-1.2C17.8,2.3,18.4,2.3,19,2.5
	L19,2.5z M19.8,3.9c-0.2-0.4-0.5-0.7-0.9-0.9l0,0c-0.4-0.2-0.9-0.2-1.3,0c-0.4,0.2-0.7,0.5-0.9,0.9l0,0c-0.2,0.4-0.2,0.9,0,1.3
	c0.2,0.4,0.5,0.7,0.9,0.9l0,0c0.4,0.2,0.9,0.2,1.3,0c0.4-0.2,0.7-0.5,0.9-0.9l0,0C20,4.8,19.9,4.3,19.8,3.9L19.8,3.9z M16.6,4
	L16.6,4L16.6,4L16.6,4z M16.1,3.8L16.1,3.8L16.1,3.8L16.1,3.8z"/>
<path class="st0" d="M14.8,3.6c0.6,0.2,1,0.7,1.2,1.2c0.2,0.5,0.3,1.1,0,1.7c-0.2,0.6-0.7,1-1.2,1.2h0c-0.5,0.2-1.1,0.3-1.7,0
	c-0.6-0.2-1-0.7-1.2-1.2c-0.2-0.5-0.3-1.1,0-1.7v0l0-0.1c0.2-0.6,0.7-1,1.2-1.2C13.6,3.4,14.2,3.4,14.8,3.6L14.8,3.6L14.8,3.6
	L14.8,3.6z M15.5,5c-0.2-0.4-0.5-0.7-0.9-0.9l0,0c-0.4-0.2-0.9-0.2-1.3,0c-0.4,0.2-0.7,0.5-0.9,0.9h0c-0.2,0.4-0.2,0.9,0,1.3
	c0.2,0.4,0.5,0.7,0.9,0.9c0.4,0.2,0.9,0.2,1.3,0l0,0c0.4-0.2,0.7-0.5,0.9-0.9C15.7,5.9,15.7,5.4,15.5,5L15.5,5z"/>
<path class="st0" d="M17.9,6.8L17.9,6.8L17.9,6.8C18.5,7,18.9,7.5,19.2,8c0.2,0.5,0.3,1.1,0,1.7v0l0,0l0,0h0c-0.2,0.6-0.7,1-1.2,1.2
	c-0.5,0.2-1.1,0.3-1.7,0h0l0,0l0,0v0c-0.6-0.2-1-0.7-1.2-1.2c-0.2-0.5-0.3-1.1,0-1.7v0l0,0l0,0h0c0.2-0.6,0.7-1,1.2-1.2
	C16.7,6.6,17.3,6.6,17.9,6.8L17.9,6.8z M18.7,8.2c-0.2-0.4-0.5-0.7-0.9-0.9l0,0c-0.4-0.2-0.9-0.2-1.3,0c-0.4,0.2-0.7,0.5-0.9,0.9
	l0,0c-0.2,0.4-0.2,0.9,0,1.3c0.2,0.4,0.5,0.7,0.9,0.9l0,0c0.4,0.2,0.9,0.2,1.3,0c0.4-0.2,0.7-0.5,0.9-0.9l0,0
	C18.9,9.1,18.8,8.6,18.7,8.2L18.7,8.2z"/>
<path class="st0" d="M10.5,4.8c0.6,0.2,1,0.7,1.2,1.2c0.2,0.5,0.3,1.1,0,1.7c-0.2,0.6-0.7,1-1.2,1.2h0c-0.5,0.2-1.1,0.3-1.7,0
	c-0.6-0.2-1-0.7-1.2-1.2C7.3,7.2,7.3,6.6,7.6,6c0.2-0.6,0.7-1,1.2-1.2h0C9.3,4.6,9.9,4.5,10.5,4.8L10.5,4.8z M11.2,6.2
	c-0.2-0.4-0.5-0.7-0.9-0.9C9.8,5.1,9.4,5.1,9,5.3l0,0C8.6,5.5,8.2,5.8,8.1,6.2c-0.2,0.4-0.2,0.9,0,1.3C8.2,7.9,8.6,8.3,9,8.4
	c0.4,0.2,0.9,0.2,1.3,0l0,0c0.4-0.2,0.7-0.5,0.9-0.9C11.4,7.1,11.4,6.6,11.2,6.2L11.2,6.2z"/>
<path class="st0" d="M13.6,7.9c0.6,0.2,1,0.7,1.2,1.2v0c0.2,0.5,0.3,1.1,0,1.7c-0.2,0.6-0.7,1-1.2,1.2c-0.5,0.2-1.1,0.3-1.7,0
	c-0.6-0.2-1-0.7-1.2-1.2v0c-0.2-0.5-0.3-1.1,0-1.7c0.2-0.6,0.7-1,1.2-1.2l0,0C12.4,7.7,13,7.7,13.6,7.9L13.6,7.9z M14.3,9.3
	L14.3,9.3c-0.2-0.4-0.5-0.7-0.9-0.9c-0.4-0.2-0.9-0.2-1.3,0h0c-0.4,0.2-0.7,0.5-0.9,0.9c-0.2,0.4-0.2,0.9,0,1.3l0,0
	c0.2,0.4,0.5,0.7,0.9,0.9c0.4,0.2,0.9,0.2,1.3,0c0.4-0.2,0.7-0.5,0.9-0.9C14.5,10.2,14.5,9.7,14.3,9.3L14.3,9.3z"/>
<path class="st0" d="M16.8,11.1c0.6,0.2,1,0.7,1.2,1.2c0.2,0.5,0.3,1.1,0,1.7v0l0,0.1c-0.2,0.6-0.7,1-1.2,1.2
	c-0.5,0.2-1.1,0.3-1.7,0h0l-0.1,0c-0.6-0.2-1-0.7-1.2-1.2c-0.2-0.5-0.3-1.1,0-1.7c0.2-0.6,0.7-1,1.2-1.2h0
	C15.6,10.9,16.2,10.9,16.8,11.1L16.8,11.1z M17.5,12.5c-0.2-0.4-0.5-0.7-0.9-0.9c-0.4-0.2-0.9-0.2-1.3,0l0,0
	c-0.4,0.2-0.7,0.5-0.9,0.9c-0.2,0.4-0.2,0.9,0,1.3c0.2,0.4,0.5,0.7,0.9,0.9l0,0c0.4,0.2,0.9,0.2,1.3,0c0.4-0.2,0.7-0.5,0.9-0.9h0
	C17.7,13.4,17.7,12.9,17.5,12.5L17.5,12.5z"/>
<path class="st0" d="M6.1,5.8C6.7,6,7.2,6.5,7.4,7c0.2,0.5,0.3,1.1,0,1.7c-0.2,0.6-0.7,1-1.2,1.2c-0.5,0.2-1.1,0.3-1.7,0h0l-0.1,0
	c-0.6-0.2-1-0.7-1.2-1.2C3,8.3,3,7.7,3.2,7.1v0l0,0l0,0h0c0.2-0.6,0.7-1,1.2-1.2C4.9,5.6,5.5,5.6,6.1,5.8L6.1,5.8L6.1,5.8L6.1,5.8
	L6.1,5.8L6.1,5.8z M6.9,7.2C6.7,6.8,6.4,6.5,6,6.3l0,0C5.5,6.1,5,6.2,4.6,6.3C4.3,6.5,3.9,6.8,3.7,7.2l0,0c-0.2,0.4-0.2,0.9,0,1.3
	C3.9,9,4.2,9.3,4.7,9.5l0,0c0.4,0.2,0.9,0.2,1.3,0C6.4,9.3,6.7,9,6.9,8.5C7.1,8.1,7.1,7.6,6.9,7.2L6.9,7.2z"/>
<path class="st0" d="M9.3,9c0.6,0.2,1,0.7,1.2,1.2c0.2,0.5,0.3,1.1,0,1.7v0l0,0.1c-0.2,0.6-0.7,1-1.2,1.2c-0.5,0.2-1.1,0.3-1.7,0h0
	l0,0c-0.6-0.2-1-0.7-1.2-1.2c-0.2-0.5-0.3-1.1,0-1.7l0,0c0.2-0.6,0.7-1,1.2-1.2C8.2,8.8,8.8,8.8,9.3,9L9.3,9z M10.1,10.4
	C9.9,10,9.6,9.7,9.1,9.5c-0.4-0.2-0.9-0.2-1.3,0C7.4,9.7,7.1,10,6.9,10.5l0,0c-0.2,0.4-0.2,0.9,0,1.3c0.2,0.4,0.5,0.7,0.9,0.9l0,0
	c0.4,0.2,0.9,0.2,1.3,0c0.4-0.2,0.7-0.5,0.9-0.9l0,0C10.3,11.3,10.3,10.8,10.1,10.4L10.1,10.4z M6.9,10.5L6.9,10.5L6.9,10.5
	L6.9,10.5z M6.4,10.3L6.4,10.3L6.4,10.3L6.4,10.3z"/>
<path class="st0" d="M12.5,12.2c0.6,0.2,1,0.7,1.2,1.2v0c0.2,0.5,0.3,1.1,0,1.7c-0.2,0.6-0.7,1-1.2,1.2c-0.5,0.2-1.1,0.3-1.7,0
	c-0.6-0.2-1-0.7-1.2-1.2v0c-0.2-0.5-0.3-1.1,0-1.7c0.2-0.6,0.7-1,1.2-1.2C11.3,12,11.9,12,12.5,12.2L12.5,12.2z M13.2,13.6
	L13.2,13.6c-0.2-0.4-0.5-0.7-0.9-0.9c-0.4-0.2-0.9-0.2-1.3,0c-0.4,0.2-0.7,0.5-0.9,0.9c-0.2,0.4-0.2,0.9,0,1.3l0,0
	c0.2,0.4,0.5,0.7,0.9,0.9c0.4,0.2,0.9,0.2,1.3,0c0.4-0.2,0.7-0.5,0.9-0.9C13.4,14.5,13.4,14,13.2,13.6L13.2,13.6z"/>
<path class="st0" d="M13.4,21.7L1.3,9.4C1.1,9.3,1,9.1,0.8,8.8C0.7,8.6,0.6,8.4,0.5,8.1C0.5,7.9,0.4,7.7,0.4,7.5
	c0-0.2,0-0.4,0.1-0.7c0-0.2,0.1-0.5,0.2-0.7C0.8,5.9,1,5.7,1.1,5.6C1.3,5.4,1.6,5.2,1.9,5l0,0c0.3-0.2,0.5-0.3,0.8-0.3l16.7-4.2l0,0
	c0.2-0.1,0.4-0.1,0.6-0.1c0.2,0,0.4,0,0.6,0.1l0,0c0.2,0,0.4,0.1,0.6,0.2c0.2,0.1,0.4,0.3,0.6,0.4l0,0c0.2,0.2,0.3,0.3,0.4,0.5
	c0.1,0.2,0.2,0.4,0.3,0.6h0c0.1,0.2,0.1,0.4,0.1,0.6v0c0,0.2,0,0.4-0.1,0.7l0,0l0,0l0,0l-4.5,17c-0.1,0.2-0.2,0.5-0.3,0.7
	c-0.1,0.2-0.3,0.5-0.5,0.6c-0.2,0.2-0.3,0.3-0.5,0.4c-0.2,0.1-0.4,0.2-0.6,0.2h0c-0.2,0-0.4,0.1-0.6,0.1h0c-0.2,0-0.4,0-0.6-0.1
	c-0.3-0.1-0.5-0.2-0.8-0.3C13.9,22.1,13.6,21.9,13.4,21.7L13.4,21.7z M1.9,8.9L14,21.1l0,0c0.1,0.2,0.3,0.3,0.5,0.4
	c0.2,0.1,0.4,0.2,0.5,0.2c0.1,0,0.3,0.1,0.4,0.1c0.1,0,0.3,0,0.4,0v0c0.1,0,0.3-0.1,0.4-0.2c0.1-0.1,0.2-0.2,0.4-0.3
	c0.1-0.1,0.2-0.3,0.3-0.4c0.1-0.2,0.2-0.4,0.2-0.5l0,0l4.5-17l0,0l0,0c0-0.2,0.1-0.3,0-0.5v0c0-0.2,0-0.3-0.1-0.4v0
	c0-0.2-0.1-0.3-0.2-0.4c-0.1-0.1-0.2-0.3-0.3-0.4c-0.1-0.1-0.2-0.2-0.4-0.3c-0.1-0.1-0.3-0.1-0.4-0.2l0,0c-0.1,0-0.3,0-0.4,0
	c-0.1,0-0.3,0-0.5,0.1l0,0L2.8,5.5l0,0c-0.2,0-0.4,0.1-0.6,0.2v0C2.1,5.8,1.9,6,1.7,6.1C1.6,6.2,1.5,6.4,1.5,6.5
	C1.4,6.7,1.3,6.8,1.3,7c0,0.2,0,0.3,0,0.5c0,0.2,0,0.3,0.1,0.5c0,0.2,0.1,0.3,0.2,0.5C1.6,8.6,1.7,8.7,1.9,8.9L1.9,8.9L1.9,8.9z"/>
<path class="st0" d="M20.8,2.9L20.8,2.9c0-0.1,0-0.2,0-0.2c0-0.1,0-0.1-0.1-0.2l0,0c0-0.1-0.1-0.1-0.1-0.2l0,0c0,0-0.1-0.1-0.1-0.1
	v0c-0.1,0-0.2-0.1-0.2-0.1c-0.1,0-0.2,0-0.3,0h0c-0.1,0-0.1,0-0.2,0l0,0L3.1,6.4v0c-0.1,0-0.3,0.1-0.4,0.2h0
	C2.6,6.6,2.5,6.7,2.4,6.7C2.4,6.8,2.3,6.9,2.3,6.9v0c0,0.1-0.1,0.2-0.1,0.2c0,0.1,0,0.2,0,0.2v0c0,0.1,0,0.2,0,0.3h0
	c0,0.1,0.1,0.2,0.1,0.3c0,0.1,0.1,0.2,0.2,0.2l0,0l12.2,12.3c0.1,0.1,0.2,0.2,0.3,0.2h0c0.1,0.1,0.2,0.1,0.3,0.1c0.1,0,0.2,0,0.2,0
	c0.1,0,0.1,0,0.2,0h0c0.1,0,0.1,0,0.2-0.1c0.1,0,0.1-0.1,0.2-0.1c0.1-0.1,0.1-0.1,0.2-0.2l0,0c0-0.1,0.1-0.2,0.1-0.3h0l4.5-17
	L20.8,2.9L20.8,2.9z M14.8,21.1c-0.1-0.1-0.3-0.2-0.4-0.3l0,0L2.2,8.5C2.1,8.4,2,8.3,2,8.2C1.9,8,1.9,7.9,1.8,7.8v0
	c0-0.1,0-0.2,0-0.3v0c0-0.1,0-0.2,0-0.3c0-0.1,0.1-0.2,0.1-0.3l0,0C2,6.7,2,6.6,2.1,6.5c0.1-0.1,0.2-0.2,0.4-0.3l0,0
	C2.6,6.1,2.8,6,3,6l0,0l16.7-4.2c0.1,0,0.2,0,0.3-0.1c0.1,0,0.2,0,0.4,0c0.1,0,0.2,0.1,0.3,0.1l0,0C20.7,1.9,20.8,2,20.9,2
	c0.1,0.1,0.1,0.2,0.2,0.2v0c0.1,0.1,0.1,0.2,0.1,0.3c0,0.1,0,0.2,0,0.3v0c0,0.1,0,0.2,0,0.3l0,0l-4.5,17v0c0,0.2-0.1,0.3-0.2,0.4
	l0,0c-0.1,0.1-0.2,0.2-0.2,0.3c-0.1,0.1-0.2,0.1-0.2,0.2c-0.1,0-0.2,0.1-0.3,0.1v0c-0.1,0-0.2,0-0.3,0c-0.1,0-0.2,0-0.3,0
	C15.1,21.2,14.9,21.2,14.8,21.1L14.8,21.1L14.8,21.1z"/>
<path class="st0" d="M15.6,15.4c0.6,0.2,1,0.7,1.2,1.2c0.2,0.5,0.3,1.1,0,1.7v0l0,0.1c-0.2,0.6-0.7,1-1.2,1.2
	c-0.5,0.2-1.1,0.3-1.7,0h0l-0.1,0c-0.6-0.2-1-0.7-1.2-1.2c-0.2-0.5-0.3-1.1,0-1.7c0.2-0.6,0.7-1,1.2-1.2h0
	C14.5,15.2,15.1,15.2,15.6,15.4L15.6,15.4z M16.4,16.8c-0.2-0.4-0.5-0.7-0.9-0.9c-0.4-0.2-0.9-0.2-1.3,0l0,0
	c-0.4,0.2-0.7,0.5-0.9,0.9c-0.2,0.4-0.2,0.9,0,1.3c0.2,0.4,0.5,0.7,0.9,0.9l0,0c0.4,0.2,0.9,0.2,1.3,0c0.4-0.2,0.7-0.5,0.9-0.9h0
	C16.6,17.7,16.6,17.2,16.4,16.8L16.4,16.8z"/>
</svg>
