<?xml version="1.0" encoding="utf-8"?>
<!-- Generator: Adobe Illustrator 27.8.0, SVG Export Plug-In . SVG Version: 6.00 Build 0)  -->
<svg version="1.1" id="Layer_1" xmlns="http://www.w3.org/2000/svg" xmlns:xlink="http://www.w3.org/1999/xlink" x="0px" y="0px"
	 viewBox="0 0 23 23" style="enable-background:new 0 0 23 23;" xml:space="preserve">
<style type="text/css">
	.st0{fill:#5A4596;}
</style>
<path class="st0" d="M12.1,8.5v8.8h-0.6V8.5H12.1L12.1,8.5z M12.1,19.1l0,1.6h0c0,0.3-0.1,0.5-0.3,0.7c-0.2,0.2-0.4,0.3-0.7,0.3
	s-0.5-0.1-0.7-0.3c-0.2-0.2-0.3-0.4-0.3-0.7h0V19h0.6v1.6h0c0,0.1,0.1,0.2,0.1,0.3l0,0c0.1,0.1,0.2,0.1,0.3,0.1s0.2,0,0.3-0.1l0,0
	c0.1-0.1,0.1-0.2,0.1-0.3h0l0-1.6H12.1L12.1,19.1z M10.1,17.2V8.4h0.6v8.8H10.1L10.1,17.2z M10.1,2.2V1.4h0c0-0.3,0.1-0.5,0.3-0.7
	c0.2-0.2,0.4-0.3,0.7-0.3s0.5,0.1,0.7,0.3c0.2,0.2,0.3,0.4,0.3,0.7v0.8h-0.6V1.4c0-0.1-0.1-0.2-0.1-0.3l0,0
	c-0.1-0.1-0.2-0.1-0.3-0.1S10.8,1,10.8,1l0,0c-0.1,0.1-0.1,0.2-0.1,0.3h0v0.8H10.1L10.1,2.2z"/>
<path class="st0" d="M11.1,1.8c2.3,0,4.2,0.8,5.6,2c1.8,1.5,2.8,3.4,2.8,5l0,0.7l-0.6-0.3c-0.5-0.3-1.1-0.4-1.8-0.4
	c-0.6,0-1.3,0.1-1.7,0.4l-0.2,0.1L15,9.2c-0.5-0.3-1.2-0.4-1.9-0.4c-0.7,0-1.3,0.1-1.7,0.4l-0.2,0.1l-0.2-0.1
	c-0.5-0.3-1.1-0.4-1.7-0.4c-0.7,0-1.3,0.1-1.9,0.4L7.1,9.3L6.9,9.2C6.3,8.9,5.7,8.8,5,8.8c-0.7,0-1.3,0.1-1.8,0.4L2.5,9.5V8.8v0h0
	c0-1.5,0.7-3.3,2.2-4.7C6.2,2.8,8.3,1.8,11.1,1.8L11.1,1.8L11.1,1.8L11.1,1.8z M16.2,4.5c-1.3-1.1-3-1.8-5.1-1.8v0h0
	c-2.6,0-4.5,0.9-5.8,2.1C4.2,5.8,3.6,7,3.4,8.2C3.9,8,4.5,7.9,5,7.9c0.7,0,1.4,0.1,2.1,0.4C7.7,8,8.5,7.9,9.2,7.9
	c0.7,0,1.4,0.1,1.9,0.4c0.5-0.3,1.3-0.4,2-0.4c0.7,0,1.5,0.1,2.1,0.4c0.6-0.3,1.3-0.4,1.9-0.4c0.5,0,1,0.1,1.5,0.2
	C18.4,6.9,17.5,5.6,16.2,4.5L16.2,4.5z"/>
<path class="st0" d="M2.6,10.6l4,6.3h15.8h0.4v0.4v1.8v0.4h-0.4H5.9H5.4H5.1L5,19.3l-0.3-0.4L0.4,12l-0.2-0.4l0.4-0.2l1.5-1l0.4-0.2
	L2.6,10.6L2.6,10.6z M6,17.5l-3.9-6.1l-0.8,0.5l4.1,6.5l0.1,0.2h0.3h16.1v-1H6.3H6.1L6,17.5L6,17.5z"/>
<polygon class="st0" points="6.4,19.2 5.3,21.5 5.2,21.8 5,21.6 4.1,21.3 3.9,21.2 4,20.9 5,18.7 5.5,18.9 4.6,20.9 4.9,21 
	5.8,18.9 6.4,19.2 "/>
<polygon class="st0" points="20.6,19 21.4,20.9 21.5,21.2 21.3,21.3 20.4,21.6 20.2,21.7 20.1,21.5 19.1,19.2 19.6,18.9 20.5,21 
	20.8,20.9 20,19.2 20.6,19 "/>
<polygon class="st0" points="11.3,2.2 11.3,8.8 10.9,8.8 10.9,2.2 11.3,2.2 "/>
<path class="st0" d="M11.3,2c1.1,0.9,2,1.7,2.7,2.7c0.7,1,1.2,2.3,1.5,4L15,8.8C14.7,7.2,14.3,6,13.6,5c-0.7-1-1.5-1.8-2.6-2.6
	L11.3,2L11.3,2z"/>
<path class="st0" d="M11.3,2.3c-1.1,0.9-1.9,1.6-2.6,2.6C8.1,5.8,7.6,7,7.3,8.7L6.9,8.6c0.3-1.8,0.8-3,1.5-4c0.7-1,1.6-1.8,2.7-2.7
	L11.3,2.3L11.3,2.3z"/>
</svg>
