<?xml version="1.0" encoding="utf-8"?>
<!-- Generator: Adobe Illustrator 27.8.0, SVG Export Plug-In . SVG Version: 6.00 Build 0)  -->
<svg version="1.1" id="Layer_1" xmlns="http://www.w3.org/2000/svg" xmlns:xlink="http://www.w3.org/1999/xlink" x="0px" y="0px"
	 viewBox="0 0 23 23" style="enable-background:new 0 0 23 23;" xml:space="preserve">
<style type="text/css">
	.st0{fill:#5A4596;}
</style>
<path class="st0" d="M15.7,15.9c0,0.9-0.2,1.8-0.5,2.6c-0.3,0.8-0.8,1.6-1.5,2.2c-0.6,0.6-1.4,1.1-2.2,1.5c-0.8,0.3-1.7,0.5-2.6,0.5
	c-0.9,0-1.8-0.2-2.6-0.5c-0.8-0.3-1.6-0.8-2.2-1.5l0,0c-0.6-0.6-1.1-1.4-1.5-2.2c-0.3-0.8-0.5-1.7-0.5-2.6c0-0.9,0.2-1.8,0.5-2.6
	c0.3-0.8,0.8-1.6,1.5-2.2l0,0l0,0l0,0h0l0,0c0.3-0.3,0.7-0.7,1.1-0.9c0.4-0.3,0.9-0.5,1.3-0.7L7,9.4L7,9.8l0.2,1.3l0,0.3l-0.2,0.1
	c-0.3,0.1-0.6,0.3-0.8,0.4C6,12,5.7,12.2,5.5,12.5l0,0h0c-0.4,0.4-0.8,1-1.1,1.6c-0.2,0.6-0.4,1.2-0.4,1.9c0,0.7,0.1,1.3,0.4,1.9
	c0.2,0.6,0.6,1.1,1.1,1.6c0.4,0.4,1,0.8,1.6,1.1c0.6,0.2,1.2,0.4,1.9,0.4c0.7,0,1.3-0.1,1.9-0.4c0.6-0.2,1.1-0.6,1.6-1.1h0
	c0.4-0.4,0.8-1,1.1-1.6c0.2-0.6,0.4-1.2,0.4-1.9v-0.3h0.3h1.3h0.3V15.9L15.7,15.9z M14.6,18.3c0.3-0.6,0.4-1.3,0.5-2h-0.6
	c0,0.6-0.2,1.2-0.4,1.8c-0.3,0.7-0.7,1.3-1.2,1.8l0,0c-0.5,0.5-1.1,0.9-1.8,1.2c-0.7,0.3-1.4,0.4-2.1,0.4c-0.7,0-1.5-0.1-2.1-0.4
	c-0.7-0.3-1.3-0.7-1.8-1.2c-0.5-0.5-0.9-1.1-1.2-1.8c-0.3-0.7-0.4-1.4-0.4-2.1c0-0.7,0.1-1.5,0.4-2.1c0.3-0.7,0.7-1.3,1.2-1.8l0,0
	l0,0c0.3-0.3,0.5-0.5,0.8-0.7c0.2-0.2,0.5-0.3,0.7-0.4l-0.1-0.6c-0.3,0.1-0.6,0.3-0.8,0.4c-0.4,0.2-0.7,0.5-1,0.8l0,0l0,0l0,0l0,0
	c-0.6,0.6-1,1.2-1.3,2c-0.3,0.7-0.5,1.5-0.5,2.3c0,0.8,0.2,1.6,0.5,2.3c0.3,0.8,0.8,1.4,1.3,2h0c0.6,0.6,1.2,1,2,1.3
	C7.3,21.9,8.1,22,9,22c0.8,0,1.6-0.2,2.3-0.5c0.7-0.3,1.4-0.8,2-1.3C13.9,19.7,14.3,19,14.6,18.3L14.6,18.3z"/>
<path class="st0" d="M7,0.4c0.7,0,1.4,0.3,1.9,0.8C9.3,1.7,9.6,2.3,9.6,3c0,0.7-0.3,1.4-0.8,1.9C8.4,5.4,7.7,5.7,7,5.7
	c-0.7,0-1.4-0.3-1.9-0.8C4.6,4.4,4.3,3.8,4.3,3c0-0.7,0.3-1.4,0.8-1.9C5.6,0.7,6.2,0.4,7,0.4L7,0.4z M8.3,1.7C7.9,1.4,7.5,1.2,7,1.2
	c-0.5,0-1,0.2-1.3,0.5C5.3,2.1,5.1,2.5,5.1,3c0,0.5,0.2,1,0.5,1.3C6,4.7,6.5,4.9,7,4.9c0.5,0,1-0.2,1.3-0.5C8.6,4,8.8,3.6,8.8,3
	C8.8,2.5,8.6,2.1,8.3,1.7L8.3,1.7z"/>
<path class="st0" d="M8.3,5.7l1.3,3.5l7.1,0l0.4,0v0.4v1.3v0.4l-0.4,0l-6.2,0.5l0.5,1.3l7.3,0.7l0.2,0l0.1,0.2l3.8,7.2l0.2,0.3
	l-0.3,0.2l-1.7,0.9l-0.3,0.2L20,22.2l-3.1-5.9H7.8H7.5L7.4,16L5.7,6.2L5.6,5.8L6,5.7l1.9-0.3l0.3-0.1L8.3,5.7L8.3,5.7z M9,9.7
	L7.7,6.2L6.5,6.4l1.6,9.1h9h0.2l0.1,0.2l3.1,5.8l1-0.5L18,14.4l-7.4-0.7l-0.2,0l-0.1-0.2l-0.7-2L9.4,11l0.5,0l6.4-0.5V10l-7,0L9,10
	L9,9.7L9,9.7z"/>
</svg>
