<svg width="26" height="22" viewBox="0 0 26 22" fill="none" xmlns="http://www.w3.org/2000/svg">
<path d="M13.0007 14.5C12.3085 14.5 11.6318 14.7053 11.0562 15.0899C10.4807 15.4744 10.0321 16.0211 9.76716 16.6606C9.50225 17.3001 9.43294 18.0039 9.56799 18.6828C9.70304 19.3617 10.0364 19.9854 10.5259 20.4749C11.0153 20.9644 11.639 21.2977 12.3179 21.4327C12.9969 21.5678 13.7006 21.4985 14.3401 21.2336C14.9797 20.9687 15.5263 20.5201 15.9109 19.9445C16.2955 19.3689 16.5007 18.6922 16.5007 18C16.5007 17.0717 16.132 16.1815 15.4756 15.5251C14.8192 14.8687 13.929 14.5 13.0007 14.5ZM13.0007 19.1667C12.77 19.1667 12.5444 19.0982 12.3526 18.97C12.1607 18.8418 12.0112 18.6596 11.9229 18.4465C11.8346 18.2333 11.8115 17.9987 11.8565 17.7724C11.9015 17.5461 12.0126 17.3382 12.1758 17.175C12.3389 17.0119 12.5468 16.9008 12.7731 16.8557C12.9994 16.8107 13.234 16.8338 13.4472 16.9221C13.6604 17.0104 13.8426 17.16 13.9708 17.3518C14.099 17.5437 14.1674 17.7693 14.1674 18C14.1674 18.3094 14.0445 18.6062 13.8257 18.825C13.6069 19.0437 13.3102 19.1667 13.0007 19.1667ZM13.0007 9.83333C10.8363 9.84079 8.76171 10.6999 7.22574 12.225C7.00844 12.4436 6.88648 12.7393 6.88648 13.0475C6.88648 13.3557 7.00844 13.6514 7.22574 13.87C7.44433 14.0873 7.74002 14.2093 8.04824 14.2093C8.35645 14.2093 8.65215 14.0873 8.87074 13.87C9.4126 13.3268 10.0563 12.8958 10.765 12.6017C11.4737 12.3076 12.2335 12.1562 13.0007 12.1562C13.768 12.1562 14.5278 12.3076 15.2365 12.6017C15.9452 12.8958 16.5889 13.3268 17.1307 13.87C17.3461 14.0898 17.6397 14.2156 17.9474 14.22C18.1841 14.2336 18.4194 14.1748 18.6218 14.0514C18.8242 13.9279 18.9843 13.7458 19.0806 13.5291C19.1769 13.3124 19.2049 13.0716 19.1608 12.8386C19.1168 12.6056 19.0028 12.3916 18.8341 12.225C18.0664 11.4628 17.1562 10.8593 16.1553 10.4489C15.1544 10.0386 14.0825 9.8294 13.0007 9.83333ZM13.0007 5.16666C9.59872 5.1757 6.33741 6.5255 3.92407 8.92333C3.81529 9.03211 3.729 9.16125 3.67013 9.30337C3.61126 9.4455 3.58096 9.59783 3.58096 9.75166C3.58096 10.0623 3.70438 10.3603 3.92407 10.58C4.14376 10.7997 4.44172 10.9231 4.7524 10.9231C5.06309 10.9231 5.36105 10.7997 5.58074 10.58C7.54949 8.61369 10.2182 7.50924 13.0007 7.50924C15.7832 7.50924 18.452 8.61369 20.4207 10.58C20.5297 10.6881 20.659 10.7737 20.8012 10.8317C20.9433 10.8898 21.0955 10.9192 21.2491 10.9183C21.4026 10.9192 21.5548 10.8898 21.697 10.8317C21.8391 10.7737 21.9684 10.6881 22.0774 10.58C22.1868 10.4715 22.2735 10.3425 22.3328 10.2003C22.392 10.0582 22.4225 9.90568 22.4225 9.75166C22.4225 9.59765 22.392 9.44516 22.3328 9.30299C22.2735 9.16082 22.1868 9.03179 22.0774 8.92333C19.6641 6.5255 16.4028 5.1757 13.0007 5.16666ZM25.3791 5.62166C23.7539 3.99545 21.8242 2.70541 19.7003 1.82525C17.5764 0.945088 15.2998 0.492065 13.0007 0.492065C10.7017 0.492065 8.42512 0.945088 6.30119 1.82525C4.17726 2.70541 2.24758 3.99545 0.622404 5.62166C0.402716 5.84135 0.279297 6.13931 0.279297 6.45C0.279297 6.76068 0.402716 7.05864 0.622404 7.27833C0.842091 7.49802 1.14005 7.62144 1.45074 7.62144C1.76142 7.62144 2.05938 7.49802 2.27907 7.27833C5.12315 4.43573 8.97965 2.8389 13.0007 2.8389C17.0218 2.8389 20.8783 4.43573 23.7224 7.27833C23.8309 7.38768 23.9599 7.47447 24.1021 7.5337C24.2442 7.59293 24.3967 7.62343 24.5507 7.62343C24.7047 7.62343 24.8572 7.59293 24.9994 7.5337C25.1416 7.47447 25.2706 7.38768 25.3791 7.27833C25.4884 7.16987 25.5752 7.04084 25.6344 6.89867C25.6937 6.7565 25.7242 6.60401 25.7242 6.45C25.7242 6.29598 25.6937 6.14349 25.6344 6.00132C25.5752 5.85915 25.4884 5.73012 25.3791 5.62166V5.62166Z" fill="#5A4596"/>
</svg>
