<svg width="29" height="21" viewBox="0 0 29 21" fill="none" xmlns="http://www.w3.org/2000/svg">
<path d="M21.3747 5.76001C21.9186 5.76001 22.4503 5.59873 22.9025 5.29655C23.3548 4.99438 23.7072 4.56489 23.9154 4.06239C24.1235 3.55989 24.178 3.00696 24.0719 2.47351C23.9658 1.94006 23.7039 1.45006 23.3193 1.06547C22.9347 0.680873 22.4447 0.418961 21.9112 0.312851C21.3778 0.206742 20.8248 0.261201 20.3223 0.469342C19.8198 0.677483 19.3903 1.02996 19.0882 1.48219C18.786 1.93443 18.6247 2.46611 18.6247 3.01001C18.6247 3.73936 18.9144 4.43883 19.4302 4.95456C19.9459 5.47028 20.6454 5.76001 21.3747 5.76001ZM1.72596 12.14C1.99842 12.2271 2.26109 12.3423 2.50971 12.4838C3.36487 12.984 4.33774 13.2477 5.32846 13.2477C6.31918 13.2477 7.29206 12.984 8.14721 12.4838C8.68494 12.1827 9.29093 12.0246 9.90721 12.0246C10.5235 12.0246 11.1295 12.1827 11.6672 12.4838L11.956 12.6213C12.7903 13.0275 13.7113 13.2235 14.6388 13.1923C15.5662 13.1612 16.472 12.9038 17.2772 12.4425C17.8149 12.1414 18.4209 11.9833 19.0372 11.9833C19.6535 11.9833 20.2595 12.1414 20.7972 12.4425C21.6686 12.9405 22.6536 13.2057 23.6572 13.2125C24.6257 13.2025 25.5743 12.9368 26.4072 12.4425C26.6558 12.3011 26.9185 12.1859 27.191 12.0988C27.3942 12.0848 27.5918 12.0258 27.7694 11.9261C27.9471 11.8264 28.1003 11.6885 28.2182 11.5223C28.336 11.3562 28.4154 11.1659 28.4507 10.9653C28.486 10.7646 28.4763 10.5587 28.4223 10.3623C28.3682 10.1658 28.2712 9.9839 28.1383 9.82956C28.0053 9.67523 27.8397 9.55236 27.6535 9.46985C27.4672 9.38734 27.265 9.34724 27.0613 9.35246C26.8577 9.35767 26.6577 9.40807 26.476 9.50001C25.9962 9.64891 25.5349 9.85188 25.101 10.105C24.662 10.3584 24.1641 10.4919 23.6572 10.4919C23.1504 10.4919 22.6524 10.3584 22.2135 10.105C21.2609 9.56766 20.1858 9.28533 19.0922 9.28533C17.9986 9.28533 16.9235 9.56766 15.971 10.105C15.8416 10.1682 15.7084 10.2233 15.5722 10.27L17.7172 8.12501C17.7664 8.06132 17.8079 7.9921 17.841 7.91876C17.9032 7.85113 17.9585 7.77742 18.006 7.69876C18.0124 7.6118 18.0124 7.52448 18.006 7.43751C18.0138 7.3506 18.0138 7.26317 18.006 7.17626C18.0125 7.09389 18.0125 7.01113 18.006 6.92876C18.0138 6.84185 18.0138 6.75442 18.006 6.66751C17.9653 6.58668 17.9193 6.5086 17.8685 6.43376C17.8328 6.35456 17.7865 6.28055 17.731 6.21376L13.5097 1.63501C13.3987 1.51394 13.2686 1.41177 13.1247 1.33251C13.0289 1.31982 12.9318 1.31982 12.836 1.33251C12.7586 1.31993 12.6796 1.31993 12.6022 1.33251C12.4192 1.25886 12.221 1.23056 12.0247 1.25001L7.15721 3.06501C6.81451 3.18912 6.53511 3.44422 6.38041 3.77424C6.22571 4.10427 6.20838 4.48221 6.33221 4.82501C6.45632 5.16771 6.71142 5.44711 7.04145 5.60181C7.37147 5.75651 7.74941 5.77385 8.09221 5.65001L12.121 4.17876L14.871 7.09376L12.2585 9.70626C11.3831 9.36599 10.4433 9.22403 9.50649 9.29061C8.56972 9.35718 7.65937 9.63063 6.84096 10.0913C6.40201 10.3447 5.90408 10.4781 5.39721 10.4781C4.89035 10.4781 4.39242 10.3447 3.95346 10.0913C3.51954 9.83813 3.05824 9.63516 2.57846 9.48626C2.40253 9.42062 2.21502 9.39171 2.02749 9.40132C1.83996 9.41092 1.65638 9.45883 1.48808 9.5421C1.31977 9.62537 1.17031 9.74223 1.04889 9.88547C0.927482 10.0287 0.836697 10.1953 0.782136 10.375C0.727575 10.5547 0.710394 10.7436 0.731653 10.9302C0.752911 11.1168 0.812159 11.297 0.905743 11.4598C0.999327 11.6226 1.12526 11.7645 1.27579 11.8767C1.42632 11.989 1.59824 12.0692 1.78096 12.1125L1.72596 12.14ZM26.476 16.3888C25.9962 16.5377 25.5349 16.7406 25.101 16.9938C24.662 17.2472 24.1641 17.3806 23.6572 17.3806C23.1504 17.3806 22.6524 17.2472 22.2135 16.9938C21.2609 16.4564 20.1858 16.1741 19.0922 16.1741C17.9986 16.1741 16.9235 16.4564 15.971 16.9938C15.5283 17.251 15.0254 17.3864 14.5135 17.3864C14.0015 17.3864 13.4986 17.251 13.056 16.9938C12.1034 16.4564 11.0283 16.1741 9.93471 16.1741C8.84108 16.1741 7.76598 16.4564 6.81346 16.9938C6.37451 17.2472 5.87658 17.3806 5.36971 17.3806C4.86285 17.3806 4.36492 17.2472 3.92596 16.9938C3.49204 16.7406 3.03074 16.5377 2.55096 16.3888C2.37503 16.3231 2.18752 16.2942 1.99999 16.3038C1.81246 16.3134 1.62888 16.3613 1.46058 16.4446C1.29227 16.5279 1.14281 16.6447 1.02139 16.788C0.899982 16.9312 0.809197 17.0978 0.754636 17.2775C0.700075 17.4572 0.682894 17.6461 0.704153 17.8327C0.725411 18.0193 0.784659 18.1995 0.878243 18.3623C0.971827 18.5251 1.09776 18.667 1.24829 18.7792C1.39882 18.8915 1.57074 18.9717 1.75346 19.015C2.02592 19.1021 2.28859 19.2173 2.53721 19.3588C3.39237 19.859 4.36524 20.1227 5.35596 20.1227C6.34668 20.1227 7.31956 19.859 8.17471 19.3588C8.71244 19.0577 9.31843 18.8996 9.93471 18.8996C10.551 18.8996 11.157 19.0577 11.6947 19.3588C12.5573 19.852 13.5336 20.1114 14.5272 20.1114C15.5208 20.1114 16.4972 19.852 17.3597 19.3588C17.8974 19.0577 18.5034 18.8996 19.1197 18.8996C19.736 18.8996 20.342 19.0577 20.8797 19.3588C21.7511 19.8568 22.7361 20.122 23.7397 20.1288C24.7082 20.1187 25.6568 19.8531 26.4897 19.3588C26.7383 19.2173 27.001 19.1021 27.2735 19.015C27.4468 18.9626 27.6081 18.8767 27.7483 18.7619C27.8884 18.6472 28.0045 18.506 28.0901 18.3464C28.1756 18.1868 28.2289 18.0119 28.2468 17.8318C28.2648 17.6516 28.2471 17.4696 28.1947 17.2963C28.1423 17.1229 28.0564 16.9616 27.9416 16.8215C27.8269 16.6814 27.6857 16.5652 27.5261 16.4797C27.3665 16.3941 27.1916 16.3409 27.0115 16.3229C26.8313 16.3049 26.6493 16.3226 26.476 16.375V16.3888Z" fill="#5A4596"/>
</svg>
