<svg width="33" height="37" viewBox="0 0 33 37" fill="none" xmlns="http://www.w3.org/2000/svg">
<path d="M6.46256 11.897C8.70711 10.9887 9.90787 8.49433 8.99604 6.24092C8.08686 3.99637 1.98329 0.832947 1.98329 0.832947C1.98329 0.832947 -0.207431 7.35445 0.701142 9.59839C1.61327 11.8521 4.21149 12.8083 6.46256 11.8967V11.897Z" fill="#5A4596"/>
<path d="M15.8653 25.1886C15.8653 25.1886 13.6122 31.5368 14.5204 33.7807C15.432 36.0317 18.024 36.9929 20.2753 36.0814C22.5263 35.1702 23.7194 32.6766 22.8082 30.4256C21.8996 28.1811 15.8653 25.1883 15.8653 25.1883V25.1886Z" fill="#5A4596"/>
<path d="M1.76547 22.6507C1.76547 22.6507 -0.706442 29.4886 0.272162 31.906C1.25319 34.3294 4.10072 35.3879 6.52447 34.4063C8.94172 33.4276 10.0748 30.7587 9.09345 28.3347C8.11417 25.9178 1.76547 22.6508 1.76547 22.6508V22.6507Z" fill="#5A4596"/>
<path d="M15.8115 20.5792C17.1915 20.0205 17.7398 18.3935 17.25 17.1838C16.6887 15.797 13.1526 14.0118 13.1526 14.0118C13.1526 14.0118 11.8528 17.7549 12.4141 19.1423C12.9039 20.3514 14.4273 21.1396 15.8115 20.5792H15.8115Z" fill="#5A4596"/>
<path d="M29.3593 20.0045C28.798 18.6177 25.262 16.8324 25.262 16.8324C25.262 16.8324 23.9621 20.5756 24.5235 21.963C25.0133 23.1723 26.537 23.9605 27.9208 23.4003C29.301 22.841 29.8497 21.2141 29.3593 20.0044L29.3593 20.0045Z" fill="#5A4596"/>
<path d="M26.6599 6.65527C25.7513 4.41103 19.6474 1.24762 19.6474 1.24762C19.6474 1.24762 17.4566 7.7691 18.3652 10.013C19.2776 12.2667 21.8759 13.2223 24.1267 12.3111C26.3706 11.4031 27.572 8.90928 26.6599 6.65504V6.65527Z" fill="#5A4596"/>
<path d="M32.7305 33.387C32.1692 32.0002 28.6331 30.2149 28.6331 30.2149C28.6331 30.2149 27.3332 33.9581 27.8946 35.3455C28.3844 36.5549 29.9078 37.3431 31.2919 36.7823C32.6717 36.2236 33.2203 34.5967 32.7305 33.387H32.7305Z" fill="#5A4596"/>
</svg>
