<svg width="41" height="40" viewBox="0 0 41 40" fill="none" xmlns="http://www.w3.org/2000/svg">
<path d="M2.68509 16.913H19.639C21.6901 16.9278 23.6747 16.1846 25.2114 14.8259C26.7482 13.4672 27.7292 11.5888 27.9661 9.55132C28.1945 7.26301 27.4361 4.98568 25.881 3.29127C24.3372 1.59626 22.1518 0.628556 19.8591 0.624695H15.2843C14.5485 0.624695 13.8685 1.01746 13.5006 1.65456C13.1326 2.29192 13.1326 3.07715 13.5006 3.71452C13.8685 4.35158 14.5484 4.74438 15.2843 4.74438H19.8591C21.0184 4.74586 22.1211 5.24717 22.885 6.11935C23.6487 6.99158 24.0001 8.15061 23.8486 9.30025C23.6969 10.2866 23.1924 11.1843 22.4284 11.8263C21.6647 12.4687 20.6938 12.8115 19.6962 12.7917H2.68471C1.94886 12.7917 1.26893 13.1841 0.900961 13.8215C0.53299 14.4589 0.533036 15.2438 0.900961 15.8812C1.26889 16.5185 1.94885 16.911 2.68471 16.911L2.68509 16.913Z" fill="#5A4596"/>
<path d="M40.337 30.5022C40.1001 28.4647 39.1194 26.5867 37.5829 25.2283C36.0462 23.8696 34.0622 23.126 32.0111 23.1405H17.8488C17.1129 23.1405 16.433 23.533 16.065 24.1704C15.6971 24.8078 15.6971 25.593 16.065 26.23C16.4329 26.8674 17.1129 27.2599 17.8488 27.2599H32.0671C33.0648 27.2401 34.0357 27.5832 34.7994 28.2253C35.5633 28.8677 36.0679 29.7653 36.2196 30.7513C36.3711 31.901 36.02 33.06 35.256 33.9322C34.492 34.8047 33.3895 35.3057 32.2301 35.3075H27.6535C26.9177 35.3075 26.2378 35.7 25.8698 36.3373C25.5019 36.9744 25.5019 37.7596 25.8698 38.397C26.2377 39.0344 26.9177 39.4269 27.6535 39.4269H32.228C34.5217 39.4248 36.7088 38.4576 38.2535 36.7624C39.808 35.0677 40.5658 32.7904 40.3366 30.5024L40.337 30.5022Z" fill="#5A4596"/>
<path d="M13.3114 25.2022C13.3111 24.6557 13.094 24.1319 12.7081 23.7453C12.3218 23.3588 11.798 23.1411 11.2518 23.1405H2.6847C1.94885 23.1405 1.26892 23.533 0.900944 24.1704C0.533019 24.8077 0.533019 25.593 0.900944 26.23C1.26887 26.8674 1.94883 27.2599 2.6847 27.2599H11.2518C11.7974 27.2593 12.3206 27.0422 12.7066 26.6565C13.0926 26.2709 13.3103 25.748 13.3114 25.2023L13.3114 25.2022Z" fill="#5A4596"/>
<path d="M28.6819 18.2433C28.8575 18.2433 29.0261 18.1735 29.1503 18.0493L30.5464 16.6533H30.5461C32.4647 17.0336 34.4436 16.3954 35.7786 14.966C37.1137 13.5366 37.6153 11.5189 37.1048 9.63078C37.0439 9.40127 36.8647 9.22204 36.6352 9.16111C34.747 8.65093 32.7294 9.15254 31.3 10.4873C29.8705 11.8224 29.2323 13.8013 29.6127 15.7199L28.2135 17.1117C28.0242 17.3013 27.9674 17.5861 28.07 17.8337C28.1727 18.0812 28.414 18.2424 28.6819 18.2427L28.6819 18.2433Z" fill="#5A4596"/>
<path d="M14.386 30.0494L12.9899 28.6534C12.73 28.4023 12.3168 28.4062 12.0612 28.6617C11.8056 28.9172 11.8021 29.3304 12.0532 29.5904L13.4483 30.9864V30.9861C13.089 32.8337 13.6669 34.739 14.9919 36.0756C16.3699 37.4391 19.45 38.597 20.9412 37.0694H20.9415C21.4511 35.1818 20.9498 33.1651 19.6159 31.7359C18.2817 30.3065 16.3039 29.668 14.3859 30.0468L14.386 30.0494Z" fill="#5A4596"/>
</svg>
