<svg width="25" height="24" viewBox="0 0 25 24" fill="none" xmlns="http://www.w3.org/2000/svg">
<path d="M20.6836 3.5H4.68359C3.88794 3.5 3.12488 3.81607 2.56227 4.37868C1.99966 4.94129 1.68359 5.70435 1.68359 6.5V19.5C1.68359 19.7652 1.78895 20.0196 1.97649 20.2071C2.16402 20.3946 2.41838 20.5 2.68359 20.5H6.68359C6.8483 20.4991 7.01025 20.4576 7.15504 20.3791C7.29984 20.3006 7.42301 20.1876 7.51359 20.05L9.22359 17.5H16.1436L17.8536 20.05C17.9442 20.1876 18.0673 20.3006 18.2121 20.3791C18.3569 20.4576 18.5189 20.4991 18.6836 20.5H22.6836C22.9488 20.5 23.2032 20.3946 23.3907 20.2071C23.5782 20.0196 23.6836 19.7652 23.6836 19.5V6.5C23.6836 5.70435 23.3675 4.94129 22.8049 4.37868C22.2423 3.81607 21.4792 3.5 20.6836 3.5ZM21.6836 18.5H19.2236L17.5136 16C17.429 15.8531 17.3084 15.7302 17.1632 15.6428C17.018 15.5553 16.853 15.5062 16.6836 15.5H8.68359C8.51889 15.5009 8.35694 15.5424 8.21214 15.6209C8.06735 15.6994 7.94418 15.8124 7.85359 15.95L6.14359 18.5H3.68359V13.5H21.6836V18.5ZM7.68359 11.5V10.5C7.68359 10.2348 7.78895 9.98043 7.97649 9.79289C8.16402 9.60536 8.41838 9.5 8.68359 9.5H10.6836C10.9488 9.5 11.2032 9.60536 11.3907 9.79289C11.5782 9.98043 11.6836 10.2348 11.6836 10.5V11.5H7.68359ZM13.6836 11.5V10.5C13.6836 10.2348 13.789 9.98043 13.9765 9.79289C14.164 9.60536 14.4184 9.5 14.6836 9.5H16.6836C16.9488 9.5 17.2032 9.60536 17.3907 9.79289C17.5782 9.98043 17.6836 10.2348 17.6836 10.5V11.5H13.6836ZM21.6836 11.5H19.6836V10.5C19.6836 9.70435 19.3675 8.94129 18.8049 8.37868C18.2423 7.81607 17.4792 7.5 16.6836 7.5H14.6836C13.9435 7.50441 13.2312 7.78221 12.6836 8.28C12.136 7.78221 11.4236 7.50441 10.6836 7.5H8.68359C7.88794 7.5 7.12488 7.81607 6.56227 8.37868C5.99966 8.94129 5.68359 9.70435 5.68359 10.5V11.5H3.68359V6.5C3.68359 6.23478 3.78895 5.98043 3.97649 5.79289C4.16402 5.60536 4.41838 5.5 4.68359 5.5H20.6836C20.9488 5.5 21.2032 5.60536 21.3907 5.79289C21.5782 5.98043 21.6836 6.23478 21.6836 6.5V11.5Z" fill="white"/>
</svg>
