<svg xmlns="http://www.w3.org/2000/svg" width="44.273" height="14" viewBox="0 0 44.273 14">
  <g id="logoextra" transform="translate(-856.65 -507.25)">
    <g id="Group_1" data-name="Group 1" transform="translate(856.65 507.25)">
      <path id="Path_1" data-name="Path 1" d="M892.015,509.994V512.2h6.571v1.876l-6.271-.011L890.7,515.6v4.159l1.6,1.479,7.118.011,1.5-1.479.011-8.372-1.544-1.436-7.365.032m1.158,6.239,5.306.011V518.9l-5.306-.011v-2.659m-1.983-3.988.011-2.283h-5.735l-1.522,1.351-.011,9.894h2.423l-.011-8.962h4.845m-11.5-5h-2.358l.011,12.467,1.479,1.479h3.838l.011-2.187-2.937.011v-6.764l2.98-.021v-2.3l-3.012.011-.011-2.691m-2.98,2.766-2.734-.011-2.2,3.312-2.24-3.387-2.83-.011,3.655,5.263-4.149,6.014,2.894-.011,2.616-3.934,2.723,3.988,2.841.011-4.213-5.992,3.634-5.242m-18.46-.086-1.6,1.426v8.426l1.5,1.415h7.44v-2.208l-6.5.011V517.08l6.357-.011,1.458-1.4v-4.191l-1.49-1.533-7.172-.011m.815,4.888v-2.637l5.349.011v2.616Z" transform="translate(-856.65 -507.25)" fill="#a9a9a9"/>
    </g>
  </g>
</svg>
