<svg width="20" height="20" viewBox="0 0 20 20" fill="none" xmlns="http://www.w3.org/2000/svg">
<path fill-rule="evenodd" clip-rule="evenodd" d="M9.99958 2.55441C5.87717 2.55441 2.5353 5.91397 2.5353 10.0582C2.5353 12.178 3.4097 14.0926 4.81569 15.4572C5.10412 14.7655 5.69777 14.2151 6.36885 13.8296C7.33721 13.2734 8.62253 12.9544 9.99958 12.9544C11.3766 12.9544 12.662 13.2734 13.6303 13.8296C14.3014 14.2151 14.895 14.7655 15.1835 15.4572C16.5895 14.0926 17.4639 12.178 17.4639 10.0582C17.4639 5.91397 14.122 2.55441 9.99958 2.55441ZM13.7856 16.5265C13.7856 16.5265 13.7867 16.5233 13.7873 16.5212C13.794 16.4978 13.7972 16.4675 13.7972 16.3772C13.7972 16.0559 13.5634 15.6106 12.8507 15.2012C12.1602 14.8046 11.1538 14.5341 9.99958 14.5341C8.84533 14.5341 7.83899 14.8046 7.1485 15.2012C6.43578 15.6106 6.20196 16.0559 6.20196 16.3772C6.20196 16.4675 6.20512 16.4978 6.21186 16.5212C6.21247 16.5233 6.21355 16.5265 6.21355 16.5265C7.32354 17.1845 8.61771 17.562 9.99958 17.562C11.3815 17.562 12.6756 17.1845 13.7856 16.5265ZM0.963867 10.0582C0.963867 5.0415 5.00929 0.97467 9.99958 0.97467C14.9899 0.97467 19.0353 5.0415 19.0353 10.0582C19.0353 15.0749 14.9899 19.1417 9.99958 19.1417C5.00929 19.1417 0.963867 15.0749 0.963867 10.0582ZM9.99958 6.24048C8.91474 6.24048 8.0353 7.12458 8.0353 8.21516C8.0353 9.30575 8.91474 10.1898 9.99958 10.1898C11.0844 10.1898 11.9639 9.30575 11.9639 8.21516C11.9639 7.12458 11.0844 6.24048 9.99958 6.24048ZM6.46387 8.21516C6.46387 6.25211 8.04686 4.66074 9.99958 4.66074C11.9523 4.66074 13.5353 6.25211 13.5353 8.21516C13.5353 10.1782 11.9523 11.7696 9.99958 11.7696C8.04686 11.7696 6.46387 10.1782 6.46387 8.21516Z" fill="#1E1E1E"/>
</svg>
