<svg width="19" height="15" viewBox="0 0 19 15" fill="none" xmlns="http://www.w3.org/2000/svg">
<path d="M18.1791 7.15C16.4116 3.04625 13.0866 0.5 9.49914 0.5C5.91164 0.5 2.58664 3.04625 0.819143 7.15C0.770963 7.2604 0.746094 7.37955 0.746094 7.5C0.746094 7.62045 0.770963 7.7396 0.819143 7.85C2.58664 11.9537 5.91164 14.5 9.49914 14.5C13.0866 14.5 16.4116 11.9537 18.1791 7.85C18.2273 7.7396 18.2522 7.62045 18.2522 7.5C18.2522 7.37955 18.2273 7.2604 18.1791 7.15V7.15ZM9.49914 12.75C6.71664 12.75 4.10039 10.7463 2.58664 7.5C4.10039 4.25375 6.71664 2.25 9.49914 2.25C12.2816 2.25 14.8979 4.25375 16.4116 7.5C14.8979 10.7463 12.2816 12.75 9.49914 12.75ZM9.49914 4C8.80691 4 8.13022 4.20527 7.55465 4.58986C6.97908 4.97444 6.53047 5.52107 6.26556 6.16061C6.00066 6.80015 5.93135 7.50388 6.06639 8.18282C6.20144 8.86175 6.53479 9.48539 7.02427 9.97487C7.51375 10.4644 8.13739 10.7977 8.81633 10.9327C9.49526 11.0678 10.199 10.9985 10.8385 10.7336C11.4781 10.4687 12.0247 10.0201 12.4093 9.4445C12.7939 8.86892 12.9991 8.19223 12.9991 7.5C12.9991 6.57174 12.6304 5.6815 11.974 5.02513C11.3176 4.36875 10.4274 4 9.49914 4V4ZM9.49914 9.25C9.15303 9.25 8.81468 9.14736 8.5269 8.95507C8.23911 8.76278 8.01481 8.48947 7.88235 8.1697C7.7499 7.84993 7.71524 7.49806 7.78277 7.15859C7.85029 6.81913 8.01696 6.50731 8.26171 6.26256C8.50645 6.01782 8.81827 5.85115 9.15774 5.78363C9.4972 5.7161 9.84907 5.75076 10.1688 5.88321C10.4886 6.01566 10.7619 6.23997 10.9542 6.52775C11.1465 6.81554 11.2491 7.15388 11.2491 7.5C11.2491 7.96413 11.0648 8.40925 10.7366 8.73744C10.4084 9.06563 9.96327 9.25 9.49914 9.25Z" fill="#404040"/>
</svg>
