<svg width="22" height="20" viewBox="0 0 22 20" fill="none" xmlns="http://www.w3.org/2000/svg">
<path d="M20.7493 8.375H19.666V7.29167C19.666 7.00435 19.5519 6.7288 19.3487 6.52564C19.1456 6.32247 18.87 6.20833 18.5827 6.20833C18.2954 6.20833 18.0198 6.32247 17.8166 6.52564C17.6135 6.7288 17.4993 7.00435 17.4993 7.29167V8.375H16.416C16.1287 8.375 15.8531 8.48914 15.65 8.6923C15.4468 8.89547 15.3327 9.17102 15.3327 9.45833C15.3327 9.74565 15.4468 10.0212 15.65 10.2244C15.8531 10.4275 16.1287 10.5417 16.416 10.5417H17.4993V11.625C17.4993 11.9123 17.6135 12.1879 17.8166 12.391C18.0198 12.5942 18.2954 12.7083 18.5827 12.7083C18.87 12.7083 19.1456 12.5942 19.3487 12.391C19.5519 12.1879 19.666 11.9123 19.666 11.625V10.5417H20.7493C21.0367 10.5417 21.3122 10.4275 21.5154 10.2244C21.7185 10.0212 21.8327 9.74565 21.8327 9.45833C21.8327 9.17102 21.7185 8.89547 21.5154 8.6923C21.3122 8.48914 21.0367 8.375 20.7493 8.375ZM12.4077 10.2383C12.9857 9.73798 13.4494 9.11913 13.7671 8.42378C14.0849 7.72843 14.2494 6.97285 14.2493 6.20833C14.2493 4.77175 13.6787 3.394 12.6628 2.37817C11.647 1.36235 10.2693 0.791668 8.83268 0.791668C7.39609 0.791668 6.01834 1.36235 5.00252 2.37817C3.9867 3.394 3.41602 4.77175 3.41602 6.20833C3.41601 6.97285 3.58047 7.72843 3.89824 8.42378C4.216 9.11913 4.67964 9.73798 5.25768 10.2383C3.74117 10.925 2.45452 12.034 1.55158 13.4326C0.648635 14.8312 0.16761 16.4603 0.166016 18.125C0.166016 18.4123 0.280152 18.6879 0.483317 18.891C0.686481 19.0942 0.962031 19.2083 1.24935 19.2083C1.53667 19.2083 1.81222 19.0942 2.01538 18.891C2.21855 18.6879 2.33268 18.4123 2.33268 18.125C2.33268 16.4011 3.0175 14.7478 4.23649 13.5288C5.45548 12.3098 7.10878 11.625 8.83268 11.625C10.5566 11.625 12.2099 12.3098 13.4289 13.5288C14.6479 14.7478 15.3327 16.4011 15.3327 18.125C15.3327 18.4123 15.4468 18.6879 15.65 18.891C15.8531 19.0942 16.1287 19.2083 16.416 19.2083C16.7033 19.2083 16.9789 19.0942 17.182 18.891C17.3852 18.6879 17.4993 18.4123 17.4993 18.125C17.4978 16.4603 17.0167 14.8312 16.1138 13.4326C15.2108 12.034 13.9242 10.925 12.4077 10.2383V10.2383ZM8.83268 9.45833C8.18989 9.45833 7.56154 9.26773 7.02708 8.91061C6.49262 8.5535 6.07606 8.04592 5.83007 7.45206C5.58409 6.8582 5.51973 6.20473 5.64513 5.57429C5.77053 4.94385 6.08006 4.36476 6.53459 3.91024C6.98911 3.45572 7.5682 3.14618 8.19864 3.02078C8.82908 2.89538 9.48254 2.95974 10.0764 3.20573C10.6703 3.45171 11.1778 3.86827 11.535 4.40273C11.8921 4.93719 12.0827 5.56555 12.0827 6.20833C12.0827 7.07029 11.7403 7.89694 11.1308 8.50643C10.5213 9.11593 9.69464 9.45833 8.83268 9.45833Z" fill="#5A4596"/>
</svg>
