<svg width="19" height="18" viewBox="0 0 19 18" fill="none" xmlns="http://www.w3.org/2000/svg">
<path d="M8.8074 15.9766L8.80598 15.9752C6.34012 13.6664 4.37305 11.822 3.01043 10.1018C1.66015 8.39725 1 6.93089 1 5.3951C1 2.89569 2.88124 1 5.225 1C6.56305 1 7.87231 1.6482 8.72852 2.68639L9.5 3.62185L10.2715 2.68639C11.1277 1.6482 12.437 1 13.775 1C16.1188 1 18 2.89569 18 5.3951C18 6.9309 17.3398 8.39731 15.9894 10.1033C14.6267 11.8247 12.6599 13.6713 10.1943 15.9848C10.1939 15.9851 10.1936 15.9854 10.1932 15.9858L9.5026 16.63L8.8074 15.9766Z" fill="#5A4596" stroke="#5A4596" stroke-width="2"/>
</svg>
