<svg width="27" height="40" viewBox="0 0 27 40" fill="none" xmlns="http://www.w3.org/2000/svg">
<path d="M25.1151 6.76489C24.3342 5.44045 23.387 4.2866 22.3144 3.32196C22.2894 3.29715 22.2643 3.29715 22.2423 3.27543C19.8776 1.20347 16.8605 0.0465261 13.4984 0C10.1395 0.0465261 7.11929 1.20347 4.75769 3.27543C4.7326 3.29715 4.71065 3.29715 4.68556 3.32196C3.61296 4.2866 2.66267 5.44045 1.88488 6.76489C-0.354404 10.5707 -0.599032 14.9069 1.15413 18.8306L13.4984 40L25.8459 18.8306C27.599 14.9069 27.3544 10.5707 25.1151 6.76489ZM13.2758 17.0565C11.0459 17.0565 9.23626 15.2699 9.23626 13.0614C9.23626 10.853 11.0459 9.06638 13.2758 9.06638C15.5056 9.06638 17.3153 10.8561 17.3153 13.0614C17.3153 15.2667 15.5056 17.0565 13.2758 17.0565Z" fill="#F9B233"/>
</svg>
