<svg width="18" height="18" viewBox="0 0 18 18" fill="none" xmlns="http://www.w3.org/2000/svg">
<path d="M3.1662 17.3333L13.7745 17.3333C14.3594 17.3331 14.9256 17.1279 15.3748 16.7533C15.824 16.3788 16.1276 15.8586 16.2329 15.2833L17.2912 9.44998C17.3571 9.08961 17.3431 8.71916 17.25 8.36483C17.1569 8.0105 16.9871 7.68096 16.7526 7.39952C16.5181 7.11808 16.2245 6.89163 15.8928 6.73618C15.5611 6.58074 15.1992 6.5001 14.8329 6.49998L11.0329 6.49998L11.4995 5.30831C11.6936 4.78655 11.7583 4.22548 11.6879 3.67325C11.6176 3.12101 11.4143 2.59408 11.0955 2.13767C10.7768 1.68126 10.3521 1.30898 9.85782 1.05276C9.36358 0.796554 8.81456 0.664059 8.25786 0.666646C8.09756 0.66698 7.94076 0.713542 7.80626 0.800748C7.67175 0.887955 7.56525 1.0121 7.49953 1.15831L5.12453 6.49998L3.1662 6.49998C2.50316 6.49998 1.86727 6.76337 1.39843 7.23221C0.929588 7.70105 0.666196 8.33694 0.666196 8.99998L0.666196 14.8333C0.666196 15.4964 0.929587 16.1322 1.39843 16.6011C1.86727 17.0699 2.50315 17.3333 3.1662 17.3333ZM6.49953 7.50831L8.7662 2.40831C8.99812 2.47848 9.21322 2.5954 9.39825 2.75185C9.58327 2.90831 9.73431 3.10099 9.84205 3.31802C9.94978 3.53506 10.0119 3.77186 10.0247 4.01383C10.0374 4.2558 10.0005 4.49782 9.9162 4.72498L9.47453 5.91665C9.38042 6.16853 9.34865 6.43944 9.38193 6.70625C9.4152 6.97307 9.51255 7.22788 9.66564 7.44893C9.81874 7.66998 10.023 7.8507 10.2611 7.97568C10.4992 8.10066 10.764 8.16618 11.0329 8.16665L14.8329 8.16665C14.9553 8.16645 15.0763 8.19323 15.1872 8.24508C15.2981 8.29693 15.3962 8.37258 15.4745 8.46665C15.5548 8.55942 15.6136 8.66877 15.6467 8.78689C15.6799 8.90501 15.6865 9.02899 15.6662 9.14998L14.6079 14.9833C14.5724 15.1774 14.4691 15.3527 14.3165 15.4778C14.1639 15.6029 13.9719 15.6699 13.7745 15.6666L6.49953 15.6666L6.49953 7.50831ZM2.33286 8.99998C2.33286 8.77896 2.42066 8.567 2.57694 8.41072C2.73322 8.25444 2.94518 8.16665 3.1662 8.16665L4.83286 8.16665L4.83286 15.6666L3.1662 15.6666C2.94518 15.6666 2.73322 15.5788 2.57694 15.4226C2.42066 15.2663 2.33286 15.0543 2.33286 14.8333L2.33286 8.99998Z" fill="#5C5C5C"/>
</svg>
