<svg width="20" height="20" viewBox="0 0 20 20" fill="none" xmlns="http://www.w3.org/2000/svg">
<path d="M18.4705 -1.27571e-05H1.53055C1.34013 -0.00265738 1.15105 0.0322347 0.974113 0.102671C0.797177 0.173107 0.63585 0.277708 0.499344 0.410499C0.362839 0.543291 0.253828 0.701672 0.178539 0.876597C0.103249 1.05152 0.0631553 1.23957 0.0605469 1.42999V18.57C0.0631553 18.7604 0.103249 18.9485 0.178539 19.1234C0.253828 19.2983 0.362839 19.4567 0.499344 19.5895C0.63585 19.7223 0.797177 19.8269 0.974113 19.8973C1.15105 19.9677 1.34013 20.0026 1.53055 20H18.4705C18.661 20.0026 18.85 19.9677 19.027 19.8973C19.2039 19.8269 19.3652 19.7223 19.5017 19.5895C19.6383 19.4567 19.7473 19.2983 19.8226 19.1234C19.8978 18.9485 19.9379 18.7604 19.9405 18.57V1.42999C19.9379 1.23957 19.8978 1.05152 19.8226 0.876597C19.7473 0.701672 19.6383 0.543291 19.5017 0.410499C19.3652 0.277708 19.2039 0.173107 19.027 0.102671C18.85 0.0322347 18.661 -0.00265738 18.4705 -1.27571e-05ZM6.09055 16.74H3.09055V7.73999H6.09055V16.74ZM4.59055 6.47999C4.17681 6.47999 3.78002 6.31563 3.48746 6.02307C3.1949 5.73052 3.03055 5.33372 3.03055 4.91999C3.03055 4.50625 3.1949 4.10946 3.48746 3.8169C3.78002 3.52434 4.17681 3.35999 4.59055 3.35999C4.81024 3.33507 5.03272 3.35684 5.24342 3.42387C5.45412 3.4909 5.64829 3.60168 5.8132 3.74895C5.97812 3.89622 6.11007 4.07667 6.20042 4.27847C6.29076 4.48027 6.33746 4.69888 6.33746 4.91999C6.33746 5.14109 6.29076 5.3597 6.20042 5.5615C6.11007 5.76331 5.97812 5.94375 5.8132 6.09103C5.64829 6.2383 5.45412 6.34907 5.24342 6.4161C5.03272 6.48313 4.81024 6.5049 4.59055 6.47999ZM16.9105 16.74H13.9105V11.91C13.9105 10.7 13.4805 9.90999 12.3905 9.90999C12.0532 9.91246 11.7247 10.0183 11.4494 10.2132C11.174 10.4081 10.965 10.6827 10.8505 11C10.7723 11.235 10.7384 11.4826 10.7505 11.73V16.73H7.75055C7.75055 16.73 7.75055 8.54999 7.75055 7.72999H10.7505V8.99999C11.0231 8.52709 11.4195 8.13751 11.897 7.87319C12.3745 7.60887 12.9151 7.47984 13.4605 7.49999C15.4605 7.49999 16.9105 8.78999 16.9105 11.56V16.74Z" fill="#5A4596"/>
</svg>
